<?xml version="1.0" encoding="iso-8859-1"?>
<!-- Generator: Adobe Illustrator 17.0.0, SVG Export Plug-In . SVG Version: 6.00 Build 0)  -->
<!DOCTYPE svg PUBLIC "-//W3C//DTD SVG 1.1//EN" "http://www.w3.org/Graphics/SVG/1.1/DTD/svg11.dtd">
<svg version="1.1" id="Capa_1" xmlns="http://www.w3.org/2000/svg" xmlns:xlink="http://www.w3.org/1999/xlink" x="0px" y="0px"
	 width="64px" height="64px" viewBox="0 0 64 64" style="enable-background:new 0 0 64 64;" xml:space="preserve">
<path d="M46.623,41.939c-0.56,0.495-1.14,0.96-1.43,1.043c-0.656,0.188-2.345-1.407-2.813-0.844
	c-0.469,0.562-1.782,1.688-2.627,0.469c-0.844-1.22-1.662-0.222-2.144,0.546c-0.482,0.767-1.101,0.767-2.386-0.546
	c-1.286-1.313-2.317-0.117-3.349,1.066c-1.032,1.185-1.407-0.316-2.44-1.16c-1.031-0.845-1.406,1.885-2.062,1.599
	c-0.657-0.286-1.877-2.35-2.721-2.35c-0.457,0-1.488,0.939-2.282,1.312l0.837-26.265c1,0.116,2.035,0.289,2.571,0.66
	c1.22,0.844,1.97-1.313,3.845,0c1.877,1.312,2.252-1.097,3.846,0.202c1.595,1.298,1.498-0.879,3.377,0.203
	c0.354,0.204,0.661,0.339,0.927,0.424L46.623,41.939z"/>
<path d="M13.133,14.082l-0.039,1.513h-5.98V41.95h5.317l-0.079,3.135l8.877,0.224l0.779-31.004L13.133,14.082z M16.398,39.699
	c-1.088,0-1.969-0.881-1.969-1.97c0-1.088,0.881-1.97,1.969-1.97s1.97,0.882,1.97,1.97C18.368,38.818,17.486,39.699,16.398,39.699z
	 M16.398,30.915c-1.088,0-1.969-0.882-1.969-1.97c0-1.088,0.881-1.97,1.969-1.97s1.97,0.882,1.97,1.97
	C18.368,30.033,17.486,30.915,16.398,30.915z M16.398,22.066c-1.088,0-1.969-0.882-1.969-1.97s0.881-1.97,1.969-1.97
	s1.97,0.882,1.97,1.97S17.486,22.066,16.398,22.066z"/>
<path d="M60.336,30.462l-4.808-12.721c-0.863-2.284-2.884-3.818-5.026-3.818c-0.525,0-1.038,0.093-1.525,0.277l-2.235,0.845
	l-0.814-2.18l-8.317,3.106l10.853,29.055l8.317-3.107l-1.341-3.59l2.324-0.877C60.276,36.499,61.431,33.364,60.336,30.462z
	 M56.967,35.345L54.65,36.22l-7.122-19.066l2.244-0.848c0.231-0.088,0.477-0.132,0.73-0.132c1.193,0,2.394,0.972,2.92,2.362
	l4.808,12.721C58.888,32.998,58.32,34.833,56.967,35.345z"/>
</svg>
