<?xml version="1.0" encoding="iso-8859-1"?>
<!-- Generator: Adobe Illustrator 17.0.0, SVG Export Plug-In . SVG Version: 6.00 Build 0)  -->
<!DOCTYPE svg PUBLIC "-//W3C//DTD SVG 1.1//EN" "http://www.w3.org/Graphics/SVG/1.1/DTD/svg11.dtd">
<svg version="1.1" id="Capa_1" xmlns="http://www.w3.org/2000/svg" xmlns:xlink="http://www.w3.org/1999/xlink" x="0px" y="0px"
	 width="64px" height="64px" viewBox="0 0 64 64" style="enable-background:new 0 0 64 64;" xml:space="preserve">
<path d="M8.286,40.054l3.466,16.151c0,0,0.489,2.072,4.235,2.072c3.746,0,6.515,0,6.515,0l-1.387-6.208
	c1.068-0.495,1.689-1.678,1.426-2.875l-1.043-4.746c-0.266-1.209-1.344-2.03-2.536-2.015l-0.421-1.886h12.826l21.53,11.82
	c4.663,0,8.443-3.78,8.443-8.443V11.417c0-4.663-3.78-8.443-8.443-8.443l-21.53,13.509H11.103c-4.663,0-8.443,3.78-8.443,8.443
	v7.177C2.66,35.776,5.01,38.892,8.286,40.054z"/>
</svg>
