<?xml version="1.0" encoding="iso-8859-1"?>
<!-- Generator: Adobe Illustrator 17.0.0, SVG Export Plug-In . SVG Version: 6.00 Build 0)  -->
<!DOCTYPE svg PUBLIC "-//W3C//DTD SVG 1.1//EN" "http://www.w3.org/Graphics/SVG/1.1/DTD/svg11.dtd">
<svg version="1.1" id="Capa_1" xmlns="http://www.w3.org/2000/svg" xmlns:xlink="http://www.w3.org/1999/xlink" x="0px" y="0px"
	 width="64px" height="64px" viewBox="0 0 64 64" style="enable-background:new 0 0 64 64;" xml:space="preserve">
<path d="M30.134,3.51c-14.989,0-27.139,12.15-27.139,27.139c0,14.988,12.149,27.139,27.139,27.139
	c14.988,0,27.139-12.15,27.139-27.139C57.272,15.66,45.122,3.51,30.134,3.51z M30.134,43.779c-7.241,0-13.132-5.891-13.132-13.131
	c0-7.242,5.891-13.133,13.132-13.133c7.241,0,13.132,5.891,13.132,13.133C43.266,37.889,37.375,43.779,30.134,43.779z
	 M50.308,32.148c-0.829,0-1.5-0.672-1.5-1.5c0-4.275-1.401-8.304-4.052-11.648c-3.587-4.525-8.951-7.121-14.718-7.121
	c-6.027,0-11.729,2.927-15.252,7.828c-0.482,0.673-1.42,0.826-2.094,0.343c-0.672-0.483-0.826-1.42-0.343-2.093
	c4.085-5.685,10.697-9.078,17.688-9.078c6.688,0,12.91,3.01,17.069,8.258c3.075,3.881,4.7,8.553,4.7,13.512
	C51.808,31.477,51.136,32.148,50.308,32.148z"/>
<path d="M30.134,21.018c-5.31,0-9.63,4.322-9.63,9.631s4.32,9.629,9.63,9.629s9.63-4.32,9.63-9.629S35.443,21.018,30.134,21.018z
	 M30.134,35.463c-2.659,0-4.815-2.156-4.815-4.814s2.156-4.814,4.815-4.814c2.659,0,4.815,2.156,4.815,4.814
	S32.793,35.463,30.134,35.463z"/>
</svg>
