<?xml version="1.0" encoding="iso-8859-1"?>
<!-- Generator: Adobe Illustrator 17.0.0, SVG Export Plug-In . SVG Version: 6.00 Build 0)  -->
<!DOCTYPE svg PUBLIC "-//W3C//DTD SVG 1.1//EN" "http://www.w3.org/Graphics/SVG/1.1/DTD/svg11.dtd">
<svg version="1.1" id="Capa_1" xmlns="http://www.w3.org/2000/svg" xmlns:xlink="http://www.w3.org/1999/xlink" x="0px" y="0px"
	 width="64px" height="64px" viewBox="0 0 64 64" style="enable-background:new 0 0 64 64;" xml:space="preserve">
<path d="M53.7,21.187h-2.274C50.502,13.18,43.75,6.729,35.852,6.729h-6.846c-7.899,0-14.65,6.45-15.574,14.457h-2.275
	c-4.775,0-8.809,3.896-8.809,8.507v3.254c0,4.218,3.378,7.829,7.609,8.415c1.663,4.094,5.202,7.219,9.805,7.81
	c9.265,1.189,20.601-3.876,28.921,1.141c0.337,0.905,1.215,1.992,2.446,2.913c1.099,0.823,2.239,1.327,3.158,1.476
	c0.069,0.151,0.175,0.294,0.334,0.411c1.061,0.782,1.8,2.028,2.165,3.277c0.362,1.235,2.292,0.709,1.929-0.532
	c-0.463-1.582-1.372-2.985-2.611-4.057c0.096-0.991-0.913-2.533-2.577-3.778c-1.441-1.078-2.958-1.623-3.941-1.511
	c-4.233-2.503-8.922-2.479-14.381-2.147c-7.881,0.479-19.085,3.385-23.049-4.911h5.161v-9.654v-8.747
	c0-3.298,1.308-6.34,3.392-8.579c0.263,0.096,0.543,0.157,0.84,0.157H43.31c0.296,0,0.577-0.061,0.84-0.157
	c2.084,2.238,3.392,5.28,3.392,8.579v8.747v9.654H53.7c4.775,0,8.809-3.896,8.809-8.508v-3.254
	C62.509,25.082,58.475,21.187,53.7,21.187z M13.315,37.455h-2.158c-2.562,0-4.809-2.106-4.809-4.508v-3.254
	c0-2.4,2.247-4.507,4.809-4.507h2.158v6.614V37.455z M58.509,32.947c0,2.401-2.247,4.508-4.809,4.508h-2.157v-5.654v-6.614H53.7
	c2.562,0,4.809,2.106,4.809,4.507V32.947z"/>
</svg>
