<?xml version="1.0" encoding="iso-8859-1"?>
<!-- Generator: Adobe Illustrator 17.0.0, SVG Export Plug-In . SVG Version: 6.00 Build 0)  -->
<!DOCTYPE svg PUBLIC "-//W3C//DTD SVG 1.1//EN" "http://www.w3.org/Graphics/SVG/1.1/DTD/svg11.dtd">
<svg version="1.1" id="Capa_1" xmlns="http://www.w3.org/2000/svg" xmlns:xlink="http://www.w3.org/1999/xlink" x="0px" y="0px"
	 width="64px" height="64px" viewBox="0 0 64 64" style="enable-background:new 0 0 64 64;" xml:space="preserve">
<g>
	<path d="M48.007,18.072c0.862-0.544,2.294-1.023,4.081-0.017c0,0,5.579-9.228,9.385-10.508c2.954-0.994-1.626-1.723-3.824-2
		c-0.277-2.198-1.006-6.778-2-3.824c-1.28,3.806-10.508,9.385-10.508,9.385c1.558,2.767-0.445,4.692-0.735,4.95l-0.037,0.032
		l0.057,0.057l-7.905,6.838c-1.437,0.205-6.705,0.46-1.812-7.96c5.615-9.663-4.766-4.113-7.378,2.024
		c-2.612,6.138-6.66,12.144-11.1,13.32c-3.079,0.815-6.633,1.963-8.846,2.925c-0.263,0.107-0.521,0.223-0.768,0.356
		c-0.58,0.286-1.014,0.548-1.224,0.767l0.031,0.031c-0.197,0.16-0.388,0.326-0.57,0.508C0.626,39.184,2.285,47.698,8.56,53.973
		s14.147,10.132,18.375,5.904c1.323-1.323,2.133-3.282,2.428-5.541c0.013-0.098,0.018-0.201,0.029-0.3
		c0.498-2.968,2.287-10.865,7.407-12.501c6.333-2.024,6.595-3.722,1.763-5.158c-4.651-1.383-5.599-2.075-2.461-8.006L48.007,18.072z
		"/>
</g>
</svg>
