<?xml version="1.0" encoding="iso-8859-1"?>
<!-- Generator: Adobe Illustrator 17.0.0, SVG Export Plug-In . SVG Version: 6.00 Build 0)  -->
<!DOCTYPE svg PUBLIC "-//W3C//DTD SVG 1.1//EN" "http://www.w3.org/Graphics/SVG/1.1/DTD/svg11.dtd">
<svg version="1.1" id="Capa_1" xmlns="http://www.w3.org/2000/svg" xmlns:xlink="http://www.w3.org/1999/xlink" x="0px" y="0px"
	 width="64px" height="64px" viewBox="0 0 64 64" style="enable-background:new 0 0 64 64;" xml:space="preserve">
<g>
	<path d="M48.605,33.783c-3.207,0-5.816,2.609-5.816,5.816c0,3.207,2.609,5.816,5.816,5.816c3.207,0,5.816-2.609,5.816-5.816
		C54.422,36.392,51.812,33.783,48.605,33.783z M48.605,44.558c-2.734,0-4.958-2.224-4.958-4.958c0-2.734,2.224-4.958,4.958-4.958
		c2.734,0,4.959,2.224,4.959,4.958C53.564,42.333,51.34,44.558,48.605,44.558z"/>
	<path d="M14.673,45.416c3.208,0,5.816-2.609,5.816-5.816c0-3.207-2.608-5.816-5.816-5.816c-3.207,0-5.816,2.609-5.816,5.816
		C8.857,42.806,11.466,45.416,14.673,45.416z M14.673,34.641c2.734,0,4.959,2.224,4.959,4.958c0,2.734-2.225,4.958-4.959,4.958
		c-2.733,0-4.958-2.224-4.958-4.958C9.715,36.865,11.939,34.641,14.673,34.641z"/>
	<rect x="28.905" y="38.876" width="4.718" height="1.447"/>
	<circle cx="35.794" cy="39.572" r="0.965"/>
	<circle cx="26.842" cy="39.572" r="0.965"/>
	<circle cx="14.673" cy="39.599" r="1.796"/>
	<circle cx="48.605" cy="39.599" r="1.796"/>
	<path d="M8.724,50.454c0,0.474,0.384,0.858,0.857,0.858h5.039c0.474,0,0.857-0.384,0.857-0.858v-0.919h32.967v0.919
		c0,0.474,0.385,0.858,0.858,0.858h5.038c0.475,0,0.858-0.384,0.858-0.858v-0.919h2.305V28.798H55.36v-5.093
		c0-1.3-1.059-2.358-2.359-2.358h-2.538l4.307-7.85c0.527-0.028,0.948-0.461,0.948-0.996c0-0.552-0.448-1-1.001-1
		s-1.001,0.448-1.001,1c0,0.256,0.1,0.487,0.257,0.664l-4.488,8.181H10.438c-1.301,0-2.358,1.058-2.358,2.358v5.093H6.043v20.737
		h2.681V50.454z M36.33,43.593H26.198v-0.584l1.167-0.542h7.798l1.167,0.542V43.593z M39.037,43.593h-1.85v-1.131l-1.835-0.852
		h-8.177l-1.835,0.852v1.131h-1.85v-8.041h15.546V43.593z M54.931,34.587c0,0.51-0.398,0.924-0.899,0.958
		c0.847,1.131,1.354,2.532,1.354,4.054c0,1.698-0.628,3.246-1.66,4.436c0.044-0.006,0.087-0.014,0.132-0.014
		c0.533,0,0.966,0.433,0.966,0.965c0,0.533-0.433,0.965-0.966,0.965c-0.532,0-0.965-0.432-0.965-0.965
		c0-0.05,0.008-0.099,0.016-0.147c-1.171,0.962-2.67,1.541-4.304,1.541c-1.634,0-3.133-0.579-4.303-1.541
		c0.007,0.048,0.015,0.097,0.015,0.147c0,0.533-0.433,0.965-0.965,0.965c-0.533,0-0.965-0.432-0.965-0.965
		c0-0.532,0.432-0.965,0.965-0.965c0.045,0,0.088,0.007,0.132,0.014c-1.032-1.19-1.66-2.738-1.66-4.436
		c0-1.692,0.624-3.236,1.649-4.424c-0.005,0-0.01,0.001-0.014,0.001c-0.533,0-0.966-0.432-0.966-0.965s0.433-0.965,0.966-0.965
		c0.532,0,0.965,0.432,0.965,0.965c0,0.021-0.006,0.04-0.006,0.06c1.152-0.908,2.604-1.454,4.187-1.454
		c1.686,0,3.224,0.618,4.409,1.635c0.065-0.469,0.465-0.832,0.951-0.832C54.499,33.622,54.931,34.054,54.931,34.587z M49.757,22.633
		h3.244c0.592,0,1.072,0.481,1.072,1.072v5.039h-4.396v-0.188c0-0.459-0.384-0.831-0.857-0.831h-1.087L49.389,24l-0.307-0.137
		L49.757,22.633z M9.366,23.705c0-0.591,0.481-1.072,1.072-1.072h38.34l-0.483,0.88l-0.473-0.211l-1.966,4.422h-2.504
		c-0.474,0-0.858,0.372-0.858,0.831c0,0.065,0,0.127,0,0.188h-13.99V27.94c0-0.474-0.385-0.857-0.858-0.857h-1.607
		c-0.474,0-0.858,0.384-0.858,0.857v0.804h-0.911V27.94c0-0.474-0.384-0.857-0.858-0.857h-1.608c-0.474,0-0.857,0.384-0.857,0.857
		v0.804h-0.911V27.94c0-0.474-0.385-0.857-0.858-0.857h-1.607c-0.474,0-0.858,0.384-0.858,0.857v0.804h-0.911V27.94
		c0-0.474-0.384-0.857-0.857-0.857h-1.608c-0.474,0-0.857,0.384-0.857,0.857v0.804H9.366V23.705z M8.455,44.986
		c0-0.532,0.433-0.965,0.965-0.965c0.045,0,0.089,0.007,0.132,0.014c-1.031-1.19-1.659-2.738-1.659-4.436
		c0-1.692,0.624-3.236,1.648-4.424c-0.005,0-0.009,0.001-0.014,0.001c-0.533,0-0.965-0.432-0.965-0.965s0.432-0.965,0.965-0.965
		c0.532,0,0.965,0.432,0.965,0.965c0,0.021-0.005,0.04-0.006,0.06c1.153-0.908,2.605-1.454,4.187-1.454
		c1.686,0,3.224,0.618,4.409,1.635c0.066-0.469,0.465-0.832,0.952-0.832c0.532,0,0.965,0.432,0.965,0.965
		c0,0.51-0.397,0.924-0.899,0.958c0.848,1.131,1.354,2.532,1.354,4.054c0,1.698-0.628,3.246-1.659,4.436
		c0.043-0.006,0.087-0.014,0.132-0.014c0.532,0,0.965,0.433,0.965,0.965c0,0.533-0.433,0.965-0.965,0.965
		c-0.533,0-0.965-0.432-0.965-0.965c0-0.05,0.008-0.099,0.015-0.147c-1.171,0.962-2.669,1.541-4.304,1.541
		c-1.634,0-3.132-0.579-4.303-1.541c0.007,0.048,0.015,0.097,0.015,0.147c0,0.533-0.432,0.965-0.965,0.965
		C8.888,45.952,8.455,45.52,8.455,44.986z"/>
</g>
</svg>
