<?xml version="1.0" encoding="iso-8859-1"?>
<!-- Generator: Adobe Illustrator 17.0.0, SVG Export Plug-In . SVG Version: 6.00 Build 0)  -->
<!DOCTYPE svg PUBLIC "-//W3C//DTD SVG 1.1//EN" "http://www.w3.org/Graphics/SVG/1.1/DTD/svg11.dtd">
<svg version="1.1" id="Capa_1" xmlns="http://www.w3.org/2000/svg" xmlns:xlink="http://www.w3.org/1999/xlink" x="0px" y="0px"
	 width="64px" height="64px" viewBox="0 0 64 64" style="enable-background:new 0 0 64 64;" xml:space="preserve">
<g>
	<path d="M54.5,4.882c0-1.657-1.343-3-3-3h-39c-1.657,0-3,1.343-3,3v57.236h45V4.882z M51.5,59.118h-39V4.882h39V59.118z"/>
	<circle cx="32" cy="25" r="6.986"/>
	<path d="M19.898,42.341l3.78-2.943c2.452,1.423,5.289,2.251,8.323,2.251s5.871-0.828,8.323-2.251l3.78,2.943l5.239-5.239
		l-2.943-3.78c1.423-2.452,2.251-5.289,2.251-8.323c0-3.033-0.828-5.871-2.251-8.323l2.943-3.78l-5.239-5.239l-3.78,2.943
		C37.871,9.179,35.033,8.351,32,8.351s-5.871,0.828-8.323,2.251l-3.78-2.943l-5.239,5.239l2.943,3.78
		c-1.423,2.452-2.251,5.289-2.251,8.323c0,3.033,0.828,5.871,2.251,8.323l-2.943,3.78L19.898,42.341z M19.636,38.911
		c-0.147,0-0.287-0.027-0.422-0.066l1.573-1.573l0.331-0.331c0.038,0.135,0.066,0.275,0.066,0.422c0,0.085-0.012,0.166-0.025,0.247
		C21.041,38.347,20.407,38.911,19.636,38.911z M44.364,38.911c-0.147,0-0.287-0.027-0.422-0.066l1.904-1.904
		c0.038,0.135,0.066,0.275,0.066,0.422C45.912,38.218,45.218,38.911,44.364,38.911z M44.785,35.881l-1.904,1.904
		c-0.016-0.058-0.031-0.115-0.041-0.175c-0.013-0.081-0.025-0.162-0.025-0.247c0-0.855,0.693-1.548,1.548-1.548
		c0.085,0,0.166,0.012,0.247,0.025C44.67,35.85,44.728,35.865,44.785,35.881z M44.364,14.185c-0.147,0-0.287-0.027-0.422-0.066
		l0.331-0.331l1.574-1.574c0.038,0.135,0.066,0.275,0.066,0.422c0,0.77-0.564,1.404-1.301,1.523
		C44.529,14.173,44.448,14.185,44.364,14.185z M44.364,11.088c0.147,0,0.287,0.027,0.422,0.066l-1.574,1.574l-0.331,0.331
		c-0.038-0.135-0.066-0.275-0.066-0.422c0-0.085,0.012-0.166,0.025-0.247C42.959,11.653,43.593,11.088,44.364,11.088z M43.649,25
		c0,6.423-5.226,11.649-11.649,11.649S20.351,31.423,20.351,25S25.577,13.351,32,13.351S43.649,18.577,43.649,25z M19.636,11.088
		c0.147,0,0.287,0.027,0.422,0.066l-1.904,1.904c-0.038-0.135-0.066-0.275-0.066-0.422C18.088,11.782,18.782,11.088,19.636,11.088z
		 M19.215,14.119l1.904-1.904c0.016,0.058,0.031,0.115,0.041,0.175c0.013,0.081,0.025,0.162,0.025,0.247
		c0,0.855-0.693,1.548-1.548,1.548c-0.085,0-0.166-0.012-0.247-0.025C19.33,14.15,19.272,14.135,19.215,14.119z M19.636,35.815
		c0.147,0,0.287,0.027,0.422,0.066l-0.331,0.331l-1.574,1.574c-0.038-0.135-0.066-0.275-0.066-0.422c0-0.77,0.564-1.404,1.301-1.523
		C19.471,35.827,19.552,35.815,19.636,35.815z"/>
	<path d="M43.167,49.5H20.833c-2.025,0-3.667,1.642-3.667,3.667c0,2.025,1.642,3.667,3.667,3.667h22.333
		c2.025,0,3.667-1.642,3.667-3.667C46.833,51.142,45.192,49.5,43.167,49.5z"/>
</g>
</svg>
