<?xml version="1.0" encoding="iso-8859-1"?>
<!-- Generator: Adobe Illustrator 17.0.0, SVG Export Plug-In . SVG Version: 6.00 Build 0)  -->
<!DOCTYPE svg PUBLIC "-//W3C//DTD SVG 1.1//EN" "http://www.w3.org/Graphics/SVG/1.1/DTD/svg11.dtd">
<svg version="1.1" id="Capa_1" xmlns="http://www.w3.org/2000/svg" xmlns:xlink="http://www.w3.org/1999/xlink" x="0px" y="0px"
	 width="64px" height="64px" viewBox="0 0 64 64" style="enable-background:new 0 0 64 64;" xml:space="preserve">
<g>
	<path d="M56.261,13.023c-3.22,3.809-11.359,10.639-28.062,10.091H11.553C7.382,23.114,4,26.497,4,30.667v1.888
		c0,4.172,3.382,7.553,7.553,7.553h4.131l8.777,14.443c0.866,1.426,2.781,1.983,4.278,1.245l3.642-1.797
		c1.497-0.736,2.005-2.489,1.137-3.914l-6.092-9.978h0.771c16.703-0.547,24.843,6.282,28.062,10.092
		C57.338,51.474,58,51.312,58,49.643V13.58C58,11.911,57.338,11.749,56.261,13.023z M18.979,34.852h-7.931
		c-0.625,0-1.133-0.507-1.133-1.133c0-0.625,0.508-1.133,1.133-1.133h7.931c0.626,0,1.133,0.508,1.133,1.133
		C20.112,34.345,19.605,34.852,18.979,34.852z M18.979,29.817h-7.931c-0.625,0-1.133-0.507-1.133-1.133
		c0-0.625,0.508-1.133,1.133-1.133h7.931c0.626,0,1.133,0.508,1.133,1.133C20.112,29.31,19.605,29.817,18.979,29.817z"/>
</g>
</svg>
