<?xml version="1.0" encoding="iso-8859-1"?>
<!-- Generator: Adobe Illustrator 17.0.0, SVG Export Plug-In . SVG Version: 6.00 Build 0)  -->
<!DOCTYPE svg PUBLIC "-//W3C//DTD SVG 1.1//EN" "http://www.w3.org/Graphics/SVG/1.1/DTD/svg11.dtd">
<svg version="1.1" id="Capa_1" xmlns="http://www.w3.org/2000/svg" xmlns:xlink="http://www.w3.org/1999/xlink" x="0px" y="0px"
	 width="64px" height="64px" viewBox="0 0 64 64" style="enable-background:new 0 0 64 64;" xml:space="preserve">
<g>
	<path d="M55.472,37.248c-2.501-2.046-4.528-3.704-4.528-3.704l-4.734-6.286c-2.326-3.088-7.345-5.592-11.211-5.592h-8.813
		c0,1.019,0,2.14-0.001,3.335h7.408c0,0,5.494,0.5,7.973,3c2.479,2.5,4.099,6,4.099,6l-19.483,0.185
		c-0.002,4.589-0.006,9.013-0.012,11.815h5.934c0,0,5.519,0,7.298,2.212c1.832,2.278,1.752,4.424,1.752,4.424l-15.356,0.117
		c-0.15,0.873-0.348,1.62-0.593,2.246H49v4.125c0,1.657,1.621,3,3.62,3h4.676c1.999,0,3.62-1.343,3.62-3v-7
		c0-0.796-0.352-1.514-0.917-2.051v-2.122C60,44.086,57.973,39.294,55.472,37.248z M48.083,45.519c-3.268,0-7.917,0.7-7.917-0.903
		c0-1.604,4.649-4.903,7.917-4.903c3.268,0,5.917,1.3,5.917,2.903C54,44.219,51.351,45.519,48.083,45.519z"/>
	<path d="M13.688,60.682c4.061,0,7.576-2.308,9.322-5.682c0.081-0.156,0.162-0.311,0.235-0.471c0.224-0.493,0.391-1.103,0.52-1.76
		c0.332-1.685,0.398-3.711,0.402-5.1c0.002-0.455,0.003-1.025,0.004-1.669c0.006-2.802,0.009-7.213,0.012-11.796
		c0.002-3.151,0.003-6.372,0.003-9.204c0-1.195,0-2.316,0.001-3.335c0-3.2,0.001-5.36,0.001-5.36
		c13.567,0,28.752,7.129,27.165,11.797c-0.359,1.057-0.387,1.605-0.095,1.605c0.213,0,0.598-0.292,1.149-0.893
		C68.963,10.783,29.914,5.922,20.759,4.365c-0.185-0.031-0.366-0.047-0.544-0.047c-1.648,0-2.918,1.312-2.918,3.056V25v9.269v6.063
		c-1.127-0.413-2.339-0.65-3.609-0.65c-5.799,0-10.5,4.701-10.5,10.5C3.188,55.981,7.889,60.682,13.688,60.682z"/>
</g>
</svg>
