<?xml version="1.0" encoding="iso-8859-1"?>
<!-- Generator: Adobe Illustrator 17.0.0, SVG Export Plug-In . SVG Version: 6.00 Build 0)  -->
<!DOCTYPE svg PUBLIC "-//W3C//DTD SVG 1.1//EN" "http://www.w3.org/Graphics/SVG/1.1/DTD/svg11.dtd">
<svg version="1.1" id="Capa_1" xmlns="http://www.w3.org/2000/svg" xmlns:xlink="http://www.w3.org/1999/xlink" x="0px" y="0px"
	 width="64px" height="64px" viewBox="0 0 64 64" style="enable-background:new 0 0 64 64;" xml:space="preserve">
<path d="M47.928,14.705H16.029c-5.939,0-10.752,4.814-10.752,10.753v10.036c0,5.448,4.062,9.9,9.316,10.608v-3.081
	c0-1.188,0.963-2.15,2.152-2.15c1.188,0,2.15,0.962,2.15,2.15v3.226h26.166v-3.226c0-1.188,0.963-2.15,2.152-2.15
	c1.188,0,2.15,0.962,2.15,2.15v3.081c5.252-0.708,9.314-5.16,9.314-10.608V25.458C58.68,19.519,53.867,14.705,47.928,14.705z
	 M21.412,35.452c-2.453,0-4.441-1.989-4.441-4.442c0-2.451,1.988-4.441,4.441-4.441c2.451,0,4.44,1.991,4.44,4.441
	C25.852,33.463,23.863,35.452,21.412,35.452z M42.545,35.452c-2.451,0-4.439-1.989-4.439-4.442c0-2.451,1.988-4.441,4.439-4.441
	c2.453,0,4.441,1.991,4.441,4.441C46.986,33.463,44.998,35.452,42.545,35.452z M47.1,23.215H16.857v-4.838H47.1V23.215z"/>
</svg>
