<?xml version="1.0" encoding="iso-8859-1"?>
<!-- Generator: Adobe Illustrator 17.0.0, SVG Export Plug-In . SVG Version: 6.00 Build 0)  -->
<!DOCTYPE svg PUBLIC "-//W3C//DTD SVG 1.1//EN" "http://www.w3.org/Graphics/SVG/1.1/DTD/svg11.dtd">
<svg version="1.1" id="Capa_1" xmlns="http://www.w3.org/2000/svg" xmlns:xlink="http://www.w3.org/1999/xlink" x="0px" y="0px"
	 width="64px" height="64px" viewBox="0 0 64 64" style="enable-background:new 0 0 64 64;" xml:space="preserve">
<path d="M54.44,12.054H10.297c-3.138,0-5.683,2.544-5.683,5.683v24.252c0,3.138,2.544,5.683,5.683,5.683h2
	c0-0.104-0.005-0.207,0.025-0.312l2.29-8.019c0.14-0.488,0.585-0.824,1.093-0.824h33.742c0.528,0,0.987,0.363,1.106,0.877
	l1.875,8.019c0.021,0.088,0.008,0.172,0.008,0.259h2.003c3.138,0,5.683-2.544,5.683-5.683V17.737
	C60.123,14.599,57.578,12.054,54.44,12.054z M8.952,35.581V22.585h4.667c-1.129,1.597-1.793,3.545-1.793,5.65
	c0,2.925,1.283,5.55,3.316,7.345H8.952z M21.62,33.886c-3.121,0-5.651-2.53-5.651-5.65c0-3.121,2.53-5.65,5.651-5.65
	c3.12,0,5.651,2.529,5.651,5.65C27.271,31.356,24.74,33.886,21.62,33.886z M28.099,35.581c2.033-1.796,3.315-4.42,3.315-7.345
	c0-2.104-0.663-4.054-1.794-5.65h5.497c-1.129,1.597-1.793,3.545-1.793,5.65c0,2.925,1.283,5.55,3.316,7.345H28.099z M43.118,33.886
	c-3.12,0-5.651-2.53-5.651-5.65c0-3.121,2.531-5.65,5.651-5.65c3.121,0,5.651,2.529,5.651,5.65
	C48.769,31.356,46.239,33.886,43.118,33.886z M10.238,19.565v-3.014H54.5v3.014H10.238z M55.786,35.581h-6.189
	c2.033-1.796,3.315-4.42,3.315-7.345c0-2.104-0.663-4.054-1.793-5.65h4.667V35.581z"/>
<path d="M22.395,24.355c-0.082-0.045-0.171-0.078-0.271-0.078c-0.06,0-0.114,0.017-0.168,0.034
	c-0.112-0.009-0.221-0.034-0.335-0.034c-2.183,0-3.958,1.776-3.958,3.958c0,2.183,1.776,3.958,3.958,3.958
	c2.183,0,3.959-1.775,3.959-3.958C25.579,26.318,24.208,24.717,22.395,24.355z M24.442,28.236c0,0.287-0.056,0.56-0.136,0.821
	l-0.93-0.537c-0.272-0.157-0.619-0.064-0.776,0.208c-0.157,0.272-0.064,0.619,0.208,0.776l0.952,0.55
	c-0.401,0.471-0.944,0.817-1.571,0.946v-1.137c0-0.314-0.254-0.568-0.568-0.568c-0.314,0-0.568,0.254-0.568,0.568V31
	c-0.628-0.129-1.171-0.475-1.572-0.947l0.951-0.549c0.272-0.157,0.365-0.504,0.208-0.776c-0.157-0.272-0.506-0.365-0.776-0.208
	l-0.928,0.536c-0.08-0.262-0.136-0.534-0.136-0.82c0-0.333,0.068-0.648,0.175-0.945l0.89,0.514c0.089,0.051,0.187,0.076,0.283,0.076
	c0.197,0,0.388-0.102,0.493-0.284c0.157-0.272,0.063-0.62-0.208-0.776l-0.87-0.502c0.501-0.538,1.206-0.88,1.994-0.898v1.042
	c0,0.314,0.254,0.568,0.568,0.568c0.314,0,0.568-0.254,0.568-0.568v-0.835c0.378,0.156,0.71,0.395,0.985,0.69l-0.871,0.503
	c-0.272,0.157-0.365,0.504-0.208,0.776c0.105,0.182,0.296,0.284,0.493,0.284c0.097,0,0.194-0.024,0.284-0.076l0.892-0.515
	C24.374,27.586,24.442,27.902,24.442,28.236z"/>
<path d="M43.118,24.277c-2.183,0-3.958,1.776-3.958,3.958c0,2.183,1.775,3.958,3.958,3.958c2.183,0,3.959-1.775,3.959-3.958
	C47.077,26.053,45.301,24.277,43.118,24.277z M45.804,29.057l-0.93-0.537c-0.272-0.157-0.619-0.064-0.776,0.208
	c-0.157,0.272-0.064,0.619,0.208,0.776l0.953,0.55c-0.401,0.471-0.944,0.817-1.572,0.946v-1.137c0-0.314-0.254-0.568-0.568-0.568
	c-0.314,0-0.568,0.254-0.568,0.568V31c-0.628-0.129-1.171-0.475-1.572-0.947l0.951-0.549c0.271-0.157,0.365-0.504,0.208-0.776
	c-0.158-0.272-0.507-0.365-0.776-0.208l-0.928,0.536c-0.08-0.262-0.136-0.534-0.136-0.82c0-0.333,0.068-0.648,0.175-0.945
	l0.89,0.514c0.089,0.051,0.187,0.076,0.284,0.076c0.196,0,0.387-0.102,0.493-0.284c0.157-0.272,0.064-0.62-0.208-0.776l-0.869-0.502
	c0.392-0.42,0.905-0.727,1.489-0.847v0.991c0,0.314,0.254,0.568,0.568,0.568c0.314,0,0.568-0.254,0.568-0.568v-0.991
	c0.584,0.12,1.097,0.426,1.489,0.846l-0.871,0.503c-0.272,0.157-0.365,0.504-0.208,0.776c0.105,0.182,0.296,0.284,0.493,0.284
	c0.097,0,0.194-0.024,0.284-0.076l0.892-0.515c0.108,0.297,0.175,0.613,0.175,0.946C45.94,28.523,45.885,28.796,45.804,29.057z"/>
<path d="M48.547,40.789H16.563l-1.966,6.882h35.559L48.547,40.789z M21.039,45.57c-0.767,0-1.389-0.622-1.389-1.389
	c0-0.767,0.622-1.388,1.389-1.388c0.767,0,1.389,0.621,1.389,1.388C22.428,44.948,21.806,45.57,21.039,45.57z M44.228,45.57
	c-0.767,0-1.388-0.622-1.388-1.389c0-0.767,0.622-1.388,1.388-1.388c0.767,0,1.389,0.621,1.389,1.388
	C45.617,44.948,44.995,45.57,44.228,45.57z"/>
</svg>
