<?xml version="1.0" encoding="iso-8859-1"?>
<!-- Generator: Adobe Illustrator 17.0.0, SVG Export Plug-In . SVG Version: 6.00 Build 0)  -->
<!DOCTYPE svg PUBLIC "-//W3C//DTD SVG 1.1//EN" "http://www.w3.org/Graphics/SVG/1.1/DTD/svg11.dtd">
<svg version="1.1" id="Capa_1" xmlns="http://www.w3.org/2000/svg" xmlns:xlink="http://www.w3.org/1999/xlink" x="0px" y="0px"
	 width="64px" height="64px" viewBox="0 0 64 64" style="enable-background:new 0 0 64 64;" xml:space="preserve">
<path d="M43.43,38.683H20.761c-2.433,0-5.199,1.807-6.179,4.035l-0.713,2.651H50.16l-0.713-2.583
	C48.559,40.521,45.863,38.683,43.43,38.683z"/>
<path d="M10.425,45.369h1.105l1.981-4.51c0.979-2.228,3.745-4.036,6.179-4.036h24.968c2.434,0,5.129,1.837,6.018,4.103l1.744,4.443
	h0.945c2.434,0,4.406-1.973,4.406-4.406V18.15c0-2.433-1.973-4.406-4.406-4.406h-42.94c-2.434,0-4.406,1.973-4.406,4.406v22.812
	C6.019,43.396,7.992,45.369,10.425,45.369z M9.494,22.149c0-2.434,1.973-4.407,4.406-4.407h36.229c2.436,0,4.406,1.973,4.406,4.407
	v7.507c0,2.433-1.971,4.406-4.406,4.406H13.9c-2.434,0-4.406-1.973-4.406-4.406V22.149z"/>
<path d="M19.645,31.534h25.773c2.801,0,5.08-2.279,5.08-5.08c0-2.801-2.279-5.08-5.08-5.08H19.645c-2.801,0-5.08,2.279-5.08,5.08
	C14.565,29.255,16.844,31.534,19.645,31.534z M42.475,24.375h2.943c1.146,0,2.08,0.933,2.08,2.08c0,1.147-0.934,2.08-2.08,2.08
	h-2.924c-0.42-0.592-0.672-1.311-0.672-2.092C41.822,25.672,42.066,24.961,42.475,24.375z M28.621,24.375h7.826
	c-0.152,0.666-0.24,1.356-0.24,2.067c0,0.721,0.09,1.419,0.246,2.092h-7.838c0.154-0.673,0.246-1.372,0.246-2.092
	C28.861,25.73,28.773,25.04,28.621,24.375z M19.645,24.375h2.956c0.409,0.587,0.653,1.298,0.653,2.068
	c0,0.781-0.252,1.5-0.672,2.092h-2.937c-1.147,0-2.08-0.933-2.08-2.08C17.565,25.308,18.498,24.375,19.645,24.375z"/>
</svg>
