<?xml version="1.0" encoding="iso-8859-1"?>
<!-- Generator: Adobe Illustrator 17.0.0, SVG Export Plug-In . SVG Version: 6.00 Build 0)  -->
<!DOCTYPE svg PUBLIC "-//W3C//DTD SVG 1.1//EN" "http://www.w3.org/Graphics/SVG/1.1/DTD/svg11.dtd">
<svg version="1.1" id="Capa_1" xmlns="http://www.w3.org/2000/svg" xmlns:xlink="http://www.w3.org/1999/xlink" x="0px" y="0px"
	 width="64px" height="64px" viewBox="0 0 64 64" style="enable-background:new 0 0 64 64;" xml:space="preserve">
<path d="M30.734,16.901c-8.561,0-15.525,6.965-15.525,15.526c0,8.561,6.965,15.525,15.525,15.525
	c8.561,0,15.525-6.965,15.525-15.525C46.259,23.866,39.294,16.901,30.734,16.901z M30.734,41.654c-5.096,0-9.227-4.131-9.227-9.227
	s4.131-9.226,9.227-9.226c5.098,0,9.229,4.131,9.229,9.226S35.831,41.654,30.734,41.654z"/>
<path d="M55.919,32.428c0-13.91-11.273-25.186-25.186-25.186c-13.91,0-25.184,11.275-25.184,25.186
	c0,13.908,11.273,25.186,25.184,25.186C44.646,57.613,55.919,46.336,55.919,32.428z M52.306,31.338c0.66,0,1.197,0.537,1.197,1.199
	c0,0.66-0.537,1.197-1.197,1.197c-0.662,0-1.199-0.537-1.199-1.197C51.107,31.875,51.644,31.338,52.306,31.338z M9.164,33.734
	c-0.66,0-1.197-0.537-1.197-1.197c0-0.662,0.537-1.199,1.197-1.199c0.662,0,1.197,0.537,1.197,1.199
	C10.361,33.197,9.826,33.734,9.164,33.734z M45.14,16.435c0.469-0.468,1.227-0.468,1.693,0c0.469,0.469,0.469,1.228,0,1.695
	c-0.467,0.468-1.225,0.468-1.693,0C44.671,17.663,44.671,16.904,45.14,16.435z M31.279,9.658c0.662,0,1.199,0.536,1.199,1.198
	c0,0.661-0.537,1.198-1.199,1.198s-1.197-0.537-1.197-1.198C30.081,10.194,30.617,9.658,31.279,9.658z M14.634,16.435
	c0.469-0.468,1.227-0.468,1.695,0c0.467,0.469,0.467,1.228,0,1.695c-0.469,0.468-1.227,0.468-1.695,0
	C14.167,17.663,14.167,16.904,14.634,16.435z M16.33,48.637c-0.469,0.469-1.229,0.469-1.695,0c-0.467-0.469-0.467-1.227,0-1.695
	c0.467-0.467,1.227-0.467,1.695,0C16.796,47.41,16.796,48.168,16.33,48.637z M31.279,55.197c-0.662,0-1.197-0.537-1.197-1.199
	c0-0.662,0.535-1.199,1.197-1.199s1.199,0.537,1.199,1.199C32.478,54.66,31.941,55.197,31.279,55.197z M46.833,48.637
	c-0.467,0.469-1.225,0.469-1.693,0c-0.469-0.469-0.469-1.227,0-1.695c0.469-0.467,1.227-0.467,1.693,0
	C47.302,47.41,47.302,48.168,46.833,48.637z M30.734,49.953c-9.662,0-17.525-7.863-17.525-17.525
	c0-9.664,7.863-17.526,17.525-17.526c9.664,0,17.525,7.862,17.525,17.526C48.259,42.09,40.398,49.953,30.734,49.953z"/>
</svg>
