<?xml version="1.0" encoding="iso-8859-1"?>
<!-- Generator: Adobe Illustrator 17.0.0, SVG Export Plug-In . SVG Version: 6.00 Build 0)  -->
<!DOCTYPE svg PUBLIC "-//W3C//DTD SVG 1.1//EN" "http://www.w3.org/Graphics/SVG/1.1/DTD/svg11.dtd">
<svg version="1.1" id="Capa_1" xmlns="http://www.w3.org/2000/svg" xmlns:xlink="http://www.w3.org/1999/xlink" x="0px" y="0px"
	 width="64px" height="64px" viewBox="0 0 64 64" style="enable-background:new 0 0 64 64;" xml:space="preserve">
<g>
	<path d="M51.143,47.616c2.689,0,4.869-2.256,4.869-5.039V32.499c0-2.296-1.486-4.23-3.516-4.838
		C52.309,16.583,43.297,7.627,32.242,7.627c-11.059,0-20.07,8.958-20.256,20.038c-2.025,0.609-3.508,2.542-3.508,4.834v10.078
		c0,2.783,2.182,5.039,4.871,5.039h3.863V28.29c0.01-0.093,0.027-0.185,0.027-0.28c0-8.338,6.73-15.12,15.002-15.12
		c8.269,0,15,6.782,15,15.12c0,0.128,0.02,0.251,0.037,0.374v19.232H51.143z"/>
	<path d="M32.246,27.802c-7.889,0-14.285,6.396-14.285,14.285c0,7.889,6.396,14.286,14.285,14.286
		c7.887,0,14.285-6.397,14.285-14.286C46.531,34.198,40.133,27.802,32.246,27.802z"/>
</g>
</svg>
