<?xml version="1.0" encoding="iso-8859-1"?>
<!-- Generator: Adobe Illustrator 17.0.0, SVG Export Plug-In . SVG Version: 6.00 Build 0)  -->
<!DOCTYPE svg PUBLIC "-//W3C//DTD SVG 1.1//EN" "http://www.w3.org/Graphics/SVG/1.1/DTD/svg11.dtd">
<svg version="1.1" id="Capa_1" xmlns="http://www.w3.org/2000/svg" xmlns:xlink="http://www.w3.org/1999/xlink" x="0px" y="0px"
	 width="64px" height="64px" viewBox="0 0 64 64" style="enable-background:new 0 0 64 64;" xml:space="preserve">
<path d="M49.072,47.4C47.205,46.156,10.689,8.484,10.689,8.484H7.953L18.652,20.11l-0.66,1.174
	c-0.148,0.262-0.107,0.613,0.098,0.835l8.704,9.437c0.014,0.059,0.039,0.115,0.082,0.163c0.047,0.054,0.107,0.09,0.17,0.109
	l3.904,4.232c0.123,0.133,0.291,0.2,0.459,0.2c0.15,0,0.299-0.052,0.418-0.159l0.844-0.758l13.557,14.731
	c0,0,1.279,3.866,1.451,5.602c0,0,2.457,0,4.541-1.99c2.389-2.282,2.611-4.447,2.611-4.447L49.072,47.4z M30.572,31.424
	c0.211-0.17,0.617-0.014,0.91,0.35c0.291,0.362,0.355,0.793,0.145,0.963c-0.211,0.169-0.617,0.014-0.908-0.35
	C30.428,32.024,30.361,31.594,30.572,31.424z M28.406,29.216c0.211-0.17,0.617-0.014,0.908,0.35
	c0.291,0.362,0.357,0.793,0.146,0.963c-0.211,0.169-0.617,0.014-0.91-0.35C28.26,29.816,28.195,29.386,28.406,29.216z
	 M26.406,27.049c0.211-0.17,0.617-0.014,0.908,0.35c0.291,0.362,0.357,0.793,0.146,0.963c-0.211,0.169-0.617,0.014-0.91-0.35
	C26.26,27.649,26.195,27.219,26.406,27.049z M23.894,24.393c0.211-0.17,0.618-0.014,0.91,0.35c0.291,0.362,0.357,0.793,0.146,0.963
	c-0.211,0.169-0.618,0.014-0.91-0.35C23.749,24.993,23.683,24.562,23.894,24.393z M21.394,21.518c0.211-0.17,0.618-0.014,0.91,0.35
	c0.291,0.362,0.357,0.793,0.146,0.963c-0.211,0.169-0.618,0.014-0.91-0.35C21.249,22.118,21.183,21.688,21.394,21.518z
	 M19.103,19.018c0.211-0.17,0.617-0.014,0.909,0.35c0.291,0.362,0.356,0.793,0.146,0.963c-0.211,0.169-0.617,0.014-0.909-0.35
	C18.957,19.618,18.892,19.188,19.103,19.018z M18.654,21.63l0.529-0.942l1.728,1.878l-0.773,0.675L18.654,21.63z M20.644,23.788
	l0.773-0.673l2.014,2.188l-0.77,0.672L20.644,23.788z M23.167,26.523l0.77-0.67l2.019,2.195l-0.766,0.669L23.167,26.523z
	 M25.697,29.266l0.766-0.667l1.523,1.655l-0.764,0.667L25.697,29.266z M27.728,31.469l0.764-0.665l1.629,1.77l-0.762,0.663
	L27.728,31.469z M31.416,35.466l-1.551-1.681l0.76-0.663l1.539,1.672L31.416,35.466z"/>
</svg>
