<?xml version="1.0" encoding="iso-8859-1"?>
<!-- Generator: Adobe Illustrator 17.0.0, SVG Export Plug-In . SVG Version: 6.00 Build 0)  -->
<!DOCTYPE svg PUBLIC "-//W3C//DTD SVG 1.1//EN" "http://www.w3.org/Graphics/SVG/1.1/DTD/svg11.dtd">
<svg version="1.1" id="Capa_1" xmlns="http://www.w3.org/2000/svg" xmlns:xlink="http://www.w3.org/1999/xlink" x="0px" y="0px"
	 width="64px" height="64px" viewBox="0 0 64 64" style="enable-background:new 0 0 64 64;" xml:space="preserve">
<path d="M55.328,47.343l-0.493,0.254l0.193,0.193C55.129,47.642,55.229,47.493,55.328,47.343z"/>
<path d="M46.476,56.003c0.026-0.016,0.052-0.034,0.078-0.05l-0.033-0.033L46.476,56.003z"/>
<path d="M36.831,55.794c-1.898,0.457-3.875,0.706-5.911,0.706c-13.923,0-25.25-11.327-25.25-25.25S16.997,6,30.92,6
	s25.25,11.327,25.25,25.25c0,2.486-0.367,4.887-1.039,7.157l1.885,0.695l1.878,0.692c0.828-2.704,1.276-5.572,1.276-8.544
	C60.17,15.121,47.049,2,30.92,2S1.67,15.121,1.67,31.25S14.791,60.5,30.92,60.5c2.521,0,4.969-0.321,7.305-0.923l-0.696-1.888
	L36.831,55.794z"/>
<path d="M29.92,29.25c0.232,0,0.466,0.04,0.691,0.123l16.898,6.226l3.702-2.107c2.175-1.238,2.175-3.246,0-4.484L22.268,12.533
	c-2.175-1.238-3.938-0.213-3.938,2.29v32.855c0,2.503,1.763,3.528,3.938,2.29l10.264-5.842l-4.489-12.183
	c-0.27-0.732-0.089-1.554,0.463-2.106C28.887,29.454,29.398,29.25,29.92,29.25z"/>
<polygon points="60.396,42.479 58.239,41.684 56.368,40.995 54.486,40.301 45.236,36.893 29.919,31.25 34.294,43.122 38.761,55.247 
	39.454,57.129 40.144,59.001 41.148,61.726 43.271,57.756 44.952,54.611 46.028,52.598 46.81,53.381 48.235,54.806 54.384,60.955 
	59.874,55.465 53.822,49.413 52.407,47.998 51.484,47.076 53.954,45.801 57.166,44.145 "/>
</svg>
