<?xml version="1.0" encoding="iso-8859-1"?>
<!-- Generator: Adobe Illustrator 17.0.0, SVG Export Plug-In . SVG Version: 6.00 Build 0)  -->
<!DOCTYPE svg PUBLIC "-//W3C//DTD SVG 1.1//EN" "http://www.w3.org/Graphics/SVG/1.1/DTD/svg11.dtd">
<svg version="1.1" id="Capa_1" xmlns="http://www.w3.org/2000/svg" xmlns:xlink="http://www.w3.org/1999/xlink" x="0px" y="0px"
	 width="64px" height="64px" viewBox="0 0 64 64" style="enable-background:new 0 0 64 64;" xml:space="preserve">
<path d="M26.081,56.866h14.731c3.29,0,5.956-1.168,5.956-2.607c0,0,0-0.584,0-1.303c0-0.719-0.952-1.783-2.127-2.377l-8.47-4.282
	c0.023-0.149,0.046-0.298,0.046-0.452v-7.349l4.007,0.242c2.344,0.141,4.359-1.646,4.501-3.99l0.172-2.858l-6.459-0.389
	c-0.936-0.057-1.651-0.863-1.594-1.801c0.057-0.938,0.863-1.652,1.8-1.596l6.457,0.389l0.219-3.609l-6.459-0.389
	c-0.937-0.057-1.651-0.863-1.595-1.801c0.056-0.938,0.863-1.652,1.8-1.596l6.458,0.389l0.218-3.609l-6.458-0.389
	c-0.937-0.057-1.652-0.863-1.595-1.801c0.056-0.94,0.861-1.652,1.8-1.596l6.458,0.389l0.057-0.945
	c0.141-2.346-1.645-4.361-3.99-4.502L29.487,8.28c-2.345-0.143-4.36,1.644-4.501,3.988l-0.058,0.947l6.457,0.389
	c0.937,0.057,1.651,0.861,1.596,1.801c-0.058,0.938-0.864,1.652-1.8,1.596l-6.457-0.389l-0.218,3.609l6.456,0.389
	c0.936,0.057,1.653,0.863,1.596,1.801c-0.056,0.938-0.863,1.652-1.8,1.596l-6.457-0.389l-0.218,3.609l6.458,0.389
	c0.937,0.057,1.651,0.863,1.594,1.801c-0.055,0.938-0.861,1.652-1.8,1.596l-6.456-0.389l-0.173,2.855
	c-0.141,2.346,1.646,4.361,3.991,4.502l2.518,0.152v7.711c0,0.172,0.023,0.338,0.051,0.502l-8.031,4.201
	c-1.166,0.611-2.111,1.688-2.111,2.406c0,0.385,0,0.83,0,1.305C20.125,55.698,22.791,56.866,26.081,56.866z"/>
</svg>
