<?xml version="1.0" encoding="iso-8859-1"?>
<!-- Generator: Adobe Illustrator 17.0.0, SVG Export Plug-In . SVG Version: 6.00 Build 0)  -->
<!DOCTYPE svg PUBLIC "-//W3C//DTD SVG 1.1//EN" "http://www.w3.org/Graphics/SVG/1.1/DTD/svg11.dtd">
<svg version="1.1" id="Capa_1" xmlns="http://www.w3.org/2000/svg" xmlns:xlink="http://www.w3.org/1999/xlink" x="0px" y="0px"
	 width="64px" height="64px" viewBox="0 0 64 64" style="enable-background:new 0 0 64 64;" xml:space="preserve">
<path d="M35.319,46.373v-11.39c0.974-0.201,1.457-0.512,1.457-0.512v-1.965h-1.593v-0.011c0.007,0,0.012,0,0.018,0
	c0.888,0,2.301-0.143,3.239-0.945c0.604-0.514,0.922-1.214,0.948-2.079l-0.427-0.013c0.912-0.893,1.507-2.019,1.507-3.289v-9.454
	c0-1.031-0.187-1.995-0.504-2.829l2.897-3.179c0,0-3.812-5.743-9.86-5.845c-6.049-0.102-8.058,6.16-8.058,6.16l2.223,2.592
	c-0.307,0.477-0.565,1.007-0.738,1.624h2.19v1h-2.389c-0.037,0.264-0.061,0.539-0.075,0.824h2.464v1h-2.482v0.825h2.482v1h-2.482
	v0.825h2.482v1h-2.482v0.825h2.482v1h-2.482v0.825h2.482v1h-2.482v0.808c0,0.006,0.002,0.011,0.002,0.017h2.48v1h-2.34
	c0.452,1.77,2.029,3.177,3.924,3.863h0.882v1.458h-0.645v1.931c0,0,0.503,0.329,1.492,0.539v11.382
	c-6.471,0.315-11.488,2.541-11.488,5.244c0,2.919,5.849,5.286,13.062,5.286c7.214,0,13.062-2.367,13.062-5.286
	C46.568,48.932,41.673,46.73,35.319,46.373z M37.914,30.931c-0.751,0.642-1.967,0.752-2.731,0.75v-0.632h1.22
	c0.782-0.283,1.506-0.695,2.126-1.198C38.444,30.291,38.244,30.648,37.914,30.931z M37.25,16.886v1h-6.555v-1H37.25z M30.695,16.062
	v-1h6.555v1H30.695z M37.25,18.711v1h-6.555v-1H37.25z M37.25,20.536v1h-6.555v-1H37.25z M37.25,22.36v1h-6.555v-1H37.25z
	 M37.25,24.185v1h-6.555v-1H37.25z M28.414,12.269c0.894-0.95,2.373-1.985,4.588-1.961c1.953,0.021,3.323,0.341,4.306,0.784
	c-0.175-0.041-0.351-0.069-0.531-0.069c-1.979,0-4.287,0-4.287,0C30.933,11.023,29.519,11.436,28.414,12.269z M30.695,27.009v-1
	h6.555v1H30.695z"/>
<path d="M20.929,54.05c0.328,1.959,5.966,4.925,10.173,4.925h4.809c4.207,0,9.845-2.966,10.173-4.925
	c-2.309,2.344-7.561,3.584-12.577,3.584S23.237,56.395,20.929,54.05z"/>
</svg>
