<?xml version="1.0" encoding="iso-8859-1"?>
<!-- Generator: Adobe Illustrator 17.0.0, SVG Export Plug-In . SVG Version: 6.00 Build 0)  -->
<!DOCTYPE svg PUBLIC "-//W3C//DTD SVG 1.1//EN" "http://www.w3.org/Graphics/SVG/1.1/DTD/svg11.dtd">
<svg version="1.1" id="Capa_1" xmlns="http://www.w3.org/2000/svg" xmlns:xlink="http://www.w3.org/1999/xlink" x="0px" y="0px"
	 width="64px" height="64px" viewBox="0 0 64 64" style="enable-background:new 0 0 64 64;" xml:space="preserve">
<path d="M14.542,51.75c4.28,0,7.75-3.47,7.75-7.75c0-0.27-0.014-0.536-0.041-0.799V28h23.956v8.282
	c-0.206-0.017-0.413-0.032-0.624-0.032c-4.28,0-7.75,3.47-7.75,7.75s3.47,7.75,7.75,7.75c4.28,0,7.75-3.47,7.75-7.75
	c0-0.463-0.048-0.915-0.126-1.355V21c0-2.761-2.238-5-5-5H20.251c-2.762,0-5,2.239-5,5v15.286c-0.233-0.021-0.47-0.036-0.709-0.036
	c-4.28,0-7.75,3.47-7.75,7.75S10.262,51.75,14.542,51.75z"/>
</svg>
