<?xml version="1.0" encoding="iso-8859-1"?>
<!-- Generator: Adobe Illustrator 17.0.0, SVG Export Plug-In . SVG Version: 6.00 Build 0)  -->
<!DOCTYPE svg PUBLIC "-//W3C//DTD SVG 1.1//EN" "http://www.w3.org/Graphics/SVG/1.1/DTD/svg11.dtd">
<svg version="1.1" id="Capa_1" xmlns="http://www.w3.org/2000/svg" xmlns:xlink="http://www.w3.org/1999/xlink" x="0px" y="0px"
	 width="64px" height="64px" viewBox="0 0 64 64" style="enable-background:new 0 0 64 64;" xml:space="preserve">
<path d="M31.129,18.933c-0.896-0.248-1.781-0.5-2.661-0.753l-1.093,1.889c-1.164,0.704-1.95,1.97-1.95,3.43
	c0,1.051,0.412,1.999,1.072,2.715v34.411h3.083V27.506c2.157-0.072,3.887-1.833,3.887-4.007c0-1.641-0.986-3.047-2.396-3.672
	l0.455-0.786C31.393,19.004,31.262,18.969,31.129,18.933z M29.58,24.69c-0.046,0.005-0.086,0.027-0.134,0.027
	c-0.673,0-1.219-0.546-1.219-1.219c0-0.673,0.546-1.219,1.219-1.219c0.048,0,0.088,0.022,0.134,0.027
	c0.607,0.07,1.085,0.566,1.085,1.192C30.664,24.124,30.187,24.621,29.58,24.69z"/>
<polygon points="36.113,6.852 32.234,5.796 31.461,8.638 35.352,9.652 "/>
<path d="M30.971,9.028c-0.114-0.03-0.23-0.045-0.347-0.045c-0.621,0-1.165,0.421-1.321,1.023c-0.078,0.296-0.032,0.596,0.086,0.872
	c1.218,0.32,2.448,0.65,3.696,0.996c0.972,0.269,1.946,0.546,2.918,0.827c0.281-0.181,0.499-0.458,0.588-0.798
	c0.093-0.354,0.041-0.722-0.144-1.037s-0.481-0.539-0.835-0.631l-0.392-0.102l-3.891-1.013L30.971,9.028z"/>
<path d="M10.286,11.6c4.915,1.96,11.391,4.11,18.44,6.134c0.839,0.241,1.682,0.481,2.536,0.718c0.175,0.049,0.348,0.094,0.522,0.143
	c12.212,3.361,23.157,5.526,27.981,5.526c1.957,0,2.158-0.37,2.179-0.444c0.327-1.177-8.699-5.479-25.896-10.443
	c-0.129-0.037-0.26-0.075-0.39-0.112c-0.678-0.195-1.368-0.39-2.071-0.587c-0.213-0.059-0.42-0.119-0.635-0.178
	c-0.966-0.268-1.92-0.525-2.869-0.778c-0.23-0.061-0.459-0.121-0.688-0.182c-0.127-0.033-0.254-0.067-0.38-0.1
	C18.211,8.465,8.818,6.688,4.448,6.688c-1.957,0-2.158,0.37-2.179,0.444C2.236,7.249,2.186,8.371,10.286,11.6z"/>
</svg>
