<?xml version="1.0" encoding="iso-8859-1"?>
<!-- Generator: Adobe Illustrator 17.0.0, SVG Export Plug-In . SVG Version: 6.00 Build 0)  -->
<!DOCTYPE svg PUBLIC "-//W3C//DTD SVG 1.1//EN" "http://www.w3.org/Graphics/SVG/1.1/DTD/svg11.dtd">
<svg version="1.1" id="Capa_1" xmlns="http://www.w3.org/2000/svg" xmlns:xlink="http://www.w3.org/1999/xlink" x="0px" y="0px"
	 width="64px" height="64px" viewBox="0 0 64 64" style="enable-background:new 0 0 64 64;" xml:space="preserve">
<g>
	<path d="M15.196,11.383l-3.263,0.551c-1.802,0.304-2.769,3.471-2.162,7.076l3.531,20.936c0.269,1.593,1.648,2.759,3.263,2.759
		h2.397l2.896,12.903h20.845l3.292-12.903h2.167c1.571,0,2.926-1.106,3.241-2.645l4.297-20.98c0.733-3.58-0.124-6.78-1.914-7.146
		c-1.79-0.367-3.241-0.665-3.241-0.665l-5.083,24.817h-26.1L15.196,11.383z"/>
	<path d="M34.041,6.309h-2.578c-5.697,0-10.332,3.927-10.332,8.754v8.092c0.005,0,0.009,1.013,0.01,2.026
		c0.001,1.121,0.663,2.028,1.479,2.028h1.479c1.563,3.179,4.856,5.404,8.676,5.404c3.804,0,7.084-2.206,8.657-5.404
		c0,0,0.655,0,1.463,0c0.808,0,1.463-0.907,1.463-2.028v-2.026c0.011,0,0.011-8.092,0.011-8.092
		C44.372,10.235,39.737,6.309,34.041,6.309z M43.044,21.308h-0.768c-0.787-4.539-4.735-7.995-9.499-7.995
		c-4.764,0-8.712,3.456-9.499,7.995h-0.817v-6.245c0-3.08,2.282-5.727,5.524-6.852c1.088,0.405,2.563,1.125,4.227,1.159
		c1.7,0.033,3.727-0.799,4.884-1.287c3.462,1.035,5.948,3.77,5.948,6.981V21.308z"/>
</g>
</svg>
