<?xml version="1.0" encoding="iso-8859-1"?>
<!-- Generator: Adobe Illustrator 17.0.0, SVG Export Plug-In . SVG Version: 6.00 Build 0)  -->
<!DOCTYPE svg PUBLIC "-//W3C//DTD SVG 1.1//EN" "http://www.w3.org/Graphics/SVG/1.1/DTD/svg11.dtd">
<svg version="1.1" id="Capa_1" xmlns="http://www.w3.org/2000/svg" xmlns:xlink="http://www.w3.org/1999/xlink" x="0px" y="0px"
	 width="64px" height="64px" viewBox="0 0 64 64" style="enable-background:new 0 0 64 64;" xml:space="preserve">
<g>
	<path d="M13.57,32.051c0-0.478-0.239-0.718-0.718-0.718h-2.153c-0.479,0-0.718,0.24-0.718,0.718v2.154
		c0,0.479,0.238,0.718,0.718,0.718h2.153c0.478,0,0.718-0.238,0.718-0.718V32.051z"/>
	<path d="M35.063,23.479c0-0.479-0.24-0.718-0.718-0.718h-2.153c-0.479,0-0.718,0.239-0.718,0.718v2.153
		c0,0.48,0.239,0.718,0.718,0.718h2.153c0.479,0,0.718-0.238,0.718-0.718V23.479z"/>
	<path d="M12.852,39.947h-2.153c-0.479,0-0.718,0.239-0.718,0.718v2.153c0,0.479,0.238,0.719,0.718,0.719h2.153
		c0.478,0,0.718-0.239,0.718-0.719v-2.153C13.57,40.187,13.331,39.947,12.852,39.947z"/>
	<path d="M13.57,36.358c0-0.478-0.239-0.718-0.718-0.718h-2.153c-0.479,0-0.718,0.239-0.718,0.718v2.153
		c0,0.479,0.238,0.718,0.718,0.718h2.153c0.478,0,0.718-0.238,0.718-0.718V36.358z"/>
	<path d="M13.57,14.907c0-0.477-0.239-0.717-0.718-0.717h-2.153c-0.479,0-0.718,0.239-0.718,0.717v2.112
		c0,0.478,0.238,0.717,0.718,0.717h2.153c0.478,0,0.718-0.238,0.718-0.717V14.907z"/>
	<path d="M13.57,10.601c0-0.479-0.239-0.718-0.718-0.718h-2.153c-0.479,0-0.718,0.239-0.718,0.718v2.153
		c0,0.48,0.238,0.718,0.718,0.718h2.153c0.478,0,0.718-0.238,0.718-0.718V10.601z"/>
	<path d="M34.261,35.641h-2.154c-0.479,0-0.718,0.239-0.718,0.718v2.153c0,0.479,0.239,0.718,0.718,0.718h2.154
		c0.478,0,0.718-0.238,0.718-0.718v-2.153C34.979,35.88,34.739,35.641,34.261,35.641z"/>
	<path d="M34.979,32.051c0-0.478-0.24-0.718-0.718-0.718h-2.154c-0.479,0-0.718,0.24-0.718,0.718v2.154
		c0,0.479,0.239,0.718,0.718,0.718h2.154c0.478,0,0.718-0.238,0.718-0.718V32.051z"/>
	<path d="M17.834,32.051c0-0.478-0.239-0.718-0.718-0.718h-2.111c-0.478,0-0.718,0.24-0.718,0.718v2.154
		c0,0.479,0.239,0.718,0.718,0.718h2.111c0.479,0,0.718-0.238,0.718-0.718V32.051z"/>
	<path d="M34.979,27.787c0-0.479-0.24-0.719-0.718-0.719h-2.154c-0.479,0-0.718,0.24-0.718,0.719v2.153
		c0,0.479,0.239,0.717,0.718,0.717h2.154c0.478,0,0.718-0.238,0.718-0.717V27.787z"/>
	<path d="M31.389,21.326c0,0.479,0.239,0.718,0.718,0.718h2.154c0.478,0,0.718-0.239,0.718-0.718v-2.153
		c0-0.479-0.24-0.718-0.718-0.718h-2.154c-0.479,0-0.718,0.239-0.718,0.718V21.326z"/>
	<path d="M13.57,19.173c0-0.479-0.239-0.718-0.718-0.718h-2.153c-0.479,0-0.718,0.239-0.718,0.718v2.153
		c0,0.479,0.238,0.718,0.718,0.718h2.153c0.478,0,0.718-0.239,0.718-0.718V19.173z"/>
	<path d="M13.57,27.787c0-0.479-0.239-0.719-0.718-0.719h-2.153c-0.479,0-0.718,0.24-0.718,0.719v2.153
		c0,0.479,0.238,0.717,0.718,0.717h2.153c0.478,0,0.718-0.238,0.718-0.717V27.787z"/>
	<path d="M32.107,17.736h2.154c0.478,0,0.718-0.238,0.718-0.717v-2.112c0-0.477-0.24-0.717-0.718-0.717h-2.154
		c-0.479,0-0.718,0.239-0.718,0.717v2.112C31.389,17.498,31.628,17.736,32.107,17.736z"/>
	<path d="M13.57,23.479c0-0.479-0.239-0.718-0.718-0.718h-2.153c-0.479,0-0.718,0.239-0.718,0.718v2.153
		c0,0.48,0.238,0.718,0.718,0.718h2.153c0.478,0,0.718-0.238,0.718-0.718V23.479z"/>
	<path d="M30.671,10.601c0-0.479-0.239-0.718-0.718-0.718H27.8c-0.451,0-0.676,0.239-0.676,0.718v2.153
		c0,0.48,0.225,0.718,0.676,0.718h2.153c0.479,0,0.718-0.238,0.718-0.718V10.601z"/>
	<path d="M17.834,23.479c0-0.479-0.239-0.718-0.718-0.718h-2.111c-0.478,0-0.718,0.239-0.718,0.718v2.153
		c0,0.48,0.239,0.718,0.718,0.718h2.111c0.479,0,0.718-0.238,0.718-0.718V23.479z"/>
	<path d="M17.834,19.173c0-0.479-0.239-0.718-0.718-0.718h-2.111c-0.478,0-0.718,0.239-0.718,0.718v2.153
		c0,0.479,0.239,0.718,0.718,0.718h2.111c0.479,0,0.718-0.239,0.718-0.718V19.173z"/>
	<path d="M17.834,14.907c0-0.477-0.239-0.717-0.718-0.717h-2.111c-0.478,0-0.718,0.239-0.718,0.717v2.112
		c0,0.478,0.239,0.717,0.718,0.717h2.111c0.479,0,0.718-0.238,0.718-0.717V14.907z"/>
	<path d="M17.117,39.947h-2.111c-0.478,0-0.718,0.239-0.718,0.718v2.153c0,0.479,0.239,0.719,0.718,0.719h2.111
		c0.479,0,0.718-0.239,0.718-0.719v-2.153C17.834,40.187,17.595,39.947,17.117,39.947z"/>
	<path d="M25.689,39.947h-2.154c-0.479,0-0.718,0.239-0.718,0.718v2.153c0,0.479,0.239,0.719,0.718,0.719h2.154
		c0.478,0,0.717-0.239,0.717-0.719v-2.153C26.406,40.187,26.167,39.947,25.689,39.947z"/>
	<path d="M21.424,39.947h-2.153c-0.479,0-0.718,0.239-0.718,0.718v2.153c0,0.479,0.239,0.719,0.718,0.719h2.153
		c0.479,0,0.718-0.239,0.718-0.719v-2.153C22.142,40.187,21.902,39.947,21.424,39.947z"/>
	<path d="M17.834,36.358c0-0.478-0.239-0.718-0.718-0.718h-2.111c-0.478,0-0.718,0.239-0.718,0.718v2.153
		c0,0.479,0.239,0.718,0.718,0.718h2.111c0.479,0,0.718-0.238,0.718-0.718V36.358z"/>
	<path d="M26.406,10.601c0-0.479-0.239-0.718-0.717-0.718h-2.154c-0.479,0-0.718,0.239-0.718,0.718v2.153
		c0,0.48,0.239,0.718,0.718,0.718h2.154c0.478,0,0.717-0.238,0.717-0.718V10.601z"/>
	<path d="M22.142,10.601c0-0.479-0.239-0.718-0.718-0.718h-2.153c-0.479,0-0.718,0.239-0.718,0.718v2.153
		c0,0.48,0.239,0.718,0.718,0.718h2.153c0.479,0,0.718-0.238,0.718-0.718V10.601z"/>
	<path d="M17.834,27.787c0-0.479-0.239-0.719-0.718-0.719h-2.111c-0.478,0-0.718,0.24-0.718,0.719v2.153
		c0,0.479,0.239,0.717,0.718,0.717h2.111c0.479,0,0.718-0.238,0.718-0.717V27.787z"/>
	<path d="M17.834,10.601c0-0.479-0.239-0.718-0.718-0.718h-2.111c-0.478,0-0.718,0.239-0.718,0.718v2.153
		c0,0.48,0.239,0.718,0.718,0.718h2.111c0.479,0,0.718-0.238,0.718-0.718V10.601z"/>
	<path d="M29.953,39.947H27.8c-0.451,0-0.676,0.239-0.676,0.718v2.153c0,0.479,0.225,0.719,0.676,0.719h2.153
		c0.479,0,0.718-0.239,0.718-0.719v-2.153C30.671,40.187,30.432,39.947,29.953,39.947z"/>
	<path d="M30.671,32.051c0-0.478-0.239-0.718-0.718-0.718H27.8c-0.451,0-0.676,0.24-0.676,0.718v2.154
		c0,0.479,0.225,0.718,0.676,0.718h2.153c0.479,0,0.718-0.238,0.718-0.718V32.051z"/>
	<path d="M30.671,27.787c0-0.479-0.239-0.719-0.718-0.719H27.8c-0.451,0-0.676,0.24-0.676,0.719v2.153
		c0,0.479,0.225,0.717,0.676,0.717h2.153c0.479,0,0.718-0.238,0.718-0.717V27.787z"/>
	<path d="M30.671,36.358c0-0.478-0.239-0.718-0.718-0.718H27.8c-0.451,0-0.676,0.239-0.676,0.718v2.153
		c0,0.479,0.225,0.718,0.676,0.718h2.153c0.479,0,0.718-0.238,0.718-0.718V36.358z"/>
	<path d="M30.671,14.907c0-0.477-0.239-0.717-0.718-0.717H27.8c-0.451,0-0.676,0.239-0.676,0.717v2.112
		c0,0.478,0.225,0.717,0.676,0.717h2.153c0.479,0,0.718-0.238,0.718-0.717V14.907z"/>
	<path d="M30.671,19.173c0-0.479-0.239-0.718-0.718-0.718H27.8c-0.451,0-0.676,0.239-0.676,0.718v2.153
		c0,0.479,0.225,0.718,0.676,0.718h2.153c0.479,0,0.718-0.239,0.718-0.718V19.173z"/>
	<path d="M30.671,23.479c0-0.479-0.239-0.718-0.718-0.718H27.8c-0.451,0-0.676,0.239-0.676,0.718v2.153
		c0,0.48,0.225,0.718,0.676,0.718h2.153c0.479,0,0.718-0.238,0.718-0.718V23.479z"/>
	<path d="M40.679,48.52c-0.479,0-0.718,0.239-0.718,0.718v2.153c0,0.479,0.239,0.718,0.718,0.718h2.154
		c0.478,0,0.718-0.239,0.718-0.718v-2.153c0-0.479-0.24-0.718-0.718-0.718H40.679z"/>
	<path d="M49.208,47.802h2.153c0.479,0,0.718-0.239,0.718-0.718v-2.111c0-0.479-0.239-0.718-0.718-0.718h-2.153
		c-0.479,0-0.718,0.238-0.718,0.718v2.111C48.491,47.562,48.729,47.802,49.208,47.802z"/>
	<path d="M52.08,40.665c0-0.479-0.239-0.718-0.718-0.718h-2.153c-0.479,0-0.718,0.239-0.718,0.718v2.153
		c0,0.479,0.239,0.719,0.718,0.719h2.153c0.479,0,0.718-0.239,0.718-0.719V40.665z"/>
	<path d="M52.08,36.358c0-0.478-0.239-0.718-0.718-0.718h-2.153c-0.479,0-0.718,0.239-0.718,0.718v2.153
		c0,0.479,0.239,0.718,0.718,0.718h2.153c0.479,0,0.718-0.238,0.718-0.718V36.358z"/>
	<path d="M52.08,14.907c0-0.477-0.239-0.717-0.718-0.717h-2.153c-0.479,0-0.718,0.239-0.718,0.717v2.112
		c0,0.478,0.239,0.717,0.718,0.717h2.153c0.479,0,0.718-0.238,0.718-0.717V14.907z"/>
	<path d="M52.08,10.601c0-0.479-0.239-0.718-0.718-0.718h-2.153c-0.479,0-0.718,0.239-0.718,0.718v2.153
		c0,0.48,0.239,0.718,0.718,0.718h2.153c0.479,0,0.718-0.238,0.718-0.718V10.601z"/>
	<path d="M52.08,32.051c0-0.478-0.239-0.718-0.718-0.718h-2.153c-0.479,0-0.718,0.24-0.718,0.718v2.154
		c0,0.479,0.239,0.718,0.718,0.718h2.153c0.479,0,0.718-0.238,0.718-0.718V32.051z"/>
	<path d="M44.901,13.472h2.153c0.479,0,0.718-0.238,0.718-0.718v-2.153c0-0.479-0.239-0.718-0.718-0.718h-2.153
		c-0.451,0-0.676,0.239-0.676,0.718v2.153C44.226,13.233,44.451,13.472,44.901,13.472z"/>
	<path d="M52.08,19.173c0-0.479-0.239-0.718-0.718-0.718h-2.153c-0.479,0-0.718,0.239-0.718,0.718v2.153
		c0,0.479,0.239,0.718,0.718,0.718h2.153c0.479,0,0.718-0.239,0.718-0.718V19.173z"/>
	<path d="M52.08,27.787c0-0.479-0.239-0.719-0.718-0.719h-2.153c-0.479,0-0.718,0.24-0.718,0.719v2.153
		c0,0.479,0.239,0.717,0.718,0.717h2.153c0.479,0,0.718-0.238,0.718-0.717V27.787z"/>
	<path d="M44.986,52.108h2.154c0.45,0,0.675-0.239,0.675-0.718v-2.153c0-0.479-0.225-0.718-0.675-0.718h-2.154
		c-0.479,0-0.718,0.239-0.718,0.718v2.153C44.268,51.869,44.507,52.108,44.986,52.108z"/>
	<path d="M52.08,23.479c0-0.479-0.239-0.718-0.718-0.718h-2.153c-0.479,0-0.718,0.239-0.718,0.718v2.153
		c0,0.48,0.239,0.718,0.718,0.718h2.153c0.479,0,0.718-0.238,0.718-0.718V23.479z"/>
	<path d="M44.226,17.02c0,0.478,0.225,0.717,0.676,0.717h2.153c0.479,0,0.718-0.238,0.718-0.717v-2.112
		c0-0.477-0.239-0.717-0.718-0.717h-2.153c-0.451,0-0.676,0.239-0.676,0.717V17.02z"/>
	<path d="M44.226,42.818c0,0.479,0.225,0.719,0.676,0.719h2.153c0.479,0,0.718-0.239,0.718-0.719v-2.153
		c0-0.479-0.239-0.718-0.718-0.718h-2.153c-0.451,0-0.676,0.239-0.676,0.718V42.818z"/>
	<path d="M44.226,47.084c0,0.479,0.225,0.718,0.676,0.718h2.153c0.479,0,0.718-0.239,0.718-0.718v-2.111
		c0-0.479-0.239-0.718-0.718-0.718h-2.153c-0.451,0-0.676,0.238-0.676,0.718V47.084z"/>
	<path d="M44.226,38.512c0,0.479,0.225,0.718,0.676,0.718h2.153c0.479,0,0.718-0.238,0.718-0.718v-2.153
		c0-0.478-0.239-0.718-0.718-0.718h-2.153c-0.451,0-0.676,0.239-0.676,0.718V38.512z"/>
	<path d="M44.226,21.326c0,0.479,0.225,0.718,0.676,0.718h2.153c0.479,0,0.718-0.239,0.718-0.718v-2.153
		c0-0.479-0.239-0.718-0.718-0.718h-2.153c-0.451,0-0.676,0.239-0.676,0.718V21.326z"/>
	<path d="M44.226,34.205c0,0.479,0.225,0.718,0.676,0.718h2.153c0.479,0,0.718-0.238,0.718-0.718v-2.154
		c0-0.478-0.239-0.718-0.718-0.718h-2.153c-0.451,0-0.676,0.24-0.676,0.718V34.205z"/>
	<path d="M44.226,25.633c0,0.48,0.225,0.718,0.676,0.718h2.153c0.479,0,0.718-0.238,0.718-0.718v-2.153
		c0-0.479-0.239-0.718-0.718-0.718h-2.153c-0.451,0-0.676,0.239-0.676,0.718V25.633z"/>
	<path d="M44.226,29.94c0,0.479,0.225,0.717,0.676,0.717h2.153c0.479,0,0.718-0.238,0.718-0.717v-2.153
		c0-0.479-0.239-0.719-0.718-0.719h-2.153c-0.451,0-0.676,0.24-0.676,0.719V29.94z"/>
</g>
</svg>
