<?xml version="1.0" encoding="iso-8859-1"?>
<!-- Generator: Adobe Illustrator 17.0.0, SVG Export Plug-In . SVG Version: 6.00 Build 0)  -->
<!DOCTYPE svg PUBLIC "-//W3C//DTD SVG 1.1//EN" "http://www.w3.org/Graphics/SVG/1.1/DTD/svg11.dtd">
<svg version="1.1" id="Capa_1" xmlns="http://www.w3.org/2000/svg" xmlns:xlink="http://www.w3.org/1999/xlink" x="0px" y="0px"
	 width="64px" height="64px" viewBox="0 0 64 64" style="enable-background:new 0 0 64 64;" xml:space="preserve">
<circle cx="30.908" cy="20.13" r="5.667"/>
<path d="M45.948,60.42c2.761,0,5-2.238,5-5V9.508c0-2.762-2.239-5-5-5H15.869c-2.762,0-5,2.238-5,5V55.42c0,2.762,2.238,5,5,5
	H45.948z M30.908,53.4c-4.202,0-7.608-3.406-7.608-7.609c0-4.201,3.406-7.607,7.608-7.607c4.203,0,7.609,3.406,7.609,7.607
	C38.517,49.994,35.111,53.4,30.908,53.4z M30.908,8.777c6.271,0,11.354,5.083,11.354,11.354c0,6.27-5.083,11.352-11.354,11.352
	c-6.27,0-11.351-5.082-11.351-11.352C19.556,13.86,24.638,8.777,30.908,8.777z"/>
<circle cx="30.908" cy="45.792" r="3.798"/>
<path d="M30.908,29.254c5.03,0,9.123-4.093,9.123-9.123c0-5.031-4.093-9.124-9.123-9.124s-9.123,4.093-9.123,9.124
	C21.785,25.161,25.877,29.254,30.908,29.254z M30.908,12.007c4.479,0,8.123,3.645,8.123,8.124s-3.644,8.123-8.123,8.123
	s-8.123-3.644-8.123-8.123S26.429,12.007,30.908,12.007z"/>
<path d="M30.908,39.572c-3.429,0-6.219,2.79-6.219,6.219c0,3.43,2.789,6.221,6.219,6.221c3.43,0,6.22-2.791,6.22-6.221
	C37.127,42.362,34.337,39.572,30.908,39.572z M30.908,51.012c-2.877,0-5.219-2.342-5.219-5.221c0-2.878,2.341-5.219,5.219-5.219
	c2.878,0,5.22,2.341,5.22,5.219C36.127,48.67,33.786,51.012,30.908,51.012z"/>
</svg>
