<?xml version="1.0" encoding="iso-8859-1"?>
<!-- Generator: Adobe Illustrator 17.0.0, SVG Export Plug-In . SVG Version: 6.00 Build 0)  -->
<!DOCTYPE svg PUBLIC "-//W3C//DTD SVG 1.1//EN" "http://www.w3.org/Graphics/SVG/1.1/DTD/svg11.dtd">
<svg version="1.1" id="Capa_1" xmlns="http://www.w3.org/2000/svg" xmlns:xlink="http://www.w3.org/1999/xlink" x="0px" y="0px"
	 width="64px" height="64px" viewBox="0 0 64 64" style="enable-background:new 0 0 64 64;" xml:space="preserve">
<path d="M16.862,51.702c4.734-1.005,8.074-4.633,8.141-8.504c0.031-0.172,0.051-0.345,0.051-0.52V27.221h21.115v8.701
	c-1.697-0.495-3.613-0.59-5.568-0.175c-5.354,1.137-8.936,5.63-7.998,10.035c0.934,4.405,6.033,7.056,11.385,5.919
	c4.734-1.005,8.074-4.633,8.141-8.504c0.031-0.172,0.051-0.345,0.051-0.52v-6.756v-9.225v-2.385c0-0.002,0-0.004,0-0.007v-9.096
	c0-1.42-0.994-2.881-2.385-3.174h-3.625v0H24.757v0h-3.328c-1.391,0.293-2.385,1.753-2.385,3.174v9.096c0,0.003,0,0.005,0,0.007
	v11.61c-1.697-0.495-3.613-0.59-5.568-0.175c-5.353,1.137-8.936,5.63-7.998,10.035C6.411,50.188,11.511,52.838,16.862,51.702z
	 M25.054,20.547v-2.501h21.115v2.501v0.524H25.054V20.547z"/>
</svg>
