<?xml version="1.0" encoding="iso-8859-1"?>
<!-- Generator: Adobe Illustrator 17.0.0, SVG Export Plug-In . SVG Version: 6.00 Build 0)  -->
<!DOCTYPE svg PUBLIC "-//W3C//DTD SVG 1.1//EN" "http://www.w3.org/Graphics/SVG/1.1/DTD/svg11.dtd">
<svg version="1.1" id="Capa_1" xmlns="http://www.w3.org/2000/svg" xmlns:xlink="http://www.w3.org/1999/xlink" x="0px" y="0px"
	 width="64px" height="64px" viewBox="0 0 64 64" style="enable-background:new 0 0 64 64;" xml:space="preserve">
<path d="M33.064,42.013c-0.445,0.014-0.884,0.021-1.312,0.021c-0.822,0-1.609-0.025-2.369-0.067l1.543,4.104L33.064,42.013z"/>
<path d="M24.945,41.462c-0.873-0.152-1.684-0.329-2.433-0.518l0.83,3.348L24.945,41.462z"/>
<path d="M46.095,39.911c-0.431,0.122-0.857,0.237-1.279,0.348l-3.981,9.258c-0.223,0.519-0.73,0.859-1.294,0.868
	c-0.574,0.003-1.083-0.313-1.322-0.825l-2.774-5.912l-3.47,6.587C31.726,50.706,31.236,51,30.706,51c-0.03,0-0.06-0.001-0.091-0.003
	c-0.563-0.036-1.054-0.399-1.252-0.927l-2.391-6.365l-2.908,5.133c-0.29,0.511-0.861,0.792-1.442,0.714
	c-0.582-0.08-1.057-0.506-1.198-1.076l-2.115-8.528c-0.574-0.217-1.078-0.429-1.51-0.627v6.925
	c-0.741,0.834-1.153,1.747-1.153,2.706c0,3.923,6.85,7.104,15.3,7.104s15.301-3.181,15.301-7.104c0-0.959-0.411-1.872-1.153-2.706
	V39.911z"/>
<path d="M41.352,41.053c-1.271,0.25-2.496,0.447-3.675,0.596l1.784,3.803L41.352,41.053z"/>
<g>
	<path d="M45.257,20.993l-4.402,3.823c2.649,0.96,4.125,2.229,4.125,3.098c0,1.564-4.798,4.439-12.637,4.439
		c-7.839,0-12.637-2.875-12.637-4.439c0-1.129,2.492-2.936,6.817-3.858l-1.396-5.146c-6.443,1.453-10.749,4.847-10.749,9.004
		c0,2.243,1.255,4.263,3.421,5.876v2.312c1.883,1.046,11.702,5.738,28.295,0.816v-2.585c2.648-1.693,4.212-3.918,4.212-6.42
		C50.308,25.156,48.413,22.735,45.257,20.993z"/>
	<path d="M30.261,23.544c0.667-0.046,1.362-0.07,2.083-0.07c1.456,0,2.807,0.1,4.042,0.271l3.996-4.635
		c-2.394-0.62-5.113-0.964-8.039-0.964c-0.931,0-1.84,0.036-2.726,0.104L30.261,23.544z"/>
</g>
<g>
	<path d="M29.638,29.777c-0.684-0.695-1.651-3.835-1.651-3.835l-4.215-15.53c-0.229-1.107,0.481-2.192,1.59-2.424
		c1.108-0.229,2.193,0.482,2.423,1.591l1.963,16.171l0.284,3.922C29.975,29.891,29.796,29.94,29.638,29.777z"/>
</g>
<g>
	<path d="M33.838,28.962c0.193-0.956,2.254-3.516,2.254-3.516l10.507-12.188c0.79-0.811,2.086-0.829,2.898-0.04
		c0.811,0.789,0.829,2.087,0.039,2.897L37.238,26.798l-3.091,2.433C33.934,29.304,33.793,29.184,33.838,28.962z"/>
</g>
</svg>
