<?xml version="1.0" encoding="iso-8859-1"?>
<!-- Generator: Adobe Illustrator 16.0.4, SVG Export Plug-In . SVG Version: 6.00 Build 0)  -->
<!DOCTYPE svg PUBLIC "-//W3C//DTD SVG 1.1//EN" "http://www.w3.org/Graphics/SVG/1.1/DTD/svg11.dtd">
<svg version="1.1" id="Capa_1" xmlns="http://www.w3.org/2000/svg" xmlns:xlink="http://www.w3.org/1999/xlink" x="0px" y="0px"
	 width="64px" height="64px" viewBox="0 0 64 64" style="enable-background:new 0 0 64 64;" xml:space="preserve">
<path d="M49.626,46.996c0-6.489-5.261-11.75-11.75-11.75c-6.489,0-11.75,5.261-11.75,11.75c0,2.057,0.531,3.988,1.461,5.67
	c-1.006,1.104-2.961,3.799-2.961,8.08c0,0.828,0.672,1.5,1.5,1.5s1.5-0.672,1.5-1.5c0-2.812,1.063-4.655,1.796-5.602
	c2.138,2.217,5.133,3.602,8.454,3.602c3.174,0,6.049-1.264,8.163-3.311c0.708,1.023,1.587,2.797,1.587,5.311
	c0,0.828,0.672,1.5,1.5,1.5s1.5-0.672,1.5-1.5c0-3.891-1.616-6.475-2.666-7.741C49.012,51.245,49.626,49.195,49.626,46.996z
	 M37.876,55.412c-4.642,0-8.416-3.775-8.416-8.416s3.774-8.416,8.416-8.416s8.416,3.775,8.416,8.416S42.518,55.412,37.876,55.412z
	 M43.292,46.996c0,2.986-2.431,5.416-5.416,5.416s-5.416-2.43-5.416-5.416s2.431-5.416,5.416-5.416S43.292,44.01,43.292,46.996z
	 M26.909,20.868l3.96,0.686c1.88,0.325,3.326,1.043,3.23,1.602l-0.177,1.01l-10.769-1.865c0,0,0.078-0.453,0.175-1.011
	C23.427,20.731,25.029,20.542,26.909,20.868z M21.679,30.807l10.77,1.866l-0.351,2.022L21.329,32.83L21.679,30.807z M32.576,31.958
	l-10.77-1.866l1.257-7.258l10.77,1.866L32.576,31.958z M41.318,24.017c0,0-0.074-0.453-0.166-1.012
	c-0.092-0.56,1.361-1.262,3.244-1.57l3.967-0.649c1.884-0.308,3.484-0.103,3.576,0.455l0.164,1.014L41.318,24.017z M42.709,32.535
	l10.787-1.761l0.331,2.026l-10.786,1.762L42.709,32.535z M41.406,24.552l10.786-1.763l1.188,7.271l-10.787,1.763L41.406,24.552z
	 M21.419,54.736c0.416,0.718,0.17,1.636-0.547,2.051c-0.236,0.137-0.494,0.201-0.75,0.201c-0.518,0-1.022-0.27-1.299-0.749
	l-3.567-6.169h-3.287L8.24,56.262c-0.427,0.708-1.35,0.938-2.059,0.512c-0.709-0.429-0.939-1.351-0.511-2.061l4.167-6.917
	c0.27-0.451,0.758-0.726,1.284-0.726h5c0.536,0,1.031,0.285,1.298,0.748L21.419,54.736z M16.829,46.111h-6.5v-2.375h1.709V13.612
	c0-0.544,0.294-1.046,0.771-1.311l5.625-3.125c0.727-0.401,1.638-0.141,2.039,0.583c0.402,0.725,0.142,1.638-0.582,2.04
	l-4.853,2.696v29.241h1.791V46.111z M16.026,9.444c-2.07-2.831-2.781-5.617-1.547-6.944c1.646-1.77,6.123-0.28,9.998,3.325
	c3.877,3.606,5.686,7.963,4.04,9.732c-1.493,1.605-5.315,0.522-8.907-2.384l0.601-0.334c1.207-0.67,1.643-2.192,0.973-3.399
	c-0.671-1.207-2.193-1.645-3.4-0.972L16.026,9.444z"/>
</svg>
