<?xml version="1.0" encoding="iso-8859-1"?>
<!-- Generator: Adobe Illustrator 17.0.0, SVG Export Plug-In . SVG Version: 6.00 Build 0)  -->
<!DOCTYPE svg PUBLIC "-//W3C//DTD SVG 1.1//EN" "http://www.w3.org/Graphics/SVG/1.1/DTD/svg11.dtd">
<svg version="1.1" id="Capa_1" xmlns="http://www.w3.org/2000/svg" xmlns:xlink="http://www.w3.org/1999/xlink" x="0px" y="0px"
	 width="64px" height="64px" viewBox="0 0 64 64" style="enable-background:new 0 0 64 64;" xml:space="preserve">
<g>
	<ellipse cx="31.832" cy="25.278" rx="12.096" ry="2.027"/>
	<path d="M20.389,27.306l1.375,8.998h20.139l1.375-8.998c-2.564,1.038-7.277,1.306-11.445,1.306
		C27.664,28.611,22.953,28.344,20.389,27.306z"/>
	<circle cx="30.305" cy="19.033" r="1.049"/>
	<circle cx="36.527" cy="19.522" r="1.049"/>
	<path d="M28.207,18.474L9.432,20.37c-1.1,0.111-1.631,0.89-1.186,1.739c0.443,0.851,1.678,1.351,2.758,1.118l17.203-3.705V18.474z"
		/>
	<path d="M22.684,4.139c-0.811,0.541-0.832,1.611-0.049,2.39l12.006,11.945l1.119-1.329L25.43,4.699
		C24.725,3.85,23.496,3.599,22.684,4.139z"/>
	<path d="M39.242,53.95l-6.494-4.786c0.906-0.276,1.523-0.794,1.523-1.394c0-0.725-0.896-1.33-2.123-1.531l-0.27-6.476l-1.678,0.07
		l0.268,6.396c-1.25,0.192-2.17,0.806-2.17,1.54c0,0.66,0.738,1.226,1.795,1.475l-6.889,5.565l0.115,0.143
		c-0.732,0.127-1.266,0.492-1.266,0.929c0,0.541,0.814,0.979,1.818,0.979c1.004,0,1.818-0.438,1.818-0.979
		c0-0.229-0.152-0.437-0.396-0.603l5.373-4.342l0.309,7.372c-0.57,0.165-0.961,0.486-0.961,0.858c0,0.541,0.812,0.979,1.816,0.979
		c1.004,0,1.818-0.438,1.818-0.979c0-0.38-0.406-0.706-0.994-0.868l-0.309-7.348l4.826,3.558c-0.1,0.12-0.156,0.253-0.156,0.393
		c0,0.541,0.814,0.979,1.818,0.979c1.004,0,1.818-0.438,1.818-0.979C40.654,54.438,40.049,54.05,39.242,53.95z"/>
</g>
</svg>
