<?xml version="1.0" encoding="iso-8859-1"?>
<!-- Generator: Adobe Illustrator 17.0.0, SVG Export Plug-In . SVG Version: 6.00 Build 0)  -->
<!DOCTYPE svg PUBLIC "-//W3C//DTD SVG 1.1//EN" "http://www.w3.org/Graphics/SVG/1.1/DTD/svg11.dtd">
<svg version="1.1" id="Capa_1" xmlns="http://www.w3.org/2000/svg" xmlns:xlink="http://www.w3.org/1999/xlink" x="0px" y="0px"
	 width="64px" height="64px" viewBox="0 0 64 64" style="enable-background:new 0 0 64 64;" xml:space="preserve">
<g>
	<path d="M41.259,52.401c-0.449,0-0.885,0.135-1.256,0.383l-5.508-3.52V31.69h-2.33V48.99l-0.117-0.004l-0.027,0.348l-5.132,3.314
		c-0.316-0.164-0.651-0.247-0.995-0.247c-1.254,0-2.276,1.022-2.276,2.277c0,1.255,1.022,2.277,2.276,2.277
		c1.256,0,2.278-1.022,2.278-2.277c0-0.031-0.001-0.062-0.005-0.095l4.034-2.632v2.281c-0.734,0.398-1.216,1.158-1.216,1.984
		c0,1.257,1.021,2.278,2.277,2.278c1.255,0,2.276-1.021,2.276-2.278c0-0.782-0.406-1.503-1.048-1.913v-2.382l4.499,2.968
		c0.107,1.157,1.084,2.066,2.269,2.066c1.254,0,2.276-1.022,2.276-2.277C43.535,53.424,42.513,52.401,41.259,52.401z"/>
	<ellipse cx="33.576" cy="15.008" rx="4.332" ry="1.061"/>
	<path d="M30.561,18.627v11.199c0.925,0.082,1.925,0.135,3.015,0.135c0.493,0,0.97-0.008,1.432-0.021V18.59
		c-0.253-0.201-0.425-0.496-0.425-0.846c0-0.003,0.003-0.008,0.003-0.013c-0.334,0.008-0.67,0.013-1.01,0.013
		c-0.877,0-1.727-0.027-2.547-0.074c0.002,0.026,0.014,0.048,0.014,0.074C31.043,18.117,30.845,18.432,30.561,18.627z"/>
	<path d="M26.531,17.131c-0.052,0.26-0.184,0.479-0.383,0.638v11.3c0.868,0.232,1.89,0.445,3.073,0.606V18.551
		c-0.224-0.2-0.369-0.482-0.369-0.807c0-0.09,0.031-0.17,0.052-0.253C28.052,17.395,27.253,17.275,26.531,17.131z"/>
	<path d="M33.576,11.536c-2.089,0-12.509,0.197-12.509,4.077c0,0.856,0.526,1.524,1.341,2.06v7.244c0,1.464,1.021,3.246,2.399,3.745
		V17.769c-0.253-0.201-0.424-0.498-0.424-0.847c0-0.119,0.031-0.23,0.067-0.339c-1.281-0.445-2.043-0.988-2.043-1.575
		c0-1.512,5-2.735,11.168-2.735c6.168,0,11.167,1.224,11.167,2.735c0,0.641-0.904,1.228-2.409,1.694
		c0.015,0.073,0.045,0.143,0.045,0.22c0,0.349-0.173,0.646-0.426,0.847v11.335c0.073-0.017,0.154-0.033,0.225-0.049
		c1.441-0.338,2.565-1.969,2.565-3.448v-7.933c0.813-0.536,1.341-1.204,1.341-2.06C46.084,11.733,35.665,11.536,33.576,11.536z"/>
	<path d="M36.349,18.59v11.285c1.658-0.104,3.084-0.291,4.264-0.501V17.769c-0.182-0.145-0.308-0.338-0.368-0.567
		c-1.041,0.189-2.217,0.337-3.494,0.43c0.004,0.039,0.023,0.073,0.023,0.113C36.773,18.094,36.602,18.389,36.349,18.59z"/>
</g>
</svg>
