<?xml version="1.0" encoding="iso-8859-1"?>
<!-- Generator: Adobe Illustrator 17.0.0, SVG Export Plug-In . SVG Version: 6.00 Build 0)  -->
<!DOCTYPE svg PUBLIC "-//W3C//DTD SVG 1.1//EN" "http://www.w3.org/Graphics/SVG/1.1/DTD/svg11.dtd">
<svg version="1.1" id="Capa_1" xmlns="http://www.w3.org/2000/svg" xmlns:xlink="http://www.w3.org/1999/xlink" x="0px" y="0px"
	 width="64px" height="64px" viewBox="0 0 64 64" style="enable-background:new 0 0 64 64;" xml:space="preserve">
<g>
	<path d="M59.843,10.597l-3.629-0.142l0.385-3.472l-0.531-0.625l0.435-3.515l-7.251,9.89c0.357,0.626,0.216,1.241-0.007,1.695
		l-0.279-0.323l-9.996,8.647c-2.941,0.918-4.546-0.16-4.546-0.16l-9.507,4.884c6.031-0.208,3.577,0.915,3.577,0.915L1.292,41.784
		c0,0,4.783-0.374,7.195-0.624s0.624,1.289,0.624,1.289s8.942-0.624,11.438-0.707s2.412,2.329,2.412,2.329l-0.458,12.27
		c1.497-1.414,1.123,0.79,1.123,0.79l-0.166,5.657c0,0,10.481-21.794,11.064-22.959c0.582-1.165,1.622-1.705,1.622-1.705
		l16.304-7.736l-7.112,0.707l0.441-1.356c0,0-3.56,0.815-5.141-0.266c-0.66-0.451-0.599-1.388-0.307-2.327l11.391-9.854
		l-0.252-0.291c1.021-0.434,1.638,0.067,1.638,0.067l10.583-5.77l-3.194,0.068L59.843,10.597z"/>
</g>
</svg>
