<?xml version="1.0" encoding="iso-8859-1"?>
<!-- Generator: Adobe Illustrator 17.0.0, SVG Export Plug-In . SVG Version: 6.00 Build 0)  -->
<!DOCTYPE svg PUBLIC "-//W3C//DTD SVG 1.1//EN" "http://www.w3.org/Graphics/SVG/1.1/DTD/svg11.dtd">
<svg version="1.1" id="Capa_1" xmlns="http://www.w3.org/2000/svg" xmlns:xlink="http://www.w3.org/1999/xlink" x="0px" y="0px"
	 width="64px" height="64px" viewBox="0 0 64 64" style="enable-background:new 0 0 64 64;" xml:space="preserve">
<g>
	<path d="M1.892,47.124c7.766-3.596,13.246-1.825,14.502-0.569c1.092,1.092-2.176,11.526-3.306,15.005
		c-0.202,0.621,0.096,0.871,0.671,0.561l10.633-5.74c0.575-0.31,1.15-1.081,1.295-1.718c0.694-3.056,2.708-11.258,4.772-13.322
		c1.785-1.785,4.836-2.302,6.508-2.452c0.651-0.058,1.441-0.523,1.761-1.092l2.216-3.939c0.32-0.57,0.167-0.698-0.38-0.341
		c-1.663,1.083-5.121,2.83-7.441,0.51c-1.004-1.004-0.839-2.701-0.157-4.543l16.472-16.731l0.009,0.009c0,0,1.966-1.909,3.528-1.272
		c0,0,4.627-5.495,7.75-5.437c0,0,1.07-2.4,2.053-4.309L46.669,5.36c0,0,0.84,1.318,0.438,2.843L31.803,23.748
		c-0.547-0.063-1.048-0.263-1.457-0.672c-1.825-1.825,0.816-5.818,2.187-7.627c0.395-0.521,0.258-0.701-0.334-0.425l-5.431,2.527
		c-0.592,0.276-1.166,1.021-1.305,1.66c-0.429,1.973-1.447,5.92-2.994,7.466c-1.74,1.74-12.153,3.763-15.676,4.406
		c-0.643,0.117-1.17,0.736-1.223,1.388C5.134,37.83,2.468,44.111,1.336,46.575C1.063,47.169,1.299,47.399,1.892,47.124z"/>
</g>
</svg>
