<?xml version="1.0" encoding="iso-8859-1"?>
<!-- Generator: Adobe Illustrator 17.0.0, SVG Export Plug-In . SVG Version: 6.00 Build 0)  -->
<!DOCTYPE svg PUBLIC "-//W3C//DTD SVG 1.1//EN" "http://www.w3.org/Graphics/SVG/1.1/DTD/svg11.dtd">
<svg version="1.1" id="Capa_1" xmlns="http://www.w3.org/2000/svg" xmlns:xlink="http://www.w3.org/1999/xlink" x="0px" y="0px"
	 width="64px" height="64px" viewBox="0 0 64 64" style="enable-background:new 0 0 64 64;" xml:space="preserve">
<g>
	<path d="M18.606,41.533l-4.062,12.956c0,0,7.85,0.055,7.795,8.015c0,0,7.027-1.867,8.454-8.783s1.318-11.089,6.972-13.34
		c5.654-2.251,5.819-3.513,6.807-6.039c0.974-2.489-10.414,6.527-7.851-3.567l15.161-15.161c0.687-0.245,1.415-0.223,2.012,0.085
		l0.177-0.177c0.558-1.367,1.564-2.879,2.96-4.274c1.395-1.395,2.908-2.402,4.274-2.96c0,0,0.269-0.27,0.602-0.602
		c0.332-0.332,0.131-1.073-0.45-1.654l-3.418-3.418c-0.581-0.581-1.318-0.785-1.647-0.457l-0.595,0.595
		c-0.556,1.372-1.566,2.892-2.968,4.294c-1.402,1.402-2.922,2.412-4.294,2.968l-0.122,0.122c0.433,0.689,0.445,1.594,0.072,2.409
		L35.585,25.445c-1.782,0.396-5.782,0.48-1.168-8.616c0,0-3.074-1.427-6.368,6.258c-3.294,7.685-7.356,7.246-12.461,8.509
		c-5.105,1.263-11.858,2.306-13.505,11.528C2.082,43.125,9.603,38.568,18.606,41.533z"/>
</g>
</svg>
