<?xml version="1.0" encoding="iso-8859-1"?>
<!-- Generator: Adobe Illustrator 17.0.0, SVG Export Plug-In . SVG Version: 6.00 Build 0)  -->
<!DOCTYPE svg PUBLIC "-//W3C//DTD SVG 1.1//EN" "http://www.w3.org/Graphics/SVG/1.1/DTD/svg11.dtd">
<svg version="1.1" id="Capa_1" xmlns="http://www.w3.org/2000/svg" xmlns:xlink="http://www.w3.org/1999/xlink" x="0px" y="0px"
	 width="64px" height="64px" viewBox="0 0 64 64" style="enable-background:new 0 0 64 64;" xml:space="preserve">
<g>
	<path d="M38.365,50.667l17.038-15.176c0,0-2.425-0.37-7.542,1.019c-4.706,1.278-6.505,2.03-7.24-2.478l10.371-17.431l0.012,0.007
		c1.845-3.019,9.868-11.13,9.868-11.13l1.011-4.63l-16.126,9.926c1.694,1.724,1.298,3.557,1.286,3.612L36.029,32.897
		c-1.316,0.335-3.079,0.287-5.194-0.94c0,0-3.297,8.907-4.304,10.239c-1.007,1.332-18.409,9.427-24.414,15.793
		c0,0,21.402,2.008,34.398,5.164C36.514,63.153,37.251,62.876,38.365,50.667z"/>
</g>
</svg>
