<?xml version="1.0" encoding="iso-8859-1"?>
<!-- Generator: Adobe Illustrator 17.0.0, SVG Export Plug-In . SVG Version: 6.00 Build 0)  -->
<!DOCTYPE svg PUBLIC "-//W3C//DTD SVG 1.1//EN" "http://www.w3.org/Graphics/SVG/1.1/DTD/svg11.dtd">
<svg version="1.1" id="Capa_1" xmlns="http://www.w3.org/2000/svg" xmlns:xlink="http://www.w3.org/1999/xlink" x="0px" y="0px"
	 width="64px" height="64px" viewBox="0 0 64 64" style="enable-background:new 0 0 64 64;" xml:space="preserve">
<g>
	<path d="M58.277,1.934c0,0-0.671-0.537-3.122,3.257c-2.451,3.794-6.077,5.003-6.077,5.003c0.47,1.88-0.94,3.966-0.94,3.966v0
		l-11.232,11.3c-1.432,0.952-4.732,2.717-3.811-1.95c1.168-5.913,1.964-6.216,1.964-6.216s-6.35,1.277-10.406,5.828
		c0,0,5.492,10.485-12.251,13.319C-5.34,39.274,4.406,54.706,4.406,54.706s12.139-6.305,21.074,7.476c0,0,1.295-1.268,3.578-9.519
		s6.465-14.628,13.875-16.354c7.41-1.726,9.661-1.079,6.287-5.993c0,0-1.087,3.011-8.366,3.047c-4.166,0.02-3.961-2.13-3.024-3.973
		l12.659-12.735c1.813-1.611,4.33-1.258,4.33-1.258s0.571-3.794,4.633-6.312c4.062-2.518,3.895-3.559,3.895-3.559
		C56.833,5.526,58.277,1.934,58.277,1.934z"/>
</g>
</svg>
