<?xml version="1.0" encoding="iso-8859-1"?>
<!-- Generator: Adobe Illustrator 17.0.0, SVG Export Plug-In . SVG Version: 6.00 Build 0)  -->
<!DOCTYPE svg PUBLIC "-//W3C//DTD SVG 1.1//EN" "http://www.w3.org/Graphics/SVG/1.1/DTD/svg11.dtd">
<svg version="1.1" id="Capa_1" xmlns="http://www.w3.org/2000/svg" xmlns:xlink="http://www.w3.org/1999/xlink" x="0px" y="0px"
	 width="64px" height="64px" viewBox="0 0 64 64" style="enable-background:new 0 0 64 64;" xml:space="preserve">
<g>
	<path d="M58.031,11.27l-0.678,0.498c-0.756,1.272-1.984,2.623-3.581,3.798c-1.597,1.175-3.252,1.945-4.692,2.288l-0.139,0.102
		c0.324,0.747,0.2,1.643-0.291,2.393L34.425,30.817c-1.587-0.503-2.049-2.057-2.156-3.243l11.81-13.322
		c0.671-0.286,1.399-0.308,2.013-0.036l0.166-0.187c0.475-1.398,1.388-2.968,2.697-4.444c1.309-1.477,2.758-2.572,4.089-3.211
		c0,0,0.253-0.285,0.565-0.637c0.312-0.352,0.066-1.079-0.548-1.624l-3.617-3.207c-0.615-0.545-1.363-0.705-1.671-0.357
		l-0.558,0.629c-0.473,1.403-1.39,2.981-2.705,4.465c-1.315,1.484-2.772,2.583-4.108,3.221l-0.115,0.129
		c0.474,0.662,0.54,1.564,0.216,2.401L29.137,24.214c-1.3-0.383-2.611-1.989-0.465-7.811c0,0-2.676-0.884-5.163,6.101
		c-2.515,7.063-6.302,6.726-10.693,8.016c-4.391,1.29-8.762,3.874-10.553,11.78c0,0,5.835-6.332,10.901-6.031l0.871,15.797
		c0,0,7.722-2.568,8.463,9.684c0,0,8.486-2.782,9.993-8.72s0.761-9.075,5.661-11.228c4.9-2.153,5.923-3.635,6.87-5.822
		c0.887-2.048-7.969,5.46-7.633-1.667l14.161-10.419c0.716-0.139,1.432-0.008,1.976,0.387l0.201-0.148
		c0.757-1.267,1.98-2.611,3.569-3.78c1.59-1.169,3.236-1.937,4.671-2.283c0,0,0.307-0.226,0.686-0.504
		c0.379-0.279,0.291-1.041-0.196-1.703l-2.865-3.894C59.104,11.308,58.406,10.995,58.031,11.27z"/>
</g>
</svg>
