<?xml version="1.0" encoding="iso-8859-1"?>
<!-- Generator: Adobe Illustrator 17.0.0, SVG Export Plug-In . SVG Version: 6.00 Build 0)  -->
<!DOCTYPE svg PUBLIC "-//W3C//DTD SVG 1.1//EN" "http://www.w3.org/Graphics/SVG/1.1/DTD/svg11.dtd">
<svg version="1.1" id="Capa_1" xmlns="http://www.w3.org/2000/svg" xmlns:xlink="http://www.w3.org/1999/xlink" x="0px" y="0px"
	 width="64px" height="64px" viewBox="0 0 64 64" style="enable-background:new 0 0 64 64;" xml:space="preserve">
<g>
	<path d="M20.155,48.802c0.034-0.375,0.142-0.729,0.339-1.045c1.001-1.608,3.827-1.658,6.31-0.111
		c2.484,1.547,4.295,4.484,3.294,6.092c-0.244,0.392-0.634,0.666-1.117,0.838c1.018,1.647,1.161,3.898,0.016,7.512l0.182,0.09
		c5.451-1.789,11.294-8.623,11.294-8.623s-0.565-2.15,0.028-9.556c0.593-7.406,6.642-4.38,6.642-4.38l3.007-12.302
		c-1.851,2.973-4.32,6.936-7.767,5.847c-1.923-0.608-1.342-3.278-0.454-5.521l10.329-12.645c1.131-0.949,2.306-0.717,3.512,0.271
		l0.558-0.636c0.015-1.205,0.547-2.832,1.729-4.179c1.331-1.516,2.977-2.387,4.124-2.491l0.125-0.142l0.393-4.423l-0.141-0.124
		c-0.083,0.176-0.189,0.344-0.324,0.497l-1.612,1.837c-0.77,0.878-2.106,0.965-2.984,0.195c-0.878-0.77-0.965-2.106-0.195-2.984
		l1.612-1.837c0.135-0.153,0.287-0.281,0.451-0.386l-0.141-0.124l-4.335,0.963l-0.125,0.142c0.046,1.151-0.604,2.896-1.934,4.413
		c-1.182,1.347-2.726,2.086-3.919,2.257l-0.555,0.633c0.982,0.874,1.451,1.793,1.204,2.778L39.063,24.683
		c-0.849,0.434-1.795,0.672-2.721,0.383c-2.726-0.851,2.839-10.821,2.839-10.821l-11.786,9.692
		c6.086,2.627,4.323,6.818-11.894,14.173C-0.716,45.465,0.916,48.28,0.916,48.28l0.441,0.217
		C6.313,45.791,15.151,46.396,20.155,48.802z"/>
</g>
</svg>
