<?xml version="1.0" encoding="iso-8859-1"?>
<!-- Generator: Adobe Illustrator 17.0.0, SVG Export Plug-In . SVG Version: 6.00 Build 0)  -->
<!DOCTYPE svg PUBLIC "-//W3C//DTD SVG 1.1//EN" "http://www.w3.org/Graphics/SVG/1.1/DTD/svg11.dtd">
<svg version="1.1" id="Capa_1" xmlns="http://www.w3.org/2000/svg" xmlns:xlink="http://www.w3.org/1999/xlink" x="0px" y="0px"
	 width="64px" height="64px" viewBox="0 0 64 64" style="enable-background:new 0 0 64 64;" xml:space="preserve">
<g>
	<path d="M1.213,52.991c0,0,2.156-1.848,3.311-4.081s3.696-5.083,4.62-3.388c0.924,1.694-1.463,4.081-1.463,4.081
		c2.118-0.38,3.963,1.037,4.87,1.907c0.87,0.907,2.287,2.752,1.907,4.87c0,0,2.387-2.387,4.081-1.463
		c1.694,0.924-1.155,3.465-3.388,4.62c-2.233,1.155-4.081,3.311-4.081,3.311s11.474-3.157,16.634,0.154c0,0,0-4.158,4.543-8.24
		c4.544-4.081,5.16-4.852,5.006-5.93c0,0-6.007,4.158-9.01,3.311c-3.003-0.847-0.77-5.237,1.155-5.622
		c1.925-0.385,0.539,3.619,0.539,3.619s5.16-4.697,11.012-4.081c0,0,2.541-6.238,7.47-7.778c0,0,0.77-3.696,1.771-7.624
		s-0.231-6.238-0.231-6.238s-0.693,9.934-10.242,14.708c-8.083,4.041-6.639-3.244-6.005-5.578L50.37,15.687l0.002,0.002
		c0.065-0.077,0.134-0.153,0.207-0.226c1.156-1.156,2.891-1.296,3.874-0.313c0.065,0.065,0.124,0.133,0.179,0.203L61.769,1
		L47.416,8.137c0.071,0.055,0.139,0.114,0.203,0.179c0.983,0.984,0.843,2.718-0.313,3.875c-0.073,0.073-0.149,0.142-0.226,0.207
		l0.013,0.013l-17.71,18.198c-2.909,0.585-7.969,0.773-4.451-6.263c4.775-9.549,14.709-10.242,14.709-10.242
		s-2.31-1.232-6.238-0.231c-3.927,1.001-7.624,1.771-7.624,1.771c-1.54,4.928-7.778,7.47-7.778,7.47
		c0.616,5.853-4.081,11.012-4.081,11.012s4.004-1.386,3.619,0.539c-0.385,1.925-4.775,4.158-5.622,1.155s3.311-9.01,3.311-9.01
		c-1.078-0.154-1.848,0.462-5.93,5.006c-4.081,4.543-8.24,4.543-8.24,4.543C4.371,41.517,1.213,52.991,1.213,52.991z"/>
</g>
</svg>
