<?xml version="1.0" encoding="iso-8859-1"?>
<!-- Generator: Adobe Illustrator 17.0.0, SVG Export Plug-In . SVG Version: 6.00 Build 0)  -->
<!DOCTYPE svg PUBLIC "-//W3C//DTD SVG 1.1//EN" "http://www.w3.org/Graphics/SVG/1.1/DTD/svg11.dtd">
<svg version="1.1" id="Capa_1" xmlns="http://www.w3.org/2000/svg" xmlns:xlink="http://www.w3.org/1999/xlink" x="0px" y="0px"
	 width="64px" height="64px" viewBox="0 0 64 64" style="enable-background:new 0 0 64 64;" xml:space="preserve">
<g>
	<path d="M29.481,6c-14.359,0-26,11.641-26,26s11.641,26,26,26c14.359,0,26-11.641,26-26S43.841,6,29.481,6z M30.186,33.768
		l-9.884,5.668c-1.701,0.977-3.082,0.176-3.082-1.785v-11.3c0-1.963,1.381-2.763,3.082-1.786l9.884,5.668
		C31.889,31.209,31.889,32.792,30.186,33.768z M45.13,33.768l-9.885,5.668c-1.701,0.977-3.082,0.176-3.082-1.785v-11.3
		c0-1.963,1.381-2.763,3.082-1.786l9.885,5.668C46.832,31.209,46.832,32.792,45.13,33.768z"/>
</g>
</svg>
