<?xml version="1.0" encoding="iso-8859-1"?>
<!-- Generator: Adobe Illustrator 17.0.0, SVG Export Plug-In . SVG Version: 6.00 Build 0)  -->
<!DOCTYPE svg PUBLIC "-//W3C//DTD SVG 1.1//EN" "http://www.w3.org/Graphics/SVG/1.1/DTD/svg11.dtd">
<svg version="1.1" id="Capa_1" xmlns="http://www.w3.org/2000/svg" xmlns:xlink="http://www.w3.org/1999/xlink" x="0px" y="0px"
	 width="64px" height="64px" viewBox="0 0 64 64" style="enable-background:new 0 0 64 64;" xml:space="preserve">
<g>
	<path d="M31.148,6c-14.359,0-26,11.641-26,26s11.641,26,26,26c14.359,0,26-11.641,26-26S45.508,6,31.148,6z M27.13,33.81
		l-10.115,5.802c-1.743,0.998-3.156,0.18-3.156-1.829V26.218c0-2.009,1.413-2.827,3.156-1.828l10.115,5.802
		C28.873,31.19,28.873,32.811,27.13,33.81z M46.444,37.516c0,2.008-1.104,3.637-2.466,3.637c-1.361,0-2.464-1.629-2.464-3.637
		v-3.184l-9.206,5.279c-1.742,0.998-3.154,0.18-3.154-1.829V26.218c0-2.009,1.412-2.827,3.154-1.828l9.206,5.28v-3.186
		c0-2.008,1.103-3.637,2.464-3.637c1.361,0,2.466,1.629,2.466,3.637V37.516z"/>
</g>
</svg>
