<?xml version="1.0" encoding="iso-8859-1"?>
<!-- Generator: Adobe Illustrator 17.0.0, SVG Export Plug-In . SVG Version: 6.00 Build 0)  -->
<!DOCTYPE svg PUBLIC "-//W3C//DTD SVG 1.1//EN" "http://www.w3.org/Graphics/SVG/1.1/DTD/svg11.dtd">
<svg version="1.1" id="Capa_1" xmlns="http://www.w3.org/2000/svg" xmlns:xlink="http://www.w3.org/1999/xlink" x="0px" y="0px"
	 width="64px" height="64px" viewBox="0 0 64 64" style="enable-background:new 0 0 64 64;" xml:space="preserve">
<g>
	<path d="M9.625,20.5h15.5c0.567,0,1.395-0.485,1.697-1.019l3.161-5.231H9.625c-4.418,0-8,3.582-8,8v2.647
		C3.315,22.258,6.265,20.5,9.625,20.5z"/>
	<path d="M54.375,11h-18.75c-1.105,0-2.439,0.78-2.981,1.743l-0.91,1.507l-3.629,6.007C27.564,21.22,26.23,22,25.125,22h-15.5
		c-4.418,0-8,3.582-8,8v14.75v1.75c0,4.418,3.582,8,8,8h44.75c4.418,0,8-3.582,8-8v-1.75v-22.5V19
		C62.375,14.582,58.793,11,54.375,11z M21.427,33.601h6.705l2.072-6.377c0.992-3.052,2.599-3.052,3.591,0l2.072,6.377h6.705
		c3.209,0,3.706,1.529,1.11,3.415l-5.425,3.941l2.072,6.377c0.992,3.052-0.309,3.997-2.905,2.111L32,45.504l-5.425,3.941
		c-2.596,1.886-3.897,0.941-2.905-2.111l2.072-6.377l-5.425-3.941C17.722,35.13,18.218,33.601,21.427,33.601z"/>
</g>
</svg>
