<?xml version="1.0" encoding="iso-8859-1"?>
<!-- Generator: Adobe Illustrator 17.0.0, SVG Export Plug-In . SVG Version: 6.00 Build 0)  -->
<!DOCTYPE svg PUBLIC "-//W3C//DTD SVG 1.1//EN" "http://www.w3.org/Graphics/SVG/1.1/DTD/svg11.dtd">
<svg version="1.1" id="Capa_1" xmlns="http://www.w3.org/2000/svg" xmlns:xlink="http://www.w3.org/1999/xlink" x="0px" y="0px"
	 width="64px" height="64px" viewBox="0 0 64 64" style="enable-background:new 0 0 64 64;" xml:space="preserve">
<path d="M9.636,4.854C8.197,3.415,6.048,3.232,4.834,4.445L3.37,5.91c-1.213,1.213-1.031,3.363,0.408,4.802l49.927,49.927
	c1.439,1.439,3.588,1.621,4.802,0.408l1.465-1.465c1.213-1.213,1.031-3.363-0.408-4.802L9.636,4.854z M15.053,19.599l-7.33-7.33
	l3.6-3.6l7.33,7.33l-0.048,0.048l-6.606-5.907l-2.762,2.848l5.821,6.606L15.053,19.599z M33.382,34.457
	c-0.792,0.792-2.076,0.792-2.868,0s-0.792-2.076,0-2.868s2.076-0.792,2.868,0S34.174,33.665,33.382,34.457z M38.401,39.477
	c-0.792,0.792-2.076,0.792-2.868,0s-0.792-2.076,0-2.868s2.076-0.792,2.868,0S39.193,38.685,38.401,39.477z M43.42,44.496
	c-0.792,0.792-2.076,0.792-2.868,0s-0.792-2.076,0-2.868s2.076-0.792,2.868,0S44.212,43.704,43.42,44.496z M48.439,49.515
	c-0.792,0.792-2.076,0.792-2.868,0s-0.792-2.076,0-2.868s2.076-0.792,2.868,0S49.231,48.723,48.439,49.515z"/>
</svg>
