<?xml version="1.0" encoding="iso-8859-1"?>
<!-- Generator: Adobe Illustrator 17.0.0, SVG Export Plug-In . SVG Version: 6.00 Build 0)  -->
<!DOCTYPE svg PUBLIC "-//W3C//DTD SVG 1.1//EN" "http://www.w3.org/Graphics/SVG/1.1/DTD/svg11.dtd">
<svg version="1.1" id="Capa_1" xmlns="http://www.w3.org/2000/svg" xmlns:xlink="http://www.w3.org/1999/xlink" x="0px" y="0px"
	 width="64px" height="64px" viewBox="0 0 64 64" style="enable-background:new 0 0 64 64;" xml:space="preserve">
<path d="M38.817,28.896L22.64,19.619c-2.785-1.598-5.045-0.289-5.045,2.924v18.494c0,3.211,2.26,4.519,5.045,2.922l16.178-9.275
	C41.602,33.086,41.602,30.494,38.817,28.896z"/>
<path d="M37.036,43.959l16.178-9.275c2.787-1.598,2.787-4.19,0-5.787l-16.178-9.277c-2.727-1.564-4.941-0.34-5.035,2.725
	l9.158,5.252c1.807,1.035,2.844,2.565,2.844,4.193c0,1.631-1.037,3.158-2.844,4.195l-9.158,5.25
	C32.095,44.297,34.31,45.523,37.036,43.959z"/>
</svg>
