<?xml version="1.0" encoding="iso-8859-1"?>
<!-- Generator: Adobe Illustrator 17.0.0, SVG Export Plug-In . SVG Version: 6.00 Build 0)  -->
<!DOCTYPE svg PUBLIC "-//W3C//DTD SVG 1.1//EN" "http://www.w3.org/Graphics/SVG/1.1/DTD/svg11.dtd">
<svg version="1.1" id="Capa_1" xmlns="http://www.w3.org/2000/svg" xmlns:xlink="http://www.w3.org/1999/xlink" x="0px" y="0px"
	 width="64px" height="64px" viewBox="0 0 64 64" style="enable-background:new 0 0 64 64;" xml:space="preserve">
<g>
	<path d="M57.149,32c0-14.359-11.641-26-26-26c-14.359,0-26,11.641-26,26s11.641,26,26,26C45.509,58,57.149,46.359,57.149,32z
		 M17.716,38.261V25.742c0-2.176,1.53-3.062,3.416-1.981l10.951,6.281c1.885,1.081,1.885,2.836,0,3.917l-10.951,6.278
		C19.246,41.32,17.716,40.434,17.716,38.261z M27.469,38.395l6.199-3.555c1.223-0.701,1.925-1.735,1.925-2.839
		c0-1.103-0.702-2.138-1.925-2.839l-6.199-3.556c0.063-2.073,1.562-2.902,3.408-1.845l9.697,5.562V26.03
		c0-2.175,1.194-3.938,2.668-3.938s2.669,1.764,2.669,3.938v11.94c0,2.174-1.195,3.938-2.669,3.938s-2.668-1.764-2.668-3.938v-3.292
		l-9.697,5.56C29.031,41.297,27.532,40.468,27.469,38.395z"/>
</g>
</svg>
