<?xml version="1.0" encoding="iso-8859-1"?>
<!-- Generator: Adobe Illustrator 17.0.0, SVG Export Plug-In . SVG Version: 6.00 Build 0)  -->
<!DOCTYPE svg PUBLIC "-//W3C//DTD SVG 1.1//EN" "http://www.w3.org/Graphics/SVG/1.1/DTD/svg11.dtd">
<svg version="1.1" id="Capa_1" xmlns="http://www.w3.org/2000/svg" xmlns:xlink="http://www.w3.org/1999/xlink" x="0px" y="0px"
	 width="64px" height="64px" viewBox="0 0 64 64" style="enable-background:new 0 0 64 64;" xml:space="preserve">
<path d="M19.744,40.804c1.852,4.632,9.449,8.02,14.107,5.607c1.732,4.086,2.2,13.476-6.956,10.685
	c-0.025,0.013-0.397-0.14-0.762-0.429c2.054,0.473,4.096-1.094,4.096-3.261c0-1.843-1.504-3.346-3.347-3.346
	c-4.78,0-4.256,7.392,0.802,8.06c2.094,0.276,3.693-0.007,4.893-0.656c4.309-2.337,2.88-7.442,1.949-11.262
	c0.702-0.49,4.061-1.998,4.727-5.397c0.797-5.983-3.101-8.343-7.762-7.869l-1.322-6.005c1.494-1.276,2.976-2.638,4.055-4.291
	c3.289-5.037,2.63-11.512-1.064-16.26c-0.365-0.468-1.007-0.464-1.379-0.001c-4.108,5.105-4.207,9.2-3.735,12.395
	c0.202,1.238,0.505,2.47,0.66,3.712c-1.195,1.046-2.495,2.167-3.732,3.416C21.252,29.775,17.828,35.221,19.744,40.804z
	 M34.229,45.365c-0.731-3.32-1.386-6.291-2.105-9.556C38.083,35.733,38.705,42.729,34.229,45.365z M30.449,11.98
	c0.672-1.385,1.496-2.988,2.851-2.645c1.944,0.491,2.385,3.589,1.374,6.318c-0.945,2.549-2.848,4.075-3.254,4.584
	c-0.763,0.956-1.543,1.698-2.249,1.903C28.771,20.007,28.967,15.025,30.449,11.98z M29.559,27.444l1.212,5.491
	c-4.941,0.87-7.382,7.551-2.658,9.805c0.536,0.255,0.59,0.117,0.204-0.333c-2.016-2.353-0.525-6.395,3.09-6.596
	c0.755,3.422,1.43,6.48,2.184,9.89c-4.453,2.076-10.142,0.287-11.636-4.729c-0.189-0.281-0.209-0.584-0.211-0.909
	C20.739,33.918,25.534,30.813,29.559,27.444z"/>
</svg>
