<?xml version="1.0" encoding="iso-8859-1"?>
<!-- Generator: Adobe Illustrator 17.0.0, SVG Export Plug-In . SVG Version: 6.00 Build 0)  -->
<!DOCTYPE svg PUBLIC "-//W3C//DTD SVG 1.1//EN" "http://www.w3.org/Graphics/SVG/1.1/DTD/svg11.dtd">
<svg version="1.1" id="Capa_1" xmlns="http://www.w3.org/2000/svg" xmlns:xlink="http://www.w3.org/1999/xlink" x="0px" y="0px"
	 width="64px" height="64px" viewBox="0 0 64 64" style="enable-background:new 0 0 64 64;" xml:space="preserve">
<path d="M21.621,25.849c-2.039,2.557-3.16,5.154-3.328,7.72c-0.188,2.892,0.637,5.64,2.455,8.165c1.926,2.69,4.359,4.149,7.23,4.337
	c0.965,0.063,1.873,0.037,2.711-0.077c0.172,0.975,0.344,1.944,0.506,2.903c0.199,1.296,0.27,2.421,0.209,3.342
	c-0.084,1.274-0.482,2.316-1.184,3.098c-0.76,0.845-1.707,1.215-2.908,1.137c-0.523-0.034-0.984-0.169-1.389-0.408
	c0.477-0.11,0.91-0.315,1.289-0.61c0.734-0.569,1.145-1.396,1.213-2.456c0.064-1.018-0.195-1.91-0.773-2.646
	c-0.615-0.807-1.451-1.251-2.484-1.32c-1.055-0.069-2.012,0.358-2.797,1.249c-0.697,0.79-1.088,1.719-1.154,2.762
	c-0.102,1.558,0.49,2.888,1.764,3.952c1.117,0.933,2.455,1.455,3.977,1.555c0.865,0.057,1.701-0.043,2.48-0.297
	c0.639-0.208,1.254-0.524,1.83-0.938c1.393-1.004,2.15-2.317,2.254-3.906c0.08-1.211,0.018-2.645-0.186-4.28l-0.568-3.684
	c1.455-0.486,2.676-1.364,3.627-2.606c1.01-1.312,1.578-2.862,1.693-4.607c0.141-2.143-0.371-4.086-1.523-5.776
	c-1.264-1.852-2.996-2.863-5.148-3.004c-0.248-0.016-0.508-0.014-0.779,0.006l-0.605-4.524c1.678-1.434,3.037-3.237,4.041-5.362
	c0.994-2.111,1.578-4.396,1.734-6.79c0.092-1.407-0.102-3.153-0.574-5.192c-0.648-2.767-1.572-4.151-2.828-4.234
	c-0.445-0.028-0.934,0.198-1.531,0.723c-1.449,1.31-2.504,2.895-3.135,4.708c-0.488,1.385-0.811,3.236-0.961,5.504
	c-0.074,1.13,0.105,3.05,0.551,5.867C24.66,22.529,22.742,24.443,21.621,25.849z M34.143,38.264c0,1.481-0.732,3.97-1.752,4.577
	l-1.053-7.969C32.932,35.178,34.143,36.581,34.143,38.264z M28.924,16.705c0.094-1.444,0.457-3.012,1.08-4.657
	c0.789-2.059,1.537-2.681,2.025-2.84c0.133-0.043,0.264-0.06,0.402-0.051c0.637,0.042,1.271,0.312,1.162,1.995
	c-0.092,1.426-0.658,2.938-1.68,4.494c-0.822,1.255-1.777,2.302-2.842,3.121C28.922,18.181,28.871,17.49,28.924,16.705z
	 M28.123,26.455l0.416,3.428c-1.156,0.478-2.164,1.233-3.002,2.25c-0.965,1.184-1.502,2.488-1.592,3.876
	c-0.094,1.44,0.229,2.76,0.957,3.916c0.379,0.616,0.9,1.164,1.498,1.61c0.981,0.73,2.111,0.675,2.291,0.278
	c0.182-0.396-0.49-1.018-1.018-1.849c-0.301-0.47-0.447-1.035-0.447-1.699c0-1.41,0.85-2.621,2.062-3.159l1.135,8.839
	c-0.604,0.125-1.281,0.165-2.016,0.117c-1.887-0.124-3.572-0.901-5.012-2.313c-1.504-1.466-2.178-3.082-2.057-4.939
	C21.57,33.292,23.852,29.812,28.123,26.455z"/>
</svg>
