<?xml version="1.0" encoding="iso-8859-1"?>
<!-- Generator: Adobe Illustrator 17.0.0, SVG Export Plug-In . SVG Version: 6.00 Build 0)  -->
<!DOCTYPE svg PUBLIC "-//W3C//DTD SVG 1.1//EN" "http://www.w3.org/Graphics/SVG/1.1/DTD/svg11.dtd">
<svg version="1.1" id="Capa_1" xmlns="http://www.w3.org/2000/svg" xmlns:xlink="http://www.w3.org/1999/xlink" x="0px" y="0px"
	 width="64px" height="64px" viewBox="0 0 64 64" style="enable-background:new 0 0 64 64;" xml:space="preserve">
<path d="M58.7,26.848c-0.014-0.061-0.026-0.124-0.04-0.184c0.003,0.06,0.003,0.121,0.005,0.181
	C58.677,26.845,58.688,26.847,58.7,26.848z"/>
<path d="M42.73,10.68c-2.42-0.651-5.037-0.995-7.812-0.995h-6.079c-3.617,0-6.968,0.578-9.96,1.671
	c-5.89,3.256-9.734,8.826-10.07,15.461h0.012c0.071,0,0.137,0.017,0.207,0.021c2.387-8.438,9.851-13.313,19.811-13.313h6.079
	c0.248,0,0.494,0.011,0.741,0.019c8.617,0.286,15.213,4.151,18.171,10.829C52.699,18.357,48.587,13.438,42.73,10.68z"/>
<path d="M55.546,47.739v8.25c-1.998,0.626-5.328,1.438-11.874-1.9c3.153-2.179,5.661-5.213,7.224-8.754
	c-0.152-0.404-0.246-0.837-0.246-1.293V30.515c0-0.575,0.143-1.113,0.379-1.599c-2.702-6.393-8.497-11.171-15.511-12.415
	c-1.183-0.21-2.397-0.325-3.639-0.325c-5.309,0-10.158,2.003-13.837,5.289c-0.104,0.092-0.206,0.186-0.307,0.281
	c-2.344,2.179-4.171,4.896-5.315,7.945c0.061,0.266,0.1,0.54,0.1,0.824v13.526c0,0.138-0.026,0.269-0.041,0.403
	c1.582,4.089,4.416,7.56,8.036,9.932c-5.892,4.514-10.139,2.728-12.303,1.748v-8.385H4.774c-0.138,0-0.269-0.026-0.403-0.041v9.591
	c0,0.663,0.342,1.279,0.905,1.63c0.063,0.039,2.192,2.206,7.131,2.206c3.507,0,7.702-1.099,11.81-4.825
	c2.373,0.944,4.957,1.469,7.662,1.469c2.757,0,5.388-0.544,7.798-1.522c11.672,7.121,18.35,2.921,18.699,2.734
	c0.622-0.335,1.011-0.984,1.011-1.691v-9.702c-0.317,0.089-0.646,0.152-0.991,0.152H55.546z M31.878,20.015
	c8.834,0,16.104,6.794,16.88,15.43c-2.89-2.645-7.899-5.467-16.073-5.311c-4.456,0.075-7.689-0.868-9.653-2.807
	c-1.038-1.025-1.523-2.149-1.751-2.986c-0.022-0.197-0.043-0.371-0.064-0.538C24.132,21.438,27.841,20.015,31.878,20.015z
	 M14.921,36.973c0-3.37,1-6.506,2.701-9.148c0.039,3.245-0.419,7.425-2.676,9.656C14.942,37.31,14.921,37.144,14.921,36.973z
	 M31.878,53.93c-7.689,0-14.189-5.149-16.26-12.176c0.607-0.324,1.158-0.701,1.65-1.129c2.721-2.366,3.773-6.166,4.1-9.663
	c2.705,2.084,6.529,3.104,11.383,3.011c10.014-0.159,14.18,4.701,15.447,6.652c0.063,0.097,0.114,0.181,0.163,0.263
	C46.587,48.353,39.879,53.93,31.878,53.93z"/>
<path d="M37.265,42.792c-0.795,0-1.44,0.644-1.44,1.44c0,1.68-1.996,3.099-4.359,3.099c-2.363,0-4.359-1.419-4.359-3.099
	c0-0.795-0.644-1.44-1.44-1.44s-1.44,0.644-1.44,1.44c0,3.297,3.247,5.978,7.238,5.978s7.239-2.682,7.239-5.978
	C38.705,43.436,38.06,42.792,37.265,42.792z"/>
<circle cx="24.76" cy="38.092" r="2.48"/>
<circle cx="38.197" cy="38.092" r="2.48"/>
<path d="M57.663,26.817c-0.073-1.75-0.346-3.438-0.805-5.047C54.003,11.731,44.036,4.724,31.466,4.724
	c-14.182,0-25.051,8.919-26.13,21.05c-0.031,0.345-0.052,0.693-0.067,1.044h2.543c0.234-4.899,2.27-9.248,5.588-12.594
	c4.276-4.312,10.671-6.958,18.066-6.958c6.43,0,12.103,2.003,16.286,5.36c4.36,3.499,7.094,8.47,7.367,14.192H57.663z"/>
<path d="M4.774,46.739h3.437h0.61c1.49,0,2.698-1.208,2.698-2.698v-2.849v-8.32v-2.357c0-1.49-1.208-2.698-2.698-2.698H8.795H8.783
	H4.848H4.774c-0.182,0-0.36,0.019-0.532,0.054c-1.235,0.247-2.166,1.336-2.166,2.644v13.526c0,1.352,0.998,2.461,2.295,2.657
	C4.504,46.718,4.636,46.739,4.774,46.739z"/>
<path d="M58.92,27.87c-0.074-0.015-0.153-0.015-0.23-0.023c-0.099-0.011-0.195-0.03-0.296-0.03h-3.43h-0.617
	c-0.068,0-0.132,0.015-0.198,0.02c-1.396,0.103-2.499,1.256-2.499,2.678v0.07v12.779v0.677c0,1.49,1.208,2.698,2.698,2.698h1.198
	h2.848c0.351,0,0.684-0.072,0.991-0.194c0.998-0.396,1.707-1.365,1.707-2.504V30.515C61.092,29.205,60.158,28.115,58.92,27.87z"/>
</svg>
