<?xml version="1.0" encoding="iso-8859-1"?>
<!-- Generator: Adobe Illustrator 17.0.0, SVG Export Plug-In . SVG Version: 6.00 Build 0)  -->
<!DOCTYPE svg PUBLIC "-//W3C//DTD SVG 1.1//EN" "http://www.w3.org/Graphics/SVG/1.1/DTD/svg11.dtd">
<svg version="1.1" id="Capa_1" xmlns="http://www.w3.org/2000/svg" xmlns:xlink="http://www.w3.org/1999/xlink" x="0px" y="0px"
	 width="64px" height="64px" viewBox="0 0 64 64" style="enable-background:new 0 0 64 64;" xml:space="preserve">
<g>
	<path d="M9.625,20.5h15.5c0.567,0,1.395-0.485,1.697-1.019l3.161-5.231H9.625c-4.418,0-8,3.582-8,8v2.647
		C3.315,22.258,6.265,20.5,9.625,20.5z"/>
	<path d="M54.375,11h-18.75c-1.105,0-2.439,0.78-2.981,1.743l-0.91,1.507l-3.629,6.007C27.564,21.22,26.23,22,25.125,22h-15.5
		c-4.418,0-8,3.582-8,8v14.75v1.75c0,4.418,3.582,8,8,8h44.75c4.418,0,8-3.582,8-8v-1.75v-22.5V19
		C62.375,14.582,58.793,11,54.375,11z M17.205,28.108c0.859,0,1.686,0.165,2.465,0.469c1.058,0.3,2.374,0.807,3.457,1.643
		c2.204,1.699,4.453,2.984,6.014,2.158c1.083-0.573,2.195-1.241,3.37-1.433c0.238-0.052,0.485-0.082,0.739-0.082
		c1.894,0,3.43,1.536,3.43,3.43v2.964l7.341-0.057c0.146-0.173,0.307-0.332,0.48-0.447c0.132-0.088,0.267-0.19,0.396-0.308
		c0.424-0.387,1.067-0.736,1.633-0.645c1.47,0.237,4.276,0.576,6.733,0.227c0.568-0.081,1.016,0.275,0.922,0.841
		c-0.04,0.238-0.095,0.498-0.174,0.757c-0.166,0.549-0.166,1.338,0,1.887c0.078,0.259,0.134,0.519,0.174,0.757
		c0.094,0.566-0.355,0.922-0.923,0.841C50.806,40.76,48,41.1,46.53,41.336c-0.566,0.091-1.209-0.259-1.633-0.646
		c-0.129-0.118-0.263-0.22-0.395-0.307c-0.18-0.12-0.349-0.287-0.5-0.471L36.68,39.97v2.612c0,1.597-1.093,2.935-2.571,3.317
		l-0.003,0.005c-0.044,0.012-0.087,0.019-0.13,0.029c-0.017,0.004-0.034,0.008-0.052,0.012c-1.712,0.375-3.276-0.604-4.784-1.402
		c-1.561-0.826-3.81,0.459-6.014,2.158c-1.31,1.01-2.961,1.541-4.084,1.805c-0.396,0.113-0.802,0.19-1.218,0.228
		c-0.044,0.006-0.069,0.008-0.069,0.008v-0.002c-0.182,0.015-0.366,0.025-0.551,0.025c-4.556,0-7.147-4.625-7.147-10.329
		C10.058,32.733,12.649,28.108,17.205,28.108z"/>
	<path d="M25.242,41.94c1.356,0,2.518-0.778,3.1-1.905c0.249-0.481,0.403-1.019,0.403-1.598c0-0.393-0.079-0.765-0.199-1.117
		c-0.468-1.383-1.762-2.385-3.304-2.385c-1.935,0-3.503,1.568-3.503,3.503S23.307,41.94,25.242,41.94z"/>
	<path d="M17.096,41.94h0.163c0.54,0,0.977-0.438,0.977-0.977v-4.684c0-0.54-0.438-0.978-0.977-0.978h-0.163
		c-0.54,0-0.977,0.438-0.977,0.978v4.684C16.118,41.502,16.556,41.94,17.096,41.94z"/>
</g>
</svg>
