<?xml version="1.0" encoding="iso-8859-1"?>
<!-- Generator: Adobe Illustrator 17.0.0, SVG Export Plug-In . SVG Version: 6.00 Build 0)  -->
<!DOCTYPE svg PUBLIC "-//W3C//DTD SVG 1.1//EN" "http://www.w3.org/Graphics/SVG/1.1/DTD/svg11.dtd">
<svg version="1.1" id="Capa_1" xmlns="http://www.w3.org/2000/svg" xmlns:xlink="http://www.w3.org/1999/xlink" x="0px" y="0px"
	 width="64px" height="64px" viewBox="0 0 64 64" style="enable-background:new 0 0 64 64;" xml:space="preserve">
<g>
	<path d="M9.485,55.412c6.491,6.491,13.195,10.31,19.292,4.212c1.881-1.881,2.669-4.55,2.468-7.494
		c0.837-4.675,4.647-5.953,4.647-5.953l-0.002-0.006c1.781-0.532,3.679-1.666,5.345-3.332c2.647-2.647,3.964-5.882,3.621-8.295
		c-2.226,1.067-4.35,1.14-5.522-0.032c-0.709-0.709-0.959-1.769-0.814-2.987c0.11-0.92,0.442-1.93,0.987-2.952l0.999-1.524
		l9.473-9.622l0.005,0.005c0.021-0.025,0.043-0.049,0.063-0.074l0.327-0.332c1.134-1.02,2.651-1.208,3.47-0.389
		c0.037,0.037,0.06,0.082,0.093,0.122c0.049-0.123,0.102-0.248,0.16-0.375c0.597-1.309,1.654-2.805,3.062-4.214
		c1.285-1.285,2.644-2.281,3.867-2.9c0.118-0.06,0.232-0.111,0.347-0.163l0.626-0.626c-0.051-0.397,0.012-0.89,0.327-1.478
		c0,0-1.026-1.426-1.101-2.352c-0.04-0.489-0.336-0.605-0.608-0.608c-0.243-0.003-0.468,0.083-0.468,0.083s0.086-0.224,0.083-0.468
		c-0.004-0.272-0.12-0.569-0.608-0.608c-0.926-0.075-2.352-1.101-2.352-1.101c-0.588,0.315-1.081,0.378-1.478,0.327l-0.626,0.626
		c-0.052,0.115-0.103,0.229-0.163,0.347c-0.618,1.222-1.615,2.582-2.9,3.867c-1.408,1.408-2.905,2.466-4.214,3.062
		c-0.127,0.058-0.252,0.111-0.375,0.16c0.04,0.033,0.085,0.056,0.122,0.093c0.741,0.741,0.662,2.054-0.113,3.138L35.878,25.398
		l-0.708,0.623l-0.009,0.034c-1.636,0.89-3.333,0.951-4.285-0.001c-1.304-1.304-0.716-4.004,1.311-6.032
		c0.242-0.242,0.494-0.462,0.751-0.662c-2.852-1.257-7.416,0.245-11.045,3.874c-1.83,1.83-3.118,3.898-3.788,5.865l-0.002,0.001
		c0,0-0.004,0.015-0.006,0.02c-0.024,0.07-0.043,0.14-0.066,0.21c-0.309,0.913-1.753,4.263-6.117,4.289
		c-0.108,0.001-0.21,0.008-0.322,0.004c-0.031-0.001-0.059,0.003-0.091,0.001l0.001,0.002c-2.439,0.077-4.623,0.885-6.23,2.492
		C-0.89,42.283,2.995,48.922,9.485,55.412z"/>
</g>
</svg>
