<?xml version="1.0" encoding="iso-8859-1"?>
<!-- Generator: Adobe Illustrator 17.0.0, SVG Export Plug-In . SVG Version: 6.00 Build 0)  -->
<!DOCTYPE svg PUBLIC "-//W3C//DTD SVG 1.1//EN" "http://www.w3.org/Graphics/SVG/1.1/DTD/svg11.dtd">
<svg version="1.1" id="Capa_1" xmlns="http://www.w3.org/2000/svg" xmlns:xlink="http://www.w3.org/1999/xlink" x="0px" y="0px"
	 width="64px" height="64px" viewBox="0 0 64 64" style="enable-background:new 0 0 64 64;" xml:space="preserve">
<g>
	<path d="M53.865,9.359l0.938-8.329l-7.521,12.035c0.127,0.473,0.081,0.931-0.038,1.353L33.315,29.11l-6.346,1.899
		c-1.058,0.317-2.549-0.06-3.33-0.841l-0.016-0.016c-0.781-0.781-0.628-1.845,0.377-2.302c0.856-0.389,1.7-0.721,2.526-0.994
		c1.049-0.347,1.101-0.894,0.043-1.211c-6.505-1.948-13.844-0.356-18.982,4.782c-5.391,5.39-6.878,13.203-4.47,19.933
		c0.186,0.52,0.457,0.494,0.606-0.037c0.395-1.409,0.971-2.883,1.716-4.386c0.245-0.495,0.775-0.572,1.166-0.181l1.43,1.43
		c0.391,0.391,0.66,1.152,0.601,1.701l-0.788,7.376c-0.059,0.549,0.339,0.947,0.888,0.888l7.376-0.788
		c0.549-0.059,1.311,0.21,1.701,0.601l1.43,1.43c0.391,0.391,0.314,0.92-0.181,1.166c-1.503,0.745-2.976,1.321-4.384,1.716
		c-0.532,0.149-0.559,0.421-0.039,0.607c6.731,2.408,14.543,0.92,19.933-4.47c5.138-5.138,6.731-12.477,4.782-18.983
		c-0.317-1.058-0.864-1.005-1.211,0.043c-0.273,0.825-0.606,1.67-0.995,2.526c-0.457,1.006-1.521,1.158-2.302,0.377l-0.016-0.016
		c-0.781-0.781-1.079-2.244-0.664-3.268l2.008-4.966l14.419-16.098c0.623-0.207,1.057-0.151,1.057-0.151L63.045,8.77
		c0,0-7.309,1.28-8.205,1.408C53.944,10.306,53.865,9.359,53.865,9.359z"/>
</g>
</svg>
