<?xml version="1.0" encoding="iso-8859-1"?>
<!-- Generator: Adobe Illustrator 17.0.0, SVG Export Plug-In . SVG Version: 6.00 Build 0)  -->
<!DOCTYPE svg PUBLIC "-//W3C//DTD SVG 1.1//EN" "http://www.w3.org/Graphics/SVG/1.1/DTD/svg11.dtd">
<svg version="1.1" id="Capa_1" xmlns="http://www.w3.org/2000/svg" xmlns:xlink="http://www.w3.org/1999/xlink" x="0px" y="0px"
	 width="64px" height="64px" viewBox="0 0 64 64" style="enable-background:new 0 0 64 64;" xml:space="preserve">
<g>
	<path d="M27.345,10.195C27.133,9.864,26.61,9.63,25.995,9.63c-0.804,0-1.454,0.397-1.454,0.889c0,0.49,0.65,0.889,1.454,0.889
		c0.615,0,1.139-0.235,1.351-0.565h0.848l-0.367,2.45l1.203-0.115l2.733,30.25c-0.001,0.028-0.005,0.056-0.005,0.085
		c0,0.251,0.027,0.496,0.078,0.732l0.676,7.477l6.813-1.496l-0.722-5.68c0.101-0.327,0.155-0.674,0.155-1.033
		c0-0.671-0.192-1.295-0.519-1.828L34.55,12.648l1.139-0.109l-0.443-1.696h1.273c0.212,0.33,0.735,0.565,1.352,0.565
		c0.803,0,1.454-0.398,1.454-0.889c0-0.491-0.651-0.889-1.454-0.889c-0.616,0-1.14,0.234-1.352,0.565h-1.442L34.492,7.96h2.027
		c0.212,0.33,0.735,0.565,1.352,0.565c0.803,0,1.454-0.398,1.454-0.889c0-0.491-0.651-0.889-1.454-0.889
		c-0.616,0-1.14,0.235-1.352,0.565h-2.195L33.74,5.078h2.779c0.212,0.331,0.735,0.565,1.352,0.565c0.803,0,1.454-0.398,1.454-0.889
		c0-0.49-0.651-0.889-1.454-0.889c-0.616,0-1.14,0.235-1.352,0.565h-3.027c-0.434-0.79-1.322-1.373-2.206-1.373
		c-0.872,0-1.688,0.581-2.043,1.373h-1.897c-0.212-0.33-0.735-0.565-1.351-0.565c-0.804,0-1.454,0.398-1.454,0.889
		c0,0.491,0.65,0.889,1.454,0.889c0.615,0,1.139-0.234,1.351-0.565h1.712l-0.335,2.235h-1.377c-0.212-0.33-0.735-0.565-1.351-0.565
		c-0.804,0-1.454,0.398-1.454,0.889c0,0.49,0.65,0.889,1.454,0.889c0.615,0,1.139-0.235,1.351-0.565h1.279l-0.335,2.235H27.345z
		 M33.665,50.144l-0.335-3.711c0.453,0.3,0.98,0.497,1.549,0.559l0.294,2.821L33.665,50.144z M37.893,49.216l-1.45,0.317
		l-0.275-2.645c0.5-0.135,0.956-0.374,1.341-0.698L37.893,49.216z M33.263,12.771l3.504,27.586
		c-0.402-0.192-0.846-0.311-1.315-0.336l-2.834-27.188L33.263,12.771z M31.331,12.956l2.838,27.229
		c-0.504,0.165-0.957,0.44-1.331,0.799l-2.523-27.931L31.331,12.956z"/>
	<path d="M27.826,51.202c0,0,0.015-0.021,0.036-0.051c0.05-0.076,0.096-0.153,0.147-0.228L27.826,51.202z"/>
	<path d="M43.58,41.218c0-2.668-2.065-4.96-5.02-5.979l1.987,15.643l-8.753,1.922L30.265,35.88
		c-2.158,1.185-3.571,3.132-3.571,5.338c0,1.367,0.542,2.634,1.467,3.682c0.236,0.269,0.543,0.738,0.623,1.086
		c0.649,2.823-0.69,4.844-0.922,5.166c-0.666,1.036-1.046,2.213-1.046,3.464c0,4.157,4.15,7.527,9.27,7.527
		c5.119,0,9.271-3.37,9.271-7.527c0-1.194-0.344-2.322-0.954-3.324c-0.001,0-2.469-4.364-1.358-7.779
		C43.39,42.798,43.58,42.025,43.58,41.218z"/>
</g>
</svg>
