<?xml version="1.0" encoding="iso-8859-1"?>
<!-- Generator: Adobe Illustrator 17.0.0, SVG Export Plug-In . SVG Version: 6.00 Build 0)  -->
<!DOCTYPE svg PUBLIC "-//W3C//DTD SVG 1.1//EN" "http://www.w3.org/Graphics/SVG/1.1/DTD/svg11.dtd">
<svg version="1.1" id="Capa_1" xmlns="http://www.w3.org/2000/svg" xmlns:xlink="http://www.w3.org/1999/xlink" x="0px" y="0px"
	 width="64px" height="64px" viewBox="0 0 64 64" style="enable-background:new 0 0 64 64;" xml:space="preserve">
<g>
	<path d="M43.349,40.606c-0.863-0.984,0.517-5.64,0.517-5.64c0.022-0.169,0.033-0.34,0.033-0.512c0-2.544-2.437-6.29-5.71-6.858
		h0.025V15.085h1.573V8.946c0-1.788-1.45-3.238-3.239-3.238c-1.789,0-3.238,1.45-3.238,3.238v6.139h1.543V27.57
		c-3.348,0.529-5.855,4.304-5.855,6.885c0,0.174,0.012,0.348,0.034,0.518l0.003-0.002c0,0,1.425,4.626,0.562,5.611h-0.001
		c-3.353,1.609-5.563,4.364-5.563,7.494c0,4.964,5.559,11.417,12.416,11.417c6.857,0,12.416-6.453,12.416-11.417
		C48.865,44.963,46.675,42.218,43.349,40.606z M35.941,8.07c0-0.336,0.271-0.607,0.607-0.607c0.336,0,0.608,0.271,0.608,0.607v5.398
		c0,0.335-0.271,0.607-0.608,0.607c-0.336,0-0.607-0.272-0.607-0.607V8.07z M37.57,15.965v23.483h-0.81V15.965H37.57z
		 M35.528,15.965h0.81v23.483h-0.81V15.965z M36.449,52.512c-2.449,0-4.435-1.985-4.435-4.435c0-2.448,1.985-4.433,4.435-4.433
		s4.435,1.985,4.435,4.433C40.883,50.526,38.898,52.512,36.449,52.512z"/>
	<path d="M41.475,9.268c0-0.308-0.287-0.557-0.642-0.557c-0.353,0-0.641,0-0.641,0v1.114h0.641
		C41.188,9.825,41.475,9.575,41.475,9.268z"/>
	<path d="M40.193,11.326h0.641c0.355,0,0.642-0.249,0.642-0.557s-0.287-0.557-0.642-0.557c-0.353,0-0.641,0-0.641,0V11.326z"/>
	<path d="M40.193,12.827h0.641c0.355,0,0.642-0.249,0.642-0.557s-0.287-0.557-0.642-0.557c-0.353,0-0.641,0-0.641,0V12.827z"/>
	<path d="M40.193,14.328h0.641c0.355,0,0.642-0.249,0.642-0.557s-0.287-0.557-0.642-0.557c-0.353,0-0.641,0-0.641,0V14.328z"/>
</g>
</svg>
