<?xml version="1.0" encoding="iso-8859-1"?>
<!-- Generator: Adobe Illustrator 17.0.0, SVG Export Plug-In . SVG Version: 6.00 Build 0)  -->
<!DOCTYPE svg PUBLIC "-//W3C//DTD SVG 1.1//EN" "http://www.w3.org/Graphics/SVG/1.1/DTD/svg11.dtd">
<svg version="1.1" id="Capa_1" xmlns="http://www.w3.org/2000/svg" xmlns:xlink="http://www.w3.org/1999/xlink" x="0px" y="0px"
	 width="64px" height="64px" viewBox="0 0 64 64" style="enable-background:new 0 0 64 64;" xml:space="preserve">
<g>
	<path d="M57.624,5.974c-0.777-0.817-0.744-2.109,0.073-2.886l1.709-1.625c0.143-0.136,0.301-0.245,0.467-0.332L59.748,1
		l-4.251,0.549l-0.132,0.126c-0.056,1.111-0.832,2.732-2.244,4.073c-1.253,1.192-2.802,1.768-3.964,1.829l-0.589,0.56
		c1.231,1.313,1.485,2.623,0.124,3.938L36.446,23.902c-0.56,0.115-1.166,0.096-1.738-0.215c-1.782-0.969-1.457-3.948,4.546-9.798
		l-13.172,7.077c0,0,3.016,0.981,2.818,3.295s-1.309,3.035-4.264,4.6c-2.955,1.565-22.425,8.485-22.425,8.485l22.708,1.951
		l4.011,21.804l7.081-21.614c0,0,2.364-4.74,6.126-0.757l5.033-11.215c0,0-5.332,7.366-8.451,4.581
		c-1.789-1.598-0.932-3.802,0.124-5.393l12.659-12.226l-0.009-0.01c1.227-0.957,2.388-0.658,3.51,0.443l0.592-0.563
		c0.119-1.157,0.773-2.675,2.026-3.867c1.411-1.342,3.069-2.035,4.182-2.035l0.132-0.126l0.762-4.218l-0.125-0.131
		c-0.095,0.162-0.212,0.314-0.355,0.45l-1.709,1.625C59.692,6.823,58.401,6.791,57.624,5.974z"/>
</g>
</svg>
