<?xml version="1.0" encoding="iso-8859-1"?>
<!-- Generator: Adobe Illustrator 17.0.0, SVG Export Plug-In . SVG Version: 6.00 Build 0)  -->
<!DOCTYPE svg PUBLIC "-//W3C//DTD SVG 1.1//EN" "http://www.w3.org/Graphics/SVG/1.1/DTD/svg11.dtd">
<svg version="1.1" id="Capa_1" xmlns="http://www.w3.org/2000/svg" xmlns:xlink="http://www.w3.org/1999/xlink" x="0px" y="0px"
	 width="64px" height="64px" viewBox="0 0 64 64" style="enable-background:new 0 0 64 64;" xml:space="preserve">
<path d="M21.263,35.416c-1.581,0-3.063,0.619-4.175,1.743c-2.273,2.303-2.251,6.025,0.05,8.3c1.106,1.092,2.57,1.693,4.125,1.693
	c1.581,0,3.063-0.62,4.174-1.744c1.103-1.115,1.703-2.592,1.694-4.159c-0.01-1.567-0.629-3.037-1.744-4.139
	C24.281,36.018,22.816,35.416,21.263,35.416z"/>
<polygon points="7.82,44.896 17.812,54.769 19.818,50.697 11.867,42.842 "/>
<path d="M56.6,1.282C56.411,1.092,56.187,1,55.967,1C55.69,1,55.42,1.148,55.24,1.436l-4.046,6.459
	c-0.322,0.514-0.236,1.279,0.194,1.708L50.61,8.826L34.107,25.329c-1.452-0.889-3.095-1.342-4.74-1.342
	c-2.346,0-4.691,0.902-6.47,2.703c-0.835,0.845-1.463,1.814-1.9,2.845l-0.002-0.002c0,0-0.006,0.016-0.014,0.037
	c-0.029,0.068-0.059,0.136-0.086,0.205c-0.332,0.753-1.545,3.05-3.961,3.128c-0.177-0.012-0.355-0.018-0.533-0.022
	c-0.066-0.007-0.127-0.004-0.194-0.014l0.006,0.006c-0.058-0.001-0.116-0.001-0.174-0.001c-3.535,0-7.068,1.35-9.749,4.063
	C0.969,42.32,1.021,50.999,6.406,56.32c2.671,2.639,6.153,3.957,9.633,3.957c3.536,0,7.069-1.359,9.751-4.073
	c2.725-2.758,4.031-6.379,3.943-9.971l0.006,0.006c-0.01-0.061-0.008-0.117-0.015-0.177c-0.007-0.185-0.015-0.37-0.03-0.554
	c0.051-2.406,2.317-3.644,3.073-3.99c0.074-0.03,0.147-0.064,0.221-0.096c0.011-0.004,0.027-0.01,0.027-0.01l-0.002-0.002
	c1.026-0.449,1.987-1.089,2.822-1.934c2.966-3.001,3.406-7.54,1.356-11.01l16.529-16.529l-0.777-0.777
	c0.254,0.254,0.626,0.388,0.995,0.388c0.253,0,0.504-0.063,0.714-0.195l6.459-4.046c0.514-0.322,0.583-0.931,0.154-1.361L56.6,1.282
	z M36.461,33.04c0.011,1.895-0.716,3.681-2.048,5.03c-0.628,0.636-1.369,1.143-2.201,1.507l-0.216,0.095l-0.018,0.007l-0.035,0.016
	L29.5,40.766l0.32,0.313c-0.404,0.36-0.802,0.79-1.142,1.295l-1.065-1.054l0.095,3.868c-0.006,0.091-0.01,0.183-0.012,0.277
	l-0.002,0.099l0.008,0.098c0.012,0.158,0.019,0.316,0.025,0.474l0.003,0.077l0.005,0.043l0.001,0.026
	c0.079,3.215-1.117,6.24-3.366,8.516c-2.217,2.243-5.174,3.479-8.328,3.479c-3.1,0-6.022-1.2-8.228-3.379
	c-2.224-2.198-3.46-5.13-3.478-8.257c-0.019-3.127,1.181-6.074,3.379-8.299c2.21-2.237,5.167-3.469,8.327-3.469l0.149,0.001l0.038,0
	l0.049,0.005l0.073,0.002c0.152,0.004,0.304,0.009,0.455,0.019l0.097,0.006l0.097-0.003c0.1-0.003,0.199-0.009,0.297-0.017
	l3.818,0.043l-1.042-1.037c0.511-0.351,0.942-0.761,1.302-1.177l0.317,0.312l1.148-2.712c0.354-0.837,0.853-1.584,1.481-2.219
	c1.344-1.36,3.136-2.108,5.047-2.108c1.16,0,2.279,0.279,3.28,0.802l-4.313,4.313l3.111,3.111l4.277-4.277
	C36.194,30.891,36.454,31.944,36.461,33.04z M54.009,9.396l-0.858-0.858l3.034-4.843l2.667,2.667L54.009,9.396z"/>
</svg>
