<?xml version="1.0" encoding="iso-8859-1"?>
<!-- Generator: Adobe Illustrator 17.0.0, SVG Export Plug-In . SVG Version: 6.00 Build 0)  -->
<!DOCTYPE svg PUBLIC "-//W3C//DTD SVG 1.1//EN" "http://www.w3.org/Graphics/SVG/1.1/DTD/svg11.dtd">
<svg version="1.1" id="Capa_1" xmlns="http://www.w3.org/2000/svg" xmlns:xlink="http://www.w3.org/1999/xlink" x="0px" y="0px"
	 width="64px" height="64px" viewBox="0 0 64 64" style="enable-background:new 0 0 64 64;" xml:space="preserve">
<g>
	<path d="M36.736,47.164c-0.381,0.089-0.521,0.521-0.521,0.521v1.908h-5.637v-1.908h0.395l0.041-4.285
		c-0.305-0.412-0.637-0.935-0.984-1.611c-1.518-2.948-1.82-4.076-2.947-4.032c-1.129,0.043-1.908,2.515-0.867,4.162
		c1.039,1.647,2.123,3.252,2.123,5.376c0,2.125-3.164,5.073-3.381,8.021c-0.217,2.949,3.078,5.464,8.238,5.117
		c5.158-0.348,8.932-2.818,8.498-5.334c-0.434-2.515-2.875-3.829-2.848-6.258c0.029-2.428,1.764-2.457,1.59-3.555
		C40.262,44.188,38.391,46.781,36.736,47.164z M36.215,54.854h-5.637v-2.602h5.637V54.854z"/>
	<path d="M22.271,55.143c0.383,3.135,2.42,4.449,4.588,4.907c-0.619-0.353-1.17-0.766-1.619-1.248
		c-0.986-1.061-1.473-2.387-1.375-3.736c0.133-1.792,1.145-3.484,2.037-4.978c0.66-1.103,1.342-2.244,1.342-2.967
		c0-1.722-0.879-3.112-1.812-4.584l-0.15-0.237c-0.932-1.474-0.738-3.318-0.164-4.409c0.436-0.828,1.117-1.319,1.871-1.349
		l0.101-0.002c1.524,0,2.117,1.198,3.1,3.182c0.205,0.415,0.439,0.886,0.713,1.416c0.041,0.08,0.08,0.152,0.121,0.227l0.259-26.378
		l0.688,0.526l0.024-0.008l-0.036,3.823h2.176l-0.132-4.426l1.437-0.431l-0.042-0.359l0.909,0.16v-1.33h-1.046L35.2,12.422h1.106
		l-0.145-1.506l-1.125,0.111L34.486,6.32l-2.516,1.908l-0.638,2.662l-1.849-0.55l-0.434,1.301l2.064,0.159l-0.252,1.053l-1.812-0.23
		l-0.26,1.041l1.84,0.155l-0.135,0.564l0.352,0.269c0.015,2.92-0.03,17.255-2.285,20.6c0,0-0.79,0.016-1.765,0.035
		c-0.975,0.02-2.626,0.376-3.412,1.151c-0.717,0.705-1.333,1.756-1.04,3.18c0.607,2.948,3.121,7.718,2.688,9.191
		C24.6,50.286,21.764,50.979,22.271,55.143z"/>
	<polygon points="31.846,30.658 34.469,30.658 34.406,28.52 31.869,28.52 	"/>
	<polygon points="31.818,33.491 34.553,33.491 34.49,31.352 31.84,31.352 	"/>
	<polygon points="31.791,36.323 34.637,36.323 34.572,34.185 31.812,34.185 	"/>
	<polygon points="31.668,48.858 35.006,48.858 34.908,45.515 31.769,45.515 	"/>
	<polygon points="31.769,39.156 34.719,39.156 34.656,37.017 31.783,37.017 	"/>
	<polygon points="31.769,41.988 34.803,41.988 34.74,39.85 31.769,39.85 	"/>
	<polygon points="31.769,44.821 34.887,44.821 34.824,42.683 31.769,42.683 	"/>
	<polygon points="31.875,27.825 34.385,27.825 34.322,25.687 31.894,25.687 	"/>
	<polygon points="31.951,20.021 31.93,22.16 34.217,22.16 34.156,20.021 	"/>
	<polygon points="31.902,24.993 34.301,24.993 34.238,22.854 31.924,22.854 	"/>
</g>
</svg>
