<?xml version="1.0" encoding="iso-8859-1"?>
<!-- Generator: Adobe Illustrator 17.0.0, SVG Export Plug-In . SVG Version: 6.00 Build 0)  -->
<!DOCTYPE svg PUBLIC "-//W3C//DTD SVG 1.1//EN" "http://www.w3.org/Graphics/SVG/1.1/DTD/svg11.dtd">
<svg version="1.1" id="Capa_1" xmlns="http://www.w3.org/2000/svg" xmlns:xlink="http://www.w3.org/1999/xlink" x="0px" y="0px"
	 width="64px" height="64px" viewBox="0 0 64 64" style="enable-background:new 0 0 64 64;" xml:space="preserve">
<g>
	<path d="M58.779,5.186c-0.277-2.198-1.006-6.778-2-3.824c-1.28,3.806-10.508,9.385-10.508,9.385
		c0.904,1.606,0.608,2.926,0.144,3.803L34.517,25.453c-2.394-2.331-7.591-3.375-8.957-2.574c-1.631,0.956-1.744,2.644-3.487,5.512
		c-1.744,2.869-4.669,5.569-6.374,6.374c-1.705,0.805-8.414,2.239-8.414,2.239l0,0c-2.607,0.464-4.588,2.74-4.588,5.481l1.35,12.651
		c0,3.075,2.493,5.568,5.568,5.568l12.651,1.35c1.363,0,2.612-0.491,3.58-1.304c2.074-1.097,2.582-5.077,4.293-11.4
		s17.076-8.977,15.614-11.002s-5.287-2.587-5.287-2.587c-6.206,1.28-6.372-1.332-5.363-3.823l13.804-14.072
		c0.823-0.595,2.355-1.272,4.311-0.171c0,0,5.579-9.228,9.385-10.508C65.558,6.193,60.978,5.463,58.779,5.186z"/>
</g>
</svg>
