<?xml version="1.0" encoding="iso-8859-1"?>
<!-- Generator: Adobe Illustrator 17.0.0, SVG Export Plug-In . SVG Version: 6.00 Build 0)  -->
<!DOCTYPE svg PUBLIC "-//W3C//DTD SVG 1.1//EN" "http://www.w3.org/Graphics/SVG/1.1/DTD/svg11.dtd">
<svg version="1.1" id="Capa_1" xmlns="http://www.w3.org/2000/svg" xmlns:xlink="http://www.w3.org/1999/xlink" x="0px" y="0px"
	 width="64px" height="64px" viewBox="0 0 64 64" style="enable-background:new 0 0 64 64;" xml:space="preserve">
<g>
	<path d="M60.494,8.429c-0.101-0.104-0.205,0.091-0.265,0.431c-0.195,1.099-0.616,2.057-1.041,2.469
		c-0.971,0.941-3.186,0.229-4.948-1.589c-1.762-1.818-2.402-4.055-1.431-4.996c0.425-0.411,1.396-0.803,2.501-0.962
		c0.342-0.049,0.54-0.148,0.439-0.252l-0.182-0.188c-1.694-1.748-4.16-2.29-6.336-1.617c-0.33,0.102-0.698,0.471-0.832,0.789
		c-0.399,0.951-0.757,1.883-0.975,2.625c-0.107,0.364-0.271,0.848-0.491,1.396l-1.026-1.059c0.391-0.422,0.562-0.809,0.069-1.317
		c-0.731-0.754-1.934-0.773-2.689-0.043c-0.754,0.731-0.773,1.934-0.043,2.689c0.493,0.509,0.885,0.351,1.319-0.027l1.512,1.561
		c-0.556,0.999-1.299,2.067-2.271,3.053L42.3,9.84c0.391-0.422,0.562-0.809,0.069-1.317c-0.731-0.754-1.934-0.773-2.689-0.043
		c-0.754,0.731-0.773,1.934-0.043,2.689c0.493,0.509,0.885,0.351,1.319-0.027l1.43,1.476c-0.979,0.732-2.131,1.359-3.486,1.799
		l-1.511-1.56c0.391-0.422,0.562-0.809,0.069-1.317c-0.731-0.754-1.934-0.773-2.689-0.043c-0.754,0.731-0.773,1.934-0.043,2.689
		c0.493,0.509,0.885,0.351,1.319-0.027l0.727,0.751c-0.329,0.05-0.654,0.104-1.002,0.132c-0.344,0.028-0.529,0.302-0.432,0.633
		c1.037,3.549-0.218,5.76-1.319,6.933c-0.238-0.15-0.551-0.135-0.762,0.07l-0.402,0.39c-0.248,0.24-0.254,0.636-0.014,0.884
		l0.133,0.137l-6.637,6.497l6.544,6.526l6.532-6.393c0.242,0.208,0.603,0.208,0.837-0.018l0.402-0.39
		c0.207-0.201,0.235-0.505,0.103-0.746c1.206-1.063,3.46-2.246,6.97-1.101c0.328,0.107,0.607-0.069,0.646-0.413
		c0.039-0.349,0.104-0.673,0.165-1.002l0.72,0.743c-0.391,0.422-0.562,0.809-0.069,1.317c0.731,0.754,1.934,0.773,2.689,0.043
		c0.754-0.731,0.773-1.934,0.043-2.689c-0.493-0.509-0.885-0.351-1.319,0.027l-1.504-1.552c0.483-1.34,1.146-2.471,1.908-3.427
		l1.423,1.469c-0.391,0.422-0.561,0.809-0.069,1.317c0.731,0.754,1.934,0.773,2.689,0.043c0.754-0.731,0.773-1.935,0.043-2.689
		c-0.493-0.509-0.885-0.351-1.319,0.027l-1.496-1.544c1.016-0.94,2.107-1.649,3.123-2.173l1.505,1.553
		c-0.391,0.422-0.562,0.809-0.069,1.317c0.731,0.754,1.934,0.773,2.689,0.043c0.754-0.731,0.773-1.934,0.043-2.689
		c-0.493-0.509-0.885-0.351-1.319,0.027l-1.018-1.051c0.554-0.203,1.044-0.352,1.411-0.447c0.742-0.192,1.673-0.516,2.627-0.881
		c0.322-0.123,0.704-0.479,0.818-0.805c0.755-2.161,0.296-4.656-1.405-6.412C60.677,8.617,60.595,8.533,60.494,8.429z"/>
	<polygon points="19.75,49.963 13.215,43.428 1.566,54.829 8.048,61.416 	"/>
	<path d="M33.135,38.07L33.135,38.07l-0.353,0.354l-0.616-0.614l-6.544-6.526l-1.941-1.935c-0.631-0.632-1.731-0.631-2.361,0
		c-0.651,0.651-0.651,1.71,0,2.361l1.913,1.913l3.812,3.812l-0.707,0.707l-3.82-3.82l-1.906-1.906l-2.192-2.191
		c-0.651-0.65-1.709-0.651-2.361,0c-0.315,0.315-0.489,0.735-0.489,1.181s0.174,0.865,0.489,1.181l1.315,1.315l2.757,2.757
		l3.845,3.845L23.27,41.21l-3.853-3.853l-2.749-2.749c-0.652-0.651-1.71-0.65-2.361,0c-0.651,0.651-0.651,1.71,0,2.361l2.63,2.63
		l0.094,0.094l3.878,3.878l-0.707,0.707l-3.886-3.886l-0.086-0.086c-0.651-0.651-1.71-0.651-2.361,0
		c-0.651,0.651-0.651,1.71,0,2.361l0.061,0.061l6.535,6.535l6.474,6.474l11.715-11.715l-2.397-8.932L33.135,38.07z"/>
</g>
</svg>
