<?xml version="1.0" encoding="iso-8859-1"?>
<!-- Generator: Adobe Illustrator 17.0.0, SVG Export Plug-In . SVG Version: 6.00 Build 0)  -->
<!DOCTYPE svg PUBLIC "-//W3C//DTD SVG 1.1//EN" "http://www.w3.org/Graphics/SVG/1.1/DTD/svg11.dtd">
<svg version="1.1" id="Capa_1" xmlns="http://www.w3.org/2000/svg" xmlns:xlink="http://www.w3.org/1999/xlink" x="0px" y="0px"
	 width="64px" height="64px" viewBox="0 0 64 64" style="enable-background:new 0 0 64 64;" xml:space="preserve">
<g>
	<path d="M58.625,6.905H5.375c-1.657,0-3,1.343-3,3v37.032c0,1.511,1.121,2.749,2.575,2.957v5.311c0,1.104,0.896,2,2,2h12.461
		c1.104,0,2-0.896,2-2V30.709c0-1.104-0.896-2-2-2H8.375V12.905h47.25v15.805H44.588c-1.104,0-2,0.896-2,2v24.496
		c0,1.104,0.896,2,2,2H57.05c1.104,0,2-0.896,2-2v-5.311c1.454-0.208,2.575-1.446,2.575-2.957V9.905
		C61.625,8.248,60.282,6.905,58.625,6.905z M9.077,33.324h8.335h0.996v2.5h-0.996h-7.085v17.092H8.95H7.827v-4.259V34.574
		c0-0.424,0.225-0.781,0.548-1.007c0.168-0.118,0.36-0.195,0.575-0.218C8.994,33.345,9.032,33.324,9.077,33.324z M45.57,34.574
		c0-0.608,0.443-1.091,1.018-1.203c0.078-0.015,0.15-0.047,0.232-0.047h8.229h0.575h0.526v2.5h-0.526H55.05H48.07v17.092h-1.482
		H45.57V34.574z"/>
</g>
</svg>
