<?xml version="1.0" encoding="iso-8859-1"?>
<!-- Generator: Adobe Illustrator 17.0.0, SVG Export Plug-In . SVG Version: 6.00 Build 0)  -->
<!DOCTYPE svg PUBLIC "-//W3C//DTD SVG 1.1//EN" "http://www.w3.org/Graphics/SVG/1.1/DTD/svg11.dtd">
<svg version="1.1" id="Capa_1" xmlns="http://www.w3.org/2000/svg" xmlns:xlink="http://www.w3.org/1999/xlink" x="0px" y="0px"
	 width="64px" height="64px" viewBox="0 0 64 64" style="enable-background:new 0 0 64 64;" xml:space="preserve">
<circle cx="24.97" cy="16.114" r="2.917"/>
<path d="M2,46c0,0.552,0.448,1,1,1h16.072l2.557-2H30V12c0-0.552-0.448-1-1-1H9.952c-0.967-0.976-2.306-1.583-3.785-1.583
	c-2.941,0-5.334,2.393-5.334,5.333c0,1.247,0.448,2.38,1.167,3.289V46z M6.142,18.583c-2.131,0-3.858-1.727-3.858-3.858
	c0-1.8,1.238-3.299,2.906-3.725c0.306-0.078,0.622-0.133,0.952-0.133S6.788,10.922,7.094,11C8.762,11.426,10,12.925,10,14.725
	C10,16.856,8.273,18.583,6.142,18.583z M24.97,12.196c2.16,0,3.917,1.757,3.917,3.917s-1.757,3.917-3.917,3.917
	s-3.918-1.757-3.918-3.917S22.81,12.196,24.97,12.196z M28.118,31.5c0,6.628-5.373,12.001-12.001,12.001S4.115,38.128,4.115,31.5
	c0-6.628,5.373-12.001,12.001-12.001S28.118,24.872,28.118,31.5z"/>
<path d="M46,50H18c-0.552,0-1.056,0.444-1.124,0.992l-0.752,6.015C16.056,57.556,16.448,58,17,58h30
	c0.552,0,0.944-0.444,0.876-0.992l-0.752-6.015C47.056,50.444,46.552,50,46,50z M22,56h-3v-1h3V56z M32.467,57.313
	c-1.76,0-3.186-1.427-3.186-3.186c0-1.76,1.427-3.186,3.186-3.186c1.021,0,1.92,0.489,2.503,1.237l-1.04,0.369
	c-0.521,0.185-0.793,0.756-0.608,1.277c0.146,0.41,0.531,0.666,0.942,0.666c0.111,0,0.224-0.019,0.334-0.058l1.048-0.372
	c0,0.023,0.007,0.045,0.007,0.068C35.654,55.887,34.227,57.313,32.467,57.313z"/>
<path d="M38.363,19.031c1.609,0,2.918-1.309,2.918-2.917s-1.309-2.917-2.918-2.917c-1.608,0-2.917,1.309-2.917,2.917
	S36.755,19.031,38.363,19.031z"/>
<path d="M57.167,9.417c-1.48,0-2.819,0.607-3.786,1.583H34c-0.552,0-1,0.448-1,1v33h9.433l2.557,2H60c0.552,0,1-0.448,1-1V18.442
	c0.924-0.96,1.5-2.258,1.5-3.692C62.5,11.809,60.107,9.417,57.167,9.417z M61,15.214c-0.242,1.897-1.845,3.369-3.809,3.369
	c-2.131,0-3.858-1.727-3.858-3.858c0-1.8,1.238-3.299,2.906-3.725c0.306-0.078,0.622-0.133,0.952-0.133s0.646,0.054,0.952,0.133
	c1.512,0.386,2.655,1.659,2.856,3.237c0.021,0.162,0.049,0.321,0.049,0.489S61.021,15.052,61,15.214z M38.363,12.196
	c2.16,0,3.918,1.757,3.918,3.917s-1.758,3.917-3.918,3.917s-3.917-1.757-3.917-3.917S36.203,12.196,38.363,12.196z M47.116,43.501
	c-6.628,0-12.001-5.373-12.001-12.001c0-6.628,5.373-12.001,12.001-12.001S59.118,24.872,59.118,31.5
	C59.118,38.128,53.744,43.501,47.116,43.501z"/>
<polygon points="42.089,46 33,46 30,46 21.974,46 20.695,47 18.139,49 45.924,49 43.367,47 "/>
<circle cx="6.329" cy="14.754" r="1.777"/>
<circle cx="57.329" cy="14.754" r="1.777"/>
<path d="M16.116,41.388c5.461,0,9.888-4.427,9.888-9.888c0-5.461-4.427-9.888-9.888-9.888S6.228,26.039,6.228,31.5
	C6.228,36.961,10.655,41.388,16.116,41.388z M16.116,26.69c2.657,0,4.81,2.154,4.81,4.81s-2.154,4.81-4.81,4.81
	s-4.81-2.154-4.81-4.81S13.46,26.69,16.116,26.69z"/>
<path d="M47.116,21.612c-5.461,0-9.888,4.427-9.888,9.888c0,5.461,4.427,9.888,9.888,9.888s9.888-4.427,9.888-9.888
	C57.004,26.039,52.577,21.612,47.116,21.612z M47.116,36.31c-2.657,0-4.81-2.154-4.81-4.81s2.154-4.81,4.81-4.81
	s4.81,2.154,4.81,4.81S49.773,36.31,47.116,36.31z"/>
</svg>
