<?xml version="1.0" encoding="iso-8859-1"?>
<!-- Generator: Adobe Illustrator 17.0.0, SVG Export Plug-In . SVG Version: 6.00 Build 0)  -->
<!DOCTYPE svg PUBLIC "-//W3C//DTD SVG 1.1//EN" "http://www.w3.org/Graphics/SVG/1.1/DTD/svg11.dtd">
<svg version="1.1" id="Capa_1" xmlns="http://www.w3.org/2000/svg" xmlns:xlink="http://www.w3.org/1999/xlink" x="0px" y="0px"
	 width="64px" height="64px" viewBox="0 0 64 64" style="enable-background:new 0 0 64 64;" xml:space="preserve">
<rect x="24.923" y="34.483" width="2.625" height="2.625"/>
<circle cx="26.235" cy="47.296" r="1.562"/>
<path d="M37.235,33.983c-0.276,0-0.5,0.224-0.5,0.5v2.062c0,0.276,0.224,0.5,0.5,0.5c0.276,0,0.5-0.224,0.5-0.5v-2.062
	C37.735,34.207,37.512,33.983,37.235,33.983z"/>
<path d="M38.86,33.983c-0.276,0-0.5,0.224-0.5,0.5v2.062c0,0.276,0.224,0.5,0.5,0.5c0.276,0,0.5-0.224,0.5-0.5v-2.062
	C39.36,34.207,39.137,33.983,38.86,33.983z"/>
<path d="M36.86,45.765c-0.276,0-0.5,0.224-0.5,0.5v2.062c0,0.276,0.224,0.5,0.5,0.5c0.276,0,0.5-0.224,0.5-0.5v-2.062
	C37.36,45.988,37.137,45.765,36.86,45.765z"/>
<path d="M38.877,48.579l0.611-0.434c0.665-0.47,0.665-1.23,0-1.699l-0.611-0.434c-0.663-0.467-1.2-0.19-1.2,0.623v1.32
	C37.677,48.77,38.214,49.046,38.877,48.579z"/>
<path d="M14.75,60.239h34.848c2.762,0,5-2.238,5-5V9.11c0-2.762-2.238-5-5-5H14.75c-2.762,0-5,2.238-5,5v46.129
	C9.75,58.001,11.988,60.239,14.75,60.239z M27.802,50.919c-2.762,0-5-2.238-5-5v-3.372h4.14c0.407,2.142,2.091,3.825,4.232,4.232
	l0.001,4.14H27.802z M22.802,40.547v-3.372c0-2.762,2.238-5,5-5h3.371v4.14c-2.141,0.408-3.824,2.091-4.232,4.232H22.802z
	 M32.46,42.663c-0.663,0.467-1.2,0.19-1.2-0.623v-1.32c0-0.813,0.537-1.09,1.2-0.623l0.611,0.434c0.665,0.469,0.665,1.229,0,1.699
	L32.46,42.663z M41.546,45.919c0,2.762-2.238,5-5,5h-3.372l-0.001-4.14c2.143-0.407,3.826-2.091,4.233-4.232h4.14V45.919z
	 M41.546,40.547h-4.14c-0.407-2.142-2.091-3.825-4.233-4.232v-4.14h3.373c2.762,0,5,2.238,5,5V40.547z M15.84,16.214
	c0-2.762,2.238-5,5-5h22.667c2.762,0,5,2.238,5,5v2.333c0,2.762-2.238,5-5,5H20.84c-2.762,0-5-2.238-5-5V16.214z"/>
</svg>
