<?xml version="1.0" encoding="iso-8859-1"?>
<!-- Generator: Adobe Illustrator 17.0.0, SVG Export Plug-In . SVG Version: 6.00 Build 0)  -->
<!DOCTYPE svg PUBLIC "-//W3C//DTD SVG 1.1//EN" "http://www.w3.org/Graphics/SVG/1.1/DTD/svg11.dtd">
<svg version="1.1" id="Capa_1" xmlns="http://www.w3.org/2000/svg" xmlns:xlink="http://www.w3.org/1999/xlink" x="0px" y="0px"
	 width="64px" height="64px" viewBox="0 0 64 64" style="enable-background:new 0 0 64 64;" xml:space="preserve">
<path d="M25.604,4.648c-2.762,0-5,2.238-5,5v44.704c0,2.762,2.238,5,5,5h12.793c2.762,0,5-2.238,5-5V9.648c0-2.762-2.238-5-5-5
	H25.604z M31.996,55.519c-4.695,0-8.5-3.806-8.5-8.5c0-4.694,3.805-8.5,8.5-8.5c4.693,0,8.5,3.806,8.5,8.5
	C40.496,51.713,36.689,55.519,31.996,55.519z M40.418,12.193v16.438c0,3-0.432,4.433-3.434,4.433h-9.969
	c-3,0-3.432-1.433-3.432-4.433V12.193c0-3,0.432-4.433,3.432-4.433h9.969C39.986,7.761,40.418,9.193,40.418,12.193z"/>
<circle cx="31.996" cy="47.019" r="3"/>
<path d="M37.176,46.289v0.347l-1.006-0.577c-0.221-0.126-0.398-0.023-0.398,0.23v1.459c0,0.254,0.178,0.356,0.398,0.23l1.006-0.577
	v0.347c0,0.254,0.18,0.356,0.398,0.23l1.16-0.667v0.403c0,0.253,0.141,0.458,0.312,0.458c0.17,0,0.31-0.205,0.31-0.458v-1.392
	c0-0.253-0.141-0.459-0.31-0.459c-0.172,0-0.312,0.206-0.312,0.459v0.401l-1.16-0.666C37.355,45.933,37.176,46.036,37.176,46.289z"
	/>
<path d="M27.668,46.059l-1.006,0.577v-0.347c0-0.253-0.178-0.357-0.398-0.23l-1.16,0.666v-0.401c0-0.253-0.141-0.459-0.312-0.459
	c-0.17,0-0.311,0.206-0.311,0.459v1.392c0,0.253,0.141,0.458,0.311,0.458c0.172,0,0.312-0.205,0.312-0.458v-0.403l1.16,0.667
	c0.221,0.126,0.398,0.023,0.398-0.23v-0.347l1.006,0.577c0.221,0.126,0.398,0.023,0.398-0.23v-1.459
	C28.066,46.036,27.889,45.933,27.668,46.059z"/>
<path d="M31.758,52.326l-1.232-0.706c-0.213-0.122-0.385-0.022-0.385,0.222v1.41c0,0.245,0.172,0.345,0.385,0.223l1.232-0.707
	C31.971,52.646,31.971,52.448,31.758,52.326z"/>
<path d="M32.482,51.432c-0.166,0-0.301,0.198-0.301,0.443v1.345c0,0.245,0.135,0.442,0.301,0.442s0.299-0.197,0.299-0.442v-1.345
	C32.781,51.63,32.648,51.432,32.482,51.432z"/>
<path d="M33.428,51.432c-0.164,0-0.299,0.198-0.299,0.443v1.345c0,0.245,0.135,0.442,0.299,0.442c0.166,0,0.301-0.197,0.301-0.442
	v-1.345C33.729,51.63,33.594,51.432,33.428,51.432z"/>
<path d="M29.174,42.775c0.045,0,0.08-0.015,0.108-0.045c0.027-0.03,0.041-0.075,0.041-0.136v-1.086l0.25,1.003
	c0.01,0.032,0.017,0.064,0.025,0.095c0.01,0.03,0.02,0.058,0.035,0.083c0.014,0.024,0.035,0.046,0.059,0.062
	c0.027,0.016,0.059,0.023,0.096,0.023c0.049,0,0.088-0.013,0.115-0.037c0.029-0.025,0.047-0.053,0.059-0.084
	c0.01-0.03,0.024-0.078,0.039-0.143l0.252-1.003v1.086c0,0.061,0.014,0.105,0.041,0.136c0.027,0.03,0.062,0.045,0.105,0.045
	c0.045,0,0.08-0.015,0.108-0.045c0.025-0.03,0.039-0.075,0.039-0.136v-1.244c0-0.068-0.018-0.115-0.053-0.14
	c-0.037-0.023-0.084-0.036-0.145-0.036h-0.1c-0.058,0-0.101,0.006-0.129,0.017c-0.027,0.011-0.047,0.03-0.059,0.058
	c-0.014,0.028-0.029,0.074-0.045,0.137l-0.229,0.861l-0.229-0.861c-0.018-0.062-0.031-0.108-0.045-0.137
	c-0.012-0.027-0.031-0.047-0.059-0.058c-0.027-0.011-0.07-0.017-0.131-0.017h-0.098c-0.061,0-0.109,0.013-0.145,0.036
	c-0.037,0.025-0.055,0.071-0.055,0.14v1.244c0,0.062,0.016,0.106,0.041,0.136C29.096,42.761,29.131,42.775,29.174,42.775z"/>
<path d="M31.068,42.749h0.867c0.049,0,0.088-0.013,0.113-0.035c0.023-0.024,0.037-0.054,0.037-0.091
	c0-0.038-0.014-0.069-0.037-0.093c-0.025-0.023-0.064-0.035-0.113-0.035h-0.744v-0.447h0.662c0.049,0,0.084-0.012,0.109-0.034
	c0.023-0.022,0.035-0.052,0.035-0.088c0-0.035-0.012-0.063-0.037-0.086c-0.023-0.021-0.06-0.032-0.107-0.032h-0.662v-0.387h0.719
	c0.051,0,0.088-0.011,0.113-0.033c0.025-0.023,0.037-0.053,0.037-0.09c0-0.037-0.012-0.067-0.037-0.089
	c-0.025-0.022-0.062-0.034-0.113-0.034h-0.842c-0.045,0-0.082,0.007-0.111,0.021c-0.029,0.013-0.049,0.034-0.064,0.063
	c-0.014,0.029-0.02,0.066-0.02,0.111v1.184c0,0.068,0.016,0.118,0.045,0.148C30.949,42.733,30.998,42.749,31.068,42.749z"/>
<path d="M32.492,42.775c0.043,0,0.08-0.016,0.107-0.046c0.027-0.031,0.041-0.076,0.041-0.137v-0.922l0.598,0.917
	c0.02,0.025,0.035,0.049,0.053,0.073c0.018,0.024,0.035,0.045,0.055,0.062c0.021,0.019,0.043,0.031,0.064,0.039
	c0.023,0.008,0.049,0.013,0.078,0.013c0.115,0,0.172-0.069,0.172-0.207v-1.237c0-0.062-0.014-0.106-0.039-0.137
	c-0.027-0.031-0.062-0.046-0.109-0.046c-0.045,0-0.078,0.015-0.105,0.046c-0.027,0.03-0.039,0.075-0.039,0.137v0.936l-0.613-0.928
	c-0.018-0.026-0.033-0.053-0.049-0.078c-0.016-0.024-0.031-0.045-0.049-0.061c-0.016-0.016-0.033-0.028-0.053-0.037
	c-0.02-0.01-0.045-0.015-0.074-0.015c-0.035,0-0.07,0.011-0.102,0.03c-0.031,0.021-0.053,0.047-0.066,0.079
	c-0.012,0.029-0.018,0.07-0.018,0.121v1.214c0,0.06,0.014,0.105,0.041,0.136C32.412,42.76,32.447,42.775,32.492,42.775z"/>
<path d="M35.174,41.148c-0.049,0-0.086,0.016-0.115,0.048c-0.029,0.032-0.043,0.08-0.043,0.146v0.78
	c0,0.134-0.025,0.234-0.078,0.301c-0.051,0.066-0.139,0.1-0.264,0.1c-0.09,0-0.16-0.017-0.211-0.05
	c-0.049-0.032-0.084-0.078-0.103-0.137c-0.02-0.059-0.029-0.133-0.029-0.221v-0.773c0-0.064-0.014-0.113-0.043-0.145
	c-0.029-0.032-0.068-0.049-0.119-0.049c-0.047,0-0.084,0.017-0.113,0.049c-0.029,0.031-0.043,0.08-0.043,0.145v0.757
	c0,0.118,0.012,0.221,0.037,0.306c0.027,0.086,0.066,0.156,0.123,0.211c0.055,0.055,0.125,0.095,0.213,0.121
	c0.088,0.025,0.191,0.039,0.312,0.039c0.102,0,0.189-0.012,0.266-0.036c0.076-0.025,0.143-0.063,0.199-0.116
	c0.066-0.062,0.111-0.135,0.137-0.217c0.023-0.082,0.035-0.186,0.035-0.308v-0.757c0-0.065-0.014-0.113-0.045-0.146
	C35.26,41.164,35.221,41.148,35.174,41.148z"/>
</svg>
