<?xml version="1.0" encoding="iso-8859-1"?>
<!-- Generator: Adobe Illustrator 17.0.0, SVG Export Plug-In . SVG Version: 6.00 Build 0)  -->
<!DOCTYPE svg PUBLIC "-//W3C//DTD SVG 1.1//EN" "http://www.w3.org/Graphics/SVG/1.1/DTD/svg11.dtd">
<svg version="1.1" id="Capa_1" xmlns="http://www.w3.org/2000/svg" xmlns:xlink="http://www.w3.org/1999/xlink" x="0px" y="0px"
	 width="64px" height="64px" viewBox="0 0 64 64" style="enable-background:new 0 0 64 64;" xml:space="preserve">
<path d="M15.149,6.449v51.102c0,1.236,1.002,2.238,2.238,2.238H48.92c1.236,0,2.238-1.002,2.238-2.238V6.449
	c0-1.236-1.002-2.238-2.238-2.238H17.387C16.151,4.211,15.149,5.213,15.149,6.449z M45.351,45.053c0,1.854-1.503,3.357-3.357,3.357
	h-1.371c-1.854,0-3.358,1.502-3.358,3.357v1.37c0,1.854-1.503,3.357-3.357,3.357h-1.622c-1.854,0-3.357-1.503-3.357-3.357v-1.37
	c0-1.855-1.503-3.357-3.357-3.357H24.2c-1.854,0-3.357-1.503-3.357-3.357v-1.622c0-1.854,1.503-3.357,3.357-3.357h1.371
	c1.854,0,3.357-1.503,3.357-3.357v-1.372c0-1.854,1.503-3.356,3.357-3.356h1.622c1.854,0,3.357,1.502,3.357,3.356v1.372
	c0,1.854,1.504,3.357,3.358,3.357h1.371c1.854,0,3.357,1.503,3.357,3.357V45.053z M19.588,10.269h27.171v18.835H19.588V10.269z"/>
<path d="M32.117,52.932c-0.044,0.148-0.084,0.301-0.118,0.457h-0.006c-0.031-0.161-0.07-0.308-0.115-0.464l-0.157-0.549h-0.322
	l0.416,1.297h0.342l0.437-1.297h-0.312L32.117,52.932z"/>
<path d="M33.29,52.354c-0.381,0-0.631,0.29-0.631,0.68c0,0.371,0.227,0.661,0.61,0.661c0.381,0,0.637-0.256,0.637-0.684
	C33.906,52.651,33.688,52.354,33.29,52.354z M33.284,53.461c-0.196,0-0.316-0.178-0.316-0.434c0-0.253,0.116-0.441,0.316-0.441
	c0.202,0,0.312,0.2,0.312,0.435C33.595,53.273,33.482,53.461,33.284,53.461z"/>
<polygon points="34.393,52.376 34.1,52.376 34.1,53.673 34.908,53.673 34.908,53.428 34.393,53.428 "/>
<path d="M33.097,39.378c-2.686,0-4.864,2.177-4.864,4.863c0,2.686,2.178,4.862,4.864,4.862c2.685,0,4.863-2.177,4.863-4.862
	C37.96,41.555,35.783,39.378,33.097,39.378z M31.225,45.064v-1.891l1.544,0.945L31.225,45.064z M34.119,45.064H33.52v-1.891h0.599
	V45.064z M35.122,45.064h-0.599v-1.891h0.599V45.064z"/>
<polygon points="24.024,43.421 22.945,44.082 22.945,43.421 22.426,43.421 22.426,45.062 22.945,45.062 22.945,44.4 24.024,45.062 
	24.024,44.447 25.028,45.062 25.028,43.421 24.024,44.036 "/>
<polygon points="42.726,44.082 41.646,43.421 41.646,44.036 40.644,43.421 40.644,45.062 41.646,44.447 41.646,45.062 42.726,44.4 
	42.726,45.062 43.245,45.062 43.245,43.421 42.726,43.421 "/>
<path d="M32.604,35.483c0.009-0.19,0.018-0.426,0.025-0.631h0.004c0.039,0.199,0.089,0.415,0.138,0.597l0.164,0.588h0.269
	l0.185-0.595c0.059-0.179,0.123-0.396,0.172-0.59h0.004c0,0.221,0.007,0.442,0.014,0.626l0.025,0.584h0.335l-0.082-1.524h-0.452
	l-0.161,0.507c-0.052,0.169-0.104,0.37-0.145,0.546H33.09c-0.034-0.178-0.079-0.368-0.129-0.544l-0.149-0.509h-0.459l-0.097,1.524
	h0.319L32.604,35.483z"/>
</svg>
