<?xml version="1.0" encoding="iso-8859-1"?>
<!-- Generator: Adobe Illustrator 17.0.0, SVG Export Plug-In . SVG Version: 6.00 Build 0)  -->
<!DOCTYPE svg PUBLIC "-//W3C//DTD SVG 1.1//EN" "http://www.w3.org/Graphics/SVG/1.1/DTD/svg11.dtd">
<svg version="1.1" id="Capa_1" xmlns="http://www.w3.org/2000/svg" xmlns:xlink="http://www.w3.org/1999/xlink" x="0px" y="0px"
	 width="64px" height="64px" viewBox="0 0 64 64" style="enable-background:new 0 0 64 64;" xml:space="preserve">
<g>
	<path d="M3.23,61.362c0,0,15.153-7.376,20.617-9.309c5.464-1.933,16.47,10.622,16.47,10.622l1.356-21.844l14.429-15.716
		c0,0-3.433-0.385-11.452,5.866c-6.31,4.918-7.573,0.636-7.825-1.415l6.941-15.289c0.329-0.587,1.203-1.914,2.39-1.883
		c0,0,2.068-6.024,4.706-6.955c0,0,0.105-2.333,0.3-4.23L38.846,9.266c0,0,1.736,1.266,1.236,3.292l-0.026-0.012l-6.395,14.088
		c-2.151,1.025-3.17-1.711-3.17-1.711l-10.1,12.46c4.708-2.145,2.554,0.968,2.554,0.968L3.23,61.362z"/>
</g>
</svg>
