<?xml version="1.0" encoding="iso-8859-1"?>
<!-- Generator: Adobe Illustrator 17.0.0, SVG Export Plug-In . SVG Version: 6.00 Build 0)  -->
<!DOCTYPE svg PUBLIC "-//W3C//DTD SVG 1.1//EN" "http://www.w3.org/Graphics/SVG/1.1/DTD/svg11.dtd">
<svg version="1.1" id="Capa_1" xmlns="http://www.w3.org/2000/svg" xmlns:xlink="http://www.w3.org/1999/xlink" x="0px" y="0px"
	 width="64px" height="64px" viewBox="0 0 64 64" style="enable-background:new 0 0 64 64;" xml:space="preserve">
<path d="M15.622,48.378h33.569c1.619,0,2.937-1.317,2.937-2.937V23.977c0-1.62-1.317-2.937-2.937-2.937H15.622
	c-1.619,0-2.937,1.317-2.937,2.937v21.465C12.685,47.061,14.002,48.378,15.622,48.378z M21.902,34.467
	c0-5.802,4.703-10.505,10.505-10.505c5.802,0,10.505,4.703,10.505,10.505s-4.703,10.505-10.505,10.505
	C26.605,44.972,21.902,40.269,21.902,34.467z"/>
<path d="M39.979,34.467c0-4.182-3.39-7.572-7.572-7.572c-4.182,0-7.572,3.39-7.572,7.572s3.39,7.572,7.572,7.572
	C36.588,42.039,39.979,38.649,39.979,34.467z M29.053,38.004v-7.073c0-0.539,0.38-0.76,0.848-0.493l6.231,3.547
	c0.468,0.267,0.468,0.699,0,0.965l-6.231,3.547C29.433,38.763,29.053,38.543,29.053,38.004z"/>
<path d="M5.204,33.221c0.339,7.755,0.468,20.305,10.171,21.489c13.083,1.595,27.974-1.816,40.433,3.657
	c0.575,0.919,1.248,1.807,2.038,2.654c1.322,1.418,3.439-0.709,2.121-2.121c-0.587-0.629-1.092-1.289-1.534-1.971
	c-0.028-0.33-0.188-0.642-0.523-0.871c-3.731-6.778-1.311-15.658,1.4-22.883c0.118,0.025,0.208,0.042,0.257,0.051l0.021,0
	c0.181,0,0.815-0.076,1.37-1.046c0.628-1.099,0.947-2.989,0.947-5.617V8.055c0-1.31-1.066-2.375-2.376-2.375
	s-2.375,1.065-2.375,2.375V8.95v0.507v0.508L53.18,9.276c0.299,0.703,0.465,1.476,0.465,2.287v2.529c0,0.84-0.181,1.637-0.5,2.36
	l4.008-0.695v0.508v0.508v9.782c0,0.012-0.039,1.254-1.146,3.1c-0.402,0.67-0.301,1.224-0.145,1.57
	c0.14,0.311,0.392,0.573,0.688,0.804c-2.677,7.133-4.824,15.422-2.524,22.507c-8.016-2.528-16.979-2.221-25.245-2.593
	c-5.242-0.236-14.576,1.635-17.776-3.417c-2.994-4.727-2.574-10.989-2.849-16.315c-0.001-0.02-0.007-0.037-0.009-0.057
	c0.37-0.256,0.681-0.561,0.847-0.929c0.156-0.346,0.258-0.899-0.145-1.57c-1.107-1.845-1.146-3.087-1.146-3.092v-9.789v-0.508
	v-0.508l4.008,0.695c-0.32-0.723-0.5-1.52-0.5-2.36v-2.529c0-0.811,0.166-1.584,0.465-2.287L7.705,9.965V9.458V8.95V8.055
	c0-1.31-1.066-2.375-2.376-2.375S2.953,6.745,2.953,8.055v18.506C2.953,32.522,4.598,33.181,5.204,33.221z"/>
<path d="M13.41,17.254c0.196,0.227,0.411,0.432,0.645,0.619c0.807,0.646,1.811,1.055,2.918,1.077l0.984-0.401l0.948-0.386
	l0.698-0.284c2.69,0,3.788-1.097,3.788-3.788v-2.529c0-2.69-1.097-3.788-3.788-3.788l-0.195-0.04l-0.503-0.213l-0.862-0.365
	l-1.069-0.453c-1.153,0.023-2.195,0.467-3.018,1.162c-0.221,0.187-0.423,0.39-0.608,0.613c-0.153,0.184-0.296,0.375-0.421,0.581
	c-0.445,0.733-0.714,1.585-0.714,2.503v2.529c0,0.948,0.282,1.828,0.753,2.577C13.096,16.878,13.249,17.068,13.41,17.254z"/>
<path d="M52.645,11.563c0-0.918-0.269-1.77-0.714-2.503c-0.125-0.206-0.268-0.396-0.421-0.581c-0.185-0.223-0.387-0.426-0.608-0.613
	c-0.823-0.695-1.865-1.138-3.018-1.162l-1.099,0.448l-0.832,0.339l-0.698,0.284c-2.69,0-3.788,1.097-3.788,3.788v2.529
	c0,2.69,1.097,3.788,3.788,3.788l0.195,0.04l0.502,0.213l0.974,0.413l0.956,0.405c1.107-0.022,2.111-0.432,2.918-1.077
	c0.234-0.187,0.449-0.393,0.645-0.619c0.16-0.186,0.313-0.376,0.444-0.585c0.472-0.749,0.753-1.629,0.753-2.577V11.563z"/>
</svg>
