<?xml version="1.0" encoding="iso-8859-1"?>
<!-- Generator: Adobe Illustrator 17.0.0, SVG Export Plug-In . SVG Version: 6.00 Build 0)  -->
<!DOCTYPE svg PUBLIC "-//W3C//DTD SVG 1.1//EN" "http://www.w3.org/Graphics/SVG/1.1/DTD/svg11.dtd">
<svg version="1.1" id="Capa_1" xmlns="http://www.w3.org/2000/svg" xmlns:xlink="http://www.w3.org/1999/xlink" x="0px" y="0px"
	 width="64px" height="64px" viewBox="0 0 64 64" style="enable-background:new 0 0 64 64;" xml:space="preserve">
<path d="M10.646,49.88c0.898,0.684,2.284,0.91,3.73,0.91c2.637,0,5.475-0.756,5.941-0.885c0.066-0.02,0.116-0.061,0.175-0.09
	c1.431,1.801,6.265,3.129,12.024,3.129c6.885,0,12.467-1.895,12.467-4.23c0-2.15-4.728-3.922-10.844-4.191V34.159l5.801-4.48
	c0.437-0.338,0.518-0.965,0.18-1.402l-1.844-2.387l5.639-4.48l2.4,3.002c0.312,0.393,0.884,0.455,1.275,0.143l8.962-7.162
	c1.956-1.562,2.274-4.414,0.712-6.371L53.72,6.587c-1.562-1.955-4.416-2.275-6.371-0.711l-8.963,7.162
	c-0.391,0.312-0.455,0.883-0.142,1.273l2.455,3.072l-5.573,4.428l-1.654-2.141c-0.337-0.438-0.965-0.52-1.402-0.182l-6.041,4.666
	c-0.437,0.338-0.518,0.967-0.18,1.404l1.05,1.357l-6.964,6.166c-0.938,0.83-1.799,2.23-1.925,3.127
	c-0.006,0.045-0.002,0.084-0.005,0.127c-0.12,0.037-0.236,0.094-0.341,0.178c-0.833,0.674-8.134,6.711-8.134,11.067
	C9.531,48.53,9.915,49.325,10.646,49.88z M18.923,38.069c0.094-0.076,0.163-0.17,0.222-0.268c0.108,0.021,0.222,0.033,0.339,0.033
	c0.939,0,2.509-0.613,3.506-1.369l7.117-5.397l0.033,0.043v13.449c-5.043,0.33-8.993,1.691-9.888,3.412
	c-0.151-0.031-0.31-0.039-0.47,0.004c-2.535,0.703-6.67,1.266-7.928,0.311c-0.231-0.176-0.324-0.381-0.324-0.707
	C11.531,45.015,16.065,40.386,18.923,38.069z"/>
</svg>
