<?xml version="1.0" encoding="iso-8859-1"?>
<!-- Generator: Adobe Illustrator 17.0.0, SVG Export Plug-In . SVG Version: 6.00 Build 0)  -->
<!DOCTYPE svg PUBLIC "-//W3C//DTD SVG 1.1//EN" "http://www.w3.org/Graphics/SVG/1.1/DTD/svg11.dtd">
<svg version="1.1" id="Capa_1" xmlns="http://www.w3.org/2000/svg" xmlns:xlink="http://www.w3.org/1999/xlink" x="0px" y="0px"
	 width="64px" height="64px" viewBox="0 0 64 64" style="enable-background:new 0 0 64 64;" xml:space="preserve">
<path d="M16,60.12c0,1.104,0.896,2,2,2h12.975h12.975c1.104,0,2-0.896,2-2s-0.896-2-2-2H32.975v-8.631c0-1.104-0.896-2-2-2
	s-2,0.896-2,2v8.631H18C16.896,58.12,16,59.016,16,60.12z"/>
<path d="M17.683,34.229c0,6.585,5.356,11.941,11.941,11.941h2.701c6.585,0,11.941-5.356,11.941-11.941v-2H17.683V34.229z
	 M40.012,36.229c-0.889,3.414-3.998,5.941-7.687,5.941h-2.701c-3.688,0-6.798-2.527-7.687-5.941H40.012z"/>
<path d="M32.325,1.411h-2.701c-6.585,0-11.941,5.356-11.941,11.941v2h26.584v-2C44.267,6.768,38.91,1.411,32.325,1.411z
	 M21.937,11.353c0.889-3.414,3.998-5.941,7.687-5.941h2.701c3.688,0,6.798,2.527,7.687,5.941H21.937z"/>
<path d="M19.683,29.234h22.584c1.104,0,2-0.896,2-2s-0.896-2-2-2H19.683c-1.104,0-2,0.896-2,2S18.578,29.234,19.683,29.234z"/>
<path d="M19.683,22.014h22.584c1.104,0,2-0.896,2-2s-0.896-2-2-2H19.683c-1.104,0-2,0.896-2,2S18.578,22.014,19.683,22.014z"/>
</svg>
