<?xml version="1.0" encoding="iso-8859-1"?>
<!-- Generator: Adobe Illustrator 17.0.0, SVG Export Plug-In . SVG Version: 6.00 Build 0)  -->
<!DOCTYPE svg PUBLIC "-//W3C//DTD SVG 1.1//EN" "http://www.w3.org/Graphics/SVG/1.1/DTD/svg11.dtd">
<svg version="1.1" id="Capa_1" xmlns="http://www.w3.org/2000/svg" xmlns:xlink="http://www.w3.org/1999/xlink" x="0px" y="0px"
	 width="64px" height="64px" viewBox="0 0 64 64" style="enable-background:new 0 0 64 64;" xml:space="preserve">
<path d="M55.341,1.259l-2.129,0.255L53.15,1.396l-0.304,0.162l-2.258,0.271V1.201h-0.994v0.747l-4.039,0.485
	c0,0-0.262,0.323-0.471,0.868H42.92c0,0-0.27,0.399-0.393,0.987c-2.54,0.168-5,0.863-6.917,2.63
	c-1.272,1.172-1.708,3.009-1.94,4.834L25.4,16.146c-0.802-0.549-1.77-0.872-2.813-0.872c-2.755,0-4.997,2.241-4.997,4.996
	c0,0.009,0.003,0.017,0.003,0.025L4.568,27.219l2.279,4.287l12.405-6.593V62.81h6.362V36.924c2.026-5.581,6.075-11.215,7.785-16.73
	c0.324-1.046,0.554-2.119,0.751-3.201l17.367-9.231l3.813,0.549c-0.461-0.58-0.625-1.392-0.682-2.213
	c-0.013-0.185-0.022-0.37-0.026-0.553c-0.003-0.11-0.004-0.218-0.005-0.326c-0.001-0.145-0.002-0.289-0.002-0.428
	c0-0.204,0.001-0.416,0.004-0.632C54.636,3.123,54.743,1.998,55.341,1.259z M23.49,18.186c0.035,0.015,0.066,0.038,0.101,0.055
	c0.232,0.115,0.444,0.262,0.623,0.445c0.144,0.147,0.26,0.318,0.36,0.5c0.014,0.025,0.028,0.049,0.04,0.075
	c0.153,0.306,0.247,0.646,0.247,1.011c0,0.198-0.033,0.388-0.081,0.571c-0.04,0.154-0.096,0.3-0.166,0.44
	c-0.054,0.109-0.113,0.214-0.183,0.311c-0.4,0.557-1.044,0.923-1.777,0.945c-0.022,0.001-0.043,0.007-0.066,0.007
	c-0.265,0-0.516-0.054-0.752-0.137c-0.884-0.312-1.522-1.146-1.522-2.136c0-0.104,0.017-0.204,0.031-0.305
	c0.032-0.238,0.098-0.463,0.197-0.671c0.018-0.037,0.039-0.073,0.059-0.109c0.1-0.182,0.216-0.353,0.36-0.5
	c0.205-0.21,0.45-0.381,0.723-0.5c0.277-0.12,0.582-0.188,0.903-0.188c0.114,0,0.223,0.017,0.332,0.034
	C23.118,18.06,23.311,18.108,23.49,18.186z M42.552,5.434c0.067,0.275,0.172,0.559,0.368,0.849h1.037l-8.888,4.724
	C35.955,7.321,38.615,5.702,42.552,5.434z M25.614,33.778v-9.559c1.133-0.871,1.878-2.205,1.947-3.724l5.173-2.75
	C31.243,23.255,27.928,28.484,25.614,33.778z"/>
<path d="M57.337,8.147c1.85,0,3.355-1.505,3.355-3.355s-1.505-3.355-3.355-3.355c-0.865,0-1.301,0.302-1.52,1.049
	c-0.154,0.526-0.203,1.266-0.203,2.307s0.049,1.78,0.203,2.307C56.036,7.846,56.472,8.147,57.337,8.147z"/>
</svg>
