<?xml version="1.0" encoding="iso-8859-1"?>
<!-- Generator: Adobe Illustrator 17.0.0, SVG Export Plug-In . SVG Version: 6.00 Build 0)  -->
<!DOCTYPE svg PUBLIC "-//W3C//DTD SVG 1.1//EN" "http://www.w3.org/Graphics/SVG/1.1/DTD/svg11.dtd">
<svg version="1.1" id="Capa_1" xmlns="http://www.w3.org/2000/svg" xmlns:xlink="http://www.w3.org/1999/xlink" x="0px" y="0px"
	 width="64px" height="64px" viewBox="0 0 64 64" style="enable-background:new 0 0 64 64;" xml:space="preserve">
<path d="M38.586,57.707c-2.193,0.916-6.131,0.056-7.028-2.535H36v-3.727H25.25v3.727h3.195c0.799,5.169,8.185,7.354,12.562,4.748
	c3.148-1.874,5.317-4.506,7.455-7.432c3.276-4.484,6.586-7.706,11.67-10.068c1.753-0.814,0.228-3.4-1.514-2.59
	c-3.974,1.846-7.606,4.253-10.288,7.788c-1.624,2.141-3.124,4.365-4.85,6.428C42.137,55.651,40.523,56.898,38.586,57.707z"/>
<path d="M36,50.445h2.07l1.234-26.265c-2.339,2.002-5.367,3.219-8.68,3.219c-3.312,0-6.341-1.217-8.68-3.219l1.234,26.265h2.07H36z"
	/>
<path d="M21.313,21.379c0.169,0.213,0.347,0.417,0.53,0.618c2.172,2.392,5.297,3.902,8.782,3.902c3.485,0,6.61-1.511,8.782-3.902
	c0.183-0.201,0.361-0.405,0.53-0.618c0.184-0.233,0.367-0.467,0.534-0.714c1.281-1.895,2.029-4.181,2.029-6.641
	c0-6.558-5.317-11.875-11.875-11.875c-6.558,0-11.875,5.317-11.875,11.875c0,2.46,0.748,4.745,2.029,6.641
	C20.946,20.911,21.128,21.146,21.313,21.379z"/>
</svg>
