<?xml version="1.0" encoding="iso-8859-1"?>
<!-- Generator: Adobe Illustrator 17.0.0, SVG Export Plug-In . SVG Version: 6.00 Build 0)  -->
<!DOCTYPE svg PUBLIC "-//W3C//DTD SVG 1.1//EN" "http://www.w3.org/Graphics/SVG/1.1/DTD/svg11.dtd">
<svg version="1.1" id="Capa_1" xmlns="http://www.w3.org/2000/svg" xmlns:xlink="http://www.w3.org/1999/xlink" x="0px" y="0px"
	 width="64px" height="64px" viewBox="0 0 64 64" style="enable-background:new 0 0 64 64;" xml:space="preserve">
<path d="M44.946,3.886v5.106c0,2.82,2.122,5.106,4.743,5.106c2.62,0,4.745,0,4.745,0L44.946,3.886z"/>
<path d="M34.524,33.002c0,0-0.179,0-0.401,0c-0.223,0-0.401,0.305-0.401,0.68v0.602c0,0.375,0.177,0.679,0.394,0.679h0.396
	c0.377,0,0.682-0.081,0.912-0.245c0.229-0.162,0.346-0.404,0.346-0.722c0-0.343-0.109-0.584-0.327-0.749
	C35.222,33.085,34.917,33.002,34.524,33.002z"/>
<path d="M54.434,53.706v-38.37h-5.376c-2.969,0-5.377-2.563-5.377-5.726c0-3.161,0-5.725,0-5.725H18.063
	c-3.419,0-6.19,2.771-6.19,6.188v43.632c0,3.419,2.771,6.189,6.19,6.189h30.183C51.664,59.896,54.434,57.125,54.434,53.706z
	 M29.776,38.769c0,0.375-0.305,0.679-0.68,0.679h-1.569c-0.374,0-0.679-0.304-0.679-0.679v-3.003c0-0.375-0.165-0.423-0.37-0.108
	l-1.291,1.989c-0.203,0.314-0.38,0.569-0.394,0.569c-0.013,0-0.189-0.255-0.395-0.569l-1.288-1.989
	c-0.206-0.314-0.37-0.267-0.37,0.108v3.003c0,0.375-0.305,0.679-0.68,0.679h-1.506c-0.377,0-0.68-0.304-0.68-0.679v-7.437
	c0-0.375,0.303-0.68,0.68-0.68h1.707c0.374,0,0.836,0.26,1.032,0.58l1.177,1.932c0.196,0.32,0.513,0.32,0.709,0l1.177-1.932
	c0.196-0.32,0.658-0.58,1.032-0.58h1.707c0.375,0,0.68,0.305,0.68,0.68V38.769z M38.382,35.207
	c-0.193,0.406-0.467,0.747-0.817,1.024c-0.353,0.276-0.773,0.483-1.265,0.622c-0.488,0.138-1.029,0.207-1.624,0.207
	c0,0-0.216,0-0.479,0c-0.263,0-0.476,0.304-0.476,0.678v1.03c0,0.375-0.305,0.679-0.68,0.679h-1.583
	c-0.375,0-0.678-0.304-0.678-0.679v-7.437c0-0.375,0.303-0.68,0.678-0.68h3.28c0.585,0,1.119,0.066,1.601,0.196
	c0.48,0.13,0.895,0.323,1.237,0.584c0.344,0.26,0.612,0.586,0.806,0.98c0.19,0.394,0.287,0.851,0.287,1.369
	C38.669,34.334,38.573,34.801,38.382,35.207z M46.145,37.946c-0.193,0.364-0.455,0.672-0.786,0.924
	c-0.331,0.251-0.713,0.441-1.149,0.57c-0.434,0.131-0.896,0.196-1.383,0.196c-0.914,0-1.697-0.14-2.35-0.416
	c-0.44-0.187-0.842-0.423-1.206-0.714c-0.293-0.231-0.29-0.672-0.029-0.941l0.8-0.823c0.262-0.268,0.67-0.29,0.948-0.092
	c0.174,0.126,0.353,0.23,0.531,0.315c0.344,0.163,0.699,0.246,1.066,0.246c0.326,0,0.575-0.065,0.747-0.196
	c0.172-0.129,0.259-0.299,0.259-0.508c0-0.243-0.095-0.416-0.283-0.541c-0.188-0.126-0.479-0.188-0.872-0.188c0,0-0.278,0-0.622,0
	c-0.343,0-0.708-0.29-0.816-0.651v-0.004c-0.109-0.359,0.043-0.84,0.336-1.072l0.872-0.69c0.293-0.232,0.228-0.421-0.147-0.421
	h-1.909c-0.375,0-0.677-0.305-0.677-0.68v-0.928c0-0.375,0.302-0.68,0.677-0.68h5.403c0.374,0,0.677,0.305,0.677,0.68v0.665
	c0,0.374-0.242,0.86-0.542,1.087l-0.887,0.666c-0.3,0.226-0.247,0.479,0.097,0.631c0.372,0.166,0.687,0.378,0.942,0.638
	c0.395,0.397,0.593,0.945,0.593,1.64C46.435,37.161,46.338,37.581,46.145,37.946z"/>
</svg>
