<?xml version="1.0" encoding="iso-8859-1"?>
<!-- Generator: Adobe Illustrator 17.0.0, SVG Export Plug-In . SVG Version: 6.00 Build 0)  -->
<!DOCTYPE svg PUBLIC "-//W3C//DTD SVG 1.1//EN" "http://www.w3.org/Graphics/SVG/1.1/DTD/svg11.dtd">
<svg version="1.1" id="Capa_1" xmlns="http://www.w3.org/2000/svg" xmlns:xlink="http://www.w3.org/1999/xlink" x="0px" y="0px"
	 width="64px" height="64px" viewBox="0 0 64 64" style="enable-background:new 0 0 64 64;" xml:space="preserve">
<g>
	<path d="M39.344,36.939c0.209-0.836,0.473-2.221,0.473-3.897c0-1.691-0.267-3.104-0.476-3.955l-1.308-0.097
		c0.219,0.92,0.471,2.341,0.471,4.052c0,1.698-0.249,3.091-0.466,3.995L39.344,36.939z"/>
	<path d="M41.533,36.777c0.201-0.848,0.436-2.157,0.436-3.735c0-1.595-0.236-2.93-0.439-3.793l-1.143-0.084
		c0.207,0.922,0.43,2.27,0.43,3.877c0,1.592-0.219,2.914-0.426,3.82L41.533,36.777z"/>
	<path d="M29.728,39.055c0.283-0.878,1.01-3.41,0.961-6.196c-0.047-2.68-0.453-4.963-0.641-5.887h-1.04
		c0.209,1.06,0.574,3.261,0.62,5.869c0.047,2.685-0.566,5.086-0.912,6.214H29.728z"/>
	<path d="M31.025,39.055c0.492,0,0.884-0.363,0.966-0.833h3.367v-0.986l1.628-0.121c0.213-0.807,0.518-2.269,0.518-4.072
		c0-1.819-0.307-3.308-0.519-4.129l-1.626-0.12v-0.988h-3.367c-0.079-0.454-0.45-0.802-0.92-0.824
		c0.209,1.063,0.573,3.259,0.618,5.86c0.047,2.685-0.566,5.086-0.912,6.214H31.025z"/>
	<path d="M23.191,26.576h-7.875c-0.553,0-1,0.447-1,1H9.191c-1.654,0-3,1.346-3,3v4.875c0,1.654,1.346,3,3,3h5.125
		c0,0.553,0.447,1,1,1h7.875c0.553,0,1-0.447,1-1v-0.229h3.201c0.042,0.242,0.168,0.453,0.347,0.604
		c0.318-1.036,0.934-3.394,0.89-5.967c-0.045-2.609-0.433-4.849-0.627-5.817c-0.317,0.126-0.549,0.415-0.609,0.764h-3.201v-0.229
		C24.191,27.023,23.744,26.576,23.191,26.576z"/>
	<path d="M45.941,36.451v-2.628c2.105,0.267,5.797,0.639,10.02,0.639c1.193,0,2.428-0.03,3.68-0.101l-0.112-1.996
		c-5.65,0.316-11.048-0.235-13.587-0.562v-2.226l-3.366-0.249c0.196,0.916,0.394,2.205,0.394,3.715c0,1.493-0.193,2.759-0.388,3.658
		L45.941,36.451z"/>
</g>
</svg>
