<?xml version="1.0" encoding="iso-8859-1"?>
<!-- Generator: Adobe Illustrator 17.0.0, SVG Export Plug-In . SVG Version: 6.00 Build 0)  -->
<!DOCTYPE svg PUBLIC "-//W3C//DTD SVG 1.1//EN" "http://www.w3.org/Graphics/SVG/1.1/DTD/svg11.dtd">
<svg version="1.1" id="Capa_1" xmlns="http://www.w3.org/2000/svg" xmlns:xlink="http://www.w3.org/1999/xlink" x="0px" y="0px"
	 width="64px" height="64px" viewBox="0 0 64 64" style="enable-background:new 0 0 64 64;" xml:space="preserve">
<path d="M32,46.5c-2.067,0-3.75,1.682-3.75,3.75S29.933,54,32,54s3.75-1.682,3.75-3.75S34.067,46.5,32,46.5z"/>
<path d="M15.833,2.333c-2.761,0-5,2.239-5,5v49.333c0,2.761,2.239,5,5,5h32.333c2.761,0,5-2.239,5-5V7.333c0-2.761-2.239-5-5-5
	H15.833z M32,55c-2.619,0-4.75-2.131-4.75-4.75S29.381,45.5,32,45.5s4.75,2.131,4.75,4.75S34.619,55,32,55z M32,40.167
	c-9.573,0-17.333-7.76-17.333-17.333S22.427,5.5,32,5.5s17.333,7.76,17.333,17.333S41.573,40.167,32,40.167z"/>
<path d="M32,8.552c-7.887,0-14.281,6.394-14.281,14.281S24.113,37.114,32,37.114s14.281-6.394,14.281-14.281S39.887,8.552,32,8.552z
	 M32,29.781c-3.837,0-6.948-3.111-6.948-6.948s3.111-6.948,6.948-6.948s6.948,3.111,6.948,6.948S35.837,29.781,32,29.781z"/>
</svg>
