<?xml version="1.0" encoding="iso-8859-1"?>
<!-- Generator: Adobe Illustrator 17.0.0, SVG Export Plug-In . SVG Version: 6.00 Build 0)  -->
<!DOCTYPE svg PUBLIC "-//W3C//DTD SVG 1.1//EN" "http://www.w3.org/Graphics/SVG/1.1/DTD/svg11.dtd">
<svg version="1.1" id="Capa_1" xmlns="http://www.w3.org/2000/svg" xmlns:xlink="http://www.w3.org/1999/xlink" x="0px" y="0px"
	 width="64px" height="64px" viewBox="0 0 64 64" style="enable-background:new 0 0 64 64;" xml:space="preserve">
<circle cx="26.371" cy="28.334" r="1.852"/>
<path d="M26.371,19.185c-5.045,0-9.149,4.104-9.149,9.149s4.104,9.15,9.149,9.15c5.045,0,9.149-4.106,9.149-9.15
	S31.416,19.185,26.371,19.185z M26.371,35.275c-3.834,0-6.941-3.107-6.941-6.941s3.107-6.941,6.941-6.941
	c3.833,0,6.941,3.107,6.941,6.941S30.204,35.275,26.371,35.275z"/>
<path d="M59.562,39.811c-1.497,0.334-3.935-1.889-5.02-4.75c-1.085-2.861-1.919-9.627-7.261-8.439
	c-1.891,0.422-3.116,0.92-3.909,1.385c-1.056,0.621-1.24,2.557-0.974,3.754l1.729,7.77c0.267,1.195-0.302,1.893-1.31,1.85
	c-0.595-0.025-1.202,0.025-1.811,0.16c-3.777,0.842-6.157,4.584-5.316,8.359c0.842,3.777,4.584,6.156,8.359,5.316
	c3.777-0.842,6.157-4.584,5.316-8.361c-0.022-0.096-0.047-0.191-0.073-0.287c-0.044-0.158-0.296-1.254-0.56-2.451
	c-0.497-2.244-1.272-5.734-1.771-7.979c-0.267-1.195,0.646-1.992,1.087-0.85c0.484,1.262,0.843,3.334,2.452,5.793
	C53.446,45.582,61.058,39.479,59.562,39.811z"/>
<path d="M40.571,39.588c0.485-0.109,0.979-0.176,1.475-0.203l-1.6-7.191c-0.379-1.699-0.183-4.678,1.911-5.91
	c1.116-0.656,2.627-1.199,4.489-1.613c0.556-0.125,1.103-0.188,1.624-0.188c0.523,0,1,0.068,1.45,0.174
	C48.152,13.24,38.283,4.502,26.371,4.502c-13.163,0-23.833,10.67-23.833,23.832s10.67,23.834,23.833,23.834
	c2.633,0,5.163-0.434,7.531-1.223c-0.061-0.201-0.119-0.404-0.165-0.611C32.658,45.488,35.724,40.666,40.571,39.588z M15.477,28.334
	c0-6.006,4.887-10.893,10.894-10.893s10.893,4.887,10.893,10.893c0,6.006-4.887,10.895-10.893,10.895S15.477,34.34,15.477,28.334z"
	/>
</svg>
