<?xml version="1.0" encoding="iso-8859-1"?>
<!-- Generator: Adobe Illustrator 17.0.0, SVG Export Plug-In . SVG Version: 6.00 Build 0)  -->
<!DOCTYPE svg PUBLIC "-//W3C//DTD SVG 1.1//EN" "http://www.w3.org/Graphics/SVG/1.1/DTD/svg11.dtd">
<svg version="1.1" id="Capa_1" xmlns="http://www.w3.org/2000/svg" xmlns:xlink="http://www.w3.org/1999/xlink" x="0px" y="0px"
	 width="64px" height="64px" viewBox="0 0 64 64" style="enable-background:new 0 0 64 64;" xml:space="preserve">
<circle cx="33.442" cy="32.5" r="4.487"/>
<path d="M15.992,15.05c-9.638,9.638-9.638,25.263,0,34.9s25.263,9.638,34.9,0s9.638-25.263,0-34.9S25.63,5.412,15.992,15.05z
	 M54.441,35.058l-9.277-1.944c-0.146,2.8-1.273,5.558-3.412,7.695c-4.59,4.591-12.029,4.591-16.619,0
	c-1.505-1.504-2.506-3.316-3.023-5.233l-9.019,2.708c-0.775-2.74-0.987-5.605-0.639-8.414l9.274,1.88
	c0.174-2.752,1.303-5.455,3.406-7.558c4.59-4.591,12.029-4.591,16.619,0c1.475,1.475,2.468,3.243,2.996,5.118l9.099-2.402
	C54.572,29.565,54.769,32.338,54.441,35.058z"/>
</svg>
