<?xml version="1.0" encoding="iso-8859-1"?>
<!-- Generator: Adobe Illustrator 17.0.0, SVG Export Plug-In . SVG Version: 6.00 Build 0)  -->
<!DOCTYPE svg PUBLIC "-//W3C//DTD SVG 1.1//EN" "http://www.w3.org/Graphics/SVG/1.1/DTD/svg11.dtd">
<svg version="1.1" id="Capa_1" xmlns="http://www.w3.org/2000/svg" xmlns:xlink="http://www.w3.org/1999/xlink" x="0px" y="0px"
	 width="64px" height="64px" viewBox="0 0 64 64" style="enable-background:new 0 0 64 64;" xml:space="preserve">
<g>
	<path d="M10.595,5.016c0.301,0.117,0.593,0.251,0.892,0.371l4.365-1.094c-1.491-0.665-2.999-1.304-4.533-1.902
		C9.681,1.752,8.978,4.386,10.595,5.016z"/>
	<path d="M27.62,10.542c-0.291-0.182-0.588-0.356-0.881-0.534l-3.713,0.931c1.567,0.892,3.094,1.835,4.594,2.814V10.542z"/>
	<path d="M57.032,41.936c-1.05-0.038-2.21-0.295-3.509-0.785c1.767,3.163,3.349,6.469,4.674,9.954
		c0.618,1.624,3.251,0.92,2.625-0.724C59.709,47.455,58.439,44.642,57.032,41.936z"/>
	<path d="M37.732,17.912c-1.422-1.203-2.897-2.348-4.401-3.46v3.35c0.443,0.344,0.871,0.705,1.306,1.057
		c0.024-0.01,0.047-0.022,0.071-0.032C35.705,18.426,36.716,18.125,37.732,17.912z"/>
	<path d="M56.806,55.15c-2.236-5.877-5.094-11.304-8.477-16.284c-0.732-0.223-1.263-0.291-1.63-0.291c-0.025,0-0.049,0-0.074,0.001
		v2.583c2.997,4.536,5.547,9.438,7.555,14.716C54.799,57.498,57.431,56.794,56.806,55.15z"/>
	<path d="M26.647,17.305c-2.72-1.859-5.566-3.566-8.509-5.141l-2.926,0.734v0.764c2.932,1.491,5.757,3.135,8.477,4.914
		C24.61,17.942,25.62,17.511,26.647,17.305z"/>
	<path d="M6.579,9.784c0.986,0.384,1.953,0.8,2.921,1.214V8.072C8.768,7.767,8.044,7.448,7.302,7.159
		C5.664,6.52,4.962,9.154,6.579,9.784z"/>
	<path d="M40.914,43.629v-3.401c-0.758,0.201-1.519,0.352-2.283,0.445C39.414,41.639,40.177,42.622,40.914,43.629z"/>
	<path d="M46.625,52.712c1.465,2.754,2.787,5.616,3.925,8.607c0.618,1.624,3.251,0.92,2.625-0.724
		c-1.795-4.718-4.006-9.134-6.55-13.276V52.712z"/>
	<path d="M9.5,15.113c-1.91-0.886-3.845-1.736-5.828-2.509c-1.638-0.639-2.341,1.995-0.724,2.625
		c2.233,0.871,4.411,1.837,6.551,2.86V15.113z"/>
	<path d="M15.211,21.053c1.653,0.936,3.261,1.931,4.84,2.964c0.16-0.887,0.488-1.76,0.967-2.576
		c-1.886-1.217-3.819-2.375-5.807-3.46V21.053z"/>
	<path d="M7.163,32.265c1.509,0,3.183-0.702,4.52-2.039c1.251-1.251,1.924-2.794,2.007-4.224l0.021-0.002v-0.552
		c-0.001-0.015,0.001-0.031,0-0.046v-5.174V17.19v-4.273v-1.189l2.437-0.611l4.945-1.24l3.803-0.954l4.224-1.059v3.661v3.211v4.069
		c-0.165-0.044-0.336-0.075-0.509-0.098c-0.205-0.028-0.414-0.045-0.627-0.045c-0.949,0-1.964,0.278-2.918,0.817
		c-0.56,0.316-1.099,0.721-1.592,1.214c-0.488,0.488-0.872,1.025-1.188,1.578c-0.499,0.875-0.774,1.792-0.82,2.673
		c-0.062,1.165,0.259,2.255,1.041,3.036c0.722,0.722,1.703,1.071,2.767,1.071c0.022,0,0.044-0.003,0.065-0.004
		c0.074-0.361,0.17-0.721,0.284-1.082c0.269-0.85,0.637-1.696,1.125-2.525c0.004-0.007,0.007-0.015,0.012-0.022
		c0.639-1.081,1.44-2.087,2.373-2.995c0.646-0.629,1.359-1.209,2.123-1.736c0.187-0.129,0.383-0.25,0.576-0.373V16.68v-3.322V4.018
		l-0.005,0.002V1.833L18,5.3l-4.192,1.051L11,7.055v0.957v0.683v2.949v0.764v3.409V18.8v3.218c-0.359-0.094-0.737-0.141-1.126-0.141
		c-1.506,0-3.175,0.696-4.509,2.03c-2.279,2.279-2.713,5.542-0.968,7.287C5.118,31.916,6.1,32.265,7.163,32.265z"/>
	<path d="M46.869,31.197c-0.392,0.399-0.812,0.782-1.248,1.15c0.541-0.209,1.121-0.398,1.725-0.556
		c0.886-0.232,1.828-0.387,2.796-0.418c0.035-0.072,0.072-0.144,0.105-0.217c1.013-2.2,1.204-4.558,0.341-6.697
		c-1.388-3.443-5.131-5.41-9.457-5.41c-0.636,0-1.288,0.059-1.944,0.146c-1.053,0.139-2.121,0.395-3.188,0.768
		c-0.244,0.085-0.488,0.158-0.731,0.256c-0.681,0.275-1.323,0.596-1.938,0.944c-0.257,0.145-0.506,0.296-0.75,0.452
		c-0.034,0.021-0.067,0.043-0.1,0.065c-0.22,0.143-0.44,0.286-0.65,0.438c-0.544,0.394-1.049,0.817-1.517,1.262
		c-0.97,0.922-1.769,1.938-2.373,3.008c-0.438,0.775-0.769,1.576-0.99,2.387c-0.019,0.072-0.046,0.143-0.063,0.215
		c-0.05,0.204-0.083,0.409-0.119,0.615c-0.046,0.265-0.08,0.53-0.101,0.795c-0.094,1.191,0.056,2.377,0.509,3.501
		c1.388,3.443,5.131,5.41,9.457,5.41c0.284,0,0.575-0.026,0.864-0.043c1.001-0.059,2.022-0.221,3.051-0.494
		c0.122-0.032,0.243-0.055,0.365-0.09v-2.937v-0.554c-0.853,0.313-1.81,0.558-2.816,0.725c-1.105,0.184-2.257,0.277-3.375,0.259
		c-2.992-0.049-5.717-0.866-6.462-2.714c-0.371-0.92-0.199-1.998,0.316-3.107c0.138-0.298,0.298-0.598,0.485-0.899
		c0.283-0.456,0.617-0.911,0.992-1.359c0.716-0.857,1.57-1.682,2.493-2.419c0.092-0.074,0.187-0.143,0.28-0.215
		c0.755-0.58,1.542-1.096,2.324-1.521c0.458-0.249,0.914-0.474,1.358-0.653c0.729-0.294,1.556-0.531,2.426-0.713
		c1.109-0.232,2.289-0.367,3.453-0.391c3.242-0.066,6.318,0.727,7.118,2.71c0.49,1.214,0.055,2.7-0.9,4.176
		C48.137,29.794,47.542,30.513,46.869,31.197z"/>
	<path d="M59.958,37.346c-0.763,0-2.085-0.582-4.377-2.599c-1.272-1.119-2.672-1.651-4.07-1.82c-0.165-0.02-0.329-0.038-0.493-0.048
		c-0.179-0.011-0.357-0.02-0.535-0.02c-0.109,0-0.217,0.01-0.326,0.013c-0.319,0.011-0.634,0.037-0.947,0.078
		c-0.296,0.039-0.589,0.086-0.877,0.147c-1.265,0.266-2.435,0.718-3.395,1.178c-1.159,0.555-2.012,1.115-2.355,1.352
		c-0.109,0.075-0.168,0.119-0.168,0.119v2.423v0.793v0.795v1.349v4.618v4.028c-0.359-0.094-0.737-0.141-1.126-0.141
		c-1.506,0-3.175,0.696-4.509,2.03c-2.279,2.279-2.713,5.542-0.968,7.287C36.532,59.651,37.514,60,38.577,60
		c1.509,0,3.183-0.702,4.52-2.039c1.251-1.251,1.924-2.794,2.007-4.224l0.021-0.002v-0.552c-0.001-0.015,0.001-0.031,0-0.046v-3.124
		v-5.071v-5.947v-0.471v-0.847v-0.238c0.229-0.128,0.501-0.217,0.802-0.279c0.236-0.049,0.486-0.085,0.771-0.085
		c0.116,0,0.24,0.008,0.365,0.017c0.063,0.004,0.127,0.01,0.192,0.017c1.116,0.118,2.564,0.585,4.45,1.573
		c0.195,0.102,0.379,0.191,0.566,0.283c1.548,0.763,2.827,1.195,3.875,1.376c0.42,0.073,0.805,0.108,1.156,0.108
		c3.927,0,3.695-4.184,3.695-4.184S60.997,37.346,59.958,37.346z"/>
</g>
</svg>
