<?xml version="1.0" encoding="iso-8859-1"?>
<!-- Generator: Adobe Illustrator 17.0.0, SVG Export Plug-In . SVG Version: 6.00 Build 0)  -->
<!DOCTYPE svg PUBLIC "-//W3C//DTD SVG 1.1//EN" "http://www.w3.org/Graphics/SVG/1.1/DTD/svg11.dtd">
<svg version="1.1" id="Capa_1" xmlns="http://www.w3.org/2000/svg" xmlns:xlink="http://www.w3.org/1999/xlink" x="0px" y="0px"
	 width="64px" height="64px" viewBox="0 0 64 64" style="enable-background:new 0 0 64 64;" xml:space="preserve">
<g>
	<path d="M9.625,20.5h15.5c0.567,0,1.395-0.485,1.697-1.019l3.161-5.231H9.625c-4.418,0-8,3.582-8,8v2.647
		C3.315,22.258,6.265,20.5,9.625,20.5z"/>
	<path d="M54.375,11h-18.75c-1.105,0-2.439,0.78-2.981,1.743l-0.91,1.507l-3.629,6.007C27.564,21.22,26.23,22,25.125,22h-15.5
		c-4.418,0-8,3.582-8,8v14.75v1.75c0,4.418,3.582,8,8,8h44.75c4.418,0,8-3.582,8-8v-1.75v-22.5V19
		C62.375,14.582,58.793,11,54.375,11z M23.333,32.667c0.319,0,0.633,0.023,0.942,0.059c1.352-4.746,5.711-8.225,10.891-8.225
		c6.259,0,11.333,5.074,11.333,11.333c0,1.287-0.225,2.519-0.62,3.672c2.078,0.541,3.62,2.413,3.62,4.661
		c0,2.669-2.164,4.833-4.833,4.833H23.333c-4.51,0-8.167-3.656-8.167-8.167S18.823,32.667,23.333,32.667z"/>
	<path d="M30.449,45.24c1.371,0,2.55-0.814,3.083-1.985c0.258-0.567,0.296-1.59,0.298-2.213c0.007-1.992,0.007-5.924,0.007-5.924
		c4.377,0,4.114,2.623,3.602,4.129c-0.201,0.59-0.081,0.689,0.34,0.23c5.341-5.817-2.095-7.708-5.048-8.211
		c-0.614-0.104-1.117,0.348-1.117,0.971v6.439c-0.364-0.133-0.755-0.21-1.164-0.21c-1.871,0-3.387,1.517-3.387,3.387
		S28.578,45.24,30.449,45.24z"/>
</g>
</svg>
