<?xml version="1.0" encoding="iso-8859-1"?>
<!-- Generator: Adobe Illustrator 17.0.0, SVG Export Plug-In . SVG Version: 6.00 Build 0)  -->
<!DOCTYPE svg PUBLIC "-//W3C//DTD SVG 1.1//EN" "http://www.w3.org/Graphics/SVG/1.1/DTD/svg11.dtd">
<svg version="1.1" id="Capa_1" xmlns="http://www.w3.org/2000/svg" xmlns:xlink="http://www.w3.org/1999/xlink" x="0px" y="0px"
	 width="64px" height="64px" viewBox="0 0 64 64" style="enable-background:new 0 0 64 64;" xml:space="preserve">
<polygon points="18.29,20.7 14.063,21.833 18.29,21.833 "/>
<rect x="21.633" y="19.833" width="19.85" height="2"/>
<path d="M2.833,20.833c0,0.553,0.447,1,1,1h4.614v-0.189v-1.811H3.833C3.28,19.833,2.833,20.28,2.833,20.833z"/>
<path d="M60.167,19.833H45.753v2h14.414c0.553,0,1-0.447,1-1S60.72,19.833,60.167,19.833z"/>
<path d="M60.167,25.833H45.753v2h14.414c0.553,0,1-0.447,1-1S60.72,25.833,60.167,25.833z"/>
<path d="M3.833,27.833h0.52c0.199-0.303,0.419-0.595,0.683-0.859c0.51-0.51,1.106-0.889,1.732-1.141H3.833c-0.553,0-1,0.447-1,1
	S3.28,27.833,3.833,27.833z"/>
<path d="M11.79,27.833h1.698c0.128-0.689,0.415-1.377,0.876-2H11.79V27.833z"/>
<path d="M21.633,27.01l-0.002,0.823H38.26c0.933-0.872,2.074-1.426,3.224-1.543v-0.457h-19.85V27.01z"/>
<path d="M44.122,33.833h4.912c0.431-0.802,1.05-1.489,1.799-2h-5.434C45.122,32.556,44.69,33.243,44.122,33.833z"/>
<path d="M60.167,31.833h-3c0.749,0.511,1.368,1.198,1.799,2h1.201c0.553,0,1-0.447,1-1S60.72,31.833,60.167,31.833z"/>
<path d="M3.833,33.833h18.242v-2H17.84c-0.354,0.092-0.711,0.155-1.068,0.155c-0.352,0-0.685-0.063-1.006-0.155h-5.122
	c-0.113,0.138-0.209,0.285-0.337,0.413c-0.946,0.946-2.176,1.489-3.375,1.489c-0.942,0-1.802-0.342-2.423-0.963
	c-0.269-0.269-0.465-0.594-0.623-0.939H3.833c-0.553,0-1,0.447-1,1S3.28,33.833,3.833,33.833z"/>
<path d="M32.912,33.833h4.013c-0.347-0.594-0.5-1.283-0.501-2h-4.11c0.157,0.259,0.294,0.529,0.394,0.821
	C32.839,33.038,32.899,33.432,32.912,33.833z"/>
<path d="M30.655,38.629c-0.325,0.354-0.738,0.716-1.338,0.716c-0.437,0-0.849-0.211-1.103-0.566
	c-0.223-0.312-0.275-0.648-0.258-0.947h-1.004c-0.001,0.56-0.002,1.091-0.004,1.528c-0.001,0.17-0.01,0.316-0.015,0.472h22.544
	c-0.437-0.59-0.761-1.266-0.942-2H31.332C31.126,38.096,30.901,38.362,30.655,38.629z"/>
<path d="M60.167,37.833h-0.703c-0.181,0.734-0.505,1.41-0.942,2h1.645c0.553,0,1-0.447,1-1S60.72,37.833,60.167,37.833z"/>
<path d="M2.833,38.833c0,0.553,0.447,1,1,1h13.61c0.054-0.725,0.266-1.401,0.61-2H3.833C3.28,37.833,2.833,38.28,2.833,38.833z"/>
<path d="M16.772,30.688c0.82,0,1.73-0.381,2.456-1.108c0.522-0.522,0.849-1.138,1-1.747c0.069-0.279,0.113-0.556,0.101-0.823h0.004
	v-1.177v-4v-2v-1.026v-0.094v-2.814L9.834,18.713H9.747v0.023v1.097v1.811v0.189v4v1.406c-0.375-0.298-0.848-0.444-1.354-0.444
	c-0.788,0-1.655,0.36-2.365,1.038c-0.023,0.022-0.049,0.037-0.072,0.06c-1.231,1.231-1.468,2.987-0.541,3.94
	c0.006,0.006,0.009,0.014,0.015,0.02c0.392,0.392,0.925,0.582,1.503,0.582c0.599,0,1.245-0.208,1.834-0.602
	c0.217-0.145,0.427-0.311,0.622-0.506c0.644-0.644,1.01-1.431,1.086-2.173h0.016v-0.423c0-0.008,0.001-0.017,0-0.025v-0.873v-2v-4
	v-0.388l6.013-1.612l3.086-0.827v0.827v2v3.661c-0.375-0.3-0.849-0.446-1.357-0.446c-0.68,0-1.415,0.277-2.062,0.785
	c-0.127,0.1-0.257,0.195-0.376,0.313c-0.504,0.504-0.833,1.097-0.992,1.687c-0.232,0.859-0.096,1.711,0.466,2.273
	C15.661,30.498,16.194,30.688,16.772,30.688z"/>
<path d="M25.343,41.626c0.206-0.454,0.274-1.187,0.295-1.793c0.006-0.171,0.009-0.336,0.01-0.477
	c0.001-0.436,0.003-0.965,0.003-1.523c0.002-1.47,0.003-3.152,0.003-4c0-0.34,0-0.552,0-0.552c1.256,0,2.129,0.215,2.738,0.552
	c1.569,0.868,1.334,2.569,0.956,3.682c-0.045,0.134-0.07,0.235-0.083,0.318c-0.022,0.135-0.008,0.213,0.052,0.213
	c0.057,0,0.162-0.082,0.294-0.213c0.03-0.03,0.052-0.046,0.086-0.083c1.441-1.569,1.969-2.858,1.919-3.917
	c-0.038-0.788-0.396-1.448-0.947-2c-1.526-1.526-4.509-2.224-6.148-2.503c-0.061-0.01-0.121-0.015-0.18-0.015
	c-0.545,0-0.965,0.434-0.965,1.011v1.507v2v3.096c-0.373-0.137-0.774-0.215-1.194-0.215c-1.007,0-1.906,0.435-2.54,1.119
	c-0.498,0.537-0.819,1.231-0.898,2c-0.012,0.118-0.036,0.233-0.036,0.355c0,1.919,1.555,3.474,3.474,3.474
	C23.586,43.661,24.796,42.827,25.343,41.626z"/>
<path d="M39.018,28.889c-0.871,0.871-1.315,1.961-1.313,2.944c0.002,0.689,0.216,1.327,0.683,1.795
	c0.078,0.078,0.168,0.14,0.255,0.205c0.435,0.324,0.968,0.491,1.544,0.491c0.582,0,1.197-0.179,1.787-0.491
	c0.404-0.214,0.799-0.481,1.153-0.834c0.358-0.358,0.632-0.756,0.846-1.166c0.276-0.528,0.445-1.076,0.473-1.603h0.007v-2.397v-2v-4
	v-2v-2.099h-1.669v2.099v2v4v1.852c-0.261-0.08-0.541-0.119-0.829-0.119c-0.423,0-0.866,0.101-1.303,0.268
	C40.076,28.052,39.511,28.396,39.018,28.889z"/>
<path d="M54,32.155c-1.387,0-2.609,0.664-3.402,1.678c-0.575,0.735-0.932,1.649-0.932,2.655c0,0.473,0.094,0.919,0.234,1.345
	c0.261,0.795,0.74,1.482,1.375,2c0.746,0.609,1.686,0.989,2.724,0.989s1.978-0.38,2.724-0.989c0.635-0.518,1.114-1.205,1.375-2
	c0.14-0.426,0.234-0.872,0.234-1.345c0-1.006-0.357-1.92-0.932-2.655C56.609,32.819,55.387,32.155,54,32.155z"/>
</svg>
