<?xml version="1.0" encoding="iso-8859-1"?>
<!-- Generator: Adobe Illustrator 16.0.4, SVG Export Plug-In . SVG Version: 6.00 Build 0)  -->
<!DOCTYPE svg PUBLIC "-//W3C//DTD SVG 1.1//EN" "http://www.w3.org/Graphics/SVG/1.1/DTD/svg11.dtd">
<svg version="1.1" id="Capa_1" xmlns="http://www.w3.org/2000/svg" xmlns:xlink="http://www.w3.org/1999/xlink" x="0px" y="0px"
	 width="64px" height="64px" viewBox="0 0 64 64" style="enable-background:new 0 0 64 64;" xml:space="preserve">
<path d="M45.139,9.341c-0.949,0.865-3.176-0.036-4.975-2.011s-2.488-4.277-1.539-5.141C39.573,1.325,41.801,2.225,43.6,4.2
	C45.398,6.175,46.088,8.477,45.139,9.341z"/>
<path d="M46.838,45.495c-0.078-0.769-0.447-1.431-1.041-1.862c-1.686-1.225-5.229-1.191-8.232-0.878
	c0.486-1.452,0.484-2.978-0.018-4.476c-0.971-2.897-3.64-5.312-6.11-7.021c1.448-1.357,3.487-3.827,3.795-7.172L36.159,25
	c0.077,0.075,0.176,0.112,0.274,0.112c0.102,0,0.203-0.039,0.279-0.117c0.152-0.154,0.15-0.401-0.004-0.553l-1.445-1.425
	l0.969-1.248l1.694,1.64c0.076,0.073,0.175,0.11,0.272,0.11c0.103,0,0.205-0.04,0.281-0.119c0.149-0.155,0.146-0.403-0.01-0.553
	l-1.756-1.699l0.977-1.257l1.563,1.512c0.076,0.073,0.175,0.11,0.272,0.11c0.102,0,0.205-0.04,0.281-0.119
	c0.149-0.156,0.146-0.403-0.01-0.554l-1.625-1.571l1.233-1.587c1.058-1.362,0.827-3.317-0.513-4.358
	c-0.539-0.419-1.187-0.641-1.871-0.641c-0.062,0-0.123,0.007-0.184,0.011l0.645-0.77l5.464-1.7
	c-0.952-0.452-1.972-1.187-2.909-2.155c-1.132-1.171-1.923-2.452-2.286-3.571l-1.31,6.231l-3.18,3.791l-0.838-0.811
	c-0.155-0.15-0.403-0.146-0.553,0.009c-0.15,0.155-0.147,0.403,0.009,0.553l0.878,0.85l-1.02,1.216l-0.64-0.621
	c-0.155-0.15-0.403-0.147-0.553,0.009c-0.15,0.156-0.146,0.403,0.009,0.554l0.683,0.66l-0.969,1.156l-0.864-0.852
	c-0.154-0.152-0.402-0.15-0.554,0.004c-0.152,0.154-0.15,0.401,0.004,0.554l0.909,0.896l-4.923,5.871
	c-0.473-0.297-0.997-0.539-1.566-0.71c-3.013-0.908-6.101,0.5-6.897,3.144c-0.797,2.644,0.999,5.523,4.011,6.432
	c2.12,0.64,4.273,0.129,5.643-1.15c2.517,1.289,7.035,4.126,8.052,7.158c0.33,0.984,0.245,1.875-0.267,2.806
	c-3.494,6.353-16.01,12.3-16.137,12.36l1.555,3.305c0.486-0.229,10.536-5.002,15.805-11.117c3.214-0.543,6.555-0.705,8.005-0.417
	c-0.739,1.83-3.978,6.172-7.671,10.214l2.695,2.465c0.09-0.099,2.217-2.43,4.345-5.144C46.532,48.659,46.961,46.709,46.838,45.495z
	 M35.37,14.543c0.403-0.519,1.006-0.817,1.655-0.817c0.451,0,0.875,0.146,1.229,0.42c0.886,0.689,1.034,1.987,0.33,2.895
	l-1.164,1.498l-2.942-2.848L35.37,14.543z M33.994,16.313l2.943,2.848l-0.977,1.258l-2.943-2.848L33.994,16.313z M32.534,18.192
	l2.942,2.848l-0.963,1.24l-2.919-2.878L32.534,18.192z M30.442,20.885l0.669-0.861l2.92,2.879l-0.374,0.48
	c-0.138,0.177-0.3,0.325-0.476,0.447c0,0,0,0-0.303,0.174C32.607,24.13,32.31,24.2,32.002,24.2c-0.451,0-0.876-0.146-1.23-0.42
	C29.885,23.09,29.737,21.792,30.442,20.885z M29.374,29.947c-0.746-0.435-1.405-0.783-1.902-1.03
	c-0.024-1.22-0.542-2.408-1.424-3.354l2.91-3.47c-0.025,0.949,0.376,1.891,1.173,2.511c0.539,0.419,1.186,0.64,1.871,0.64
	c0.22,0,0.435-0.025,0.646-0.069C31.992,27.459,30.325,29.139,29.374,29.947z"/>
</svg>
