<?xml version="1.0" encoding="iso-8859-1"?>
<!-- Generator: Adobe Illustrator 17.0.0, SVG Export Plug-In . SVG Version: 6.00 Build 0)  -->
<!DOCTYPE svg PUBLIC "-//W3C//DTD SVG 1.1//EN" "http://www.w3.org/Graphics/SVG/1.1/DTD/svg11.dtd">
<svg version="1.1" id="Capa_1" xmlns="http://www.w3.org/2000/svg" xmlns:xlink="http://www.w3.org/1999/xlink" x="0px" y="0px"
	 width="64px" height="64px" viewBox="0 0 64 64" style="enable-background:new 0 0 64 64;" xml:space="preserve">
<polygon points="20.819,12.953 47.8,12.953 43.044,2.672 "/>
<polygon points="52.887,42.211 59.846,38.991 52.887,23.949 "/>
<polygon points="8.869,18.481 6.724,19.474 8.869,24.109 "/>
<path d="M11.119,54.971h40.019V14.953H11.119V54.971z M22.912,38.951c1.249-0.498,2.517-0.574,3.52-0.292v-6.621
	c-0.002-0.017-0.005-0.032-0.005-0.049v-4.46c0-0.341,0.276-0.617,0.618-0.617l11.114-2.058c0.34,0,0.617,0.275,0.617,0.616v3.236
	c0.011,0.06,0.017,0.12,0.017,0.183v11.93c0,0.166-0.042,0.322-0.115,0.46c-0.346,1.181-1.493,2.349-3.095,2.988
	c-2.315,0.924-4.701,0.396-5.33-1.18c-0.628-1.576,0.738-3.602,3.053-4.524c1.248-0.499,2.516-0.573,3.519-0.291v-7.479
	l-8.425,1.562v8.852c0,0.167-0.042,0.324-0.115,0.462c-0.347,1.181-1.493,2.347-3.095,2.986c-2.315,0.924-4.701,0.396-5.33-1.18
	C19.23,41.9,20.597,39.875,22.912,38.951z"/>
</svg>
