<?xml version="1.0" encoding="iso-8859-1"?>
<!-- Generator: Adobe Illustrator 17.0.0, SVG Export Plug-In . SVG Version: 6.00 Build 0)  -->
<!DOCTYPE svg PUBLIC "-//W3C//DTD SVG 1.1//EN" "http://www.w3.org/Graphics/SVG/1.1/DTD/svg11.dtd">
<svg version="1.1" id="Capa_1" xmlns="http://www.w3.org/2000/svg" xmlns:xlink="http://www.w3.org/1999/xlink" x="0px" y="0px"
	 width="64px" height="64px" viewBox="0 0 64 64" style="enable-background:new 0 0 64 64;" xml:space="preserve">
<path d="M8.019,22.9v18.492c0,3.213,2.259,4.521,5.046,2.924l16.176-9.277c2.787-1.598,2.787-4.188,0-5.785l-16.176-9.277
	C10.278,18.379,8.019,19.688,8.019,22.9z"/>
<path d="M32.929,23.326v17.641c0,3.211,1.764,5.814,3.941,5.814c2.176,0,3.939-2.604,3.939-5.814V23.326
	c0-3.211-1.764-5.816-3.939-5.816C34.692,17.51,32.929,20.115,32.929,23.326z"/>
<path d="M49.278,23.326v17.641c0,3.211,1.764,5.814,3.941,5.814c2.176,0,3.941-2.604,3.941-5.814V23.326
	c0-3.211-1.765-5.816-3.941-5.816C51.042,17.51,49.278,20.115,49.278,23.326z"/>
</svg>
