<?xml version="1.0" encoding="iso-8859-1"?>
<!-- Generator: Adobe Illustrator 17.0.0, SVG Export Plug-In . SVG Version: 6.00 Build 0)  -->
<!DOCTYPE svg PUBLIC "-//W3C//DTD SVG 1.1//EN" "http://www.w3.org/Graphics/SVG/1.1/DTD/svg11.dtd">
<svg version="1.1" id="Capa_1" xmlns="http://www.w3.org/2000/svg" xmlns:xlink="http://www.w3.org/1999/xlink" x="0px" y="0px"
	 width="64px" height="64px" viewBox="0 0 64 64" style="enable-background:new 0 0 64 64;" xml:space="preserve">
<g>
	<path d="M59.11,43.891V13.872c0-1.928-1.563-3.491-3.491-3.491H8.381c-1.928,0-3.491,1.563-3.491,3.491v30.018
		c0,1.928,1.563,3.491,3.491,3.491h47.238C57.547,47.381,59.11,45.818,59.11,43.891z M13.617,29.347c0,1.341-0.523,2.492-1.28,3.076
		v10.421c0,0.579-0.469,1.047-1.047,1.047c-0.579,0-1.047-0.469-1.047-1.047v-10.33c-0.822-0.551-1.396-1.758-1.396-3.167v-1.746
		c0-1.409,0.574-2.616,1.396-3.168V13.523c0-0.578,0.469-1.047,1.047-1.047c0.579,0,1.047,0.469,1.047,1.047v11.002
		c0.758,0.584,1.28,1.735,1.28,3.076V29.347z M20.655,42.031h-3.403c-0.385,0-0.698-0.312-0.698-0.698
		c0-0.386,0.312-0.698,0.698-0.698h3.403c0.386,0,0.698,0.312,0.698,0.698C21.353,41.718,21.04,42.031,20.655,42.031z
		 M20.655,38.947h-3.403c-0.385,0-0.698-0.312-0.698-0.698c0-0.386,0.312-0.698,0.698-0.698h3.403c0.386,0,0.698,0.312,0.698,0.698
		C21.353,38.635,21.04,38.947,20.655,38.947z M20.655,35.864h-3.403c-0.385,0-0.698-0.312-0.698-0.698
		c0-0.385,0.312-0.698,0.698-0.698h3.403c0.386,0,0.698,0.312,0.698,0.698C21.353,35.551,21.04,35.864,20.655,35.864z M20.655,32.78
		h-3.403c-0.385,0-0.698-0.312-0.698-0.698c0-0.385,0.312-0.698,0.698-0.698h3.403c0.386,0,0.698,0.312,0.698,0.698
		C21.353,32.468,21.04,32.78,20.655,32.78z M20.655,29.697h-3.403c-0.385,0-0.698-0.312-0.698-0.698
		c0-0.385,0.312-0.698,0.698-0.698h3.403c0.386,0,0.698,0.313,0.698,0.698C21.353,29.384,21.04,29.697,20.655,29.697z
		 M20.655,26.613h-3.403c-0.385,0-0.698-0.312-0.698-0.698c0-0.386,0.312-0.698,0.698-0.698h3.403c0.386,0,0.698,0.312,0.698,0.698
		C21.353,26.301,21.04,26.613,20.655,26.613z M20.655,23.53h-3.403c-0.385,0-0.698-0.313-0.698-0.698
		c0-0.386,0.312-0.698,0.698-0.698h3.403c0.386,0,0.698,0.312,0.698,0.698C21.353,23.217,21.04,23.53,20.655,23.53z M20.655,20.446
		h-3.403c-0.385,0-0.698-0.313-0.698-0.698c0-0.386,0.312-0.698,0.698-0.698h3.403c0.386,0,0.698,0.312,0.698,0.698
		C21.353,20.133,21.04,20.446,20.655,20.446z M20.655,17.362h-3.403c-0.385,0-0.698-0.312-0.698-0.698
		c0-0.386,0.312-0.698,0.698-0.698h3.403c0.386,0,0.698,0.312,0.698,0.698C21.353,17.05,21.04,17.362,20.655,17.362z M30.546,24.984
		c0,1.375-0.548,2.553-1.337,3.122v14.739c0,0.579-0.469,1.047-1.047,1.047s-1.047-0.469-1.047-1.047V28.106
		c-0.79-0.569-1.339-1.747-1.339-3.122v-1.746c0-1.375,0.549-2.553,1.339-3.122v-6.593c0-0.578,0.469-1.047,1.047-1.047
		s1.047,0.469,1.047,1.047v6.593c0.789,0.569,1.337,1.747,1.337,3.122V24.984z M35.751,29.172h-3.403
		c-0.385,0-0.698-0.312-0.698-0.698c0-0.386,0.312-0.698,0.698-0.698h3.403c0.386,0,0.698,0.312,0.698,0.698
		C36.45,28.86,36.137,29.172,35.751,29.172z M42.065,31.5c0,1.375-0.548,2.553-1.338,3.122v8.223c0,0.579-0.469,1.047-1.047,1.047
		c-0.579,0-1.047-0.469-1.047-1.047v-8.222c-0.79-0.569-1.339-1.747-1.339-3.122v-1.745c0-1.375,0.549-2.553,1.339-3.122V13.523
		c0-0.578,0.469-1.047,1.047-1.047c0.578,0,1.047,0.469,1.047,1.047v13.109c0.79,0.569,1.338,1.747,1.338,3.122V31.5z
		 M46.921,29.172h-3.403c-0.385,0-0.698-0.312-0.698-0.698c0-0.386,0.312-0.698,0.698-0.698h3.403c0.386,0,0.698,0.312,0.698,0.698
		C47.62,28.86,47.307,29.172,46.921,29.172z M54.05,27.776c0,1.375-0.549,2.553-1.339,3.122v11.946c0,0.579-0.469,1.047-1.047,1.047
		c-0.578,0-1.047-0.469-1.047-1.047V30.898c-0.79-0.569-1.338-1.746-1.338-3.122v-1.746c0-1.375,0.548-2.553,1.338-3.122v-9.386
		c0-0.578,0.469-1.047,1.047-1.047c0.579,0,1.047,0.469,1.047,1.047v9.385c0.79,0.569,1.339,1.747,1.339,3.122V27.776z"/>
</g>
</svg>
