<?xml version="1.0" encoding="iso-8859-1"?>
<!-- Generator: Adobe Illustrator 17.0.0, SVG Export Plug-In . SVG Version: 6.00 Build 0)  -->
<!DOCTYPE svg PUBLIC "-//W3C//DTD SVG 1.1//EN" "http://www.w3.org/Graphics/SVG/1.1/DTD/svg11.dtd">
<svg version="1.1" id="Capa_1" xmlns="http://www.w3.org/2000/svg" xmlns:xlink="http://www.w3.org/1999/xlink" x="0px" y="0px"
	 width="64px" height="64px" viewBox="0 0 64 64" style="enable-background:new 0 0 64 64;" xml:space="preserve">
<g>
	<path d="M4.833,9.833v49.333h54.333V9.833c0-2.761-2.239-5-5-5H9.833C7.072,4.833,4.833,7.072,4.833,9.833z M11.953,8.588
		C12.235,8.53,12.527,8.5,12.825,8.5h0h38.35c2.389,0,4.325,1.936,4.325,4.325V19.5v36h-47v-36v-6.675
		c0-1.493,0.756-2.809,1.907-3.586C10.867,8.928,11.39,8.703,11.953,8.588z"/>
	<rect x="9.5" y="19.5" width="45" height="35"/>
	<circle cx="14.667" cy="14" r="3"/>
	<circle cx="23.667" cy="14" r="3"/>
	<circle cx="32.667" cy="14" r="3"/>
</g>
</svg>
