<?xml version="1.0" encoding="iso-8859-1"?>
<!-- Generator: Adobe Illustrator 17.0.0, SVG Export Plug-In . SVG Version: 6.00 Build 0)  -->
<!DOCTYPE svg PUBLIC "-//W3C//DTD SVG 1.1//EN" "http://www.w3.org/Graphics/SVG/1.1/DTD/svg11.dtd">
<svg version="1.1" id="Capa_1" xmlns="http://www.w3.org/2000/svg" xmlns:xlink="http://www.w3.org/1999/xlink" x="0px" y="0px"
	 width="64px" height="64px" viewBox="0 0 64 64" style="enable-background:new 0 0 64 64;" xml:space="preserve">
<path d="M16.408,52.705c5.715,0,10.348-2.316,10.348-5.172c0-0.08-0.018-0.159-0.023-0.238l0.023-0.002l-1.191-28.891h18.88
	c0.043,0.373,0.091,0.776,0.143,1.209c0.532,4.474,1.461,12.306,1.28,23.082c-1.128-0.212-2.345-0.333-3.621-0.333
	c-5.714,0-10.347,2.316-10.347,5.173c0,2.856,4.633,5.172,10.347,5.172c5.715,0,10.348-2.316,10.348-5.172
	c0-0.125-0.021-0.248-0.037-0.37c0.599-13.663-0.494-23.096-1.12-28.365c-0.117-0.983-0.215-1.802-0.276-2.453
	c-0.256-2.714-2.602-4.841-5.342-4.841H23.89c-2.77,0-5.092,2.164-5.288,4.926l-0.014,0.191l1.056,26.001
	c-1.019-0.167-2.104-0.262-3.235-0.262c-5.714,0-10.348,2.316-10.348,5.173C6.06,50.389,10.694,52.705,16.408,52.705z"/>
</svg>
