<?xml version="1.0" encoding="iso-8859-1"?>
<!-- Generator: Adobe Illustrator 17.0.0, SVG Export Plug-In . SVG Version: 6.00 Build 0)  -->
<!DOCTYPE svg PUBLIC "-//W3C//DTD SVG 1.1//EN" "http://www.w3.org/Graphics/SVG/1.1/DTD/svg11.dtd">
<svg version="1.1" id="Capa_1" xmlns="http://www.w3.org/2000/svg" xmlns:xlink="http://www.w3.org/1999/xlink" x="0px" y="0px"
	 width="64px" height="64px" viewBox="0 0 64 64" style="enable-background:new 0 0 64 64;" xml:space="preserve">
<g>
	<path d="M24.756,56.811c2.771-2.771,4.308-6.191,4.514-9.361h0.011v-0.127V46.04V30.58c2.218,0.481,4.798,0.808,7.282,0.561
		c6.264-0.623,13.188,7.684,13.188,7.684s-4.689-13.914-13.041-13.79c-2.912,0.043-5.404-0.722-7.428-1.73v-5.156
		c2.218,0.481,4.798,0.808,7.282,0.561c6.264-0.623,13.188,7.684,13.188,7.684s-4.689-13.914-13.041-13.79
		c-2.912,0.043-5.404-0.722-7.428-1.73V7.577c0-1.657-1.322-3-2.953-3c-1.255,0-2.321,0.799-2.748,1.921
		c-0.131-0.153-0.205-0.248-0.205-0.248v1.327v8.745v2.359v10.072v9.763c-3.918-1.094-8.927,0.405-12.718,4.196
		C5.571,47.798,4.604,55.077,8.498,58.97C12.391,62.864,19.67,61.897,24.756,56.811z"/>
</g>
</svg>
