<?xml version="1.0" encoding="iso-8859-1"?>
<!-- Generator: Adobe Illustrator 17.0.0, SVG Export Plug-In . SVG Version: 6.00 Build 0)  -->
<!DOCTYPE svg PUBLIC "-//W3C//DTD SVG 1.1//EN" "http://www.w3.org/Graphics/SVG/1.1/DTD/svg11.dtd">
<svg version="1.1" id="Capa_1" xmlns="http://www.w3.org/2000/svg" xmlns:xlink="http://www.w3.org/1999/xlink" x="0px" y="0px"
	 width="64px" height="64px" viewBox="0 0 64 64" style="enable-background:new 0 0 64 64;" xml:space="preserve">
<g>
	<path d="M9.625,20.5h15.5c0.567,0,1.395-0.485,1.697-1.019l3.161-5.231H9.625c-4.418,0-8,3.582-8,8v2.647
		C3.315,22.258,6.265,20.5,9.625,20.5z"/>
	<path d="M54.375,11h-18.75c-1.105,0-2.439,0.78-2.981,1.743l-0.91,1.507l-3.629,6.007C27.564,21.22,26.23,22,25.125,22h-15.5
		c-4.418,0-8,3.582-8,8v14.75v1.75c0,4.418,3.582,8,8,8h44.75c4.418,0,8-3.582,8-8v-1.75v-22.5V19
		C62.375,14.582,58.793,11,54.375,11z M28.168,45.091h20.885c0.552,0,1,0.447,1,1s-0.448,1-1,1H28.168c-0.552,0-1-0.447-1-1
		S27.616,45.091,28.168,45.091z M27.168,40.814c0-0.553,0.448-1,1-1h20.885c0.552,0,1,0.447,1,1s-0.448,1-1,1H28.168
		C27.616,41.814,27.168,41.367,27.168,40.814z M50.054,29.956c0,0.552-0.448,1-1,1H33.555c-0.552,0-1-0.448-1-1s0.448-1,1-1h15.499
		C49.606,28.956,50.054,29.404,50.054,29.956z M49.054,34.538c0.552,0,1,0.447,1,1s-0.448,1-1,1H28.168c-0.552,0-1-0.447-1-1
		s0.448-1,1-1H49.054z M18.009,41.27c1.324-0.771,2.74-1.02,3.874-0.801v-8.651v-2.843v-0.879h0.879h1.28h4.526
		c0.486,0,0.879,0.394,0.879,0.879v1.963c0,0.486-0.394,0.879-0.879,0.879h-4.526v11.163h-0.011
		c-0.073,1.344-1.115,2.862-2.792,3.838c-2.271,1.322-4.835,1.151-5.727-0.381S15.738,42.592,18.009,41.27z"/>
</g>
</svg>
