<?xml version="1.0" encoding="iso-8859-1"?>
<!-- Generator: Adobe Illustrator 17.0.0, SVG Export Plug-In . SVG Version: 6.00 Build 0)  -->
<!DOCTYPE svg PUBLIC "-//W3C//DTD SVG 1.1//EN" "http://www.w3.org/Graphics/SVG/1.1/DTD/svg11.dtd">
<svg version="1.1" id="Capa_1" xmlns="http://www.w3.org/2000/svg" xmlns:xlink="http://www.w3.org/1999/xlink" x="0px" y="0px"
	 width="64px" height="64px" viewBox="0 0 64 64" style="enable-background:new 0 0 64 64;" xml:space="preserve">
<path d="M7.114,42.142c0.777,0.298,1.602,0.473,2.446,0.476c-0.577,0.607-1.019,1.318-1.341,2.079
	c1.108,2.24,2.516,4.304,4.179,6.136c0.83-0.014,1.659-0.159,2.441-0.47c-0.308,0.777-0.453,1.599-0.469,2.424
	c1.941,1.739,4.137,3.197,6.525,4.315c0.754-0.339,1.455-0.795,2.05-1.386c0.022,0.842,0.214,1.66,0.527,2.429
	c2.357,0.816,4.861,1.317,7.465,1.442c0.576-0.597,1.059-1.285,1.393-2.057c0.332,0.768,0.811,1.453,1.384,2.047
	c2.677-0.146,5.249-0.684,7.661-1.559c0.295-0.774,0.469-1.595,0.472-2.435c0.612,0.581,1.328,1.025,2.095,1.348
	c2.247-1.094,4.318-2.494,6.16-4.144c-0.016-0.824-0.161-1.647-0.469-2.424c0.783,0.311,1.611,0.455,2.441,0.47
	c1.831-2.017,3.352-4.317,4.504-6.823c-0.339-0.758-0.797-1.462-1.39-2.06c0.837-0.021,1.651-0.212,2.417-0.521
	c0.763-2.254,1.24-4.639,1.375-7.117c-0.595-0.572-1.279-1.052-2.047-1.384c0.772-0.333,1.46-0.817,2.057-1.393
	c-0.134-2.804-0.699-5.495-1.631-8.008c-0.777-0.298-1.602-0.473-2.446-0.476c0.577-0.607,1.019-1.318,1.341-2.079
	c-0.598-1.209-1.286-2.365-2.054-3.463c-6.207,3.198-19.947,14.525-21.962,15.325c0.799-2.012,12.009-15.805,15.191-22.057
	c-1.215-0.838-2.502-1.578-3.851-2.21c-0.754,0.339-1.455,0.795-2.05,1.386c-0.022-0.842-0.214-1.66-0.527-2.429
	c-2.357-0.816-4.861-1.317-7.465-1.442c-0.576,0.597-1.059,1.285-1.393,2.057c-0.332-0.768-0.811-1.453-1.384-2.047
	c-2.677,0.146-5.249,0.684-7.661,1.559c-0.295,0.774-0.469,1.595-0.472,2.435c-0.612-0.581-1.328-1.025-2.095-1.347
	c-2.247,1.094-4.318,2.494-6.16,4.144c0.016,0.824,0.161,1.647,0.469,2.424c-0.782-0.311-1.611-0.455-2.441-0.47
	c-1.831,2.017-3.352,4.317-4.505,6.823c0.339,0.758,0.797,1.462,1.39,2.06c-0.837,0.021-1.651,0.212-2.417,0.521
	c-0.763,2.254-1.24,4.639-1.375,7.117c0.595,0.572,1.279,1.052,2.047,1.384c-0.772,0.333-1.46,0.816-2.057,1.393
	C5.617,36.938,6.182,39.629,7.114,42.142z"/>
</svg>
