<?xml version="1.0" encoding="iso-8859-1"?>
<!-- Generator: Adobe Illustrator 17.0.0, SVG Export Plug-In . SVG Version: 6.00 Build 0)  -->
<!DOCTYPE svg PUBLIC "-//W3C//DTD SVG 1.1//EN" "http://www.w3.org/Graphics/SVG/1.1/DTD/svg11.dtd">
<svg version="1.1" id="Capa_1" xmlns="http://www.w3.org/2000/svg" xmlns:xlink="http://www.w3.org/1999/xlink" x="0px" y="0px"
	 width="64px" height="64px" viewBox="0 0 64 64" style="enable-background:new 0 0 64 64;" xml:space="preserve">
<path d="M28.127,24.533c-4.302,2.281-5.946,7.639-3.665,11.94c2.281,4.302,7.641,5.944,11.94,3.663
	c4.302-2.281,5.945-7.639,3.664-11.939C37.785,23.896,32.427,22.252,28.127,24.533z M34.334,36.236
	c-2.153,1.143-4.827,0.321-5.97-1.833c-1.143-2.153-0.322-4.827,1.831-5.97c2.153-1.143,4.827-0.322,5.97,1.833
	C37.308,32.42,36.486,35.094,34.334,36.236z"/>
<path d="M20.602,10.348C8.46,16.788,3.836,31.853,10.277,43.997c6.441,12.142,21.506,16.766,33.649,10.325
	c12.143-6.441,16.766-21.506,10.325-33.649C47.81,8.528,32.746,3.906,20.602,10.348z M25.525,53.274
	c-4.593-1.335-8.75-4.156-11.688-8.226l6.552-3.883c1.657,2.077,3.821,3.606,6.214,4.503L25.525,53.274z M37.907,42.975
	c-5.867,3.111-13.171,0.87-16.283-4.996c-3.11-5.866-0.87-13.171,4.998-16.283c5.865-3.11,13.169-0.869,16.281,4.997
	C46.014,32.559,43.773,39.863,37.907,42.975z M43.544,23.31c-1.657-2.077-3.821-3.607-6.214-4.503l1.078-7.606
	c4.593,1.335,8.75,4.156,11.688,8.227L43.544,23.31z"/>
</svg>
