<?xml version="1.0" encoding="iso-8859-1"?>
<!-- Generator: Adobe Illustrator 17.0.0, SVG Export Plug-In . SVG Version: 6.00 Build 0)  -->
<!DOCTYPE svg PUBLIC "-//W3C//DTD SVG 1.1//EN" "http://www.w3.org/Graphics/SVG/1.1/DTD/svg11.dtd">
<svg version="1.1" id="Capa_1" xmlns="http://www.w3.org/2000/svg" xmlns:xlink="http://www.w3.org/1999/xlink" x="0px" y="0px"
	 width="64px" height="64px" viewBox="0 0 64 64" style="enable-background:new 0 0 64 64;" xml:space="preserve">
<path d="M41.966,54.851l-0.029,1.831c1.581-0.676,3.085-1.499,4.493-2.453c-0.152-2.302,0.794-4.853,2.77-6.829
	c1.662-1.662,3.784-2.648,5.882-2.767c0.423-0.789,0.806-1.601,1.149-2.434v-5.111l-14.265,3.824v12.997l0.002,0.037l-0.002,0.062
	V54.851z"/>
<path d="M57.724,26.709C55.26,14.439,44.402,5.167,31.417,5.167C16.621,5.167,4.584,17.204,4.584,32
	c0,13.206,9.592,24.207,22.174,26.42c-0.412-2.468,0.516-5.338,2.69-7.513c1.774-1.774,4.073-2.791,6.307-2.791
	c0.243,0,0.483,0.012,0.718,0.036v-7.214c-1.495,0.849-3.218,1.34-5.057,1.34c-5.667,0-10.278-4.611-10.278-10.278
	s4.611-10.278,10.278-10.278c5.337,0,9.733,4.089,10.229,9.297L57.724,26.709z M23.138,22.466l-6.5-10.656
	c0,0,4.529-4.008,9.994-4.008l2.006,11.796C28.638,19.597,24.792,19.778,23.138,22.466z M30.635,19.887L28.844,7.293l1.98-0.281
	l1.791,12.594L30.635,19.887z"/>
<path d="M31.417,24.722c-4.013,0-7.278,3.265-7.278,7.278s3.265,7.278,7.278,7.278c1.964,0,3.746-0.785,5.057-2.054v-3.332v-0.536
	v-1.464h0.189h1.723l0.301-0.081C38.585,27.886,35.367,24.722,31.417,24.722z M31.417,34.257c-1.244,0-2.256-1.013-2.256-2.257
	s1.012-2.257,2.256-2.257s2.256,1.013,2.256,2.257S32.661,34.257,31.417,34.257z"/>
<path d="M59.717,50.548h0.008V41.4v-7.319v-0.189v-0.867v-2.052v-2.73l-0.222,0.06l-1.463,0.392l-16.404,4.397l-1.58,0.424
	l-1.407,0.377h-0.176v0.047v3.267v2.247v0.323v11.23c-0.753-0.599-1.702-0.892-2.719-0.892c-1.634,0-3.443,0.755-4.893,2.205
	c-1.911,1.911-2.619,4.449-1.986,6.388c0.19,0.584,0.49,1.119,0.93,1.56c0.007,0.007,0.015,0.011,0.022,0.017
	c0.785,0.774,1.846,1.151,2.996,1.151c1.43,0,2.996-0.58,4.338-1.688c0.203-0.167,0.401-0.345,0.592-0.536
	c0.449-0.449,0.806-0.94,1.119-1.443c0.589-0.944,0.961-1.948,1.061-2.92h0.032v-0.849c-0.001-0.016,0.001-0.033,0-0.05V39.377
	l18.163-4.868l0.102-0.027v6.668v3.914v2.441c-0.304-0.243-0.647-0.423-1.008-0.566c-0.478-0.191-0.994-0.297-1.536-0.317
	c-0.061-0.002-0.119-0.013-0.181-0.013c-0.581,0-1.184,0.1-1.785,0.288c-1.09,0.341-2.173,0.982-3.108,1.917
	c-1.144,1.144-1.84,2.514-2.096,3.846c-0.129,0.673-0.137,1.328-0.026,1.947c0.094,0.523,0.259,1.017,0.53,1.457
	c0.153,0.248,0.324,0.487,0.536,0.698c0.787,0.787,1.857,1.168,3.018,1.168c1.645,0,3.472-0.766,4.93-2.224
	C59.033,54.18,59.792,52.252,59.717,50.548z"/>
</svg>
