<?xml version="1.0" encoding="iso-8859-1"?>
<!-- Generator: Adobe Illustrator 17.0.0, SVG Export Plug-In . SVG Version: 6.00 Build 0)  -->
<!DOCTYPE svg PUBLIC "-//W3C//DTD SVG 1.1//EN" "http://www.w3.org/Graphics/SVG/1.1/DTD/svg11.dtd">
<svg version="1.1" id="Capa_1" xmlns="http://www.w3.org/2000/svg" xmlns:xlink="http://www.w3.org/1999/xlink" x="0px" y="0px"
	 width="64px" height="64px" viewBox="0 0 64 64" style="enable-background:new 0 0 64 64;" xml:space="preserve">
<g>
	<path d="M4.542,56.32h10.166c1.657,0,3-1.343,3-3c0-1.657-1.343-3-3-3H4.542c-1.657,0-3,1.343-3,3
		C1.541,54.977,2.885,56.32,4.542,56.32z"/>
	<path d="M4.542,48.486h10.166c1.657,0,3-1.343,3-3c0-1.657-1.343-3-3-3H4.542c-1.657,0-3,1.343-3,3
		C1.541,47.143,2.885,48.486,4.542,48.486z"/>
	<path d="M4.542,40.652h10.166c1.657,0,3-1.343,3-3c0-1.657-1.343-3-3-3H4.542c-1.657,0-3,1.343-3,3
		C1.541,39.309,2.885,40.652,4.542,40.652z"/>
	<path d="M4.542,32.818h10.166c1.657,0,3-1.343,3-3c0-1.657-1.343-3-3-3H4.542c-1.657,0-3,1.343-3,3
		C1.541,31.475,2.885,32.818,4.542,32.818z"/>
	<path d="M24.875,56.32H35.04c1.657,0,3-1.343,3-3c0-1.657-1.343-3-3-3H24.875c-1.657,0-3,1.343-3,3
		C21.875,54.977,23.218,56.32,24.875,56.32z"/>
	<path d="M24.875,48.486H35.04c1.657,0,3-1.343,3-3c0-1.657-1.343-3-3-3H24.875c-1.657,0-3,1.343-3,3
		C21.875,47.143,23.218,48.486,24.875,48.486z"/>
	<path d="M24.875,40.652H35.04c1.657,0,3-1.343,3-3c0-1.657-1.343-3-3-3H24.875c-1.657,0-3,1.343-3,3
		C21.875,39.309,23.218,40.652,24.875,40.652z"/>
	<path d="M24.875,32.818H35.04c1.657,0,3-1.343,3-3c0-1.657-1.343-3-3-3H24.875c-1.657,0-3,1.343-3,3
		C21.875,31.475,23.218,32.818,24.875,32.818z"/>
	<path d="M24.875,24.984H35.04c1.657,0,3-1.343,3-3s-1.343-3-3-3H24.875c-1.657,0-3,1.343-3,3S23.218,24.984,24.875,24.984z"/>
	<path d="M24.875,17.15H35.04c1.657,0,3-1.343,3-3s-1.343-3-3-3H24.875c-1.657,0-3,1.343-3,3S23.218,17.15,24.875,17.15z"/>
	<path d="M24.875,9.569H35.04c1.657,0,3-1.343,3-3c0-1.657-1.343-3-3-3H24.875c-1.657,0-3,1.343-3,3
		C21.875,8.226,23.218,9.569,24.875,9.569z"/>
	<path d="M58.874,53.32c0-1.657-1.344-3-3-3H45.708c-1.657,0-3,1.343-3,3c0,1.657,1.343,3,3,3h10.166
		C57.531,56.32,58.874,54.977,58.874,53.32z"/>
	<path d="M55.874,42.486H45.708c-1.657,0-3,1.343-3,3c0,1.657,1.343,3,3,3h10.166c1.656,0,3-1.343,3-3
		C58.874,43.829,57.531,42.486,55.874,42.486z"/>
	<path d="M55.874,34.652H45.708c-1.657,0-3,1.343-3,3c0,1.657,1.343,3,3,3h10.166c1.656,0,3-1.343,3-3
		C58.874,35.995,57.531,34.652,55.874,34.652z"/>
	<path d="M55.874,26.818H45.708c-1.657,0-3,1.343-3,3c0,1.657,1.343,3,3,3h10.166c1.656,0,3-1.343,3-3
		C58.874,28.161,57.531,26.818,55.874,26.818z"/>
	<path d="M55.874,18.984H45.708c-1.657,0-3,1.343-3,3s1.343,3,3,3h10.166c1.656,0,3-1.343,3-3S57.531,18.984,55.874,18.984z"/>
</g>
</svg>
