<?xml version="1.0" encoding="iso-8859-1"?>
<!-- Generator: Adobe Illustrator 17.0.0, SVG Export Plug-In . SVG Version: 6.00 Build 0)  -->
<!DOCTYPE svg PUBLIC "-//W3C//DTD SVG 1.1//EN" "http://www.w3.org/Graphics/SVG/1.1/DTD/svg11.dtd">
<svg version="1.1" id="Capa_1" xmlns="http://www.w3.org/2000/svg" xmlns:xlink="http://www.w3.org/1999/xlink" x="0px" y="0px"
	 width="64px" height="64px" viewBox="0 0 64 64" style="enable-background:new 0 0 64 64;" xml:space="preserve">
<path d="M33.943,57.891c14.359,0,26-11.641,26-26c0-14.359-11.641-26-26-26c-14.359,0-26,11.641-26,26
	C7.943,46.25,19.584,57.891,33.943,57.891z M30.697,33.217c1.452-0.309,2.878-0.238,4.139,0.131V20.742c0-1.232,1-2.232,2.233-2.232
	c1.234,0,2.234,1,2.234,2.232v1.336c0.432,0.219,0.935,0.441,1.504,0.639c2.182,0.758,3.65,2.537,3.783,4.406
	c0.04,0.562,0.056,1.049,0.059,1.455c0.006,0.804-0.191,1.58-0.355,1.735c-0.164,0.155-0.502,0.155-0.756,0
	c-0.254-0.155-0.449-0.813-0.709-1.388c-0.142-0.313-0.365-0.633-0.715-0.867c-0.48-0.32-1.681-0.627-2.811-1.051v11.36
	c0,0.131-0.016,0.259-0.038,0.387c-0.05,2.878-2.533,5.573-6.051,6.32c-3.978,0.846-7.768-1.124-8.463-4.398
	C24.056,37.401,26.718,34.062,30.697,33.217z"/>
</svg>
