<?xml version="1.0" encoding="iso-8859-1"?>
<!-- Generator: Adobe Illustrator 17.0.0, SVG Export Plug-In . SVG Version: 6.00 Build 0)  -->
<!DOCTYPE svg PUBLIC "-//W3C//DTD SVG 1.1//EN" "http://www.w3.org/Graphics/SVG/1.1/DTD/svg11.dtd">
<svg version="1.1" id="Capa_1" xmlns="http://www.w3.org/2000/svg" xmlns:xlink="http://www.w3.org/1999/xlink" x="0px" y="0px"
	 width="64px" height="64px" viewBox="0 0 64 64" style="enable-background:new 0 0 64 64;" xml:space="preserve">
<g>
	<path d="M5.947,39.199l8.092-4.21l2.433-2.086c0.419-0.359,1.207-0.651,1.759-0.651h1.585h40.583c0.552,0,1-0.448,1-1v-1.497
		c0-0.552-0.448-1-1-1H20.816c-0.552,0-1.428,0.132-1.956,0.294l-6.95,2.139l-6.638,2.568l-0.77-0.897
		c-0.359-0.42-0.923-0.623-1.259-0.455c-0.335,0.168-0.434,0.709-0.22,1.209l0.388,0.905c0,0-0.174,0.071-0.388,0.159
		c-0.214,0.087-0.187,0.559,0.061,1.052l1.526,3.037C4.858,39.261,5.456,39.454,5.947,39.199z M13.538,33.567
		c0.054,0.114,0.007,0.25-0.106,0.304L7.031,36.97c-0.032,0.015-0.066,0.022-0.099,0.022c-0.085,0-0.167-0.047-0.206-0.128
		c-0.055-0.113-0.007-0.25,0.106-0.305l6.4-3.098C13.347,33.406,13.483,33.454,13.538,33.567z M13.149,32.868
		c0.049,0.117-0.006,0.25-0.123,0.299l-6.563,2.736c-0.029,0.012-0.058,0.018-0.088,0.018c-0.089,0-0.174-0.053-0.21-0.141
		c-0.049-0.116,0.006-0.25,0.123-0.298l6.563-2.737C12.967,32.698,13.101,32.752,13.149,32.868z M5.855,34.626l6.563-2.736
		c0.117-0.048,0.25,0.006,0.298,0.123s-0.006,0.25-0.123,0.298l-6.563,2.737c-0.029,0.012-0.059,0.017-0.088,0.017
		c-0.089,0-0.174-0.052-0.211-0.14C5.684,34.808,5.739,34.675,5.855,34.626z"/>
	<path d="M46.556,25.98c1.579,0,2.966,0.818,3.765,2.053h3.513c-1.019-3.047-3.889-5.246-7.278-5.246
		c-3.389,0-6.26,2.199-7.278,5.246h3.513C43.59,26.799,44.977,25.98,46.556,25.98z"/>
	<path d="M46.556,38.143c3.39,0,6.26-2.198,7.278-5.245h-3.513c-0.799,1.234-2.186,2.053-3.765,2.053
		c-1.58,0-2.966-0.818-3.765-2.053h-3.514C40.296,35.945,43.167,38.143,46.556,38.143z"/>
</g>
</svg>
