<?xml version="1.0" encoding="iso-8859-1"?>
<!-- Generator: Adobe Illustrator 16.0.4, SVG Export Plug-In . SVG Version: 6.00 Build 0)  -->
<!DOCTYPE svg PUBLIC "-//W3C//DTD SVG 1.1//EN" "http://www.w3.org/Graphics/SVG/1.1/DTD/svg11.dtd">
<svg version="1.1" id="Capa_1" xmlns="http://www.w3.org/2000/svg" xmlns:xlink="http://www.w3.org/1999/xlink" x="0px" y="0px"
	 width="64px" height="64px" viewBox="0 0 64 64" style="enable-background:new 0 0 64 64;" xml:space="preserve">
<path d="M20.299,44.305l1.543,1.438L8.753,59.787L7.21,58.349L20.299,44.305z M45.828,17.92c-0.625-0.572-0.989-1.351-1.025-2.197
	c-0.039-0.846,0.256-1.653,0.827-2.277l1.304-1.422c-0.776,0.189-1.511,0.593-2.101,1.212l-23.026,24.77
	c-1.59,1.707-1.492,4.379,0.216,5.967c1.655,1.539,4.217,1.495,5.82-0.065c0.05-0.05,0.099-0.099,0.148-0.15l23.026-24.772
	c0.85-0.913,1.201-2.101,1.099-3.252l-1.943,2.12C48.975,19.022,47.064,19.052,45.828,17.92z M55.232,4.398l-8.82,9.636
	c-0.788,0.859-0.729,2.195,0.13,2.982c0.831,0.759,2.103,0.732,2.897-0.044c0.029-0.029,0.057-0.058,0.086-0.088l8.556-9.347
	c-0.72,0.064-1.511-0.219-2.106-0.831C55.327,6.041,55.079,5.162,55.232,4.398z M59.641,3.227c-0.975-1-2.463-1.13-3.324-0.291
	c-0.861,0.839-0.769,2.33,0.205,3.33c0.975,1,2.463,1.13,3.324,0.291C60.707,5.717,60.615,4.227,59.641,3.227z"/>
</svg>
