<?xml version="1.0" encoding="iso-8859-1"?>
<!-- Generator: Adobe Illustrator 17.0.0, SVG Export Plug-In . SVG Version: 6.00 Build 0)  -->
<!DOCTYPE svg PUBLIC "-//W3C//DTD SVG 1.1//EN" "http://www.w3.org/Graphics/SVG/1.1/DTD/svg11.dtd">
<svg version="1.1" id="Capa_1" xmlns="http://www.w3.org/2000/svg" xmlns:xlink="http://www.w3.org/1999/xlink" x="0px" y="0px"
	 width="64px" height="64px" viewBox="0 0 64 64" style="enable-background:new 0 0 64 64;" xml:space="preserve">
<path d="M7.667,53.979C6.264,54.495,5.25,55.871,5.25,57.5c0,2.068,1.623,3.75,3.618,3.75h44.264c1.995,0,3.618-1.682,3.618-3.75
	c0-1.629-1.014-3.005-2.417-3.521V28.667H7.667V53.979z"/>
<path d="M11.472,26.628l39.362-0.002L50.833,3.187L11.47,3.19L11.472,26.628z M48.833,5.188l0.001,19.438l-35.362,0.002L13.471,5.19
	L48.833,5.188z"/>
<rect x="18.896" y="10.412" width="7.854" height="5.435"/>
<rect x="34.896" y="10.412" width="7.854" height="5.435"/>
</svg>
