<?xml version="1.0" encoding="iso-8859-1"?>
<!-- Generator: Adobe Illustrator 17.0.0, SVG Export Plug-In . SVG Version: 6.00 Build 0)  -->
<!DOCTYPE svg PUBLIC "-//W3C//DTD SVG 1.1//EN" "http://www.w3.org/Graphics/SVG/1.1/DTD/svg11.dtd">
<svg version="1.1" id="Capa_1" xmlns="http://www.w3.org/2000/svg" xmlns:xlink="http://www.w3.org/1999/xlink" x="0px" y="0px"
	 width="64px" height="64px" viewBox="0 0 64 64" style="enable-background:new 0 0 64 64;" xml:space="preserve">
<path d="M4.721,45.084c0.001,0.923,0.711,1.67,1.584,1.67l0.324,0c0.064-0.329,0.158-0.651,0.241-0.976l50.845-0.072
	c0.924-0.001,1.672-0.751,1.67-1.675l-0.043-30.66c-0.001-0.386-0.131-0.741-0.353-1.023c-0.324-0.578-1.004-0.908-1.528-1.273
	c-0.521-0.365-1.149-0.573-1.432-0.547L8.015,10.594c-0.433,0.001-0.759,0.16-1.263,0.46c-0.506,0.301-0.98,0.585-1.473,0.992
	c-0.494,0.409-0.569,0.917-0.568,1.401l0.001,0.63c-0.022,0.112-0.034,0.227-0.034,0.346L4.721,45.084z M57.361,44.462
	c-0.52,0.001-0.941-0.419-0.942-0.939c-0.001-0.52,0.419-0.942,0.939-0.943c0.519,0,0.94,0.421,0.941,0.94
	C58.301,44.04,57.879,44.461,57.361,44.462z M57.316,14.21c0.52-0.001,0.941,0.42,0.942,0.939c0.001,0.52-0.419,0.941-0.94,0.942
	c-0.518,0-0.939-0.42-0.939-0.94C56.377,14.632,56.797,14.21,57.316,14.21z M50.697,12.686c-0.363,2.585-0.584,4.145-0.983,6.983
	c-0.097,0.685-0.733,1.183-1.423,1.094H18.072c-0.691,0.091-1.328-0.362-1.427-1.047c-0.407-2.834-0.632-4.396-1.004-6.979
	L50.697,12.686z M8.885,24.985c0-0.422,0.359-0.795,0.82-0.796h44.598c0.461-0.001,0.852,0.309,0.852,0.731v15.353
	c0,0.421-0.359,0.795-0.82,0.796H9.736c-0.461,0-0.851-0.309-0.851-0.73V24.985z M8.025,43.52c0,0.52-0.421,0.941-0.94,0.942
	c-0.519,0-0.941-0.42-0.941-0.939c-0.001-0.52,0.419-0.941,0.939-0.942C7.603,42.579,8.025,43,8.025,43.52z M7.042,14.21
	c0.518-0.002,0.94,0.419,0.941,0.939c0.001,0.52-0.421,0.941-0.938,0.942c-0.519,0.001-0.941-0.42-0.943-0.939
	C6.102,14.632,6.521,14.21,7.042,14.21z"/>
<path d="M17.852,37.372c2.886-0.004,5.222-2.348,5.218-5.234c-0.004-2.886-2.348-5.222-5.232-5.218
	c-2.887,0.003-5.223,2.347-5.219,5.234C12.623,35.04,14.965,37.376,17.852,37.372z M14.715,30.059l0.356,0.354l1.033-1.035
	l-0.355-0.355c0.404-0.272,0.865-0.466,1.36-0.564l0.001,0.5l1.463-0.003l-0.001-0.5c0.495,0.097,0.956,0.29,1.36,0.56l-0.354,0.356
	l1.035,1.034l0.355-0.356c0.271,0.404,0.466,0.864,0.564,1.359l-0.502,0.001l0.002,1.462l0.502,0
	c-0.098,0.496-0.29,0.957-0.561,1.362l-0.357-0.356l-1.032,1.036l0.356,0.355c-0.404,0.271-0.864,0.466-1.359,0.564l-0.001-0.501
	l-1.464,0.001l0.002,0.501c-0.496-0.097-0.957-0.29-1.363-0.561l0.355-0.356l-1.034-1.032l-0.356,0.355
	c-0.271-0.404-0.465-0.864-0.564-1.359l0.502-0.001l-0.002-1.464l-0.502,0C14.252,30.924,14.445,30.464,14.715,30.059z"/>
<path d="M27.451,36.887l9.145-0.013c-0.715-1.431-1.118-3.044-1.121-4.753c-0.002-1.934,0.51-3.748,1.404-5.315L27.14,26.82
	c0.897,1.564,1.416,3.376,1.419,5.31C28.56,33.839,28.161,35.453,27.451,36.887z"/>
<path d="M46.195,37.333c2.887-0.005,5.223-2.348,5.22-5.234c-0.005-2.886-2.348-5.222-5.233-5.219
	c-2.887,0.004-5.223,2.348-5.219,5.233C40.967,35,43.31,37.336,46.195,37.333z M43.059,30.019l0.355,0.354l1.033-1.037l-0.354-0.353
	c0.403-0.272,0.864-0.466,1.358-0.564l0.001,0.5l1.464-0.002l-0.001-0.5c0.495,0.097,0.956,0.29,1.36,0.56l-0.354,0.356l1.036,1.034
	l0.355-0.356c0.272,0.404,0.466,0.865,0.565,1.36l-0.5,0v1.464l0.502-0.001c-0.098,0.495-0.29,0.955-0.561,1.36l-0.355-0.354
	l-1.034,1.036l0.356,0.354c-0.404,0.272-0.865,0.466-1.36,0.564l-0.001-0.5l-1.463,0.001l0.001,0.501
	c-0.495-0.097-0.956-0.29-1.36-0.56l0.354-0.355l-1.035-1.033l-0.355,0.355c-0.271-0.404-0.465-0.865-0.564-1.36l0.502,0L43,31.379
	l-0.502,0C42.596,30.885,42.788,30.424,43.059,30.019z"/>
</svg>
