<?xml version="1.0" encoding="iso-8859-1"?>
<!-- Generator: Adobe Illustrator 17.0.0, SVG Export Plug-In . SVG Version: 6.00 Build 0)  -->
<!DOCTYPE svg PUBLIC "-//W3C//DTD SVG 1.1//EN" "http://www.w3.org/Graphics/SVG/1.1/DTD/svg11.dtd">
<svg version="1.1" id="Capa_1" xmlns="http://www.w3.org/2000/svg" xmlns:xlink="http://www.w3.org/1999/xlink" x="0px" y="0px"
	 width="64px" height="64px" viewBox="0 0 64 64" style="enable-background:new 0 0 64 64;" xml:space="preserve">
<path d="M24.102,35.93c-2.1,0-3.802,1.702-3.802,3.802c0,2.1,1.702,3.803,3.802,3.803c2.1,0,3.802-1.703,3.802-3.803
	C27.904,37.632,26.202,35.93,24.102,35.93z M26.346,41.146l-1.731-1.061v1.061l-1.861-1.141v1.141h-0.896v-2.829h0.896v1.141
	l1.861-1.141v1.06l1.731-1.06V41.146z"/>
<path d="M51.359,43.534c2.099,0,3.802-1.703,3.802-3.803c0-2.1-1.703-3.802-3.802-3.802c-2.1,0-3.802,1.702-3.802,3.802
	C47.557,41.831,49.259,43.534,51.359,43.534z M49.116,38.317l1.73,1.06v-1.06l1.861,1.141v-1.141h0.896v2.829h-0.896v-1.141
	l-1.861,1.141v-1.061l-1.73,1.061V38.317z"/>
<path d="M43.255,35.838H32.063c-1.104,0-2,0.896-2,2v4.018c0,1.104,0.896,2,2,2h11.191c1.104,0,2-0.896,2-2v-4.018
	C45.255,36.733,44.359,35.838,43.255,35.838z"/>
<path d="M53.585,9.881c-2.318-0.229-4.408,0.913-5.104,2.323l-0.982-0.462l-0.575,0.719l2.618,2.129l0.236-0.357
	c2.196,1.218,3.329,2.592,3.674,3.064c-0.034,0.147-0.055,0.301-0.055,0.459c0,1.111,0.903,2.014,2.015,2.014
	c1.112,0,2.014-0.902,2.014-2.014c0-1.113-0.902-2.015-2.014-2.015c-0.177,0-0.347,0.024-0.511,0.068
	c-2.263-0.521-3.939-1.811-4.593-2.378l0.184-0.28l-1.206-0.568c0.729-1.372,3.295-1.822,4.149-1.66
	c2.749,0.518,5.219,3.815,5.207,7.654c-0.01,3.65-1.616,4.205-3.68,4.811c-0.159,0.047-0.313,0.092-0.463,0.138
	c-2.14,0.654-1.885,3.593-1.801,4.211c-0.625,0.399-0.094,1.321,0.046,1.778c0.046,0.149,0.074,0.348,0.093,0.553
	c-0.875-0.601-1.832-1.152-2.866-1.641c-1.081,0.356-5.638,1.684-12.305,1.736c-0.119,0.001-0.237,0.001-0.353,0.001
	c-6.402,0-10.657-1.327-11.74-1.718c-2.202,1.041-4.064,2.357-5.478,3.866l0.045-0.191c-1.346-0.317-13.268-3.013-17.169-0.296
	c-0.788,0.55-1.262,1.309-1.371,2.194c-0.49,3.994,7.818,6.143,9.489,6.532l0.089-0.381l2.886,0.242v0.548h3.861v1.415
	c1.322,3.349,4.611,6.18,9.027,7.964c0.52-0.143,4.683-1.23,10.488-1.23c5.048,0,9.917,0.821,11.529,1.12
	c5.671-2.359,9.433-6.457,9.433-11.126c0-3.115-1.683-5.969-4.482-8.228c-0.086-1.24,0.035-1.369,0.035-1.369
	c0.486-1.295,0.228-1.701-0.034-1.821c-0.061-0.347-0.433-2.802,1.196-3.3c0.146-0.044,0.293-0.119,0.456-0.135
	c2.262-0.207,5.423-0.093,5.423-5.573C60.998,14.452,56.691,10.189,53.585,9.881z M17.927,35.523v2.528h-3.948v0.549l-2.509,0.327
	l0.076-0.323c-3.46-0.811-8.151-2.77-7.958-4.341c0.026-0.219,0.111-0.506,0.529-0.798c2.495-1.74,10.816-0.425,14.733,0.416
	C18.492,34.414,18.173,34.958,17.927,35.523z M56.202,39.701c0,4.071-3.561,7.372-7.955,7.372c-4.402,0.288-6.373-0.554-6.373-0.554
	s-3.928-1.197-8.243-0.073c-3.198,0.832-6.128,0.627-6.128,0.627h-0.157c-4.393,0-7.955-3.301-7.955-7.372
	c0-4.073,3.561-7.373,7.955-7.373c0.809,0,1.59,0.112,2.325,0.32l0.006-0.005c0,0,1.793,0.498,4.128,0.801
	c3.408,0.443,5.292,0.36,7.234,0.016c1.942-0.345,4.941-1.132,7.208-1.132C52.641,32.328,56.202,35.628,56.202,39.701z"/>
<path d="M28.809,26.669l-1.6,0.49l1.606,0.469c1.64,0.478,4.417,1.037,8.434,1.037c0.134,0,0.27-0.001,0.407-0.002
	c4.173-0.032,7.23-0.587,9.059-1.046l1.748-0.44l-1.724-0.524c-1.886-0.573-4.039-0.991-6.079-1.184
	c0.029-0.185,0.085-0.392,0.193-0.622c0.565-1.214,0.322-1.647,0.074-1.801c0.083-0.942,0.088-3.367-1.829-3.953
	c-0.15-0.046-0.305-0.091-0.463-0.138c-2.064-0.605-3.67-1.161-3.68-4.811c-0.011-3.838,2.458-7.135,5.208-7.653
	c0.865-0.163,1.986-0.395,2.588,0.985l-1.481,1.18l0.187,0.512c0,0-2.992,2.531-3.941,3.394c-0.95,0.863-2.245,3.567,0.144,4.402
	c0,0,0.116,1.267,1.784,0.892c0,0-0.137,0.575,0.359,0.684c0.497,0.107,0.604-0.281,0.604-0.281l0.237,0.173
	c0,0-0.302,0.517-0.064,0.713c0.237,0.193,1.122,0.216,1.618-0.303c0.496-0.518,0.389-1.446,0.389-1.446s-0.064-0.581-0.734,0
	l-0.302-0.323c0,0,0.371-0.539,0.133-0.863c-0.238-0.323-0.91,0.065-0.91,0.065s1.144-1.555-0.733-1.856
	c0,0-0.389-0.668-1.014-1.057c0,0,0.518-1.856,2.87-3.712l0.451,0.243l2.252-2.749L43.984,6.49l-0.676,0.539
	c-0.629-1.285-1.809-1.861-3.296-1.58c-3.067,0.577-7.413,4.57-7.413,8.796c0,5.48,3.161,5.365,5.424,5.572
	c0.162,0.016,0.309,0.091,0.456,0.136c1.403,0.429,1.321,2.309,1.232,3.044c-0.62,0.359-0.169,1.302-0.067,1.764
	c0.04,0.179,0.051,0.421,0.049,0.663c-0.619-0.037-1.242-0.069-1.876-0.069C34.692,25.354,31.661,25.797,28.809,26.669z"/>
<path d="M37.442,50.609c-2.199,0-4.416,0.163-6.589,0.485l-2.623,0.388l2.584,0.594c2.246,0.516,4.602,0.777,7.002,0.777
	c2.333,0,4.665-0.26,6.93-0.772l2.79-0.631l-2.839-0.353C42.091,50.773,39.65,50.609,37.442,50.609z"/>
</svg>
