<?xml version="1.0" encoding="iso-8859-1"?>
<!-- Generator: Adobe Illustrator 17.0.0, SVG Export Plug-In . SVG Version: 6.00 Build 0)  -->
<!DOCTYPE svg PUBLIC "-//W3C//DTD SVG 1.1//EN" "http://www.w3.org/Graphics/SVG/1.1/DTD/svg11.dtd">
<svg version="1.1" id="Capa_1" xmlns="http://www.w3.org/2000/svg" xmlns:xlink="http://www.w3.org/1999/xlink" x="0px" y="0px"
	 width="64px" height="64px" viewBox="0 0 64 64" style="enable-background:new 0 0 64 64;" xml:space="preserve">
<path d="M17.017,38.73c-4.446,1.774-7.072,5.666-5.864,8.693c1.209,3.025,5.792,4.041,10.239,2.266
	c3.077-1.229,5.28-3.47,5.946-5.738c0.141-0.265,0.221-0.566,0.221-0.886V26.059l16.185-2.998v14.365
	c-1.927-0.542-4.363-0.397-6.76,0.56c-4.447,1.773-7.072,5.666-5.865,8.692c1.208,3.026,5.792,4.041,10.239,2.266
	c3.078-1.229,5.282-3.472,5.947-5.74c0.14-0.264,0.22-0.565,0.22-0.884V19.4c0-0.12-0.012-0.236-0.033-0.35v-6.216
	c0-0.655-0.531-1.186-1.186-1.186l-21.351,3.954c-0.657,0-1.188,0.531-1.188,1.186v8.566c0,0.033,0.007,0.063,0.01,0.096v12.72
	C21.852,37.628,19.415,37.773,17.017,38.73z"/>
</svg>
