<?xml version="1.0" encoding="iso-8859-1"?>
<!-- Generator: Adobe Illustrator 17.0.0, SVG Export Plug-In . SVG Version: 6.00 Build 0)  -->
<!DOCTYPE svg PUBLIC "-//W3C//DTD SVG 1.1//EN" "http://www.w3.org/Graphics/SVG/1.1/DTD/svg11.dtd">
<svg version="1.1" id="Capa_1" xmlns="http://www.w3.org/2000/svg" xmlns:xlink="http://www.w3.org/1999/xlink" x="0px" y="0px"
	 width="64px" height="64px" viewBox="0 0 64 64" style="enable-background:new 0 0 64 64;" xml:space="preserve">
<path d="M22.476,55.041c5.09-0.17,9.22-3.315,10.001-7.314c0.062-0.172,0.115-0.348,0.147-0.529l4.909-27.654
	c1.472,0.871,3.068,1.596,3.658,2.16c0.432,0.413,0.663,0.914,0.784,1.387c0.22,0.864,0.328,1.83,0.644,2.11
	c0.315,0.28,0.788,0.364,1.055,0.187c0.267-0.177,0.733-1.209,0.925-2.331c0.097-0.567,0.195-1.25,0.278-2.042
	c0.277-2.639-1.33-5.484-4.184-7.08c-0.746-0.417-1.393-0.85-1.939-1.264l0.33-1.86c0.306-1.72-0.842-3.361-2.562-3.667
	c-1.72-0.305-3.362,0.841-3.667,2.561l-5.217,29.387c-1.667-0.826-3.636-1.276-5.737-1.206c-5.756,0.193-10.294,4.189-10.136,8.928
	C11.925,51.55,16.721,55.234,22.476,55.041z"/>
<path d="M41.078,33.882c0.315,0.28,0.788,0.364,1.055,0.187c0.267-0.177,0.733-1.209,0.925-2.331
	c0.097-0.567,0.194-1.25,0.278-2.043c0.276-2.639-1.33-5.484-4.184-7.08c-0.746-0.417-1.393-0.85-1.939-1.264l-1.221,6.873
	c1.471,0.871,3.068,1.596,3.658,2.16c0.432,0.413,0.663,0.914,0.783,1.387C40.654,32.636,40.763,33.602,41.078,33.882z"/>
</svg>
