<?xml version="1.0" encoding="iso-8859-1"?>
<!-- Generator: Adobe Illustrator 17.0.0, SVG Export Plug-In . SVG Version: 6.00 Build 0)  -->
<!DOCTYPE svg PUBLIC "-//W3C//DTD SVG 1.1//EN" "http://www.w3.org/Graphics/SVG/1.1/DTD/svg11.dtd">
<svg version="1.1" id="Capa_1" xmlns="http://www.w3.org/2000/svg" xmlns:xlink="http://www.w3.org/1999/xlink" x="0px" y="0px"
	 width="64px" height="64px" viewBox="0 0 64 64" style="enable-background:new 0 0 64 64;" xml:space="preserve">
<path d="M40.488,7.605H19.483c-1.971,0-3.574,1.603-3.574,3.574s1.603,3.574,3.574,3.574h21.004c1.971,0,3.574-1.603,3.574-3.574
	S42.458,7.605,40.488,7.605z"/>
<path d="M53.735,29.614V12.698c0-5.582-4.525-10.106-10.106-10.106H16.342c-5.582,0-10.106,4.525-10.106,10.106v37.908
	c0,5.582,4.525,10.106,10.106,10.106h17.59c-0.864-0.737-1.595-1.622-2.156-2.617c-0.59,0.053-1.186,0.09-1.79,0.09
	c-10.884,0-19.707-8.823-19.707-19.707c0-10.884,8.823-19.707,19.707-19.707c6.876,0,12.922,3.526,16.448,8.864
	C49.35,28.172,51.761,28.851,53.735,29.614z M40.488,15.753H19.483c-2.526,0-4.574-2.048-4.574-4.574
	c0-2.526,2.048-4.574,4.574-4.574h21.004c2.526,0,4.574,2.048,4.574,4.574C45.062,13.706,43.014,15.753,40.488,15.753z"/>
<path d="M41.716,29.017c0.75-0.968,1.898-1.591,3.225-1.591c0.037,0,0.075,0.009,0.112,0.01c-3.408-4.637-8.884-7.665-15.067-7.665
	c-10.315,0-18.707,8.392-18.707,18.707s8.392,18.707,18.707,18.707c0.44,0,0.872-0.036,1.304-0.066
	c-0.468-1.108-0.729-2.322-0.749-3.593c-0.186,0.007-0.368,0.028-0.555,0.028c-8.326,0-15.076-6.75-15.076-15.076
	c0-8.326,6.75-15.076,15.076-15.076C34.727,23.401,38.952,25.595,41.716,29.017z"/>
<path d="M20.633,38.477c0,5.165,4.187,9.353,9.353,9.353c0.899,0,1.766-0.134,2.589-0.371c1.219-1.565,2.904-2.748,4.851-3.33
	c1.195-1.571,1.913-3.525,1.913-5.652c0-5.165-4.187-9.353-9.353-9.353S20.633,33.312,20.633,38.477z"/>
<path d="M55.902,48.656c0.156,0,0.436-0.213,0.837-0.651c8.466-9.22,2.719-14.07-3.766-16.537c-1.79-0.681-3.632-1.181-5.252-1.54
	c-0.213-0.047-0.422-0.092-0.626-0.135c-0.21-0.043-0.414-0.085-0.614-0.124c-0.404-0.078-0.791-0.15-1.144-0.21
	c-0.135-0.023-0.267-0.034-0.396-0.034c-0.922,0-1.677,0.566-1.98,1.403c-0.092,0.253-0.146,0.529-0.146,0.824v14.543
	c-0.821-0.301-1.704-0.474-2.63-0.474c-4.208,0-7.62,3.398-7.649,7.599c0,0.017-0.003,0.034-0.003,0.052
	c0,1.258,0.309,2.441,0.847,3.487c0.082,0.159,0.171,0.313,0.263,0.466c0.095,0.157,0.193,0.311,0.299,0.46
	c0.983,1.388,2.415,2.434,4.087,2.925c0.684,0.201,1.407,0.313,2.156,0.313c0.75,0,1.472-0.112,2.157-0.313
	c1.898-0.557,3.477-1.835,4.45-3.513c0.125-0.216,0.254-0.429,0.358-0.657c0.583-1.281,0.668-3.592,0.672-4.999
	c0.004-1.316,0.008-3.008,0.01-4.742c0.001-0.421,0.001-0.843,0.001-1.265c0.001-0.491,0.001-0.976,0.001-1.453
	c0-0.15,0-0.297,0-0.444c0.002-2.998,0.002-5.477,0.002-5.477c0.29,0,0.57,0.006,0.842,0.016c0.172,0.006,0.336,0.018,0.501,0.028
	c0.17,0.01,0.34,0.021,0.502,0.035c0.141,0.013,0.277,0.028,0.414,0.043c7.518,0.854,6.936,6.086,5.877,9.203
	C55.71,48.256,55.689,48.656,55.902,48.656z"/>
</svg>
