<?xml version="1.0" encoding="iso-8859-1"?>
<!-- Generator: Adobe Illustrator 17.0.0, SVG Export Plug-In . SVG Version: 6.00 Build 0)  -->
<!DOCTYPE svg PUBLIC "-//W3C//DTD SVG 1.1//EN" "http://www.w3.org/Graphics/SVG/1.1/DTD/svg11.dtd">
<svg version="1.1" id="Capa_1" xmlns="http://www.w3.org/2000/svg" xmlns:xlink="http://www.w3.org/1999/xlink" x="0px" y="0px"
	 width="64px" height="64px" viewBox="0 0 64 64" style="enable-background:new 0 0 64 64;" xml:space="preserve">
<path d="M32.208,54.331c6.3-1.338,10.748-6.166,10.836-11.319c0.04-0.228,0.067-0.459,0.067-0.691V21.976
	c2.024,0.76,4.173,1.309,5.033,1.882c0.628,0.419,1.027,0.992,1.282,1.554c0.465,1.027,0.813,2.206,1.269,2.485
	c0.454,0.278,1.062,0.278,1.354,0c0.293-0.279,0.646-1.668,0.637-3.108c-0.006-0.727-0.034-1.599-0.105-2.604
	c-0.239-3.347-2.869-6.536-6.775-7.891c-1.02-0.354-1.92-0.752-2.694-1.146v-2.39c0-2.209-1.791-4-4-4s-4,1.791-4,4v22.571
	c-2.258-0.66-4.81-0.785-7.411-0.233c-7.125,1.513-11.893,7.493-10.648,13.357C18.298,52.317,25.084,55.844,32.208,54.331z"/>
</svg>
