<?xml version="1.0" encoding="iso-8859-1"?>
<!-- Generator: Adobe Illustrator 17.0.0, SVG Export Plug-In . SVG Version: 6.00 Build 0)  -->
<!DOCTYPE svg PUBLIC "-//W3C//DTD SVG 1.1//EN" "http://www.w3.org/Graphics/SVG/1.1/DTD/svg11.dtd">
<svg version="1.1" id="Capa_1" xmlns="http://www.w3.org/2000/svg" xmlns:xlink="http://www.w3.org/1999/xlink" x="0px" y="0px"
	 width="64px" height="64px" viewBox="0 0 64 64" style="enable-background:new 0 0 64 64;" xml:space="preserve">
<g>
	<path d="M9.625,20.25h15.5c0.567,0,1.395-0.485,1.697-1.019L29.982,14H9.625c-4.418,0-8,3.582-8,8v2.647
		C3.315,22.008,6.265,20.25,9.625,20.25z"/>
	<path d="M54.375,10.75h-18.75c-1.105,0-2.439,0.78-2.981,1.743L31.734,14l-3.629,6.007c-0.542,0.963-1.876,1.743-2.981,1.743h-15.5
		c-4.418,0-8,3.582-8,8V44.5v1.75c0,4.418,3.582,8,8,8h44.75c4.418,0,8-3.582,8-8V44.5V22v-3.25
		C62.375,14.332,58.793,10.75,54.375,10.75z M37.417,46.024c0-1.381,1.119-2.5,2.5-2.5c1.381,0,2.5,1.119,2.5,2.5
		c0,1.381-1.119,2.5-2.5,2.5C38.536,48.524,37.417,47.404,37.417,46.024z M45.417,46.024c0-1.381,1.119-2.5,2.5-2.5
		c1.381,0,2.5,1.119,2.5,2.5c0,1.381-1.119,2.5-2.5,2.5C46.536,48.524,45.417,47.404,45.417,46.024z M47.917,40.667
		c-1.381,0-2.5-1.119-2.5-2.5c0-1.381,1.119-2.5,2.5-2.5c1.381,0,2.5,1.119,2.5,2.5C50.417,39.547,49.297,40.667,47.917,40.667z
		 M31.917,27.667c1.381,0,2.5,1.119,2.5,2.5c0,1.381-1.119,2.5-2.5,2.5c-1.381,0-2.5-1.119-2.5-2.5
		C29.417,28.786,30.536,27.667,31.917,27.667z M31.917,35.667c1.381,0,2.5,1.119,2.5,2.5c0,1.381-1.119,2.5-2.5,2.5
		c-1.381,0-2.5-1.119-2.5-2.5C29.417,36.786,30.536,35.667,31.917,35.667z M31.917,43.524c1.381,0,2.5,1.119,2.5,2.5
		c0,1.381-1.119,2.5-2.5,2.5c-1.381,0-2.5-1.119-2.5-2.5C29.417,44.643,30.536,43.524,31.917,43.524z M23.917,35.667
		c1.381,0,2.5,1.119,2.5,2.5c0,1.381-1.119,2.5-2.5,2.5c-1.381,0-2.5-1.119-2.5-2.5C21.417,36.786,22.536,35.667,23.917,35.667z
		 M23.917,43.524c1.381,0,2.5,1.119,2.5,2.5c0,1.381-1.119,2.5-2.5,2.5c-1.381,0-2.5-1.119-2.5-2.5
		C21.417,44.643,22.536,43.524,23.917,43.524z M15.917,27.81c1.381,0,2.5,1.119,2.5,2.5s-1.119,2.5-2.5,2.5
		c-1.381,0-2.5-1.119-2.5-2.5S14.536,27.81,15.917,27.81z M15.917,35.667c1.381,0,2.5,1.119,2.5,2.5c0,1.381-1.119,2.5-2.5,2.5
		c-1.381,0-2.5-1.119-2.5-2.5C13.417,36.786,14.536,35.667,15.917,35.667z M15.917,43.524c1.381,0,2.5,1.119,2.5,2.5
		c0,1.381-1.119,2.5-2.5,2.5c-1.381,0-2.5-1.119-2.5-2.5C13.417,44.643,14.536,43.524,15.917,43.524z"/>
</g>
</svg>
