<?xml version="1.0" encoding="iso-8859-1"?>
<!-- Generator: Adobe Illustrator 17.0.0, SVG Export Plug-In . SVG Version: 6.00 Build 0)  -->
<!DOCTYPE svg PUBLIC "-//W3C//DTD SVG 1.1//EN" "http://www.w3.org/Graphics/SVG/1.1/DTD/svg11.dtd">
<svg version="1.1" id="Capa_1" xmlns="http://www.w3.org/2000/svg" xmlns:xlink="http://www.w3.org/1999/xlink" x="0px" y="0px"
	 width="64px" height="64px" viewBox="0 0 64 64" style="enable-background:new 0 0 64 64;" xml:space="preserve">
<g>
	<path d="M9.625,20.75h15.5c0.567,0,1.395-0.485,1.697-1.019l3.161-5.231H9.625c-4.418,0-8,3.582-8,8v2.647
		C3.315,22.508,6.265,20.75,9.625,20.75z"/>
	<path d="M54.375,11.25h-18.75c-1.105,0-2.439,0.78-2.981,1.743l-0.91,1.507l-3.629,6.007c-0.542,0.963-1.876,1.743-2.981,1.743
		h-15.5c-4.418,0-8,3.582-8,8V45v1.75c0,4.418,3.582,8,8,8h44.75c4.418,0,8-3.582,8-8V45V22.5v-3.25
		C62.375,14.832,58.793,11.25,54.375,11.25z M17.756,34.779c1.588-1.721,8.865-3.863,10.731-4.231c1.867-0.368,1.1,0.478,1.1,0.478
		s-1.378,2.08-0.359,4.887c1.018,2.807,0.825,4.115,0.197,6.949s-0.138,2.655,0.72,2.845c0.858,0.19,0.894-0.767,0.894-0.767
		s2.706-12.211,3.814-17.206c0,0,2.314-5.576,12.735-3.605l-1.327,0.806c0,0-6.667-0.2-6.89,2.314c0,0-2.773,14.817-3.314,17.474
		c-0.541,2.657-3.393,7.475-8.895,4.873c-5.502-2.602-4.132-5.083-4.784-10.195C21.724,34.289,16.169,36.5,17.756,34.779z"/>
</g>
</svg>
