<?xml version="1.0" encoding="iso-8859-1"?>
<!-- Generator: Adobe Illustrator 17.0.0, SVG Export Plug-In . SVG Version: 6.00 Build 0)  -->
<!DOCTYPE svg PUBLIC "-//W3C//DTD SVG 1.1//EN" "http://www.w3.org/Graphics/SVG/1.1/DTD/svg11.dtd">
<svg version="1.1" id="Capa_1" xmlns="http://www.w3.org/2000/svg" xmlns:xlink="http://www.w3.org/1999/xlink" x="0px" y="0px"
	 width="64px" height="64px" viewBox="0 0 64 64" style="enable-background:new 0 0 64 64;" xml:space="preserve">
<path d="M22.612,0.772c-2.152,0-3.903,1.751-3.903,3.903v54.648c0,2.152,1.751,3.903,3.903,3.903h18.776
	c2.152,0,3.903-1.751,3.903-3.903V4.676c0-2.152-1.751-3.903-3.903-3.903H22.612z M43.292,4.676v54.648
	c0,1.049-0.854,1.903-1.903,1.903H22.612c-1.049,0-1.903-0.854-1.903-1.903V4.676c0-1.049,0.854-1.903,1.903-1.903h18.776
	C42.437,2.772,43.292,3.626,43.292,4.676z"/>
<path d="M32,10.611c-5.559,0-10.066,4.507-10.066,10.066S26.441,30.742,32,30.742s10.066-4.507,10.066-10.066
	S37.559,10.611,32,10.611z M32,28.97c-4.58,0-8.293-3.713-8.293-8.293S27.42,12.384,32,12.384s8.293,3.713,8.293,8.293
	S36.58,28.97,32,28.97z"/>
<circle cx="32" cy="20.677" r="4.035"/>
<path d="M32,33.611c-5.559,0-10.066,4.507-10.066,10.066S26.441,53.742,32,53.742s10.066-4.507,10.066-10.066
	S37.559,33.611,32,33.611z M32,51.97c-4.58,0-8.293-3.713-8.293-8.293S27.42,35.384,32,35.384s8.293,3.713,8.293,8.293
	S36.58,51.97,32,51.97z"/>
<circle cx="32" cy="43.677" r="4.035"/>
<path d="M35.852,55.567h-7.705c-1.206,0-2.183,0.978-2.183,2.183c0,1.206,0.978,2.183,2.183,2.183h7.705
	c1.206,0,2.183-0.978,2.183-2.183C38.036,56.544,37.058,55.567,35.852,55.567z"/>
<circle cx="32" cy="7" r="2.375"/>
</svg>
