<?xml version="1.0" encoding="iso-8859-1"?>
<!-- Generator: Adobe Illustrator 17.0.0, SVG Export Plug-In . SVG Version: 6.00 Build 0)  -->
<!DOCTYPE svg PUBLIC "-//W3C//DTD SVG 1.1//EN" "http://www.w3.org/Graphics/SVG/1.1/DTD/svg11.dtd">
<svg version="1.1" id="Capa_1" xmlns="http://www.w3.org/2000/svg" xmlns:xlink="http://www.w3.org/1999/xlink" x="0px" y="0px"
	 width="64px" height="64px" viewBox="0 0 64 64" style="enable-background:new 0 0 64 64;" xml:space="preserve">
<circle cx="31.545" cy="30.729" r="2.123"/>
<path d="M31.545,3.395c-15.096,0-27.333,12.238-27.333,27.334s12.237,27.332,27.333,27.332s27.333-12.236,27.333-27.332
	S46.641,3.395,31.545,3.395z M12.241,20.709c-0.223,0-0.447-0.062-0.648-0.191c-0.554-0.359-0.711-1.1-0.353-1.652
	c3.125-4.818,7.832-8.479,13.253-10.305c0.625-0.213,1.303,0.125,1.513,0.75c0.21,0.625-0.126,1.303-0.751,1.512
	c-4.911,1.656-9.178,4.973-12.011,9.342C13.016,20.518,12.633,20.709,12.241,20.709z M15.958,23.893
	c-0.217,0-0.436-0.059-0.633-0.182c-0.559-0.35-0.729-1.086-0.38-1.646c2.78-4.451,7.065-7.74,12.066-9.258
	c0.626-0.191,1.298,0.164,1.489,0.795c0.191,0.631-0.165,1.299-0.796,1.49c-4.447,1.35-8.26,4.275-10.733,8.238
	C16.745,23.693,16.355,23.893,15.958,23.893z M21.092,25.27c-0.231,0.342-0.607,0.525-0.99,0.525c-0.231,0-0.463-0.064-0.668-0.203
	c-0.547-0.371-0.69-1.113-0.321-1.658c2.097-3.104,5.199-5.467,8.733-6.658c0.629-0.209,1.303,0.127,1.513,0.752
	c0.21,0.625-0.126,1.303-0.751,1.514C25.566,20.562,22.897,22.598,21.092,25.27z M23.584,30.729c0-4.396,3.564-7.961,7.961-7.961
	s7.961,3.564,7.961,7.961s-3.565,7.961-7.961,7.961S23.584,35.125,23.584,30.729z M31.565,43.969
	c-0.121-0.648,0.305-1.273,0.953-1.395c3.779-0.713,7.203-2.947,9.396-6.133c0.373-0.543,1.117-0.68,1.66-0.307
	c0.544,0.375,0.681,1.117,0.307,1.662c-2.547,3.699-6.527,6.297-10.922,7.125c-0.074,0.014-0.148,0.019-0.223,0.019
	C32.175,44.941,31.673,44.543,31.565,43.969z M32.428,48.398c-0.122-0.646,0.303-1.271,0.951-1.395
	c4.833-0.918,9.093-3.629,11.993-7.637c0.386-0.533,1.132-0.654,1.668-0.268c0.533,0.387,0.653,1.133,0.267,1.668
	c-3.26,4.504-8.048,7.553-13.483,8.582c-0.075,0.016-0.149,0.021-0.224,0.021C33.038,49.371,32.537,48.973,32.428,48.398z
	 M51.251,42.869c-3.836,6-10.039,10.149-17.02,11.381c-0.069,0.012-0.14,0.018-0.209,0.018c-0.568,0-1.072-0.408-1.175-0.986
	c-0.114-0.648,0.319-1.27,0.969-1.383c6.324-1.117,11.945-4.877,15.423-10.316c0.355-0.557,1.096-0.717,1.648-0.363
	C51.444,41.574,51.606,42.312,51.251,42.869z"/>
</svg>
