<?xml version="1.0" encoding="iso-8859-1"?>
<!-- Generator: Adobe Illustrator 17.0.0, SVG Export Plug-In . SVG Version: 6.00 Build 0)  -->
<!DOCTYPE svg PUBLIC "-//W3C//DTD SVG 1.1//EN" "http://www.w3.org/Graphics/SVG/1.1/DTD/svg11.dtd">
<svg version="1.1" id="Capa_1" xmlns="http://www.w3.org/2000/svg" xmlns:xlink="http://www.w3.org/1999/xlink" x="0px" y="0px"
	 width="64px" height="64px" viewBox="0 0 64 64" style="enable-background:new 0 0 64 64;" xml:space="preserve">
<g>
	<ellipse cx="12.513" cy="36.822" rx="4.047" ry="4.638"/>
	<ellipse cx="51.053" cy="36.822" rx="4.047" ry="4.638"/>
	<path d="M47.578,23.081l-2.075-8.645c-0.497-2.068-2.365-3.516-4.544-3.516c-0.292,0-0.584,0.027-0.854,0.076
		c-2.955,0.473-5.923,0.711-8.822,0.711c-2.952,0-5.844-0.232-8.825-0.707c-0.279-0.053-0.572-0.08-0.869-0.08
		c-2.174,0-4.039,1.445-4.535,3.516l-2.115,8.813C8.724,24.337,3.984,29.968,3.984,36.771c0,7.58,5.881,13.016,13.136,13.016
		c5.786,0,7.679-4.021,14.88-4.021s9.094,4.021,14.878,4.021c7.256,0,13.138-5.435,13.138-13.016
		C60.016,29.435,54.507,23.464,47.578,23.081z M20.595,15.288c0.102-0.426,0.515-0.725,1.002-0.725c0.073,0,0.146,0.008,0.242,0.025
		c6.417,1.023,12.45,1.025,18.882-0.002c0.566-0.107,1.123,0.209,1.24,0.701l1.926,8.022c-2.594,0.49-4.242,1.545-7.008,2.17
		l-0.556,0.018c-0.875-0.69-2.479-1.152-4.323-1.152c-1.9,0-3.553,0.488-4.408,1.213c-3.494-0.711-5.264-2.115-8.876-2.443
		L20.595,15.288z M13.224,45.591c-4.227,0-7.651-3.926-7.651-8.77c0-4.842,3.425-8.768,7.651-8.768c4.226,0,7.652,3.926,7.652,8.768
		C20.876,41.665,17.449,45.591,13.224,45.591z M21.183,29.69c0-1.164,0.944-2.109,2.11-2.109c1.166,0,2.109,0.945,2.109,2.109
		c0,1.166-0.943,2.111-2.109,2.111C22.127,31.802,21.183,30.856,21.183,29.69z M32,41.388c-3.623,0-8.826,3.053-8.826,3.053
		c3.638-4.5,0.585-10.629,0.585-10.629c2.3,3.348,7.687,3.611,8.241,3.629c0.555-0.017,5.941-0.281,8.241-3.629
		c0,0-3.054,6.129,0.585,10.629C40.826,44.44,35.623,41.388,32,41.388z M40.648,31.802c-1.166,0-2.109-0.945-2.109-2.111
		c0-1.164,0.943-2.109,2.109-2.109c1.166,0,2.109,0.945,2.109,2.109C42.758,30.856,41.814,31.802,40.648,31.802z M50.775,45.749
		c-4.226,0-7.651-3.926-7.651-8.77c0-4.842,3.426-8.77,7.651-8.77c4.227,0,7.652,3.928,7.652,8.77
		C58.428,41.823,55.002,45.749,50.775,45.749z"/>
</g>
</svg>
