<?xml version="1.0" encoding="iso-8859-1"?>
<!-- Generator: Adobe Illustrator 17.0.0, SVG Export Plug-In . SVG Version: 6.00 Build 0)  -->
<!DOCTYPE svg PUBLIC "-//W3C//DTD SVG 1.1//EN" "http://www.w3.org/Graphics/SVG/1.1/DTD/svg11.dtd">
<svg version="1.1" id="Capa_1" xmlns="http://www.w3.org/2000/svg" xmlns:xlink="http://www.w3.org/1999/xlink" x="0px" y="0px"
	 width="64px" height="64px" viewBox="0 0 64 64" style="enable-background:new 0 0 64 64;" xml:space="preserve">
<g>
	<path d="M25.327,59.89c0.106,0.01,0.211,0.016,0.316,0.016c1.477,0,2.749-1.115,2.91-2.618c0.172-1.609-0.993-3.053-2.602-3.225
		C16.212,53.019,7.986,42.958,7.986,32.09c0-10.042,7.029-19.38,15.78-21.566v1.98c0,1.128,0.647,1.396,1.444,0.598l6.099-4.145
		c0.798-0.798,0.798-2.091,0-2.889L25.21,1.922c-0.798-0.798-1.444-0.53-1.444,0.598v2.004C11.884,6.709,2.126,18.941,2.126,32.09
		C2.126,45.811,12.75,58.542,25.327,59.89z"/>
	<path d="M38.673,4.29c-1.596-0.16-3.053,0.992-3.225,2.602c-0.172,1.609,0.993,3.053,2.602,3.225
		c9.738,1.043,17.965,11.105,17.965,21.973c0,10.172-7.208,19.635-16.115,21.661v-2.255c0-1.128-0.647-1.396-1.444-0.598
		l-6.099,4.145c-0.798,0.798-0.798,2.091,0,2.889l6.099,4.145c0.798,0.798,1.444,0.53,1.444-0.598V59.72
		c12.033-2.012,21.975-14.357,21.975-27.63C61.874,18.369,51.25,5.638,38.673,4.29z"/>
	<polygon points="48.135,19.992 48.874,19.992 49.613,19.951 	"/>
	<path d="M47.64,21.276c-0.906,0-2.475-0.691-5.197-3.086c-1.881-1.655-3.999-2.241-6.054-2.241c-4.973,0-9.58,3.428-9.58,3.428
		v16.63c-0.426-0.112-0.875-0.167-1.337-0.167c-1.788,0-3.769,0.826-5.354,2.411c-2.706,2.706-3.221,6.58-1.149,8.652
		c0.857,0.857,2.022,1.271,3.285,1.271c1.791,0,3.78-0.833,5.367-2.42c1.486-1.486,2.284-3.318,2.383-5.016l0.025-0.002v-0.656
		c-0.001-0.018,0.001-0.036,0-0.054v-18.64c0.485-0.271,1.097-0.433,1.868-0.433c1.396,0,3.314,0.53,5.945,1.908
		c2.918,1.528,5.065,2.098,6.645,2.098c4.663,0,4.387-4.968,4.387-4.968S48.874,21.276,47.64,21.276z"/>
</g>
</svg>
