<?xml version="1.0" encoding="iso-8859-1"?>
<!-- Generator: Adobe Illustrator 17.0.0, SVG Export Plug-In . SVG Version: 6.00 Build 0)  -->
<!DOCTYPE svg PUBLIC "-//W3C//DTD SVG 1.1//EN" "http://www.w3.org/Graphics/SVG/1.1/DTD/svg11.dtd">
<svg version="1.1" id="Capa_1" xmlns="http://www.w3.org/2000/svg" xmlns:xlink="http://www.w3.org/1999/xlink" x="0px" y="0px"
	 width="64px" height="64px" viewBox="0 0 64 64" style="enable-background:new 0 0 64 64;" xml:space="preserve">
<g>
	<path d="M9.625,20.5h15.5c0.567,0,1.395-0.485,1.697-1.019l3.161-5.231H9.625c-4.418,0-8,3.582-8,8v2.647
		C3.315,22.258,6.265,20.5,9.625,20.5z"/>
	<path d="M54.375,11h-18.75c-1.105,0-2.439,0.78-2.981,1.743l-0.91,1.507l-3.629,6.007C27.564,21.22,26.23,22,25.125,22h-15.5
		c-4.418,0-8,3.582-8,8v14.75v1.75c0,4.418,3.582,8,8,8h44.75c4.418,0,8-3.582,8-8v-1.75v-22.5V19
		C62.375,14.582,58.793,11,54.375,11z M22.434,28.368c0-0.963,0.955-1.743,2.133-1.743H39.5c1.178,0,2.133,0.781,2.133,1.743v20.047
		c0,0.963-0.955,1.743-2.133,1.743H28.161v-4.213c0-0.414-0.336-0.75-0.75-0.75h-4.977V28.368z M26.661,50.159h-0.227l-3.892-3.463
		h4.119V50.159z"/>
	<path d="M28.364,42.111c0.346,0.015,0.661-0.187,0.768-0.514l1.317-4.009l0.453-1.379l0.182,1.352l0.776,5.751
		c0.049,0.367,0.359,0.643,0.73,0.649c0.004,0,0.009,0,0.013,0c0.365,0,0.677-0.263,0.739-0.623l0.986-5.76
		c0.133,0.233,0.381,0.379,0.651,0.379h4.441c0.414,0,0.75-0.336,0.75-0.75s-0.336-0.75-0.75-0.75h-3.99l-0.81-1.522
		c-0.15-0.283-0.458-0.442-0.781-0.389c-0.316,0.051-0.566,0.298-0.62,0.613l-0.398,2.328l-0.131,0.764l-0.102-0.754l-0.638-4.726
		c-0.046-0.346-0.327-0.614-0.674-0.646c-0.353-0.032-0.673,0.181-0.781,0.513l-1.649,5.019l-0.198,0.602l-0.101-0.59l-0.372-2.177
		c-0.055-0.323-0.314-0.573-0.639-0.617c-0.323-0.049-0.64,0.128-0.78,0.425l-0.843,1.798H24.34c-0.414,0-0.75,0.336-0.75,0.75
		s0.336,0.75,0.75,0.75h2.053c0.291,0,0.556-0.168,0.679-0.432l0.03-0.063l0.579,3.387C27.739,41.829,28.021,42.086,28.364,42.111z"
		/>
</g>
</svg>
