<?xml version="1.0" encoding="iso-8859-1"?>
<!-- Generator: Adobe Illustrator 17.0.0, SVG Export Plug-In . SVG Version: 6.00 Build 0)  -->
<!DOCTYPE svg PUBLIC "-//W3C//DTD SVG 1.1//EN" "http://www.w3.org/Graphics/SVG/1.1/DTD/svg11.dtd">
<svg version="1.1" id="Capa_1" xmlns="http://www.w3.org/2000/svg" xmlns:xlink="http://www.w3.org/1999/xlink" x="0px" y="0px"
	 width="64px" height="64px" viewBox="0 0 64 64" style="enable-background:new 0 0 64 64;" xml:space="preserve">
<path d="M42.87,38.56c-4.417,4.417-5.257,10.739-1.875,14.12c3.381,3.381,9.703,2.542,14.12-1.875
	c2.711-2.711,4.068-6.138,3.934-9.164h0.006V12.386v-0.335V2.015L21.613,12.051h-0.312v0.084v10.371v19.886
	c-3.488-2.748-9.353-1.771-13.522,2.399c-4.417,4.417-5.257,10.739-1.875,14.12c3.381,3.381,9.703,2.542,14.12-1.875
	c2.296-2.296,3.616-5.105,3.888-7.75h0.042v-0.49V47.68V21.794l32.449-8.698V36.17C52.915,33.412,47.044,34.386,42.87,38.56z"/>
</svg>
