<?xml version="1.0" encoding="iso-8859-1"?>
<!-- Generator: Adobe Illustrator 17.0.0, SVG Export Plug-In . SVG Version: 6.00 Build 0)  -->
<!DOCTYPE svg PUBLIC "-//W3C//DTD SVG 1.1//EN" "http://www.w3.org/Graphics/SVG/1.1/DTD/svg11.dtd">
<svg version="1.1" id="Capa_1" xmlns="http://www.w3.org/2000/svg" xmlns:xlink="http://www.w3.org/1999/xlink" x="0px" y="0px"
	 width="64px" height="64px" viewBox="0 0 64 64" style="enable-background:new 0 0 64 64;" xml:space="preserve">
<g>
	<polygon points="48.062,27.118 45.125,12.995 41.625,27.908 39.124,14.398 37.436,26.767 30.417,6.913 23.21,27.03 21.917,15.214 
		19.978,27.935 14.292,9.952 14.229,10.04 14.167,9.952 9.812,26.065 7.625,12.995 3.25,29.136 7.625,44.279 9.812,32.208 
		14.167,47.321 14.229,47.233 14.292,47.321 19.978,30.337 21.917,42.06 23.211,31.243 30.417,50.361 37.435,31.506 39.124,42.876 
		41.625,30.365 45.125,44.279 48.062,31.154 53.167,47.321 59.709,29.136 53.167,9.952 	"/>
</g>
</svg>
