<?xml version="1.0" encoding="iso-8859-1"?>
<!-- Generator: Adobe Illustrator 17.0.0, SVG Export Plug-In . SVG Version: 6.00 Build 0)  -->
<!DOCTYPE svg PUBLIC "-//W3C//DTD SVG 1.1//EN" "http://www.w3.org/Graphics/SVG/1.1/DTD/svg11.dtd">
<svg version="1.1" id="Capa_1" xmlns="http://www.w3.org/2000/svg" xmlns:xlink="http://www.w3.org/1999/xlink" x="0px" y="0px"
	 width="64px" height="64px" viewBox="0 0 64 64" style="enable-background:new 0 0 64 64;" xml:space="preserve">
<path d="M15.5,10.804v23.41h-6c-2.761,0-5,2.239-5,5v8.667c0,2.761,2.239,5,5,5h8.667c2.761,0,5-2.239,5-5V18.833h28.5v15.38h-6
	c-2.761,0-5,2.239-5,5v8.667c0,2.761,2.239,5,5,5h8.667c2.761,0,5-2.239,5-5c0,0,0-34.575,0-37.076c0-2.502-2.239-4.53-5-4.53H20.5
	C17.739,6.274,15.5,8.302,15.5,10.804z M7.181,44.985v-4.234c0-2.063,1.673-3.736,3.736-3.736h4.234L7.181,44.985z M43.181,44.985
	v-4.234c0-2.063,1.673-3.736,3.736-3.736h4.234L43.181,44.985z"/>
</svg>
