<?xml version="1.0" encoding="iso-8859-1"?>
<!-- Generator: Adobe Illustrator 17.0.0, SVG Export Plug-In . SVG Version: 6.00 Build 0)  -->
<!DOCTYPE svg PUBLIC "-//W3C//DTD SVG 1.1//EN" "http://www.w3.org/Graphics/SVG/1.1/DTD/svg11.dtd">
<svg version="1.1" id="Capa_1" xmlns="http://www.w3.org/2000/svg" xmlns:xlink="http://www.w3.org/1999/xlink" x="0px" y="0px"
	 width="64px" height="64px" viewBox="0 0 64 64" style="enable-background:new 0 0 64 64;" xml:space="preserve">
<g>
	<path d="M29.874,18.693c-1.657,0-3,1.343-3,3v9.592c-1.468,0.973-2.437,2.639-2.437,4.533c0,1.894,0.969,3.559,2.437,4.533v4.301
		c0,1.657,1.343,3,3,3c1.657,0,3-1.343,3-3V40.35c1.467-0.973,2.436-2.639,2.436-4.532c0-1.893-0.968-3.559-2.436-4.532v-9.593
		C32.874,20.036,31.531,18.693,29.874,18.693z"/>
	<path d="M50.456,49.486V26.517c1.468-0.973,2.438-2.639,2.438-4.533c0-1.894-0.969-3.559-2.438-4.533V8.277c0-1.657-1.343-3-3-3
		c-1.657,0-3,1.343-3,3v9.175c-1.467,0.974-2.435,2.639-2.435,4.532c0,1.893,0.968,3.558,2.435,4.532v22.97c0,1.657,1.343,3,3,3
		C49.113,52.486,50.456,51.143,50.456,49.486z"/>
	<path d="M9.54,31.474v23.803c0,1.657,1.343,3,3,3c1.657,0,3-1.343,3-3V31.473c1.467-0.973,2.436-2.639,2.436-4.532
		c0-1.893-0.968-3.558-2.436-4.532v-9.882c0-1.657-1.343-3-3-3c-1.657,0-3,1.343-3,3v9.881c-1.468,0.973-2.437,2.639-2.437,4.533
		C7.103,28.835,8.072,30.5,9.54,31.474z"/>
</g>
</svg>
