<?xml version="1.0" encoding="iso-8859-1"?>
<!-- Generator: Adobe Illustrator 17.0.0, SVG Export Plug-In . SVG Version: 6.00 Build 0)  -->
<!DOCTYPE svg PUBLIC "-//W3C//DTD SVG 1.1//EN" "http://www.w3.org/Graphics/SVG/1.1/DTD/svg11.dtd">
<svg version="1.1" id="Capa_1" xmlns="http://www.w3.org/2000/svg" xmlns:xlink="http://www.w3.org/1999/xlink" x="0px" y="0px"
	 width="64px" height="64px" viewBox="0 0 64 64" style="enable-background:new 0 0 64 64;" xml:space="preserve">
<g>
	<path d="M6.29,21.984v23.502c0,1.657,1.343,3,3,3c1.657,0,3-1.343,3-3V21.984c0-1.657-1.343-3-3-3
		C7.634,18.984,6.29,20.327,6.29,21.984z"/>
	<path d="M29.624,48.735c1.657,0,3-1.343,3-3V10.819c0-1.657-1.343-3-3-3c-1.657,0-3,1.343-3,3v34.916
		C26.624,47.392,27.968,48.735,29.624,48.735z"/>
	<path d="M53.206,45.984v-30c0-1.657-1.343-3-3-3c-1.657,0-3,1.343-3,3v30c0,1.657,1.343,3,3,3
		C51.863,48.984,53.206,47.641,53.206,45.984z"/>
	<circle cx="9.29" cy="55.277" r="3.957"/>
	<circle cx="29.624" cy="55.277" r="3.957"/>
	<circle cx="49.958" cy="55.277" r="3.957"/>
</g>
</svg>
