<?xml version="1.0" encoding="iso-8859-1"?>
<!-- Generator: Adobe Illustrator 17.0.0, SVG Export Plug-In . SVG Version: 6.00 Build 0)  -->
<!DOCTYPE svg PUBLIC "-//W3C//DTD SVG 1.1//EN" "http://www.w3.org/Graphics/SVG/1.1/DTD/svg11.dtd">
<svg version="1.1" id="Capa_1" xmlns="http://www.w3.org/2000/svg" xmlns:xlink="http://www.w3.org/1999/xlink" x="0px" y="0px"
	 width="64px" height="64px" viewBox="0 0 64 64" style="enable-background:new 0 0 64 64;" xml:space="preserve">
<path d="M41.25,47.431c5.772,0,10.452-6.491,10.452-14.499c0-8.008-4.68-14.499-10.452-14.499c-5.417,0-9.871,5.717-10.399,13.039
	c-1.199-0.98-2.418-2.159-3.374-3.202c1.444-1.995,6.24-9.159,7.154-17.474L29.908,6.07c0.069-0.206,0.116-0.422,0.116-0.652
	c0-1.131-0.917-2.049-2.049-2.049c-1.132,0-2.05,0.918-2.05,2.049c0,1.132,0.918,2.049,2.05,2.049c0.337,0,0.649-0.089,0.93-0.233
	l2.978,3.259c-0.629,5.723-3.367,10.991-5.224,14.001l-0.518-2.527c1.745-1.691,2.356-4.548,1.324-7.236
	c-1.329-3.46-4.868-5.32-7.906-4.153c-3.038,1.166-4.423,4.918-3.094,8.378c0.998,2.599,3.243,4.294,5.585,4.483l3.773,18.392
	c0.003,0.878-0.137,5.753-3.499,6.706c-5.477,1.55-10.554,3.573-10.768,3.659l1.598,3.996c0.05-0.02,5.089-2.027,10.341-3.514
	c3.353-0.949,5.016-3.472,5.838-5.884l12.87,12.625l3.014-3.072L30.12,41.538c-0.001-0.023-0.002-0.043-0.002-0.053L30.11,41.32
	l-1.696-8.269c0.781,0.677,1.629,1.343,2.497,1.895C31.619,41.998,35.972,47.431,41.25,47.431z M40.097,21.199
	c3.75,0,6.789,5.229,6.789,11.682c0,6.452-3.04,11.681-6.789,11.681c-3.086,0-5.686-3.545-6.512-8.396
	c0.354,0.087,0.704,0.147,1.039,0.147c0.038,0,0.075,0,0.112-0.001c3.45-0.111,6.645-1.874,6.769-1.938v-5.937
	c0.198-0.089,0.36-0.203,0.527-0.359c0.828-0.771,0.874-2.069,0.102-2.897c-0.772-0.828-2.069-0.873-2.896-0.102
	c-0.828,0.772-0.873,2.069-0.102,2.897c0.229,0.247,0.508,0.414,0.805,0.521l0.035,3.679c-0.227,0.114-2.622,1.284-5.328,1.371
	c-0.362,0.011-0.819-0.139-1.331-0.395c-0.001-0.091-0.008-0.18-0.008-0.272C33.309,26.429,36.348,21.199,40.097,21.199z"/>
</svg>
