<?xml version="1.0" encoding="iso-8859-1"?>
<!-- Generator: Adobe Illustrator 17.0.0, SVG Export Plug-In . SVG Version: 6.00 Build 0)  -->
<!DOCTYPE svg PUBLIC "-//W3C//DTD SVG 1.1//EN" "http://www.w3.org/Graphics/SVG/1.1/DTD/svg11.dtd">
<svg version="1.1" id="Capa_1" xmlns="http://www.w3.org/2000/svg" xmlns:xlink="http://www.w3.org/1999/xlink" x="0px" y="0px"
	 width="64px" height="64px" viewBox="0 0 64 64" style="enable-background:new 0 0 64 64;" xml:space="preserve">
<path d="M19.187,56.635c5.216-1.107,8.898-5.104,8.971-9.371c0.033-0.189,0.056-0.38,0.056-0.573V19.108l20.99-4.429v18.742
	c-1.87-0.546-3.982-0.65-6.136-0.194c-5.899,1.253-9.846,6.204-8.815,11.059c1.03,4.855,6.649,7.774,12.547,6.522
	c5.215-1.107,8.897-5.104,8.971-9.371c0.033-0.189,0.055-0.38,0.055-0.573V10.596c0-0.002,0-0.004,0-0.005
	c0-0.104-0.021-0.211-0.031-0.316c-0.012-0.12-0.016-0.242-0.039-0.358c0-0.002,0-0.003,0-0.004
	c-0.008-0.034-0.024-0.062-0.031-0.095c-0.043-0.182-0.096-0.361-0.168-0.529c-0.036-0.083-0.086-0.155-0.127-0.234
	c-0.059-0.111-0.112-0.224-0.184-0.327c-0.06-0.088-0.134-0.164-0.202-0.245c-0.068-0.082-0.132-0.169-0.208-0.244
	c-0.07-0.07-0.152-0.128-0.23-0.191c-0.088-0.072-0.171-0.149-0.266-0.212c-0.076-0.051-0.162-0.088-0.244-0.132
	c-0.105-0.058-0.207-0.121-0.318-0.167c-0.102-0.042-0.207-0.066-0.312-0.097c-0.1-0.03-0.197-0.068-0.301-0.089
	c-0.166-0.034-0.338-0.044-0.51-0.051c-0.047-0.002-0.092-0.014-0.139-0.014c-0.002,0-0.004,0.001-0.006,0.001
	c-0.115,0-0.232,0.023-0.349,0.035c-0.108,0.011-0.22,0.013-0.323,0.035c-0.002,0.001-0.004,0.001-0.006,0.001l-27.613,5.827
	c-1.531,0.323-2.627,1.675-2.627,3.24v22.826c-1.869-0.547-3.982-0.65-6.137-0.194c-5.898,1.253-9.845,6.204-8.814,11.059
	C7.671,54.968,13.288,57.888,19.187,56.635z"/>
</svg>
