<?xml version="1.0" encoding="iso-8859-1"?>
<!-- Generator: Adobe Illustrator 17.0.0, SVG Export Plug-In . SVG Version: 6.00 Build 0)  -->
<!DOCTYPE svg PUBLIC "-//W3C//DTD SVG 1.1//EN" "http://www.w3.org/Graphics/SVG/1.1/DTD/svg11.dtd">
<svg version="1.1" id="Capa_1" xmlns="http://www.w3.org/2000/svg" xmlns:xlink="http://www.w3.org/1999/xlink" x="0px" y="0px"
	 width="64px" height="64px" viewBox="0 0 64 64" style="enable-background:new 0 0 64 64;" xml:space="preserve">
<g>
	<path d="M52.167,24.76h1.647h0.802h3.233C56.152,11.907,45.133,1.954,31.824,1.954c-13.652,0-24.899,10.473-26.14,23.806h3.055
		h0.964h2.463c0.606,0,1.168,0.169,1.666,0.441c2.47-7.582,9.596-13.08,17.991-13.08c8.249,0,15.263,5.313,17.848,12.69
		C50.308,25.164,51.19,24.76,52.167,24.76z M31.824,8.121c-8.85,0-16.572,4.809-20.711,11.953c3.257-8.258,11.31-14.12,20.711-14.12
		c9.4,0,17.453,5.861,20.71,14.118C48.395,12.929,40.674,8.121,31.824,8.121z"/>
	<path d="M15.667,41.85v0.983c0,1.781-1.343,3.24-3.067,3.456c4.36,5.875,11.346,9.683,19.224,9.683
		c8.315,0,15.637-4.244,19.925-10.681c-1.731-0.209-3.082-1.671-3.082-3.458v-1.197c-3.137,6.125-9.501,10.336-16.843,10.336
		C24.98,50.972,18.991,47.308,15.667,41.85z"/>
	<circle cx="25" cy="30.928" r="3.667"/>
	<circle cx="39" cy="30.928" r="3.667"/>
	<path d="M57.549,44.833c0.01-0.167,0.021-0.335,0.031-0.5h1.587c1.379,0,2.5-1.121,2.5-2.5V28.26c0-1.379-1.121-2.5-2.5-2.5h-1.202
		h-3.055h-0.965h-1.778c-0.904,0-1.69,0.487-2.129,1.208c-0.23,0.378-0.371,0.818-0.371,1.292v10.038v3.536
		c0,1.379,1.121,2.5,2.5,2.5h0.188h3.238c-0.008,0.165-0.018,0.334-0.026,0.5c-0.009,0.167-0.017,0.332-0.026,0.5
		c-0.265,4.82-0.652,10.142,1.809,14.172c-7.383-2.189-15.022-1.922-22.79-1.852c-5.262,0.047-10.441-0.292-15.485-1.887
		c-3.927-1.242-8.845-5.015-9.583-9.433c-0.028-0.165-0.044-0.333-0.06-0.5c-0.016-0.166-0.03-0.332-0.033-0.5h2.529h0.24
		c1.379,0,2.5-1.121,2.5-2.5v-2.849V29.26c0-0.865-0.442-1.628-1.111-2.077c-0.398-0.267-0.875-0.423-1.389-0.423H9.618H8.492H5.608
		H5.167c-1.379,0-2.5,1.121-2.5,2.5v13.573c0,1.379,1.121,2.5,2.5,2.5h2.185c-0.002,0.168-0.002,0.335,0.006,0.5
		c0.008,0.168,0.026,0.334,0.043,0.5C8.083,52.745,15.85,57.089,21.56,58.56c12.692,3.268,26.005-1.277,38.435,3.971
		c1.173,0.495,2.194-1.227,1.009-1.727c-0.067-0.028-0.135-0.052-0.203-0.08c-0.044-0.149-0.118-0.296-0.262-0.431
		c-3.902-3.659-3.368-9.711-3.023-14.96C57.528,45.165,57.538,44.999,57.549,44.833z"/>
</g>
</svg>
