<?xml version="1.0" encoding="iso-8859-1"?>
<!-- Generator: Adobe Illustrator 17.0.0, SVG Export Plug-In . SVG Version: 6.00 Build 0)  -->
<!DOCTYPE svg PUBLIC "-//W3C//DTD SVG 1.1//EN" "http://www.w3.org/Graphics/SVG/1.1/DTD/svg11.dtd">
<svg version="1.1" id="Capa_1" xmlns="http://www.w3.org/2000/svg" xmlns:xlink="http://www.w3.org/1999/xlink" x="0px" y="0px"
	 width="64px" height="64px" viewBox="0 0 64 64" style="enable-background:new 0 0 64 64;" xml:space="preserve">
<path d="M56.344,9.411H7.021c-1.656,0-3,1.343-3,3v21.173c0,1.657,1.344,3,3,3h0.662v5.294c0,1.657,1.344,3,3,3h42
	c1.658,0,3-1.343,3-3v-5.294h0.66c1.658,0,3-1.343,3-3V12.411C59.344,10.754,58.002,9.411,56.344,9.411z M46.5,37.25v3.25h-6.75
	v-3.25h1.625v-4h3.5v4H46.5z M18.125,37.25v-4h3.5v4h1.625v3.25H16.5v-3.25H18.125z M24.25,37.25h1.625v-4h3.5v4H31v3.25h-6.75
	V37.25z M32,37.25h1.625v-4h3.5v4h1.625v3.25H32V37.25z M11.184,33.25h2.691v4H15.5v3.25h-4.316V33.25z M52.184,40.5H47.5v-3.25
	h1.625v-4h3.059V40.5z"/>
</svg>
