<?xml version="1.0" encoding="iso-8859-1"?>
<!-- Generator: Adobe Illustrator 17.0.0, SVG Export Plug-In . SVG Version: 6.00 Build 0)  -->
<!DOCTYPE svg PUBLIC "-//W3C//DTD SVG 1.1//EN" "http://www.w3.org/Graphics/SVG/1.1/DTD/svg11.dtd">
<svg version="1.1" id="Capa_1" xmlns="http://www.w3.org/2000/svg" xmlns:xlink="http://www.w3.org/1999/xlink" x="0px" y="0px"
	 width="64px" height="64px" viewBox="0 0 64 64" style="enable-background:new 0 0 64 64;" xml:space="preserve">
<g>
	<path d="M9.25,17.25V37c0,1.657,1.343,3,3,3H14c1.657,0,3-1.343,3-3v-6.5c0-0.553-0.447-1-1-1l0,0c-0.553,0-1-0.447-1-1V17.25H9.25
		z"/>
	<path d="M47.751,28.5c0,0.553-0.447,1-1,1l0,0c-0.553,0-1,0.447-1,1V37c0,1.657,1.343,3,3,3h1.75c1.657,0,3-1.343,3-3V17.25h-5.75
		V28.5z"/>
	<path d="M20.084,17.25V28.5c0,0.553-0.41,1-0.917,1c-0.507,0-0.917,0.447-0.917,1V37c0,1.657,1.343,3,3,3H23c1.657,0,3-1.343,3-3
		v-6.5c0-0.553-0.429-1-0.958-1c-0.529,0-0.958-0.447-0.958-1V17.25H20.084z"/>
	<path d="M29.334,17.25V28.5c0,0.553-0.41,1-0.917,1c-0.507,0-0.917,0.447-0.917,1V37c0,1.657,1.343,3,3,3h1.75c1.657,0,3-1.343,3-3
		v-6.5c0-0.553-0.429-1-0.958-1c-0.529,0-0.958-0.447-0.958-1V17.25H29.334z"/>
	<path d="M38.584,17.25V28.5c0,0.553-0.41,1-0.917,1c-0.507,0-0.917,0.447-0.917,1V37c0,1.657,1.343,3,3,3h1.75c1.657,0,3-1.343,3-3
		v-6.5c0-0.553-0.429-1-0.958-1c-0.529,0-0.958-0.447-0.958-1V17.25H38.584z"/>
</g>
</svg>
