<?xml version="1.0" encoding="iso-8859-1"?>
<!-- Generator: Adobe Illustrator 17.0.0, SVG Export Plug-In . SVG Version: 6.00 Build 0)  -->
<!DOCTYPE svg PUBLIC "-//W3C//DTD SVG 1.1//EN" "http://www.w3.org/Graphics/SVG/1.1/DTD/svg11.dtd">
<svg version="1.1" id="Capa_1" xmlns="http://www.w3.org/2000/svg" xmlns:xlink="http://www.w3.org/1999/xlink" x="0px" y="0px"
	 width="64px" height="64px" viewBox="0 0 64 64" style="enable-background:new 0 0 64 64;" xml:space="preserve">
<path d="M32.342,2.275c-16.411,0-29.715,13.304-29.715,29.715S15.93,61.704,32.342,61.704c16.411,0,29.715-13.304,29.715-29.715
	S48.753,2.275,32.342,2.275z M29.342,10.096c0-1.657,1.343-3,3-3s3,1.343,3,3v20.659c0,1.657-1.343,3-3,3s-3-1.343-3-3V10.096z
	 M32.342,53.936c-11.593,0-21.024-9.432-21.024-21.024c0-7.521,4.063-14.519,10.604-18.259c1.438-0.822,3.271-0.323,4.094,1.115
	s0.323,3.271-1.115,4.094c-4.678,2.675-7.583,7.675-7.583,13.05c0,8.284,6.74,15.024,15.024,15.024s15.024-6.74,15.024-15.024
	c0-5.375-2.906-10.375-7.584-13.05c-1.438-0.822-1.938-2.655-1.115-4.094s2.655-1.938,4.094-1.115
	c6.542,3.74,10.605,10.736,10.605,18.259C53.366,44.504,43.935,53.936,32.342,53.936z"/>
</svg>
