<?xml version="1.0" encoding="iso-8859-1"?>
<!-- Generator: Adobe Illustrator 17.0.0, SVG Export Plug-In . SVG Version: 6.00 Build 0)  -->
<!DOCTYPE svg PUBLIC "-//W3C//DTD SVG 1.1//EN" "http://www.w3.org/Graphics/SVG/1.1/DTD/svg11.dtd">
<svg version="1.1" id="Capa_1" xmlns="http://www.w3.org/2000/svg" xmlns:xlink="http://www.w3.org/1999/xlink" x="0px" y="0px"
	 width="64px" height="64px" viewBox="0 0 64 64" style="enable-background:new 0 0 64 64;" xml:space="preserve">
<path d="M60.75,25.5c0-2.761-2.239-5-5-5H51.5v-9.088c1.049-0.665,1.75-1.828,1.75-3.162c0-2.071-1.679-3.75-3.75-3.75
	s-3.75,1.679-3.75,3.75c0,1.334,0.701,2.497,1.75,3.162V20.5H8.25c-2.761,0-5,2.239-5,5v17c0,2.761,2.239,5,5,5h2.25v0.75
	c0,1.104,0.896,2,2,2s2-0.896,2-2V47.5h34v0.75c0,1.104,0.896,2,2,2s2-0.896,2-2V47.5h3.25c2.761,0,5-2.239,5-5V25.5z M46.054,24.25
	c0.511,0,0.996,0.105,1.446,0.278c0.767,0.294,1.424,0.807,1.885,1.472c0.27,0.39,0.464,0.832,0.584,1.304h-2.915
	c-0.552,0-1,0.448-1,1s0.448,1,1,1h2.915c-0.447,1.752-2.023,3.054-3.915,3.054c-2.239,0-4.054-1.815-4.054-4.054
	C42,26.065,43.815,24.25,46.054,24.25z M13.75,23.75h10.5c1.744,0,3.276,0.896,4.171,2.25H9.579
	C10.474,24.646,12.006,23.75,13.75,23.75z M29.25,32H8.75v-2h20.5V32z M29.25,38H8.75v-2h20.5V38z M24.25,44.25h-10.5
	c-1.744,0-3.276-0.896-4.171-2.25h18.842C27.526,43.354,25.994,44.25,24.25,44.25z M42.834,41.629c-1.583-1.583-1.583-4.15,0-5.733
	c1.366-1.366,3.461-1.547,5.028-0.556l-2.085,2.085c-0.391,0.391-0.391,1.023,0,1.414c0.195,0.195,0.451,0.293,0.707,0.293
	s0.512-0.098,0.707-0.293l2.038-2.038c0.857,1.542,0.648,3.518-0.661,4.828C46.984,43.212,44.417,43.212,42.834,41.629z"/>
</svg>
