<?xml version="1.0" encoding="iso-8859-1"?>
<!-- Generator: Adobe Illustrator 17.0.0, SVG Export Plug-In . SVG Version: 6.00 Build 0)  -->
<!DOCTYPE svg PUBLIC "-//W3C//DTD SVG 1.1//EN" "http://www.w3.org/Graphics/SVG/1.1/DTD/svg11.dtd">
<svg version="1.1" id="Capa_1" xmlns="http://www.w3.org/2000/svg" xmlns:xlink="http://www.w3.org/1999/xlink" x="0px" y="0px"
	 width="64px" height="64px" viewBox="0 0 64 64" style="enable-background:new 0 0 64 64;" xml:space="preserve">
<rect x="49" y="20.167" width="12.5" height="36"/>
<path d="M12.558,15.985C13.428,15.348,14,14.327,14,13.167c0-1.933-1.567-3.5-3.5-3.5S7,11.234,7,13.167
	c0,1.214,0.619,2.283,1.559,2.911L8.639,20H3v36h44V20H12.641L12.558,15.985z M33.608,36.833H6.392c0.058-0.683,0.17-1.349,0.325-2
	h26.566C33.438,35.484,33.55,36.15,33.608,36.833z M33.112,41.833H6.888c-0.189-0.648-0.326-1.316-0.418-2H33.53
	C33.438,40.517,33.301,41.185,33.112,41.833z M30.419,46.833H9.581c-0.527-0.621-0.994-1.291-1.405-2h23.647
	C31.413,45.542,30.946,46.212,30.419,46.833z M30.939,29.833c0.47,0.628,0.888,1.295,1.245,2H7.815c0.358-0.705,0.775-1.372,1.245-2
	H30.939z M20,51.667c-2.486,0-4.809-0.674-6.817-1.834h13.635C24.809,50.993,22.486,51.667,20,51.667z M40,36.218
	c-1.225,0-2.218-0.993-2.218-2.218c0-1.225,0.993-2.218,2.218-2.218s2.218,0.993,2.218,2.218C42.218,35.225,41.225,36.218,40,36.218
	z M40,22.5c1.933,0,3.5,1.567,3.5,3.5s-1.567,3.5-3.5,3.5s-3.5-1.567-3.5-3.5S38.067,22.5,40,22.5z M27.863,26.833H12.137
	c2.225-1.57,4.933-2.5,7.863-2.5S25.638,25.263,27.863,26.833z"/>
</svg>
