<?xml version="1.0" encoding="iso-8859-1"?>
<!-- Generator: Adobe Illustrator 17.0.0, SVG Export Plug-In . SVG Version: 6.00 Build 0)  -->
<!DOCTYPE svg PUBLIC "-//W3C//DTD SVG 1.1//EN" "http://www.w3.org/Graphics/SVG/1.1/DTD/svg11.dtd">
<svg version="1.1" id="Capa_1" xmlns="http://www.w3.org/2000/svg" xmlns:xlink="http://www.w3.org/1999/xlink" x="0px" y="0px"
	 width="64px" height="64px" viewBox="0 0 64 64" style="enable-background:new 0 0 64 64;" xml:space="preserve">
<path d="M11.412,10.51c0.506-0.101,1.023-0.165,1.547-0.207c0.359-0.029,0.719-0.055,1.085-0.055h0.44
	c0.561-2.706,2.962-4.746,5.833-4.746h23.365c2.87,0,5.272,2.04,5.833,4.746h0.44c0.366,0,0.726,0.026,1.085,0.055
	c0.524,0.042,1.042,0.107,1.547,0.207c-0.476-4.494-4.287-8.008-8.905-8.008H20.317C15.699,2.502,11.888,6.016,11.412,10.51z"/>
<path d="M21,56.008h-6.956c-2.027,0-3.944-0.463-5.669-1.269v5.011H21V56.008z"/>
<path d="M54,55.385c-1.277,0.403-2.635,0.623-4.044,0.623h-8.581v3.742H54V55.385z"/>
<path d="M8.375,52.5c1.673,0.955,3.605,1.509,5.669,1.509H21h20.375h8.581c1.426,0,2.785-0.272,4.044-0.748
	c4.331-1.636,7.417-5.809,7.417-10.713V23.709c0-6.33-5.131-11.461-11.461-11.461H14.044c-6.33,0-11.461,5.131-11.461,11.461v18.838
	C2.583,46.813,4.918,50.526,8.375,52.5z M55,19.375c0.897,0,1.625,0.728,1.625,1.625S55.897,22.625,55,22.625
	S53.375,21.897,53.375,21S54.103,19.375,55,19.375z M55,24.375c0.897,0,1.625,0.728,1.625,1.625S55.897,27.625,55,27.625
	S53.375,26.897,53.375,26S54.103,24.375,55,24.375z M55,29.375c0.897,0,1.625,0.728,1.625,1.625S55.897,32.625,55,32.625
	S53.375,31.897,53.375,31S54.103,29.375,55,29.375z M55,34.375c0.897,0,1.625,0.728,1.625,1.625S55.897,37.625,55,37.625
	S53.375,36.897,53.375,36S54.103,34.375,55,34.375z M55,39.375c0.897,0,1.625,0.728,1.625,1.625S55.897,42.625,55,42.625
	S53.375,41.897,53.375,41S54.103,39.375,55,39.375z M55,44.375c0.897,0,1.625,0.728,1.625,1.625S55.897,47.625,55,47.625
	S53.375,46.897,53.375,46S54.103,44.375,55,44.375z M50,19.375c0.897,0,1.625,0.728,1.625,1.625S50.897,22.625,50,22.625
	S48.375,21.897,48.375,21S49.103,19.375,50,19.375z M50,24.375c0.897,0,1.625,0.728,1.625,1.625S50.897,27.625,50,27.625
	S48.375,26.897,48.375,26S49.103,24.375,50,24.375z M50,29.375c0.897,0,1.625,0.728,1.625,1.625S50.897,32.625,50,32.625
	S48.375,31.897,48.375,31S49.103,29.375,50,29.375z M50,34.375c0.897,0,1.625,0.728,1.625,1.625S50.897,37.625,50,37.625
	S48.375,36.897,48.375,36S49.103,34.375,50,34.375z M50,39.375c0.897,0,1.625,0.728,1.625,1.625S50.897,42.625,50,42.625
	S48.375,41.897,48.375,41S49.103,39.375,50,39.375z M50,44.375c0.897,0,1.625,0.728,1.625,1.625S50.897,47.625,50,47.625
	S48.375,46.897,48.375,46S49.103,44.375,50,44.375z M45,19.375c0.897,0,1.625,0.728,1.625,1.625S45.897,22.625,45,22.625
	S43.375,21.897,43.375,21S44.103,19.375,45,19.375z M45,24.375c0.897,0,1.625,0.728,1.625,1.625S45.897,27.625,45,27.625
	S43.375,26.897,43.375,26S44.103,24.375,45,24.375z M45,29.375c0.897,0,1.625,0.728,1.625,1.625S45.897,32.625,45,32.625
	S43.375,31.897,43.375,31S44.103,29.375,45,29.375z M45,34.375c0.897,0,1.625,0.728,1.625,1.625S45.897,37.625,45,37.625
	S43.375,36.897,43.375,36S44.103,34.375,45,34.375z M45,39.375c0.897,0,1.625,0.728,1.625,1.625S45.897,42.625,45,42.625
	S43.375,41.897,43.375,41S44.103,39.375,45,39.375z M45,44.375c0.897,0,1.625,0.728,1.625,1.625S45.897,47.625,45,47.625
	S43.375,46.897,43.375,46S44.103,44.375,45,44.375z M40,19.375c0.897,0,1.625,0.728,1.625,1.625S40.897,22.625,40,22.625
	S38.375,21.897,38.375,21S39.103,19.375,40,19.375z M40,24.375c0.897,0,1.625,0.728,1.625,1.625S40.897,27.625,40,27.625
	S38.375,26.897,38.375,26S39.103,24.375,40,24.375z M40,29.375c0.897,0,1.625,0.728,1.625,1.625S40.897,32.625,40,32.625
	S38.375,31.897,38.375,31S39.103,29.375,40,29.375z M40,34.375c0.897,0,1.625,0.728,1.625,1.625S40.897,37.625,40,37.625
	S38.375,36.897,38.375,36S39.103,34.375,40,34.375z M40,39.375c0.897,0,1.625,0.728,1.625,1.625S40.897,42.625,40,42.625
	S38.375,41.897,38.375,41S39.103,39.375,40,39.375z M40,44.375c0.897,0,1.625,0.728,1.625,1.625S40.897,47.625,40,47.625
	S38.375,46.897,38.375,46S39.103,44.375,40,44.375z M35,19.375c0.897,0,1.625,0.728,1.625,1.625S35.897,22.625,35,22.625
	S33.375,21.897,33.375,21S34.103,19.375,35,19.375z M35,24.375c0.897,0,1.625,0.728,1.625,1.625S35.897,27.625,35,27.625
	S33.375,26.897,33.375,26S34.103,24.375,35,24.375z M35,29.375c0.897,0,1.625,0.728,1.625,1.625S35.897,32.625,35,32.625
	S33.375,31.897,33.375,31S34.103,29.375,35,29.375z M35,34.375c0.897,0,1.625,0.728,1.625,1.625S35.897,37.625,35,37.625
	S33.375,36.897,33.375,36S34.103,34.375,35,34.375z M35,39.375c0.897,0,1.625,0.728,1.625,1.625S35.897,42.625,35,42.625
	S33.375,41.897,33.375,41S34.103,39.375,35,39.375z M35,44.375c0.897,0,1.625,0.728,1.625,1.625S35.897,47.625,35,47.625
	S33.375,46.897,33.375,46S34.103,44.375,35,44.375z M6,27.007c0-1.103,0.897-2,2-2h21c1.103,0,2,0.897,2,2V39.25
	c0,1.103-0.897,2-2,2H8c-1.103,0-2-0.897-2-2V27.007z"/>
<rect x="8" y="27.007" width="21" height="12.243"/>
</svg>
