<?xml version="1.0" encoding="iso-8859-1"?>
<!-- Generator: Adobe Illustrator 17.0.0, SVG Export Plug-In . SVG Version: 6.00 Build 0)  -->
<!DOCTYPE svg PUBLIC "-//W3C//DTD SVG 1.1//EN" "http://www.w3.org/Graphics/SVG/1.1/DTD/svg11.dtd">
<svg version="1.1" id="Capa_1" xmlns="http://www.w3.org/2000/svg" xmlns:xlink="http://www.w3.org/1999/xlink" x="0px" y="0px"
	 width="64px" height="64px" viewBox="0 0 64 64" style="enable-background:new 0 0 64 64;" xml:space="preserve">
<g>
	<path d="M58.875,17.686h-4.899H53.76h-0.278c0.059-0.084,0.111-0.17,0.15-0.264c-0.226-0.463-0.513-0.889-0.853-1.269
		c-0.171,0.003-0.341,0.026-0.502,0.09c0.064-0.162,0.087-0.333,0.09-0.505c-0.416-0.377-0.888-0.692-1.404-0.93
		c-0.158,0.07-0.307,0.159-0.431,0.282c-0.004-0.175-0.051-0.341-0.116-0.501c-0.464-0.157-0.955-0.251-1.465-0.279
		c-0.118,0.123-0.222,0.259-0.29,0.418c-0.069-0.16-0.174-0.296-0.293-0.42c-0.578,0.028-1.133,0.144-1.651,0.336
		c-0.062,0.161-0.105,0.329-0.105,0.503c-0.126-0.12-0.276-0.204-0.434-0.271c-0.461,0.229-0.885,0.519-1.263,0.862
		c0.003,0.172,0.026,0.343,0.09,0.505c-0.161-0.064-0.331-0.087-0.502-0.09c-0.358,0.4-0.658,0.852-0.889,1.344
		c0.03,0.066,0.064,0.128,0.104,0.189h-0.195h-0.215H19.034l12.941-8.16c0.934-0.589,1.214-1.824,0.625-2.759
		c-0.589-0.934-1.823-1.212-2.759-0.625L11.533,17.686H5.125c-1.799,0-3.258,1.458-3.258,3.258V51.89
		c0,1.799,1.458,3.258,3.258,3.258h53.749c1.799,0,3.258-1.458,3.258-3.258V20.943C62.132,19.144,60.674,17.686,58.875,17.686z
		 M30.266,32.503h-2v-3.461h0.188C29.23,30.083,29.847,31.246,30.266,32.503z M30.908,36.416c0,0.526-0.044,1.04-0.107,1.549h-2.534
		v-3.462h2.478C30.842,35.128,30.908,35.764,30.908,36.416z M28.727,43.427h-0.46v-3.461h2.119
		C30.012,41.213,29.449,42.378,28.727,43.427z M8.329,43.427c-0.722-1.049-1.285-2.213-1.658-3.461h3.211v3.461H8.329z
		 M11.881,39.965h3.462v3.461h-3.462V39.965z M8.601,29.042h1.281v3.461H6.789C7.208,31.246,7.826,30.083,8.601,29.042z
		 M26.267,32.503h-3.462v-3.461h3.462V32.503z M26.267,37.965h-3.462v-3.462h3.462V37.965z M11.881,29.042h3.462v3.461h-3.462
		V29.042z M17.343,34.503h3.461v3.462h-3.461V34.503z M20.805,32.503h-3.461v-3.461h3.461V32.503z M15.343,27.042h-3.462v-1.058
		c1.056-0.674,2.22-1.188,3.462-1.518V27.042z M11.881,34.503h3.462v3.462h-3.462V34.503z M17.343,39.965h3.461v3.461h-3.461V39.965
		z M22.805,39.965h3.462v3.461h-3.462V39.965z M26.267,27.042h-3.462v-2.231c1.263,0.466,2.431,1.123,3.462,1.951V27.042z
		 M20.805,24.255v2.787h-3.461v-2.946c0.39-0.037,0.785-0.06,1.185-0.06C19.307,24.037,20.066,24.117,20.805,24.255z M6.311,34.503
		h3.571v3.462H6.255c-0.064-0.509-0.107-1.023-0.107-1.549C6.148,35.764,6.213,35.128,6.311,34.503z M11.881,45.427h3.462v2.941
		c-1.242-0.33-2.406-0.844-3.462-1.518V45.427z M17.343,48.736v-3.31h3.461v3.151c-0.739,0.138-1.498,0.218-2.277,0.218
		C18.128,48.796,17.733,48.773,17.343,48.736z M22.805,45.427h3.462v0.644c-1.031,0.827-2.199,1.485-3.462,1.951V45.427z
		 M51.943,44.915c-2.05,2.05-5.171,2.342-7.549,0.916l2.239-2.239c0.586-0.585,0.586-1.536,0-2.121
		c-0.586-0.586-1.535-0.586-2.121,0l-2.239,2.239c-1.426-2.378-1.133-5.499,0.916-7.549c2.417-2.417,6.337-2.417,8.754,0
		C54.361,38.578,54.361,42.497,51.943,44.915z M56.396,29.316H40.039l-1.758-5.098l-1.494,5.098h-4.241v-7.464h10.69h0.225h0.456
		h9.525h0.379h0.22h2.354V29.316z"/>
</g>
</svg>
