<?xml version="1.0" encoding="iso-8859-1"?>
<!-- Generator: Adobe Illustrator 17.0.0, SVG Export Plug-In . SVG Version: 6.00 Build 0)  -->
<!DOCTYPE svg PUBLIC "-//W3C//DTD SVG 1.1//EN" "http://www.w3.org/Graphics/SVG/1.1/DTD/svg11.dtd">
<svg version="1.1" id="Capa_1" xmlns="http://www.w3.org/2000/svg" xmlns:xlink="http://www.w3.org/1999/xlink" x="0px" y="0px"
	 width="64px" height="64px" viewBox="0 0 64 64" style="enable-background:new 0 0 64 64;" xml:space="preserve">
<g>
	<rect x="39.271" y="54.486" width="1.135" height="1.134"/>
	<circle cx="22.26" cy="55.053" r="0.567"/>
	<polygon points="25.487,55.62 26.302,55.104 25.487,54.588 	"/>
	<polygon points="42.565,55.511 43.597,55.511 43.082,54.696 	"/>
	<polygon points="28.279,55.62 29.094,55.104 28.279,54.588 	"/>
	<polygon points="29.472,55.62 30.285,55.104 29.472,54.588 	"/>
	<polygon points="33.775,55.62 33.775,54.588 32.961,55.104 	"/>
	<polygon points="32.583,55.62 32.583,54.588 31.769,55.104 	"/>
	<polygon points="35.707,54.537 35.707,55.569 35.957,55.569 36.207,55.569 36.207,54.537 35.957,54.537 	"/>
	<polygon points="36.347,54.537 36.347,55.569 36.597,55.569 36.847,55.569 36.847,54.537 36.597,54.537 	"/>
	<path d="M58.029,56.194V31.531c0-1.657-0.879-3-1.963-3s-1.963-0.43-1.963-0.96c0-0.53-0.215-0.96-0.48-0.96
		c-0.265,0-0.479-1.343-0.479-3V8.299c0-1.657,0.472-3.017,1.01-3.206c0.451-0.159,0.735-0.387,0.735-0.642
		c0-0.482-1.016-0.873-2.269-0.873c-1.253,0-2.268,0.391-2.268,0.873c0,0.23,0.233,0.438,0.611,0.594
		c0.461,0.188,0.871,1.565,0.871,3.222v15.344c0,1.657-0.195,3-0.437,3c-0.241,0-0.436,0.43-0.436,0.96
		c0,0.53-0.315,0.96-0.704,0.96c-0.388,0-0.703-1.343-0.703-3v-0.677c0-1.657-1.343-3-3-3H20.008c-1.657,0-3,1.343-3,3v0.677
		c0,1.657-1.343,3-3,3h-3.057c-1.657,0-3,1.343-3,3v24.663c0,1.657,1.343,3,3,3h44.078C56.686,59.194,58.029,57.851,58.029,56.194z
		 M23.008,24.854h20.547c1.657,0,3,0.823,3,1.838c0,1.015-1.343,1.838-3,1.838H23.008c-1.657,0-3-0.823-3-1.838
		C20.008,25.678,21.351,24.854,23.008,24.854z M36.271,34.761h-5.865c-1.657,0-3-0.867-3-1.937c0-1.07,1.343-1.937,3-1.937h5.865
		c1.657,0,3,0.867,3,1.937C39.271,33.894,37.929,34.761,36.271,34.761z M36.77,46.62c0,0.963-0.781,1.745-1.745,1.745
		c-0.964,0-1.745-0.781-1.745-1.745c0-0.964,0.781-1.745,1.745-1.745C35.989,44.875,36.77,45.656,36.77,46.62z M31.769,46.62
		c0,0.963-0.781,1.745-1.745,1.745c-0.963,0-1.744-0.781-1.744-1.745c0-0.964,0.781-1.745,1.744-1.745
		C30.987,44.875,31.769,45.656,31.769,46.62z M10.714,41.618c0-5.011,3.307-9.073,7.386-9.073c4.08,0,7.388,4.062,7.388,9.073
		c0,5.011-3.308,9.073-7.388,9.073C14.02,50.691,10.714,46.629,10.714,41.618z M42.554,56.682H23.428c-1.657,0-3-0.729-3-1.629
		c0-0.899,1.343-1.628,3-1.628h19.126c1.657,0,3,0.729,3,1.628C45.554,55.953,44.211,56.682,42.554,56.682z M48.519,50.691
		c-4.08,0-7.387-4.062-7.387-9.073c0-5.011,3.307-9.073,7.387-9.073c4.08,0,7.387,4.062,7.387,9.073
		C55.906,46.629,52.6,50.691,48.519,50.691z"/>
</g>
</svg>
