<?xml version="1.0" encoding="iso-8859-1"?>
<!-- Generator: Adobe Illustrator 17.0.0, SVG Export Plug-In . SVG Version: 6.00 Build 0)  -->
<!DOCTYPE svg PUBLIC "-//W3C//DTD SVG 1.1//EN" "http://www.w3.org/Graphics/SVG/1.1/DTD/svg11.dtd">
<svg version="1.1" id="Capa_1" xmlns="http://www.w3.org/2000/svg" xmlns:xlink="http://www.w3.org/1999/xlink" x="0px" y="0px"
	 width="64px" height="64px" viewBox="0 0 64 64" style="enable-background:new 0 0 64 64;" xml:space="preserve">
<g>
	<path d="M47.185,32.43c-1.365-2.618-4.058-7.31-7.26-10.419c-0.859-0.834-2.375-0.767-3.199,0.102
		c-2.241,2.361-6.182,7.255-6.797,13.021c-0.202,1.897-0.287,3.898-0.342,5.837h-3.576c0.184-5.073,0.642-11.2,1.149-16.918h1.588
		c0.226,0.387,0.641,0.651,1.121,0.651c0.719,0,1.302-0.583,1.302-1.303c0-0.719-0.583-1.301-1.302-1.301
		c-0.48,0-0.896,0.265-1.121,0.65h-1.473c0.108-1.185,0.217-2.345,0.326-3.47h1.689c0.225,0.387,0.64,0.65,1.12,0.65
		c0.719,0,1.302-0.582,1.302-1.302c0-0.719-0.583-1.301-1.302-1.301c-0.48,0-0.896,0.264-1.12,0.65h-1.564
		c0.119-1.215,0.236-2.377,0.348-3.47h1.759c0.226,0.387,0.64,0.65,1.12,0.65c0.719,0,1.302-0.582,1.302-1.302
		c0-0.719-0.583-1.301-1.302-1.301c-0.48,0-0.895,0.263-1.12,0.65h-1.624c0.394-3.784,0.709-6.527,0.799-7.311
		c0.088-0.562,0.173-1.106,0.256-1.632c0,0,0.068-0.429,0.15-0.96c0.084-0.529-0.272-0.858-0.793-0.734l-0.945,0.227
		C20.67,4.469,14.613,4.39,14.553,4.387L14.508,6.99c0.238,0.003,5.406,0.076,11.891-1.246c-0.026,0.174-0.055,0.364-0.086,0.561
		c-0.805,3.204-5.963,23.978-7.66,36.961c-1.844,14.099,3.131,15.4,8.126,15.941c4.995,0.543,8.466-1.084,9.876-11.277
		c1.244-9.004,4.182-12.593,9.334-13.384C47.172,34.364,47.739,33.492,47.185,32.43z M22.677,48.128
		c-0.719,0-1.302-0.584-1.302-1.303c0-0.719,0.583-1.301,1.302-1.301c0.718,0,1.302,0.582,1.302,1.301
		C23.978,47.544,23.394,48.128,22.677,48.128z M22.677,42.704c-0.719,0-1.302-0.582-1.302-1.301c0-0.719,0.583-1.301,1.302-1.301
		c0.718,0,1.302,0.582,1.302,1.301C23.978,42.122,23.394,42.704,22.677,42.704z M22.677,36.452c-0.8,0-1.448-0.647-1.448-1.447
		c0-0.799,0.649-1.447,1.448-1.447c0.8,0,1.447,0.649,1.447,1.447C24.124,35.805,23.477,36.452,22.677,36.452z M23.69,31.935
		c-0.559,0-1.014-0.454-1.014-1.014c0-0.561,0.454-1.015,1.014-1.015c0.56,0,1.013,0.454,1.013,1.015
		C24.703,31.481,24.25,31.935,23.69,31.935z M27.002,52.158c-0.596-0.203-0.908-1.859-1.022-4.429h3.371
		C29.119,50.766,28.569,52.692,27.002,52.158z M29.43,46.428h-3.49c-0.022-1.241-0.009-2.643,0.032-4.156h3.583
		C29.519,43.742,29.491,45.154,29.43,46.428z M32.255,48.128c-0.719,0-1.302-0.584-1.302-1.303c0-0.719,0.583-1.301,1.302-1.301
		c0.718,0,1.302,0.582,1.302,1.301C33.557,47.544,32.973,48.128,32.255,48.128z M32.255,42.704c-0.719,0-1.302-0.582-1.302-1.301
		c0-0.719,0.583-1.301,1.302-1.301c0.718,0,1.302,0.582,1.302,1.301C33.557,42.122,32.973,42.704,32.255,42.704z"/>
	<path d="M9.446,6.487c2,0.562,4.542,0.478,4.542,0.478l0.104-2.52c0,0-1.527,0.171-3.048,0.488
		C10.223,5.104,7.446,5.925,9.446,6.487z"/>
</g>
</svg>
