<?xml version="1.0" encoding="iso-8859-1"?>
<!-- Generator: Adobe Illustrator 17.0.0, SVG Export Plug-In . SVG Version: 6.00 Build 0)  -->
<!DOCTYPE svg PUBLIC "-//W3C//DTD SVG 1.1//EN" "http://www.w3.org/Graphics/SVG/1.1/DTD/svg11.dtd">
<svg version="1.1" id="Capa_1" xmlns="http://www.w3.org/2000/svg" xmlns:xlink="http://www.w3.org/1999/xlink" x="0px" y="0px"
	 width="64px" height="64px" viewBox="0 0 64 64" style="enable-background:new 0 0 64 64;" xml:space="preserve">
<path d="M30.077,54.717c6.301-1.338,10.748-6.167,10.836-11.319c0.041-0.229,0.067-0.459,0.067-0.691V11.143c0-2.209-1.791-4-4-4
	s-4,1.791-4,4v22.571c-2.258-0.66-4.81-0.786-7.411-0.233c-7.125,1.513-11.892,7.493-10.647,13.357
	C16.167,52.703,22.953,56.229,30.077,54.717z M26.692,38.773c3.574-0.759,6.978,1.011,7.603,3.952
	c0.624,2.941-1.768,5.941-5.342,6.7s-6.977-1.01-7.602-3.952C20.727,42.532,23.118,39.532,26.692,38.773z"/>
</svg>
