<?xml version="1.0" encoding="iso-8859-1"?>
<!-- Generator: Adobe Illustrator 17.0.0, SVG Export Plug-In . SVG Version: 6.00 Build 0)  -->
<!DOCTYPE svg PUBLIC "-//W3C//DTD SVG 1.1//EN" "http://www.w3.org/Graphics/SVG/1.1/DTD/svg11.dtd">
<svg version="1.1" id="Capa_1" xmlns="http://www.w3.org/2000/svg" xmlns:xlink="http://www.w3.org/1999/xlink" x="0px" y="0px"
	 width="64px" height="64px" viewBox="0 0 64 64" style="enable-background:new 0 0 64 64;" xml:space="preserve">
<path d="M45.104,54.37v5.4c0,0.954,0.673,1.729,1.5,1.729h0.015c0.827,0,1.5-0.775,1.5-1.729v-5.4c0-0.954-0.673-1.729-1.515-1.729
	C45.776,52.641,45.104,53.416,45.104,54.37z"/>
<path d="M59.544,51.249h0.015c0.827,0,1.5-0.775,1.5-1.729v-5.4c0-0.954-0.673-1.729-1.515-1.729c-0.827,0-1.5,0.775-1.5,1.729v5.4
	C58.044,50.474,58.717,51.249,59.544,51.249z"/>
<path d="M53.054,40.997c0.827,0,1.5-0.775,1.5-1.729v-5.401c0-0.953-0.673-1.729-1.515-1.729c-0.827,0-1.5,0.775-1.5,1.729v5.401
	c0,0.953,0.673,1.729,1.5,1.729H53.054z"/>
<path d="M3.963,49.519c0,0.679,0.448,1.229,1,1.229h50.122c0.552,0,1-0.55,1-1.229v-5.401c0-0.679-0.448-1.229-1-1.229H4.963
	c-0.552,0-1,0.55-1,1.229V49.519z"/>
<path d="M3.963,39.268c0,0.679,0.448,1.229,1,1.229h43.756c0.552,0,1-0.55,1-1.229v-5.401c0-0.679-0.448-1.229-1-1.229H4.963
	c-0.552,0-1,0.55-1,1.229V39.268z"/>
<path d="M3.963,59.771c0,0.679,0.448,1.229,1,1.229h37.32c0.552,0,1-0.55,1-1.229V54.37c0-0.679-0.448-1.229-1-1.229H4.963
	c-0.552,0-1,0.55-1,1.229V59.771z"/>
<path d="M3.963,29.466c0,0.679,0.448,1.229,1,1.229h39.656c0.552,0,1-0.55,1-1.229v-5.401c0-0.679-0.448-1.229-1-1.229H4.963
	c-0.552,0-1,0.55-1,1.229V29.466z"/>
<path d="M48.954,31.195c0.827,0,1.5-0.775,1.5-1.729v-5.4c0-0.954-0.673-1.729-1.515-1.729c-0.827,0-1.5,0.775-1.5,1.729v5.4
	c0,0.954,0.673,1.729,1.5,1.729H48.954z"/>
<path d="M27.104,13.813v5.401c0,0.954,0.673,1.729,1.5,1.729h0.015c0.827,0,1.5-0.775,1.5-1.729v-5.401
	c0-0.953-0.673-1.729-1.515-1.729C27.776,12.085,27.104,12.86,27.104,13.813z"/>
<path d="M43.559,10.692c0.827,0,1.5-0.775,1.5-1.729v-5.4c0-0.954-0.673-1.729-1.515-1.729c-0.827,0-1.5,0.775-1.5,1.729v5.4
	c0,0.954,0.673,1.729,1.5,1.729H43.559z"/>
<path d="M40.085,8.963V3.563c0-0.679-0.448-1.229-1-1.229H4.963c-0.552,0-1,0.55-1,1.229v5.401c0,0.679,0.448,1.229,1,1.229h34.122
	C39.637,10.193,40.085,9.642,40.085,8.963z"/>
<path d="M3.963,19.215c0,0.679,0.448,1.229,1,1.229h19.32c0.552,0,1-0.55,1-1.229v-5.401c0-0.679-0.448-1.229-1-1.229H4.963
	c-0.552,0-1,0.55-1,1.229V19.215z"/>
</svg>
