<?xml version="1.0" encoding="iso-8859-1"?>
<!-- Generator: Adobe Illustrator 17.0.0, SVG Export Plug-In . SVG Version: 6.00 Build 0)  -->
<!DOCTYPE svg PUBLIC "-//W3C//DTD SVG 1.1//EN" "http://www.w3.org/Graphics/SVG/1.1/DTD/svg11.dtd">
<svg version="1.1" id="Capa_1" xmlns="http://www.w3.org/2000/svg" xmlns:xlink="http://www.w3.org/1999/xlink" x="0px" y="0px"
	 width="64px" height="64px" viewBox="0 0 64 64" style="enable-background:new 0 0 64 64;" xml:space="preserve">
<path d="M6.369,39.875l1.09,0.052V50.6c0,1.181,1.393,2.139,3.111,2.139s3.111-0.958,3.111-2.139V40.226l0.664,0.032h9.975
	l15.711,8.626V11.686L24.32,21.544H8.561c-3.626,0-6.566,2.94-6.566,6.566v5.581C1.995,36.548,3.822,38.972,6.369,39.875z"/>
<path d="M42.031,11.117v38.255c3.167-0.469,5.599-3.19,5.599-6.487v-25.28C47.63,14.307,45.198,11.585,42.031,11.117z"/>
<path d="M51.521,17.713c-0.69,0-1.25,0.56-1.25,1.25s0.56,1.25,1.25,1.25c4.712,0,8.546,5.288,8.546,11.787
	s-3.833,11.787-8.546,11.787c-0.69,0-1.25,0.56-1.25,1.25s0.56,1.25,1.25,1.25c6.091,0,11.046-6.409,11.046-14.287
	S57.612,17.713,51.521,17.713z"/>
<path d="M50.495,37.998c-0.69,0-1.25,0.56-1.25,1.25s0.56,1.25,1.25,1.25c2.869,0,5.032-3.653,5.032-8.498s-2.164-8.498-5.032-8.498
	c-0.69,0-1.25,0.56-1.25,1.25s0.56,1.25,1.25,1.25c1.033,0,2.532,2.336,2.532,5.998S51.527,37.998,50.495,37.998z"/>
</svg>
