<?xml version="1.0" encoding="iso-8859-1"?>
<!-- Generator: Adobe Illustrator 17.0.0, SVG Export Plug-In . SVG Version: 6.00 Build 0)  -->
<!DOCTYPE svg PUBLIC "-//W3C//DTD SVG 1.1//EN" "http://www.w3.org/Graphics/SVG/1.1/DTD/svg11.dtd">
<svg version="1.1" id="Capa_1" xmlns="http://www.w3.org/2000/svg" xmlns:xlink="http://www.w3.org/1999/xlink" x="0px" y="0px"
	 width="64px" height="64px" viewBox="0 0 64 64" style="enable-background:new 0 0 64 64;" xml:space="preserve">
<g>
	<path d="M42.5,9.221c-3.639,0-6.86,2.602-9.132,6.811l-13.577,5.707h-5.833c-2.762,0-5,2.238-5,5v12.019c0,2.762,2.238,5,5,5h5.833
		v-0.019l14.513,4.273c2.185,3.276,5.033,5.244,8.196,5.244c7.033,0,12.542-9.671,12.542-22.018S49.533,9.221,42.5,9.221z
		 M33.18,20.104l-12.337,4.762H14c-0.276,0-0.5-0.224-0.5-0.5s0.224-0.5,0.5-0.5h6.657l12.163-4.695
		c0.257-0.096,0.547,0.029,0.647,0.287C33.565,19.715,33.437,20.005,33.18,20.104z M42.5,48.256c-2.631,0-5.487-3.981-6.802-9.985
		c0.301,0.086,0.61,0.135,0.928,0.135c2.668,0,4.832-3.209,4.832-7.166c0-3.958-2.164-7.167-4.832-7.167
		c-0.317,0-0.628,0.049-0.928,0.135c1.313-6.006,4.171-9.986,6.802-9.986c3.56,0,7.542,7.277,7.542,17.018
		C50.042,40.979,46.06,48.256,42.5,48.256z"/>
</g>
</svg>
