<?xml version="1.0" encoding="iso-8859-1"?>
<!-- Generator: Adobe Illustrator 17.0.0, SVG Export Plug-In . SVG Version: 6.00 Build 0)  -->
<!DOCTYPE svg PUBLIC "-//W3C//DTD SVG 1.1//EN" "http://www.w3.org/Graphics/SVG/1.1/DTD/svg11.dtd">
<svg version="1.1" id="Capa_1" xmlns="http://www.w3.org/2000/svg" xmlns:xlink="http://www.w3.org/1999/xlink" x="0px" y="0px"
	 width="64px" height="64px" viewBox="0 0 64 64" style="enable-background:new 0 0 64 64;" xml:space="preserve">
<g>
	<path d="M43.332,22.249v20.678c3.159-2.503,5.168-6.202,5.168-10.339C48.5,28.451,46.492,24.751,43.332,22.249z"/>
	<path d="M6.886,45.727l31.226,8.988c0.391,0.112,0.768,0.166,1.128,0.166c1.783,0,3.092-1.324,3.092-3.343v-7.889V21.527v-8.011
		c0-1.965-1.224-3.221-2.913-3.221c-0.396,0-0.817,0.069-1.254,0.214L6.834,20.914c-2.302,0.764-4.167,3.35-4.167,5.775v13.433
		C2.667,42.547,4.556,45.057,6.886,45.727z"/>
	<path d="M56.799,15.745c-1.433,1.002-2.988,1.791-4.549,2.571c-2.054,1.027-0.25,4.098,1.797,3.074
		c1.561-0.781,3.116-1.569,4.549-2.571c0.793-0.555,1.159-1.547,0.639-2.436C58.774,15.598,57.595,15.188,56.799,15.745z"/>
	<path d="M58.093,32.314h-3.956c-2.296,0-2.296,3.56,0,3.56h3.956C60.389,35.875,60.389,32.314,58.093,32.314z"/>
	<path d="M56.91,51.129c1.668,0.99,3.176-1.604,1.514-2.59c-1.626-0.965-3.309-1.821-5-2.667c-1.725-0.863-3.245,1.725-1.514,2.59
		C53.6,49.307,55.283,50.163,56.91,51.129z"/>
</g>
</svg>
