<?xml version="1.0" encoding="iso-8859-1"?>
<!-- Generator: Adobe Illustrator 16.0.4, SVG Export Plug-In . SVG Version: 6.00 Build 0)  -->
<!DOCTYPE svg PUBLIC "-//W3C//DTD SVG 1.1//EN" "http://www.w3.org/Graphics/SVG/1.1/DTD/svg11.dtd">
<svg version="1.1" id="Capa_1" xmlns="http://www.w3.org/2000/svg" xmlns:xlink="http://www.w3.org/1999/xlink" x="0px" y="0px"
	 width="64px" height="64px" viewBox="0 0 64 64" style="enable-background:new 0 0 64 64;" xml:space="preserve">
<path d="M36.529,5.906c-0.896,0-1.76,0.26-2.568,0.771L16.524,19.167h-5.89c-4.53,0-8.216,3.686-8.216,8.216V38.57
	c0.001,4.531,3.686,8.217,8.217,8.217h5.901l17.397,11.425l0.131,0.079c0.623,0.344,1.305,0.518,2.024,0.518c0,0,0,0,0.001,0
	c1.74,0,3.573-1.051,5.03-2.883c1.353-1.699,2.127-3.742,2.127-5.602v-35.74C43.247,11.046,40.63,5.906,36.529,5.906z
	 M39.248,50.325c0,0.944-0.482,2.137-1.258,3.112c-0.801,1.006-1.575,1.373-1.9,1.373l-0.074-0.017L17.732,42.787h-7.098
	c-2.325,0-4.216-1.891-4.216-4.217V27.383h0.001c0-2.325,1.891-4.216,4.216-4.216h7.175l18.331-13.133
	c0.217-0.128,0.346-0.128,0.391-0.128c1.048,0,2.717,2.554,2.717,4.678V50.325z M35.688,17.215c0.965,1.347,0.658,3.221-0.689,4.186
	L20.214,32H11.75c-1.657,0-3-1.343-3-3s1.343-3,3-3h6.536l13.216-9.475C32.848,15.558,34.723,15.868,35.688,17.215z M59.5,30.358v4
	H48v-4H59.5z M51.096,44.877l8.133,8.132l-2.829,2.829l-8.132-8.133L51.096,44.877z M51.098,19.837l-2.829-2.829L56.4,8.877
	l2.828,2.828L51.098,19.837z"/>
</svg>
