<?xml version="1.0" encoding="iso-8859-1"?>
<!-- Generator: Adobe Illustrator 17.0.0, SVG Export Plug-In . SVG Version: 6.00 Build 0)  -->
<!DOCTYPE svg PUBLIC "-//W3C//DTD SVG 1.1//EN" "http://www.w3.org/Graphics/SVG/1.1/DTD/svg11.dtd">
<svg version="1.1" id="Capa_1" xmlns="http://www.w3.org/2000/svg" xmlns:xlink="http://www.w3.org/1999/xlink" x="0px" y="0px"
	 width="64px" height="64px" viewBox="0 0 64 64" style="enable-background:new 0 0 64 64;" xml:space="preserve">
<g>
	<path d="M48,9.221c-3.639,0-6.86,2.602-9.132,6.811l-26.577,5.707H8.458c-2.762,0-5,2.238-5,5v12.019c0,2.762,2.238,5,5,5h3.833
		l2-0.019l1.634,0.273l-0.087,0.371c-0.32,1.371-0.077,2.784,0.684,3.978c0.791,1.241,2.037,2.094,3.51,2.402l8.92,1.872
		c0.379,0.08,0.76,0.119,1.138,0.119c1.059,0,2.093-0.309,2.995-0.904c1.224-0.808,2.056-2.047,2.344-3.49l0.209-1.046l4.167,0.698
		c2.185,3.276,5.033,5.244,8.196,5.244c7.033,0,12.542-9.671,12.542-22.018S55.033,9.221,48,9.221z M32.486,47.771
		c-0.131,0.652-0.505,1.212-1.056,1.575c-0.551,0.363-1.213,0.489-1.864,0.353l-8.92-1.872c-0.676-0.142-1.242-0.525-1.596-1.079
		c-0.322-0.507-0.426-1.105-0.291-1.684l0.13-0.556l13.787,2.31L32.486,47.771z M48,48.256c-2.631,0-5.487-3.981-6.802-9.985
		c0.301,0.086,0.61,0.135,0.928,0.135c2.668,0,4.832-3.209,4.832-7.166c0-3.958-2.164-7.167-4.832-7.167
		c-0.317,0-0.628,0.049-0.928,0.135c1.313-6.006,4.171-9.986,6.802-9.986c3.56,0,7.542,7.277,7.542,17.018
		C55.542,40.979,51.56,48.256,48,48.256z"/>
</g>
</svg>
