<?xml version="1.0" encoding="iso-8859-1"?>
<!-- Generator: Adobe Illustrator 17.0.0, SVG Export Plug-In . SVG Version: 6.00 Build 0)  -->
<!DOCTYPE svg PUBLIC "-//W3C//DTD SVG 1.1//EN" "http://www.w3.org/Graphics/SVG/1.1/DTD/svg11.dtd">
<svg version="1.1" id="Capa_1" xmlns="http://www.w3.org/2000/svg" xmlns:xlink="http://www.w3.org/1999/xlink" x="0px" y="0px"
	 width="64px" height="64px" viewBox="0 0 64 64" style="enable-background:new 0 0 64 64;" xml:space="preserve">
<path d="M56.934,25.485l-12.688-1.474c-1.855-0.216-4.021-1.749-4.839-3.427l-5.982-12.27c-0.817-1.678-2.145-1.678-2.963,0
	l-5.982,12.27c-0.817,1.678-2.983,3.211-4.839,3.427L6.953,25.485c-1.855,0.215-2.277,1.449-0.945,2.756l10.443,10.248
	c1.332,1.308,2.055,3.838,1.617,5.652l-2.85,11.773c-0.439,1.813,0.504,2.508,2.105,1.55l11.719-7.007
	c1.601-0.957,4.199-0.957,5.801,0l11.719,7.007c1.602,0.958,2.545,0.264,2.106-1.55l-2.85-11.773
	c-0.438-1.815,0.285-4.345,1.617-5.652l10.443-10.248C59.211,26.935,58.788,25.7,56.934,25.485z M38.311,32.437
	c-0.108,0.102-0.332,0.102-0.499,0c-0.168-0.104-0.297-0.537-0.468-0.916c-0.094-0.207-0.241-0.418-0.473-0.572
	c-0.316-0.211-1.108-0.414-1.854-0.693v7.497c0,0.086-0.01,0.171-0.025,0.255c-0.032,1.898-1.672,3.679-3.993,4.172
	c-2.626,0.558-5.127-0.742-5.585-2.904c-0.459-2.16,1.298-4.364,3.924-4.922c0.958-0.203,1.898-0.157,2.73,0.086V26.12
	c0-0.814,0.66-1.475,1.475-1.475c0.814,0,1.475,0.66,1.475,1.475V27c0.285,0.146,0.616,0.292,0.992,0.423
	c1.44,0.5,2.408,1.674,2.498,2.908c0.025,0.37,0.037,0.691,0.039,0.959C38.55,31.821,38.42,32.333,38.311,32.437z"/>
</svg>
