<?xml version="1.0" encoding="iso-8859-1"?>
<!-- Generator: Adobe Illustrator 17.0.0, SVG Export Plug-In . SVG Version: 6.00 Build 0)  -->
<!DOCTYPE svg PUBLIC "-//W3C//DTD SVG 1.1//EN" "http://www.w3.org/Graphics/SVG/1.1/DTD/svg11.dtd">
<svg version="1.1" id="Capa_1" xmlns="http://www.w3.org/2000/svg" xmlns:xlink="http://www.w3.org/1999/xlink" x="0px" y="0px"
	 width="64px" height="64px" viewBox="0 0 64 64" style="enable-background:new 0 0 64 64;" xml:space="preserve">
<g>
	<path d="M19.304,58.372c-0.262,0-0.526-0.016-0.791-0.048c-1.77-0.216-3.342-1.138-4.427-2.595
		c-1.069-1.437-1.536-3.224-1.314-5.032c0.101-0.823,0.856-1.392,1.671-1.308c0.822,0.101,1.407,0.849,1.307,1.671
		c-0.127,1.041,0.137,2.062,0.743,2.877c0.59,0.793,1.437,1.293,2.384,1.408c0.948,0.122,1.891-0.165,2.655-0.792
		c0.785-0.645,1.287-1.572,1.414-2.613c0.101-0.823,0.852-1.393,1.671-1.308c0.822,0.101,1.407,0.849,1.307,1.671
		c-0.221,1.811-1.104,3.433-2.488,4.568C22.242,57.853,20.798,58.372,19.304,58.372z"/>
</g>
<g>
	<path d="M53.813,28.498c-0.195,0-0.39-0.008-0.586-0.023c-0.826-0.066-1.441-0.79-1.375-1.616c0.066-0.825,0.778-1.441,1.616-1.374
		c1.045,0.081,2.057-0.221,2.844-0.859c0.768-0.622,1.233-1.488,1.31-2.44c0.078-0.953-0.242-1.884-0.9-2.621
		c-0.676-0.758-1.624-1.221-2.668-1.306c-0.826-0.066-1.441-0.79-1.374-1.616c0.066-0.825,0.775-1.431,1.616-1.374
		c1.817,0.146,3.474,0.964,4.665,2.299c1.209,1.356,1.796,3.082,1.652,4.859c-0.144,1.777-1,3.386-2.411,4.529
		C56.961,27.961,55.421,28.498,53.813,28.498z"/>
</g>
<g>
	<path d="M42.271,47.938c-1.754,0-3.438-0.667-4.75-1.883c-0.608-0.563-0.644-1.513-0.081-2.12c0.562-0.608,1.512-0.645,2.12-0.081
		c0.769,0.713,1.761,1.075,2.767,1.083c0.988-0.014,1.89-0.407,2.538-1.107c0.649-0.7,0.974-1.63,0.913-2.616
		c-0.063-1.013-0.521-1.964-1.29-2.676c-0.607-0.564-0.644-1.513-0.081-2.12c0.563-0.608,1.512-0.645,2.12-0.081
		c1.337,1.239,2.135,2.905,2.245,4.692c0.112,1.813-0.494,3.532-1.706,4.84c-1.211,1.308-2.879,2.042-4.696,2.068
		C42.336,47.937,42.304,47.938,42.271,47.938z"/>
</g>
<path d="M55.71,20.476c-0.418-0.469-1.011-0.756-1.671-0.81c-0.798-0.064-1.524-0.436-2.043-1.047
	c-0.519-0.61-0.769-1.387-0.705-2.186c0.045-0.558,0.246-1.059,0.545-1.481l-4.649-5.017c-0.249-0.383-0.523-0.749-0.832-1.091
	c-0.36-0.399-0.757-0.756-1.179-1.079l-0.009-0.01l-0.002,0.002c-6.09-4.644-18.312-1.509-28.388,7.594
	C5.996,25.092,1.756,37.972,7.31,44.118c0.275,0.305,0.583,0.57,0.895,0.831l-0.013,0.013l4.465,4.221
	c0.574-0.4,1.285-0.616,2.042-0.54c0.824,0.101,1.534,0.502,2.027,1.133c0.494,0.632,0.712,1.417,0.614,2.213
	c-0.08,0.656,0.083,1.295,0.458,1.799c0.343,0.46,0.826,0.749,1.362,0.814c0.607,0.08,1.073-0.094,1.522-0.462
	c0.485-0.398,0.796-0.979,0.877-1.637c0.196-1.604,1.663-2.78,3.316-2.617c0.821,0.101,1.531,0.502,2.025,1.133
	c0.494,0.632,0.712,1.417,0.614,2.213c-0.062,0.508-0.172,1.002-0.318,1.481c3.125-0.936,6.995-2.725,11.249-6.095
	c-0.66-0.349-1.281-0.781-1.842-1.301c-1.213-1.125-1.286-3.027-0.161-4.24c1.076-1.166,3.071-1.246,4.239-0.161
	c0.47,0.435,1.094,0.678,1.759,0.683c0.541-0.008,1.059-0.23,1.426-0.627c0.369-0.397,0.551-0.931,0.516-1.504
	c-0.039-0.627-0.327-1.219-0.812-1.668c-1.214-1.126-1.286-3.027-0.162-4.24c1.079-1.166,3.07-1.245,4.239-0.162
	c0.623,0.577,1.147,1.232,1.567,1.942c2.228-2.861,3.845-5.339,5.019-7.443c-0.104,0.004-0.208,0.014-0.313,0.014
	c-0.234,0-0.47-0.01-0.705-0.028c-0.8-0.064-1.526-0.435-2.046-1.047c-0.519-0.61-0.769-1.387-0.705-2.186
	c0.133-1.652,1.548-2.882,3.231-2.748c0.632,0.042,1.293-0.135,1.779-0.529c0.446-0.361,0.716-0.858,0.759-1.395
	C56.278,21.437,56.092,20.903,55.71,20.476z M37.377,38.114C27.499,47.037,15.243,49.565,10,43.761
	c-5.244-5.803-1.487-17.742,8.389-26.665c9.876-8.922,22.134-11.45,27.377-5.646C51.01,17.254,47.252,29.192,37.377,38.114z"/>
</svg>
