<?xml version="1.0" encoding="iso-8859-1"?>
<!-- Generator: Adobe Illustrator 17.0.0, SVG Export Plug-In . SVG Version: 6.00 Build 0)  -->
<!DOCTYPE svg PUBLIC "-//W3C//DTD SVG 1.1//EN" "http://www.w3.org/Graphics/SVG/1.1/DTD/svg11.dtd">
<svg version="1.1" id="Capa_1" xmlns="http://www.w3.org/2000/svg" xmlns:xlink="http://www.w3.org/1999/xlink" x="0px" y="0px"
	 width="64px" height="64px" viewBox="0 0 64 64" style="enable-background:new 0 0 64 64;" xml:space="preserve">
<path d="M56.965,37.633c-0.955-1.741-2.678-2.791-4.518-2.961c0.066-0.666,0.104-1.34,0.104-2.023c0-2.843-0.58-5.549-1.627-8.01
	c0.146-0.065,0.293-0.133,0.436-0.211c2.783-1.526,3.801-5.022,2.273-7.806c-1.527-2.785-5.021-3.803-7.807-2.275
	c-0.76,0.417-1.383,0.983-1.863,1.64c-3.137-2.246-6.926-3.619-11.033-3.793c0.078-0.378,0.119-0.769,0.119-1.17
	c0-3.176-2.574-5.75-5.75-5.75c-3.176,0-5.75,2.574-5.75,5.75c0,1.277,0.422,2.453,1.127,3.408
	c-2.934,1.512-5.449,3.708-7.346,6.382c-1.766-1.543-4.371-1.909-6.547-0.716C6,21.626,4.98,25.121,6.51,27.905
	c1.061,1.934,3.068,3.013,5.129,2.982c-0.049,0.582-0.088,1.167-0.088,1.762c0,3.497,0.879,6.787,2.424,9.668
	c-0.027,0.015-0.055,0.025-0.082,0.04c-2.785,1.528-3.803,5.024-2.275,7.807c1.527,2.785,5.023,3.804,7.809,2.275
	c0.953-0.523,1.695-1.281,2.203-2.159c3.057,1.811,6.611,2.869,10.422,2.869c0.047,0,0.092-0.007,0.137-0.007
	c0.57,2.577,2.863,4.507,5.613,4.507c3.176,0,5.75-2.574,5.75-5.75c0-0.721-0.139-1.407-0.381-2.043
	c2.027-1.313,3.799-2.976,5.248-4.902c1.756,1.349,4.209,1.617,6.273,0.484C57.475,43.912,58.492,40.416,56.965,37.633z
	 M31.736,48.649c-8.836,0-16-7.163-16-16s7.164-16,16-16c8.838,0,16,7.163,16,16S40.574,48.649,31.736,48.649z"/>
</svg>
