<?xml version="1.0" encoding="iso-8859-1"?>
<!-- Generator: Adobe Illustrator 17.0.0, SVG Export Plug-In . SVG Version: 6.00 Build 0)  -->
<!DOCTYPE svg PUBLIC "-//W3C//DTD SVG 1.1//EN" "http://www.w3.org/Graphics/SVG/1.1/DTD/svg11.dtd">
<svg version="1.1" id="Capa_1" xmlns="http://www.w3.org/2000/svg" xmlns:xlink="http://www.w3.org/1999/xlink" x="0px" y="0px"
	 width="64px" height="64px" viewBox="0 0 64 64" style="enable-background:new 0 0 64 64;" xml:space="preserve">
<path d="M22.7,1.925H11.94c-0.588,0-1.065,0.477-1.065,1.065v51.756c0,0.588,0.477,1.065,1.065,1.065h2.741v3.069h5.278V55.81H22.7
	c0.588,0,1.065-0.477,1.065-1.065V2.99C23.764,2.402,23.288,1.925,22.7,1.925z M17.32,5.284c1.523,0,2.762,1.239,2.762,2.762
	c0,1.523-1.239,2.763-2.762,2.763s-2.762-1.239-2.762-2.763C14.558,6.523,15.797,5.284,17.32,5.284z M17.32,52.742
	c-2.938,0-5.319-2.381-5.319-5.319s2.381-5.319,5.319-5.319s5.319,2.381,5.319,5.319S20.258,52.742,17.32,52.742z M17.32,39.092
	c-2.938,0-5.319-2.381-5.319-5.319s2.381-5.319,5.319-5.319s5.319,2.381,5.319,5.319S20.258,39.092,17.32,39.092z M17.32,25.442
	c-2.938,0-5.319-2.381-5.319-5.319c0-2.938,2.381-5.319,5.319-5.319s5.319,2.381,5.319,5.319
	C22.639,23.061,20.258,25.442,17.32,25.442z"/>
<circle cx="17.32" cy="8.046" r="1.762"/>
<rect x="11.726" y="60.172" width="11.188" height="1.938"/>
<path d="M17.32,15.741c-2.42,0-4.382,1.962-4.382,4.382c0,2.42,1.962,4.382,4.382,4.382c2.42,0,4.382-1.962,4.382-4.382
	C21.702,17.703,19.74,15.741,17.32,15.741z M17.32,22.255c-1.177,0-2.132-0.955-2.132-2.132c0-1.177,0.955-2.132,2.132-2.132
	s2.132,0.954,2.132,2.132C19.452,21.3,18.497,22.255,17.32,22.255z"/>
<path d="M17.32,29.391c-2.42,0-4.382,1.962-4.382,4.382c0,2.42,1.962,4.382,4.382,4.382c2.42,0,4.382-1.962,4.382-4.382
	C21.702,31.353,19.74,29.391,17.32,29.391z M17.32,35.905c-1.177,0-2.132-0.955-2.132-2.132s0.955-2.132,2.132-2.132
	s2.132,0.955,2.132,2.132S18.497,35.905,17.32,35.905z"/>
<path d="M17.32,43.041c-2.42,0-4.382,1.962-4.382,4.382c0,2.42,1.962,4.382,4.382,4.382c2.42,0,4.382-1.962,4.382-4.382
	C21.702,45.003,19.74,43.041,17.32,43.041z M17.32,49.555c-1.177,0-2.132-0.955-2.132-2.132s0.955-2.132,2.132-2.132
	s2.132,0.955,2.132,2.132S18.497,49.555,17.32,49.555z"/>
<path d="M52.249,54.746V2.99c0-0.588-0.477-1.065-1.065-1.065H40.425c-0.588,0-1.065,0.477-1.065,1.065v51.756
	c0,0.588,0.477,1.065,1.065,1.065h2.741v3.069h5.278V55.81h2.741C51.773,55.81,52.249,55.334,52.249,54.746z M45.805,5.284
	c1.523,0,2.762,1.239,2.762,2.762c0,1.523-1.239,2.763-2.762,2.763s-2.762-1.239-2.762-2.763
	C43.043,6.523,44.282,5.284,45.805,5.284z M45.805,52.742c-2.938,0-5.319-2.381-5.319-5.319s2.381-5.319,5.319-5.319
	s5.319,2.381,5.319,5.319S48.743,52.742,45.805,52.742z M45.805,39.092c-2.938,0-5.319-2.381-5.319-5.319s2.381-5.319,5.319-5.319
	s5.319,2.381,5.319,5.319S48.743,39.092,45.805,39.092z M45.805,25.442c-2.938,0-5.319-2.381-5.319-5.319
	c0-2.938,2.381-5.319,5.319-5.319s5.319,2.381,5.319,5.319C51.124,23.061,48.743,25.442,45.805,25.442z"/>
<circle cx="45.805" cy="8.046" r="1.762"/>
<rect x="40.211" y="60.172" width="11.188" height="1.938"/>
<path d="M45.805,15.741c-2.42,0-4.382,1.962-4.382,4.382c0,2.42,1.962,4.382,4.382,4.382c2.42,0,4.382-1.962,4.382-4.382
	C50.187,17.703,48.225,15.741,45.805,15.741z M45.805,22.255c-1.177,0-2.132-0.955-2.132-2.132c0-1.177,0.955-2.132,2.132-2.132
	s2.132,0.954,2.132,2.132C47.937,21.3,46.982,22.255,45.805,22.255z"/>
<path d="M45.805,29.391c-2.42,0-4.382,1.962-4.382,4.382c0,2.42,1.962,4.382,4.382,4.382c2.42,0,4.382-1.962,4.382-4.382
	C50.187,31.353,48.225,29.391,45.805,29.391z M45.805,35.905c-1.177,0-2.132-0.955-2.132-2.132s0.955-2.132,2.132-2.132
	s2.132,0.955,2.132,2.132S46.982,35.905,45.805,35.905z"/>
<path d="M45.805,43.041c-2.42,0-4.382,1.962-4.382,4.382c0,2.42,1.962,4.382,4.382,4.382c2.42,0,4.382-1.962,4.382-4.382
	C50.187,45.003,48.225,43.041,45.805,43.041z M45.805,49.555c-1.177,0-2.132-0.955-2.132-2.132s0.955-2.132,2.132-2.132
	s2.132,0.955,2.132,2.132S46.982,49.555,45.805,49.555z"/>
</svg>
