<?xml version="1.0" encoding="iso-8859-1"?>
<!-- Generator: Adobe Illustrator 17.0.0, SVG Export Plug-In . SVG Version: 6.00 Build 0)  -->
<!DOCTYPE svg PUBLIC "-//W3C//DTD SVG 1.1//EN" "http://www.w3.org/Graphics/SVG/1.1/DTD/svg11.dtd">
<svg version="1.1" id="Capa_1" xmlns="http://www.w3.org/2000/svg" xmlns:xlink="http://www.w3.org/1999/xlink" x="0px" y="0px"
	 width="64px" height="64px" viewBox="0 0 64 64" style="enable-background:new 0 0 64 64;" xml:space="preserve">
<path d="M61,42.248V16.252C61,14.456,59.544,13,57.748,13H5.751C4.234,13,3,14.234,3,15.752v26.496C3,43.766,4.234,45,5.751,45
	h52.497C59.766,45,61,43.766,61,42.248z M56,40H8V17h48V40z"/>
<path d="M5.252,46h0.5C3.683,46,2,44.316,2,42.248v0.5C2,44.544,3.456,46,5.252,46z"/>
<polygon points="27.775,46 26.691,51 37.53,51 36.446,46 "/>
<rect x="25" y="52" width="14" height="2"/>
<path d="M26.923,36.727c0.74-0.74,1.165-1.645,1.253-2.497h0.014v-0.158c0.006-0.121,0.008-0.241,0-0.359v-8.341l10.455-2.802v7.434
	c-1.124-0.889-3.015-0.575-4.36,0.77c-1.423,1.423-1.694,3.46-0.604,4.549c1.089,1.089,3.126,0.819,4.549-0.604
	c0.874-0.874,1.311-1.978,1.268-2.953h0.002v-9.426v-0.108V19l-12.064,3.233h-0.1v0.027v3.341v6.407
	c-1.124-0.885-3.013-0.571-4.357,0.773c-1.423,1.423-1.694,3.46-0.604,4.549C23.463,38.421,25.5,38.15,26.923,36.727z"/>
</svg>
