<?xml version="1.0" encoding="iso-8859-1"?>
<!-- Generator: Adobe Illustrator 17.0.0, SVG Export Plug-In . SVG Version: 6.00 Build 0)  -->
<!DOCTYPE svg PUBLIC "-//W3C//DTD SVG 1.1//EN" "http://www.w3.org/Graphics/SVG/1.1/DTD/svg11.dtd">
<svg version="1.1" id="Capa_1" xmlns="http://www.w3.org/2000/svg" xmlns:xlink="http://www.w3.org/1999/xlink" x="0px" y="0px"
	 width="64px" height="64px" viewBox="0 0 64 64" style="enable-background:new 0 0 64 64;" xml:space="preserve">
<g>
	<path d="M48.863,18.164c0,0,2.068-1.16,4.034-0.404c0,0,4.589-7.111,9.784-10.288c0,0-1.934-1.928-3.922-2.331
		c-0.404-1.989-2.331-3.922-2.331-3.922c-3.177,5.194-10.288,9.784-10.288,9.784c0.756,1.967-0.403,4.034-0.403,4.034l0.002,0.002
		l-7.817,7.94l-2.201-2.201c-2.167-2.167-5.679-2.167-7.846,0c-0.291,0.29-0.539,0.607-0.751,0.939
		c-1.124,1.564-1.632,3.599-2.215,5.493c-0.84,2.73-4.883,3.833-9.346,4.411c-2.194,0.284-4.279,1.209-5.833,2.076
		c-1.239,0.542-2.374,1.3-3.356,2.282c-5.211,5.211-2.885,13.464,3.639,19.988s14.778,8.85,19.988,3.639
		c0.212-0.212,0.41-0.433,0.601-0.659l0.002,0.002c0,0,0.025-0.032,0.069-0.089c0.431-0.519,0.808-1.072,1.131-1.654
		c0.982-1.587,2.263-4.083,2.607-6.736c0.578-4.463,1.68-8.506,4.411-9.346c2.637-0.811,5.545-1.481,7.074-3.868
		c0.016-0.024,0.03-0.048,0.046-0.072c0.038-0.061,0.079-0.118,0.115-0.182l-0.003-0.009c1.254-2.127,0.973-4.908-0.853-6.735
		l-4.175-4.175l7.817-7.94L48.863,18.164z"/>
</g>
</svg>
