<?xml version="1.0" encoding="iso-8859-1"?>
<!-- Generator: Adobe Illustrator 17.0.0, SVG Export Plug-In . SVG Version: 6.00 Build 0)  -->
<!DOCTYPE svg PUBLIC "-//W3C//DTD SVG 1.1//EN" "http://www.w3.org/Graphics/SVG/1.1/DTD/svg11.dtd">
<svg version="1.1" id="Capa_1" xmlns="http://www.w3.org/2000/svg" xmlns:xlink="http://www.w3.org/1999/xlink" x="0px" y="0px"
	 width="64px" height="64px" viewBox="0 0 64 64" style="enable-background:new 0 0 64 64;" xml:space="preserve">
<path d="M38.022,38.021l-7.251-0.58l2.43-6.734c0.316-0.875-0.137-1.84-1.013-2.156c-0.875-0.317-1.84,0.137-2.156,1.013
	l-2.742,7.598l-5.038-0.403l9.028-14.377c-0.371-0.276-0.675-0.651-0.856-1.109c-0.145-0.367-1.007-2.845-0.021-6.997L15.757,37.602
	c-0.47,0.749-0.515,1.688-0.118,2.477c0.396,0.79,1.176,1.315,2.056,1.385l7.817,0.625l-5.585,15.477
	c-0.316,0.875,0.137,1.839,1.012,2.155c0.189,0.068,0.382,0.101,0.572,0.101c0.69,0,1.337-0.427,1.584-1.113l5.897-16.341
	l8.627,0.69c0.068,0.006,0.136,0.008,0.204,0.008c1.304,0,2.41-1.002,2.515-2.325C40.45,39.351,39.413,38.133,38.022,38.021z"/>
<path d="M43.546,33.358l-8.054-18.554c-0.853,3.013-0.351,4.657-0.343,4.68c0.512,1.298-0.137,2.732-1.434,3.245
	c-0.085,0.034-0.173,0.051-0.259,0.075l5.456,12.566c0.556,1.28,2.044,1.869,3.323,1.312C43.515,36.126,44.103,34.638,43.546,33.358
	z"/>
<path d="M32.867,22.004c0.199,0,0.401-0.036,0.599-0.11c0.86-0.32,1.299-1.287,0.994-2.153c-0.012-0.034-1.175-3.513,2.212-9.648
	c0.45-0.814,0.154-1.839-0.66-2.289c-0.815-0.449-1.839-0.154-2.289,0.661c-4.158,7.53-2.6,12-2.408,12.486
	C31.575,21.608,32.2,22.004,32.867,22.004z"/>
</svg>
