<?xml version="1.0" encoding="iso-8859-1"?>
<!-- Generator: Adobe Illustrator 17.0.0, SVG Export Plug-In . SVG Version: 6.00 Build 0)  -->
<!DOCTYPE svg PUBLIC "-//W3C//DTD SVG 1.1//EN" "http://www.w3.org/Graphics/SVG/1.1/DTD/svg11.dtd">
<svg version="1.1" id="Capa_1" xmlns="http://www.w3.org/2000/svg" xmlns:xlink="http://www.w3.org/1999/xlink" x="0px" y="0px"
	 width="64px" height="64px" viewBox="0 0 64 64" style="enable-background:new 0 0 64 64;" xml:space="preserve">
<g>
	<path d="M9.382,41.282c-0.329-0.378-0.502-0.775-0.472-1.175c0.129-1.704,3.777-2.816,8.147-2.484
		c0.162,0.012,0.321,0.03,0.48,0.046c0.003,0,0.004-0.001,0.007-0.001c2.749,0.089,7.317,1.936,7.317,1.936
		c0.861,2.098,1.339,3.967,1.602,5.288c0.072,0.347,0.304,1.997,0.304,1.997s0.033,0.322,0.045,0.487
		c0.332,4.37-0.781,8.018-2.484,8.147c-0.379,0.029-0.754-0.128-1.114-0.423c-0.36,2.242,0.643,5.188,1.628,7.396l0.654,0.654
		l17.257-34.515c-0.485-2.411,0.152-3.552,0.208-3.647l8.299-8.43c0,0-0.085-1.363,1.077-1.038
		c1.162,0.325,10.365-6.972,10.365-6.972l-7.39,0.511l0.511-7.39c0,0-7.297,9.203-6.972,10.365c0.325,1.162-0.997,1.17-0.997,1.17
		l-8.259,8.389l-0.003-0.003c-1.654,0.935-3.762,0.122-3.762,0.122L1.314,38.97l0.487,0.487C5.484,41.103,8.041,41.332,9.382,41.282
		z"/>
</g>
</svg>
