<?xml version="1.0" encoding="iso-8859-1"?>
<!-- Generator: Adobe Illustrator 17.0.0, SVG Export Plug-In . SVG Version: 6.00 Build 0)  -->
<!DOCTYPE svg PUBLIC "-//W3C//DTD SVG 1.1//EN" "http://www.w3.org/Graphics/SVG/1.1/DTD/svg11.dtd">
<svg version="1.1" id="Capa_1" xmlns="http://www.w3.org/2000/svg" xmlns:xlink="http://www.w3.org/1999/xlink" x="0px" y="0px"
	 width="64px" height="64px" viewBox="0 0 64 64" style="enable-background:new 0 0 64 64;" xml:space="preserve">
<path d="M24.291,57.627c2.107,1.735,4.965,2.599,7.826,2.599c2.929,0,5.862-0.905,7.996-2.709
	c12.348-10.435,33.04-35.572,14.395-47.218c-8.011-5.004-15.869-6.63-22.704-6.63v4h0.001c7.26,0,14.185,2.026,20.584,6.023
	c3.483,2.175,5.298,4.927,5.548,8.412c0.751,10.454-11.792,25.079-20.406,32.358c-1.326,1.121-3.3,1.764-5.414,1.764
	c-2.056,0-3.982-0.615-5.284-1.687C18.144,47.385,5.44,32.838,6.053,22.084c0.219-3.836,2.181-6.911,5.998-9.4
	c0.571-0.339,8.664-5.014,19.75-5.014l0.003-4c-0.001,0-0.002,0-0.003,0C19.094,3.67,9.928,9.293,9.928,9.293
	C-9.589,21.936,11.677,47.241,24.291,57.627z"/>
</svg>
