<?xml version="1.0" encoding="iso-8859-1"?>
<!-- Generator: Adobe Illustrator 17.0.0, SVG Export Plug-In . SVG Version: 6.00 Build 0)  -->
<!DOCTYPE svg PUBLIC "-//W3C//DTD SVG 1.1//EN" "http://www.w3.org/Graphics/SVG/1.1/DTD/svg11.dtd">
<svg version="1.1" id="Capa_1" xmlns="http://www.w3.org/2000/svg" xmlns:xlink="http://www.w3.org/1999/xlink" x="0px" y="0px"
	 width="64px" height="64px" viewBox="0 0 64 64" style="enable-background:new 0 0 64 64;" xml:space="preserve">
<g>
	<polygon points="55.113,25.658 55.113,28.129 52.801,30.44 52.801,32.991 55.113,34.513 55.113,36.658 58.939,36.658 
		58.939,25.658 	"/>
	<path d="M47.494,27.969h-1.262v-1.594h2.377v-1.833h-7.094v1.833h2.375v1.594h-1.26v2.065c-1.402-0.016-2.881-0.034-4.385-0.055
		v-2.01h-1.26v-4.145h2.377v-1.833h-7.096v1.833h2.377v4.145h-1.26v1.935c-1.524-0.027-3.004-0.057-4.385-0.088v-1.846h-1.26v-1.594
		h2.375v-1.833h-7.094v1.833h2.377v1.594h-1.262v1.702c-0.844-0.034-1.559-0.069-2.103-0.107c-5.74-0.398-18.016-8.688-18.016-8.688
		C2.264,35.383,4.574,42.317,4.574,42.317s11.521-5.723,16.67-7.361c-0.764,0.791-1.205,1.706-1.205,2.738
		c0,4.143,7.076,6.377,13.734,6.377s13.734-2.234,13.734-6.377c0-1.944-1.568-3.462-3.912-4.532
		c4.812-0.169,8.488-0.251,8.488-0.251v-2.79c0,0-1.828-0.012-4.59-0.037V27.969z M44.957,37.694c0,1.561-4.357,3.826-11.184,3.826
		c-6.826,0-11.184-2.266-11.184-3.826c0-1.561,4.358-3.826,11.184-3.826C40.6,33.868,44.957,36.134,44.957,37.694z"/>
</g>
</svg>
