<?xml version="1.0" encoding="iso-8859-1"?>
<!-- Generator: Adobe Illustrator 17.0.0, SVG Export Plug-In . SVG Version: 6.00 Build 0)  -->
<!DOCTYPE svg PUBLIC "-//W3C//DTD SVG 1.1//EN" "http://www.w3.org/Graphics/SVG/1.1/DTD/svg11.dtd">
<svg version="1.1" id="Capa_1" xmlns="http://www.w3.org/2000/svg" xmlns:xlink="http://www.w3.org/1999/xlink" x="0px" y="0px"
	 width="64px" height="64px" viewBox="0 0 64 64" style="enable-background:new 0 0 64 64;" xml:space="preserve">
<path d="M47.169,47.635c4.301-2.793,5.923-7.927,3.623-11.467c-2.299-3.539-7.649-4.143-11.95-1.349
	c-0.123,0.08-0.229,0.174-0.349,0.258l-0.054-0.473V18.713c0-1.555-1.261-2.816-2.815-2.816c-1.556,0-2.816,1.261-2.816,2.816
	v22.222c0,0.164,0.019,0.326,0.047,0.487c0.061,3.51,2.212,6.883,6.787,7.776c0.094,0.021,0.188,0.038,0.28,0.055
	c0.062,0.01,0.119,0.025,0.182,0.035l-0.001-0.008C42.351,49.627,44.903,49.107,47.169,47.635z M39.871,40.261
	c0.535-2.517,2.646-4.2,4.718-3.761c2.07,0.44,3.316,2.836,2.782,5.353c-0.535,2.517-2.646,4.199-4.718,3.761
	C40.583,45.173,39.338,42.777,39.871,40.261z"/>
<path d="M26.989,50.867c1.611,0,2.917-1.306,2.917-2.916v-22.6c0-0.925-0.439-1.795-1.183-2.344
	c-0.743-0.55-1.705-0.713-2.588-0.444l-8.141,2.491v-7.722c0-1.61-1.306-2.916-2.916-2.916c-1.61,0-2.916,1.306-2.916,2.916v21.141
	c0,0.915,0.43,1.777,1.16,2.328c0.512,0.387,1.13,0.589,1.756,0.589c0.268,0,0.537-0.037,0.801-0.112l8.193-2.34v9.013
	C24.073,49.561,25.379,50.867,26.989,50.867z M17.995,34.608v-3.454l6.078-1.86v3.578L17.995,34.608z"/>
</svg>
