<?xml version="1.0" encoding="iso-8859-1"?>
<!-- Generator: Adobe Illustrator 17.0.0, SVG Export Plug-In . SVG Version: 6.00 Build 0)  -->
<!DOCTYPE svg PUBLIC "-//W3C//DTD SVG 1.1//EN" "http://www.w3.org/Graphics/SVG/1.1/DTD/svg11.dtd">
<svg version="1.1" id="Capa_1" xmlns="http://www.w3.org/2000/svg" xmlns:xlink="http://www.w3.org/1999/xlink" x="0px" y="0px"
	 width="64px" height="64px" viewBox="0 0 64 64" style="enable-background:new 0 0 64 64;" xml:space="preserve">
<circle cx="31.545" cy="31.137" r="2.123"/>
<path d="M31.545,20.645c-5.786,0-10.493,4.707-10.493,10.492c0,5.787,4.707,10.494,10.493,10.494
	c5.786,0,10.493-4.707,10.493-10.494C42.038,25.352,37.331,20.645,31.545,20.645z M31.545,39.098c-4.396,0-7.961-3.562-7.961-7.961
	c0-4.396,3.564-7.961,7.961-7.961s7.961,3.564,7.961,7.961C39.506,35.535,35.941,39.098,31.545,39.098z"/>
<path d="M31.545,3.805c-15.096,0-27.333,12.236-27.333,27.332s12.237,27.334,27.333,27.334s27.333-12.238,27.333-27.334
	S46.641,3.805,31.545,3.805z M31.545,43.631c-6.889,0-12.493-5.606-12.493-12.494s5.604-12.492,12.493-12.492
	c6.889,0,12.493,5.603,12.493,12.492S38.434,43.631,31.545,43.631z"/>
</svg>
