<?xml version="1.0" encoding="iso-8859-1"?>
<!-- Generator: Adobe Illustrator 17.0.0, SVG Export Plug-In . SVG Version: 6.00 Build 0)  -->
<!DOCTYPE svg PUBLIC "-//W3C//DTD SVG 1.1//EN" "http://www.w3.org/Graphics/SVG/1.1/DTD/svg11.dtd">
<svg version="1.1" id="Capa_1" xmlns="http://www.w3.org/2000/svg" xmlns:xlink="http://www.w3.org/1999/xlink" x="0px" y="0px"
	 width="64px" height="64px" viewBox="0 0 64 64" style="enable-background:new 0 0 64 64;" xml:space="preserve">
<path d="M62,13H2v41h60V13z M13.419,15.305c0.226,0.314,0.266,0.719,0.114,1.171c-0.106,0.317-0.233,0.656-0.369,1.006
	c-0.614,0.244-1.086,0.288-1.41,0.123c-0.317-0.162-0.556-0.568-0.715-1.185c0.084-0.234,0.18-0.483,0.255-0.706
	c0.193-0.575,0.604-0.904,1.13-0.904C12.817,14.81,13.198,14.999,13.419,15.305z M11.3,18.496c0.275,0.141,0.579,0.185,0.917,0.185
	c0.153,0,0.316-0.02,0.483-0.049c-0.197,0.471-0.402,0.954-0.615,1.453c-1.42,3.319-3.03,7.081-2.707,9.845
	c0.412,3.505,1.31,6.431,2.26,9.529c0.065,0.212,0.131,0.431,0.196,0.645c0.037,0.121,0.074,0.242,0.111,0.364
	c0.039,0.127,0.077,0.252,0.115,0.38c0.244,0.808,0.487,1.629,0.721,2.485c0.128,0.464,0.07,0.873-0.165,1.182
	c-0.22,0.288-0.573,0.46-0.946,0.46c-0.26,0-0.888-0.096-1.13-0.98c-0.229-0.837-0.464-1.639-0.698-2.43
	c-0.039-0.131-0.077-0.26-0.116-0.39c-0.037-0.125-0.075-0.25-0.112-0.375c-0.063-0.21-0.126-0.425-0.189-0.633
	c-0.937-3.114-1.821-6.056-2.276-9.54c-0.41-3.14,1.304-7.509,2.816-11.364c0.193-0.491,0.374-0.96,0.554-1.427
	C10.73,18.123,10.985,18.335,11.3,18.496z M9.042,42.383c0.179,0.612,0.358,1.235,0.534,1.875c0.347,1.265,1.309,1.716,2.094,1.716
	c0.001,0,0.001,0,0.001,0c0.683,0,1.333-0.319,1.741-0.854c0.426-0.558,0.545-1.287,0.335-2.052
	c-0.188-0.687-0.382-1.355-0.577-2.009c1.385,0.494,2.385,1.804,2.385,3.356c0,1.972-1.604,3.576-3.576,3.576
	s-3.576-1.604-3.576-3.576C8.401,43.659,8.64,42.961,9.042,42.383z M5,16h3v1H5V16z M40.036,52.429
	c-10.355,0-18.75-8.395-18.75-18.75c0-10.355,8.395-18.75,18.75-18.75s18.75,8.395,18.75,18.75
	C58.786,44.034,50.391,52.429,40.036,52.429z M59,17h-7v-1h7V17z"/>
<path d="M40.036,16.179c-9.665,0-17.5,7.835-17.5,17.5c0,9.665,7.835,17.5,17.5,17.5s17.5-7.835,17.5-17.5
	C57.536,24.014,49.701,16.179,40.036,16.179z M32.804,33.902c0-3.994,3.238-7.232,7.232-7.232s7.232,3.238,7.232,7.232
	s-3.238,7.232-7.232,7.232S32.804,37.896,32.804,33.902z M48.339,47.83l-3.616-6.429l2.946-3.214l6.964,2.946
	C52.223,46.357,48.339,47.83,48.339,47.83z"/>
<circle cx="39.969" cy="34.237" r="1.406"/>
</svg>
