<?xml version="1.0" encoding="iso-8859-1"?>
<!-- Generator: Adobe Illustrator 17.0.0, SVG Export Plug-In . SVG Version: 6.00 Build 0)  -->
<!DOCTYPE svg PUBLIC "-//W3C//DTD SVG 1.1//EN" "http://www.w3.org/Graphics/SVG/1.1/DTD/svg11.dtd">
<svg version="1.1" id="Capa_1" xmlns="http://www.w3.org/2000/svg" xmlns:xlink="http://www.w3.org/1999/xlink" x="0px" y="0px"
	 width="64px" height="64px" viewBox="0 0 64 64" style="enable-background:new 0 0 64 64;" xml:space="preserve">
<path d="M54.886,51.574L54.51,51.95l-5.765-5.765l-0.877-0.877C33.832,31.021,17.729,9.279,14.847,4.642
	c-2.882-4.637-8.835,1.566-9.963-1.065C3.756,0.945,3.505,2.198,3.505,2.198C2.816,5.394,8.205,11.66,8.205,11.66
	s0.069-0.091,0.195-0.233c2.532,4.076,12.465,19.673,23.313,31.502c-0.286,0.783-0.235,1.545,0.235,2.04l9.561,10.07
	c0.81,0.853,2.525,0.589,3.83-0.588l2.955-2.666c0.659-0.287,1.13-0.566,1.458-0.834l2.878,2.878l-0.376,0.376l5.89,5.89
	c0.727,0.727,1.905,0.727,2.632,0c0.727-0.727,0.727-1.905,0-2.632L54.886,51.574z M47.987,46.848l-1.043,1.043l-0.656-0.656
	l1.058-1.058l0.413-0.413l0.656,0.656L47.987,46.848z M38.726,43.949c-0.748,0.696-1.863,0.747-2.49,0.113l-3.046-3.082
	l-0.346,0.312c-0.245,0.221-0.447,0.461-0.626,0.706C21.348,30.076,11.441,14.439,9.14,10.723c1.742-1.417,5.755-3.194,10.606,4.433
	c3.604,5.666,11.222,14.832,17.327,21.912c-0.261,0.441-0.591,0.996-1.124,1.44l2.997,3.032
	C39.573,42.175,39.475,43.253,38.726,43.949z M42.078,51.238c-1.077,0-1.95-0.873-1.95-1.949c0-1.077,0.873-1.95,1.95-1.95
	c1.077,0,1.949,0.873,1.949,1.95C44.027,50.365,43.154,51.238,42.078,51.238z"/>
</svg>
