<?xml version="1.0" encoding="iso-8859-1"?>
<!-- Generator: Adobe Illustrator 17.0.0, SVG Export Plug-In . SVG Version: 6.00 Build 0)  -->
<!DOCTYPE svg PUBLIC "-//W3C//DTD SVG 1.1//EN" "http://www.w3.org/Graphics/SVG/1.1/DTD/svg11.dtd">
<svg version="1.1" id="Capa_1" xmlns="http://www.w3.org/2000/svg" xmlns:xlink="http://www.w3.org/1999/xlink" x="0px" y="0px"
	 width="64px" height="64px" viewBox="0 0 64 64" style="enable-background:new 0 0 64 64;" xml:space="preserve">
<g>
	<path d="M9.625,20.5h15.5c0.567,0,1.395-0.485,1.697-1.019l3.161-5.231H9.625c-4.418,0-8,3.582-8,8v2.647
		C3.315,22.258,6.265,20.5,9.625,20.5z"/>
	<path d="M54.375,11h-18.75c-1.105,0-2.439,0.78-2.981,1.743l-0.91,1.507l-3.629,6.007C27.564,21.22,26.23,22,25.125,22h-15.5
		c-4.418,0-8,3.582-8,8v14.75v1.75c0,4.418,3.582,8,8,8h44.75c4.418,0,8-3.582,8-8v-1.75v-22.5V19
		C62.375,14.582,58.793,11,54.375,11z M32,24.866c2.413,0,4.458,1.557,5.198,3.719h-3.291v2h3.591v1.971h-3.591v2h3.591v1.972
		h-3.591v2h3.291c-0.74,2.162-2.785,3.719-5.198,3.719s-4.458-1.557-5.198-3.719h3.105v-2h-3.406v-1.972h3.406v-2h-3.406v-1.971
		h3.406v-2h-3.105C27.542,26.422,29.587,24.866,32,24.866z M23.807,35.832c0.553,0,1,0.447,1,1c0,3.967,3.227,7.193,7.193,7.193
		s7.193-3.227,7.193-7.193c0-0.553,0.447-1,1-1s1,0.447,1,1c0,4.731-3.593,8.636-8.193,9.136v2.811h3.903c0.553,0,1,0.447,1,1
		s-0.447,1-1,1H32h-4.903c-0.553,0-1-0.447-1-1s0.447-1,1-1H31v-2.811c-4.6-0.5-8.193-4.405-8.193-9.136
		C22.807,36.279,23.254,35.832,23.807,35.832z"/>
</g>
</svg>
