<?xml version="1.0" encoding="iso-8859-1"?>
<!-- Generator: Adobe Illustrator 17.0.0, SVG Export Plug-In . SVG Version: 6.00 Build 0)  -->
<!DOCTYPE svg PUBLIC "-//W3C//DTD SVG 1.1//EN" "http://www.w3.org/Graphics/SVG/1.1/DTD/svg11.dtd">
<svg version="1.1" id="Capa_1" xmlns="http://www.w3.org/2000/svg" xmlns:xlink="http://www.w3.org/1999/xlink" x="0px" y="0px"
	 width="64px" height="64px" viewBox="0 0 64 64" style="enable-background:new 0 0 64 64;" xml:space="preserve">
<g>
	<path d="M13.368,28.833c-1.104,0-2,0.896-2,2c0,10.605,8.112,19.347,18.456,20.356V58H18.753c-1.104,0-2,0.896-2,2s0.896,2,2,2
		h13.071h13.071c1.104,0,2-0.896,2-2s-0.896-2-2-2H33.824v-6.811c10.345-1.009,18.457-9.751,18.457-20.356c0-1.104-0.896-2-2-2
		s-2,0.896-2,2c0,9.074-7.383,16.457-16.457,16.457s-16.456-7.383-16.456-16.457C15.368,29.729,14.473,28.833,13.368,28.833z"/>
	<path d="M30.472,44.274h2.883c5.861,0,10.612-4.751,10.612-10.612H19.86C19.86,39.523,24.611,44.274,30.472,44.274z"/>
	<path d="M33.416,2.735h-2.883c-5.861,0-10.612,4.751-10.612,10.612h24.107C44.028,7.486,39.277,2.735,33.416,2.735z"/>
	<rect x="19.921" y="15.454" width="23.984" height="4"/>
	<rect x="20.008" y="21.417" width="23.984" height="4"/>
	<rect x="19.832" y="27.583" width="23.984" height="4"/>
</g>
</svg>
