<?xml version="1.0" encoding="iso-8859-1"?>
<!-- Generator: Adobe Illustrator 17.0.0, SVG Export Plug-In . SVG Version: 6.00 Build 0)  -->
<!DOCTYPE svg PUBLIC "-//W3C//DTD SVG 1.1//EN" "http://www.w3.org/Graphics/SVG/1.1/DTD/svg11.dtd">
<svg version="1.1" id="Capa_1" xmlns="http://www.w3.org/2000/svg" xmlns:xlink="http://www.w3.org/1999/xlink" x="0px" y="0px"
	 width="64px" height="64px" viewBox="0 0 64 64" style="enable-background:new 0 0 64 64;" xml:space="preserve">
<path d="M8.792,44.429h6.499l17.898,11.754c2.486,1.373,6.216-2.783,6.216-6.216V14.226c0-3.433-3.108-8.184-6.216-6.216
	L15.324,20.809H8.792c-3.433,0-6.216,2.783-6.216,6.216v11.188C2.576,41.646,5.359,44.429,8.792,44.429z"/>
<path d="M45.429,14.94c6.794,0,12.321,7.653,12.321,17.06s-5.527,17.06-12.321,17.06c-1.104,0-2,0.896-2,2s0.896,2,2,2
	c9,0,16.321-9.447,16.321-21.06s-7.321-21.06-16.321-21.06c-1.104,0-2,0.896-2,2S44.324,14.94,45.429,14.94z"/>
<path d="M43.928,40.596c-1.104,0-2,0.896-2,2s0.896,2,2,2c4.292,0,7.529-5.415,7.529-12.596s-3.237-12.596-7.529-12.596
	c-1.104,0-2,0.896-2,2s0.896,2,2,2c1.405,0,3.529,3.429,3.529,8.596S45.333,40.596,43.928,40.596z"/>
</svg>
