<?xml version="1.0" encoding="iso-8859-1"?>
<!-- Generator: Adobe Illustrator 17.0.0, SVG Export Plug-In . SVG Version: 6.00 Build 0)  -->
<!DOCTYPE svg PUBLIC "-//W3C//DTD SVG 1.1//EN" "http://www.w3.org/Graphics/SVG/1.1/DTD/svg11.dtd">
<svg version="1.1" id="Capa_1" xmlns="http://www.w3.org/2000/svg" xmlns:xlink="http://www.w3.org/1999/xlink" x="0px" y="0px"
	 width="64px" height="64px" viewBox="0 0 64 64" style="enable-background:new 0 0 64 64;" xml:space="preserve">
<path d="M59.436,17.526H5.447v34.283h53.989V17.526z M14.895,49.821l1.156-5.255h32.779l1.157,5.255H14.895z M56.978,42.542H7.905
	V20.416h49.073V42.542z"/>
<circle cx="21.4" cy="47.314" r="0.771"/>
<circle cx="43.767" cy="47.314" r="0.771"/>
<path d="M23.749,35.365c0-0.017-0.008-0.031-0.01-0.047c-0.041-1.607-0.937-2.993-2.246-3.747c-0.026-0.022-0.048-0.049-0.08-0.066
	c-0.031-0.017-0.065-0.021-0.099-0.03c-0.612-0.316-1.298-0.513-2.034-0.513c-0.827,0-1.593,0.241-2.258,0.635
	c-0.025,0.01-0.052,0.013-0.075,0.027c-0.015,0.009-0.022,0.023-0.036,0.033c-1.257,0.792-2.1,2.183-2.1,3.775
	c0,0.023,0.007,0.045,0.007,0.068v0v0.001c0.026,1.637,0.94,3.047,2.275,3.805c0.021,0.016,0.036,0.037,0.061,0.05
	c0.019,0.01,0.041,0.008,0.06,0.015c0.621,0.327,1.316,0.53,2.066,0.53c0.839,0,1.615-0.246,2.286-0.649
	c0.017-0.008,0.035-0.005,0.052-0.015c0.015-0.009,0.022-0.022,0.035-0.033c1.256-0.792,2.098-2.182,2.098-3.773
	c0-0.017-0.005-0.033-0.005-0.051C23.746,35.375,23.749,35.37,23.749,35.365z M21.495,38.081l-1.101-1.796
	c-0.143-0.235-0.451-0.308-0.688-0.165c-0.235,0.145-0.309,0.452-0.165,0.688l1.11,1.81c-0.421,0.182-0.884,0.285-1.371,0.285
	c-0.42,0-0.817-0.087-1.19-0.224l1.027-1.894c0.132-0.243,0.042-0.546-0.201-0.678c-0.239-0.131-0.546-0.042-0.678,0.201
	l-1.027,1.893c-0.7-0.525-1.193-1.302-1.343-2.201h2.146c0.276,0,0.5-0.224,0.5-0.5s-0.224-0.5-0.5-0.5h-2.159
	c0.112-0.892,0.558-1.672,1.215-2.222l1.123,1.831c0.094,0.154,0.258,0.239,0.426,0.239c0.09,0,0.18-0.024,0.262-0.074
	c0.235-0.145,0.309-0.452,0.164-0.688l-1.131-1.843c0.42-0.181,0.881-0.282,1.366-0.282c0.421,0,0.82,0.087,1.194,0.225
	l-1.044,1.924c-0.132,0.243-0.042,0.546,0.201,0.678c0.075,0.041,0.157,0.061,0.238,0.061c0.177,0,0.349-0.095,0.44-0.262
	l1.043-1.922c0.699,0.525,1.192,1.302,1.341,2.201h-2.475c-0.276,0-0.5,0.224-0.5,0.5c0,0.276,0.224,0.5,0.5,0.5h2.488
	C22.595,36.754,22.15,37.532,21.495,38.081z"/>
<path d="M50.305,35.365c0-0.013-0.007-0.024-0.008-0.038c-0.038-1.614-0.936-3.004-2.251-3.759
	c-0.026-0.021-0.047-0.047-0.077-0.064c-0.03-0.016-0.062-0.019-0.094-0.028c-0.613-0.318-1.3-0.515-2.037-0.515
	c-0.826,0-1.592,0.241-2.257,0.633c-0.025,0.01-0.054,0.013-0.078,0.028c-0.015,0.009-0.023,0.024-0.037,0.035
	c-1.256,0.792-2.099,2.183-2.099,3.774c0,1.666,0.927,3.104,2.28,3.873c0.021,0.017,0.038,0.039,0.063,0.052
	c0.019,0.011,0.042,0.008,0.062,0.016c0.621,0.327,1.316,0.529,2.065,0.529c0.839,0,1.616-0.247,2.288-0.65
	c0.016-0.007,0.032-0.004,0.048-0.014c0.014-0.008,0.021-0.021,0.032-0.03c1.258-0.792,2.101-2.183,2.101-3.776
	c0-0.019-0.005-0.036-0.006-0.054C50.303,35.373,50.305,35.369,50.305,35.365z M48.051,38.081l-1.102-1.796
	c-0.144-0.235-0.452-0.308-0.688-0.165c-0.235,0.145-0.309,0.452-0.165,0.688l1.11,1.81c-0.42,0.182-0.883,0.284-1.369,0.284
	c-0.42,0-0.818-0.087-1.191-0.224l1.027-1.894c0.132-0.243,0.042-0.546-0.201-0.678c-0.24-0.131-0.545-0.042-0.678,0.201
	L43.769,38.2c-0.7-0.525-1.194-1.302-1.344-2.2h2.146c0.276,0,0.5-0.224,0.5-0.5s-0.224-0.5-0.5-0.5h-2.159
	c0.112-0.892,0.558-1.672,1.216-2.221l1.122,1.83c0.094,0.154,0.258,0.239,0.426,0.239c0.09,0,0.18-0.024,0.262-0.074
	c0.235-0.145,0.309-0.452,0.164-0.688l-1.13-1.843c0.42-0.181,0.882-0.283,1.367-0.283c0.421,0,0.819,0.087,1.192,0.225
	l-1.043,1.924c-0.132,0.243-0.042,0.546,0.201,0.678c0.076,0.041,0.157,0.061,0.238,0.061c0.177,0,0.349-0.095,0.439-0.262
	l1.042-1.922c0.7,0.525,1.193,1.302,1.342,2.201h-2.476c-0.276,0-0.5,0.224-0.5,0.5c0,0.276,0.224,0.5,0.5,0.5h2.489
	C49.151,36.754,48.707,37.533,48.051,38.081z"/>
<rect x="9.846" y="22.934" width="45.192" height="5.351"/>
</svg>
