<?xml version="1.0" encoding="iso-8859-1"?>
<!-- Generator: Adobe Illustrator 17.0.0, SVG Export Plug-In . SVG Version: 6.00 Build 0)  -->
<!DOCTYPE svg PUBLIC "-//W3C//DTD SVG 1.1//EN" "http://www.w3.org/Graphics/SVG/1.1/DTD/svg11.dtd">
<svg version="1.1" id="Capa_1" xmlns="http://www.w3.org/2000/svg" xmlns:xlink="http://www.w3.org/1999/xlink" x="0px" y="0px"
	 width="64px" height="64px" viewBox="0 0 64 64" style="enable-background:new 0 0 64 64;" xml:space="preserve">
<path d="M50.486,52.525c1.624,1.805,3.057,3.792,4.167,5.952c0.987,1.922,2.04,3.378,4.281,3.803
	c1.89,0.358,2.697-2.533,0.798-2.893c-2.046-0.388-2.634-2.791-3.634-4.394c-1.019-1.632-2.187-3.159-3.473-4.584
	c0.693-0.965,1.263-2.159,1.554-3.655l-4.177-4.177c-1.703,3.942-4.493,6.358-7.128,7.721l3.881,3.881
	C46.754,54.179,48.606,53.854,50.486,52.525z"/>
<path d="M8.506,25.379c0.387,0.136,0.775,0.218,1.164,0.25c0.121,0.01,0.241,0.022,0.362,0.022c0.391,0,0.784-0.054,1.178-0.149
	c2.516-0.605,5.126-3.041,8.189-6.103c2.609-2.609,4.847-4.955,5.792-7.241c0.132-0.32,0.23-0.633,0.305-0.942
	c0.129-0.53,0.18-1.046,0.139-1.553c-0.031-0.388-0.13-0.77-0.263-1.151c-0.327-0.94-0.947-1.87-1.908-2.83
	C21.09,3.308,17.933,2,14.574,2c-3.359,0-6.517,1.308-8.892,3.683c-4.902,4.903-4.902,12.879,0,17.782
	C6.637,24.419,7.57,25.05,8.506,25.379z"/>
<path d="M22.574,40.175l-0.138,0.138l2.475,2.475l0.435-0.435l0.712-0.712l0.712-0.712l11.264,8.85c0,0,1.458-0.151,3.333-0.987
	c2.388-1.065,5.444-3.272,7.094-7.756c0.272-0.74,0.52-1.519,0.705-2.389L27.634,9.87c0.023,0.993-0.163,2.007-0.595,3.053
	c-1.086,2.627-3.462,5.127-6.226,7.891c-3.874,3.875-7.128,6.838-10.781,6.838c-0.058,0-0.115-0.008-0.173-0.01l14.139,11.109
	l-0.712,0.712L22.574,40.175z"/>
</svg>
