<?xml version="1.0" encoding="iso-8859-1"?>
<!-- Generator: Adobe Illustrator 17.0.0, SVG Export Plug-In . SVG Version: 6.00 Build 0)  -->
<!DOCTYPE svg PUBLIC "-//W3C//DTD SVG 1.1//EN" "http://www.w3.org/Graphics/SVG/1.1/DTD/svg11.dtd">
<svg version="1.1" id="Capa_1" xmlns="http://www.w3.org/2000/svg" xmlns:xlink="http://www.w3.org/1999/xlink" x="0px" y="0px"
	 width="64px" height="64px" viewBox="0 0 64 64" style="enable-background:new 0 0 64 64;" xml:space="preserve">
<path d="M30.44,35.341c2.024,0,3.712-1.427,4.123-3.328c2.21-0.186,3.685-0.518,3.685-0.895c0-0.379-1.475-0.71-3.685-0.897
	c-0.411-1.901-2.099-3.328-4.123-3.328c-2.025,0-3.713,1.427-4.125,3.328c-2.208,0.188-3.683,0.518-3.683,0.897
	c0,0.378,1.475,0.709,3.683,0.895C26.727,33.914,28.415,35.341,30.44,35.341z"/>
<path d="M30.44,45.743c8.066,0,14.627-6.562,14.627-14.626c0-8.065-6.562-14.626-14.627-14.626c-8.065,0-14.627,6.562-14.627,14.626
	C15.813,39.182,22.375,45.743,30.44,45.743z M30.44,21.95c5.063,0,9.166,4.105,9.166,9.167c0,5.061-4.103,9.166-9.166,9.166
	s-9.167-4.104-9.167-9.166C21.273,26.055,25.378,21.95,30.44,21.95z"/>
<path d="M9.55,54.985l0.819,0.714l7.1-4.438c3.74,2.413,8.19,3.819,12.972,3.819c4.786,0,9.241-1.409,12.983-3.826l7.114,4.445
	l0.762-0.665L47.97,51.13c-0.422-0.495-0.362-1.239,0.133-1.661c0.497-0.422,1.24-0.362,1.661,0.133l3.312,3.886l0.845-1.237
	l-4.247-6.839c2.971-3.991,4.729-8.938,4.729-14.294c0-5.148-1.628-9.912-4.39-13.817l3.567-6.974l-0.664-0.578l-3.153,3.698
	c-0.233,0.274-0.564,0.415-0.898,0.415c-0.271,0-0.542-0.094-0.764-0.282c-0.495-0.422-0.555-1.166-0.133-1.661L51.14,8.2
	l-0.603-0.525l-6.238,3.898c-3.914-2.78-8.693-4.42-13.858-4.42c-5.161,0-9.936,1.637-13.847,4.412l-6.225-3.891l-0.66,0.574
	l3.128,3.67c0.422,0.495,0.363,1.239-0.133,1.661c-0.222,0.189-0.493,0.281-0.763,0.281c-0.334,0-0.665-0.14-0.898-0.414
	L7.932,9.798l-0.607,0.528l3.558,6.954c-2.771,3.909-4.404,8.681-4.404,13.837c0,5.366,1.765,10.32,4.744,14.313L6.917,52.25
	l0.855,1.188l3.271-3.837c0.423-0.495,1.166-0.554,1.661-0.133c0.496,0.422,0.555,1.167,0.133,1.661L9.55,54.985z M52.585,30.326
	c0.436,0,0.791,0.354,0.791,0.791c0,0.436-0.355,0.791-0.791,0.791c-0.437,0-0.791-0.354-0.791-0.791
	C51.794,30.681,52.148,30.326,52.585,30.326z M8.751,32.217c-0.437,0-0.791-0.354-0.791-0.791s0.354-0.791,0.791-0.791
	c0.436,0,0.791,0.354,0.791,0.791S9.187,32.217,8.751,32.217z M31.231,53.874c-0.437,0-0.791-0.354-0.791-0.791
	s0.354-0.791,0.791-0.791c0.437,0,0.791,0.354,0.791,0.791S31.668,53.874,31.231,53.874z M30.44,9.002
	c0.437,0,0.791,0.354,0.791,0.791c0,0.436-0.354,0.791-0.791,0.791c-0.437,0-0.791-0.354-0.791-0.791
	C29.649,9.356,30.004,9.002,30.44,9.002z M11.813,31.117c0-10.271,8.356-18.626,18.627-18.626s18.627,8.356,18.627,18.626
	S40.711,49.743,30.44,49.743S11.813,41.388,11.813,31.117z"/>
</svg>
