<?xml version="1.0" encoding="iso-8859-1"?>
<!-- Generator: Adobe Illustrator 17.0.0, SVG Export Plug-In . SVG Version: 6.00 Build 0)  -->
<!DOCTYPE svg PUBLIC "-//W3C//DTD SVG 1.1//EN" "http://www.w3.org/Graphics/SVG/1.1/DTD/svg11.dtd">
<svg version="1.1" id="Capa_1" xmlns="http://www.w3.org/2000/svg" xmlns:xlink="http://www.w3.org/1999/xlink" x="0px" y="0px"
	 width="64px" height="64px" viewBox="0 0 64 64" style="enable-background:new 0 0 64 64;" xml:space="preserve">
<path d="M12.03,7.57H8.252c-1.686,0-3.051,1.365-3.051,3.052v33.999c0,1.685,1.366,3.052,3.051,3.052h3.778
	c1.686,0,3.051-1.366,3.051-3.052V10.622C15.082,8.936,13.716,7.57,12.03,7.57z M10.142,43.165c-0.963,0-1.744-0.78-1.744-1.743
	c0-0.963,0.781-1.742,1.744-1.742c0.962,0,1.743,0.779,1.743,1.742C11.885,42.385,11.104,43.165,10.142,43.165z M10.142,14.836
	c-0.963,0-1.744-0.779-1.744-1.742c0-0.963,0.781-1.743,1.744-1.743c0.962,0,1.743,0.78,1.743,1.743
	C11.885,14.057,11.104,14.836,10.142,14.836z"/>
<path d="M22.563,11.441h-3.048c-1.36,0-2.462,1.104-2.462,2.463v27.434c0,1.36,1.102,2.463,2.462,2.463h3.048
	c1.36,0,2.462-1.103,2.462-2.463V13.904C25.025,12.545,23.923,11.441,22.563,11.441z M21.039,41.98
	c-0.869,0-1.573-0.704-1.573-1.573c0-0.869,0.704-1.573,1.573-1.573c0.869,0,1.574,0.704,1.574,1.573
	C22.612,41.276,21.907,41.98,21.039,41.98z M21.039,16.408c-0.869,0-1.573-0.704-1.573-1.572c0-0.87,0.704-1.574,1.573-1.574
	c0.869,0,1.574,0.704,1.574,1.574C22.612,15.704,21.907,16.408,21.039,16.408z"/>
<path d="M31.918,12.408h-2.867c-1.278,0-2.315,1.037-2.315,2.314V40.52c0,1.278,1.037,2.315,2.315,2.315h2.867
	c1.278,0,2.315-1.037,2.315-2.315V14.723C34.233,13.445,33.197,12.408,31.918,12.408z M30.485,41.104
	c-0.816,0-1.478-0.661-1.478-1.478c0-0.815,0.662-1.477,1.478-1.477c0.816,0,1.478,0.661,1.478,1.477
	C31.963,40.443,31.301,41.104,30.485,41.104z M30.485,17.093c-0.816,0-1.478-0.661-1.478-1.478c0-0.816,0.662-1.477,1.478-1.477
	c0.816,0,1.478,0.66,1.478,1.477C31.963,16.432,31.301,17.093,30.485,17.093z"/>
<path d="M40.743,13.82h-2.6c-1.16,0-2.1,0.94-2.1,2.101v23.401c0,1.16,0.94,2.1,2.1,2.1h2.6c1.16,0,2.101-0.94,2.101-2.1V15.921
	C42.844,14.761,41.903,13.82,40.743,13.82z M39.443,39.21c-0.682,0-1.234-0.553-1.234-1.235c0-0.682,0.553-1.234,1.234-1.234
	c0.682,0,1.235,0.553,1.235,1.234C40.678,38.657,40.124,39.21,39.443,39.21z M39.443,19.137c-0.682,0-1.234-0.552-1.234-1.233
	c0-0.683,0.553-1.235,1.234-1.235c0.682,0,1.235,0.553,1.235,1.235C40.678,18.585,40.124,19.137,39.443,19.137z"/>
<path d="M48.726,16.467h-2.102c-0.938,0-1.697,0.761-1.697,1.697v18.914c0,0.938,0.76,1.697,1.697,1.697h2.102
	c0.937,0,1.698-0.76,1.698-1.697V18.164C50.423,17.228,49.663,16.467,48.726,16.467z M47.674,37.133
	c-0.51,0-0.924-0.413-0.924-0.925c0-0.511,0.414-0.924,0.924-0.924c0.511,0,0.925,0.413,0.925,0.924
	C48.6,36.72,48.185,37.133,47.674,37.133z M47.674,19.926c-0.51,0-0.924-0.414-0.924-0.924c0-0.512,0.414-0.926,0.924-0.926
	c0.511,0,0.925,0.414,0.925,0.926C48.6,19.512,48.185,19.926,47.674,19.926z"/>
<path d="M57.907,45.646l-3.081-0.57l0.667-3.601c1.207-0.223,2.211-1.163,2.447-2.442c0.307-1.656-0.788-3.249-2.445-3.556
	c-1.657-0.307-3.249,0.787-3.556,2.445c-0.237,1.278,0.363,2.516,1.411,3.157l-0.667,3.599l-4.586-0.849
	c-0.223-1.207-1.164-2.211-2.442-2.447c-1.657-0.307-3.249,0.788-3.556,2.444c-0.306,1.657,0.788,3.249,2.445,3.557
	c1.279,0.237,2.517-0.363,3.157-1.41l4.586,0.849l-0.754,4.066c-0.012,0.067-0.018,0.134-0.018,0.2c0,0.515,0.366,0.973,0.891,1.07
	c0.592,0.109,1.161-0.281,1.271-0.873l0.753-4.066l3.081,0.57c0.067,0.012,0.134,0.017,0.2,0.017c0.515,0,0.973-0.366,1.07-0.891
	C58.89,46.323,58.499,45.755,57.907,45.646z"/>
</svg>
