<?xml version="1.0" encoding="iso-8859-1"?>
<!-- Generator: Adobe Illustrator 16.0.0, SVG Export Plug-In . SVG Version: 6.00 Build 0)  -->
<!DOCTYPE svg PUBLIC "-//W3C//DTD SVG 1.1//EN" "http://www.w3.org/Graphics/SVG/1.1/DTD/svg11.dtd">
<svg version="1.1" id="Capa_1" xmlns="http://www.w3.org/2000/svg" xmlns:xlink="http://www.w3.org/1999/xlink" x="0px" y="0px"
	 width="24.926px" height="25.168px" viewBox="0 0 24.926 25.168" style="enable-background:new 0 0 24.926 25.168;"
	 xml:space="preserve">
<path d="M15.99,0.338c-0.118,0.117-0.192,0.254-0.237,0.392l0.058,0.022C15.844,0.584,15.912,0.446,15.99,0.338z"/>
<path d="M10.399,25.092h14.527v-2.201H13.542C12.715,23.879,11.633,24.64,10.399,25.092z"/>
<path d="M24.926,22.158v-2.203h-9.888c-0.201,0.796-0.525,1.535-0.959,2.203H24.926z"/>
<path d="M15.275,18.129c0,0.32-0.028,0.634-0.067,0.942c3.993-0.003,8.351-0.009,8.493-0.009c0.259,0,0.281-0.885,0.281-0.885
	c0.33-2.856-1.082-5.519-1.082-5.519c-0.425-0.943-3.013-1.759-3.013-1.759c-1.38-0.484-1.391-0.97-1.391-0.97
	c-2.715,5.351-4.776,0.013-4.776,0.013c-0.151,0.582-1.986,1.243-2.698,1.48C13.534,12.614,15.275,15.164,15.275,18.129z"/>
<path d="M13.037,7.104c0.208,1.718,1.688,3.5,3.03,3.5c1.544,0,3.012-1.872,3.242-3.5c0.085-0.063,0.227-0.214,0.28-0.553
	c0,0,0.331-1.18-0.106-1.054c0.153-0.456,0.658-2.228-0.32-3.328c0,0-0.458-0.623-1.573-0.956c-0.038-0.032-0.078-0.067-0.123-0.098
	c0,0,0.023,0.027,0.059,0.08c-0.062-0.021-0.129-0.035-0.196-0.053c-0.06-0.062-0.128-0.127-0.205-0.197c0,0,0.067,0.07,0.148,0.186
	c-0.031-0.007-0.058-0.015-0.088-0.021c-0.052-0.077-0.113-0.155-0.189-0.235c0,0,0.033,0.062,0.074,0.158
	c-0.204-0.148-0.617-0.5-0.617-0.889c0,0-0.256,0.119-0.407,0.34c0.06-0.182,0.159-0.352,0.32-0.484c0,0-0.169,0.083-0.327,0.273
	c-0.121,0.066-0.398,0.258-0.491,0.596l-0.088-0.046c0.043-0.095,0.105-0.195,0.187-0.296c0,0-0.12,0.105-0.226,0.277l-0.178-0.09
	c0.053-0.099,0.123-0.201,0.217-0.302c0,0-0.095,0.076-0.199,0.199c0.03-0.117,0.025-0.251-0.335,0.148c0,0-1.627,0.701-2.097,2.161
	c0,0-0.277,0.66,0.09,2.601c-0.521-0.247-0.166,1.028-0.166,1.028C12.805,6.89,12.949,7.04,13.037,7.104z M15.99,0.338
	c-0.079,0.108-0.146,0.246-0.18,0.414l-0.058-0.022C15.798,0.592,15.872,0.455,15.99,0.338z"/>
<path d="M14.079,18.129c0-3.887-3.151-7.039-7.039-7.039S0,14.242,0,18.129c0,3.89,3.152,7.039,7.04,7.039
	S14.079,22.019,14.079,18.129z M4.566,22.214c-0.177-0.712,0.43-1.478,1.359-1.709c0.419-0.105,0.827-0.083,1.169,0.037v-7.875
	c0,0,0.047-0.346,0.503-0.4c0,0-0.006,0.393,2.385,2.063c1.227,0.945,1.222,2.238,1.222,2.238c-1.594-2.5-3.222-2.412-3.222-2.412
	l-0.021,7.478H7.959c-0.005,0.63-0.573,1.245-1.389,1.447C5.643,23.316,4.671,22.875,4.566,22.214z"/>
<g>
</g>
<g>
</g>
<g>
</g>
<g>
</g>
<g>
</g>
<g>
</g>
<g>
</g>
<g>
</g>
<g>
</g>
<g>
</g>
<g>
</g>
<g>
</g>
<g>
</g>
<g>
</g>
<g>
</g>
</svg>
