<?xml version="1.0" encoding="utf-8"?>
<!-- Generator: Adobe Illustrator 16.0.0, SVG Export Plug-In . SVG Version: 6.00 Build 0)  -->
<!DOCTYPE svg PUBLIC "-//W3C//DTD SVG 1.1//EN" "http://www.w3.org/Graphics/SVG/1.1/DTD/svg11.dtd">
<svg version="1.1" id="Layer_1" xmlns="http://www.w3.org/2000/svg" xmlns:xlink="http://www.w3.org/1999/xlink" x="0px" y="0px"
	 width="32px" height="32px" viewBox="0 0 32 32" enable-background="new 0 0 32 32" xml:space="preserve">
<g>
	<path d="M30.997,5.813c-0.077-0.119-0.199-0.2-0.338-0.225L30.65,5.587c-1.293,0.425-4.145,0.385-7.391-0.18
		c-3.247-0.565-5.942-1.492-7.017-2.329l-0.008-0.001c-0.139-0.024-0.282,0.011-0.394,0.097c-0.112,0.086-0.183,0.215-0.195,0.355
		l-0.411,4.673c0.119-0.017,0.237-0.039,0.357-0.039c0.513,0,1.005,0.156,1.425,0.451c0.427,0.3,0.745,0.727,0.916,1.212
		c0.301-0.22,0.755-0.374,1.275-0.394c0.928-0.035,1.698,0.361,1.717,0.884c0.02,0.522-0.718,0.974-1.646,1.008
		c-0.428,0.016-0.818-0.063-1.121-0.2l0.623,4.717c0.723-0.696,1.75-1.057,2.815-0.872c1.61,0.28,2.735,1.698,2.701,3.283
		c0,0.013-0.006,0.025-0.016,0.034c-0.01,0.008-0.023,0.012-0.036,0.009l-5.261-0.916l0.393,2.98
		c0.033,0.279,0.051,0.557,0.057,0.833c0.333,0.113,0.676,0.208,1.032,0.27c3.521,0.613,6.936-1.541,7.897-4.983L31.06,6.213
		C31.096,6.077,31.073,5.932,30.997,5.813z M26.921,12.073c-0.195,0.486-1.051,0.598-1.915,0.25
		c-0.862-0.346-1.402-1.02-1.208-1.505c0.195-0.485,1.052-0.597,1.915-0.25C26.575,10.914,27.116,11.588,26.921,12.073z"/>
	<path d="M16.067,10.582c-0.018-0.133-0.09-0.252-0.2-0.33c-0.082-0.057-0.178-0.087-0.276-0.087c-0.034,0-0.068,0.004-0.103,0.011
		l-0.008,0.002c-0.986,0.839-3.51,1.832-6.572,2.503c-2.005,0.439-3.858,0.658-5.249,0.658c-0.733,0-1.337-0.061-1.768-0.182
		l-0.008,0.002c-0.131,0.029-0.244,0.111-0.312,0.227c-0.068,0.116-0.083,0.255-0.044,0.383l2.989,9.647
		C5.424,26.185,8,27.98,10.808,27.98c0.47,0,0.946-0.05,1.422-0.155c3.321-0.728,5.551-3.854,5.159-7.231L16.067,10.582z
		 M5.551,18.463c-0.003-0.497,0.711-0.904,1.595-0.91s1.603,0.394,1.606,0.891s-0.711,0.905-1.595,0.91
		C6.273,19.36,5.554,18.961,5.551,18.463z M11.581,24.863c-1.463,0.32-2.907-0.448-3.496-1.763
		c-0.021-0.049-0.021-0.105,0.003-0.153c0.024-0.048,0.068-0.082,0.121-0.093l5.594-1.227c0.052-0.011,0.106,0.001,0.148,0.035
		c0.042,0.034,0.066,0.084,0.067,0.137C14.034,23.24,13.043,24.543,11.581,24.863z M13.293,18.009
		c-0.806,0.365-1.625,0.294-1.83-0.159c-0.206-0.454,0.28-1.116,1.085-1.481c0.806-0.365,1.625-0.294,1.83,0.159
		C14.584,16.981,14.099,17.644,13.293,18.009z"/>
</g>
</svg>
