<?xml version="1.0" encoding="utf-8"?>
<!-- Generator: Adobe Illustrator 16.0.0, SVG Export Plug-In . SVG Version: 6.00 Build 0)  -->
<!DOCTYPE svg PUBLIC "-//W3C//DTD SVG 1.1//EN" "http://www.w3.org/Graphics/SVG/1.1/DTD/svg11.dtd">
<svg version="1.1" id="Layer_1" xmlns="http://www.w3.org/2000/svg" xmlns:xlink="http://www.w3.org/1999/xlink" x="0px" y="0px"
	 width="32px" height="32px" viewBox="0 0 32 32" enable-background="new 0 0 32 32" xml:space="preserve">
<g>
	<path d="M26.359,9.038c-0.369,0.376-0.826,0.657-1.331,0.84c0.202,1.123,0.582,2.173,1.13,3.088h5.247V9.04
		c-0.642,0.654-1.533,1.062-2.52,1.062C27.896,10.101,27.001,9.693,26.359,9.038z"/>
	<path d="M1.103,14.753v13.944c0,0.593,0.481,1.075,1.075,1.075h5.642c0.559,0,1.025-0.428,1.071-0.984
		c0.07-0.838,0.109-1.7,0.109-2.582c0-4.607-0.961-8.724-2.469-11.453H1.103z"/>
	<path d="M6.149,9.038c-0.643,0.656-1.538,1.063-2.526,1.063c-0.986,0-1.878-0.408-2.52-1.062v3.927h5.247
		C6.898,12.051,7.277,11,7.479,9.878C6.975,9.695,6.517,9.414,6.149,9.038z"/>
	<path d="M30.337,2.592H2.171c-0.593,0-1.075,0.481-1.075,1.075v2.898c0,1.396,1.131,2.526,2.526,2.526S6.149,7.96,6.149,6.564
		c0,1.396,1.131,2.526,2.526,2.526s2.526-1.131,2.526-2.526c0,1.396,1.131,2.526,2.526,2.526c1.395,0,2.526-1.131,2.526-2.526
		c0,1.396,1.131,2.526,2.526,2.526s2.526-1.131,2.526-2.526c0,1.396,1.131,2.526,2.526,2.526s2.526-1.131,2.526-2.526
		c0,1.396,1.131,2.526,2.526,2.526s2.526-1.131,2.526-2.526V3.667C31.412,3.073,30.931,2.592,30.337,2.592z"/>
	<path d="M23.509,26.206c0,0.882,0.039,1.743,0.108,2.582c0.046,0.557,0.513,0.984,1.071,0.984h5.642
		c0.594,0,1.075-0.481,1.075-1.075V14.753h-5.427C24.47,17.482,23.509,21.599,23.509,26.206z"/>
</g>
</svg>
