<?xml version="1.0" encoding="utf-8"?>
<!-- Generator: Adobe Illustrator 16.0.4, SVG Export Plug-In . SVG Version: 6.00 Build 0)  -->
<!DOCTYPE svg PUBLIC "-//W3C//DTD SVG 1.1//EN" "http://www.w3.org/Graphics/SVG/1.1/DTD/svg11.dtd">
<svg version="1.1" id="Layer_1" xmlns="http://www.w3.org/2000/svg" xmlns:xlink="http://www.w3.org/1999/xlink" x="0px" y="0px"
	 width="109.607px" height="110.883px" viewBox="0 0 109.607 110.883" enable-background="new 0 0 109.607 110.883"
	 xml:space="preserve">
<path d="M41.775,11.921c-1.399-1.867-1.399-4.667,0.467-6.533c2.333-1.4,5.134-1.4,6.533,0.933l10.734,13.066
	c-1.399,0-2.799,0.467-4.199,1.4c-0.934-1.867-2.8-3.267-4.667-4.2c-1.4-0.467-3.267-0.933-4.667-0.933c-0.467,0-0.933,0-1.4,0
	L41.775,11.921z M109.443,51.588l-3.266-27.067c-0.467-3.733-3.734-6.534-7.467-6.067c-3.734,0.467-6.067,3.733-5.602,7.934
	l1.399,11.2l-2.332-2.333l-28-33.6c-1.4-1.867-4.668-2.333-6.534-0.467c-1.866,1.4-2.333,4.667-0.466,6.533l19.133,23.333
	c-0.935,0-1.4,0.467-2.334,0.933c0.934,0,1.867,0.467,2.801,0.934c5.133,2.333,7.467,8.867,5.133,14l-12.6,26.132h0.467
	c4.199,0,8.4,2.333,10.732,5.602c2.801,4.199,2.334,9.332,0,13.533c4.2-1.4,9.334-4.201,15.399-8.867
	C107.575,73.053,110.376,65.12,109.443,51.588z M36.642,20.788c0.467-0.934,1.4-1.867,2.333-2.8c-1.4-1.867-4.667-2.333-6.533-0.466
	c0,0,0,0.466-0.467,0.466c0.467,0,0.934,0,0.934,0C34.309,18.454,35.71,19.854,36.642,20.788z M66.043,79.12l-9.801,6.068
	l1.399-2.802l18.667-39.199c0.934-2.333,0-5.133-2.334-6.067c-2.333-0.933-5.133,0-6.066,2.333L54.843,66.52
	c-1.4-1.4-2.8-2.8-5.133-3.732l14.933-31.267c0.934-2.333,0-5.134-2.333-6.067c-2.334-0.933-5.133,0-6.066,2.333L41.309,59.053
	l-5.6-2.8l14.467-28.467c0.933-2.333,0-5.133-2.333-6.067c-2.333-0.933-5.133,0-6.067,2.333L28.242,52.521
	c-1.866-0.934-4.199-1.4-6.065-1.4l10.266-21.467c0.934-2.333,0-5.133-2.333-6.067c-1.867-0.933-4.667,0-6.065,2.333L8.177,59.52
	l-3.734,8.4l-1.399,3.268c-5.601,12.6-4.667,27.066,13.065,35.467c13.533,6.533,24.733,4.666,31.268,0l26.133-15.867
	c3.268-2.334,4.201-6.532,2.334-9.801C73.976,77.72,69.777,77.254,66.043,79.12z"/>
</svg>
