<?xml version="1.0" encoding="utf-8"?>
<!-- Generator: Adobe Illustrator 16.0.4, SVG Export Plug-In . SVG Version: 6.00 Build 0)  -->
<!DOCTYPE svg PUBLIC "-//W3C//DTD SVG 1.1//EN" "http://www.w3.org/Graphics/SVG/1.1/DTD/svg11.dtd">
<svg version="1.1" id="Layer_1" xmlns="http://www.w3.org/2000/svg" xmlns:xlink="http://www.w3.org/1999/xlink" x="0px" y="0px"
	 width="112px" height="100px" viewBox="0 0 112 100" enable-background="new 0 0 112 100" xml:space="preserve">
<path d="M37.333,98h37.333v2H37.333V98L37.333,98z M79.334,100H112v-2H79.334V100z M0,100h32.667v-2H0V100z M37.333,86h37.333v-2
	H37.333V86L37.333,86z M79.334,86H112v-2H79.334V86z M0,86h32.667v-2H0V86z M37.333,72h37.333v-2H37.333V72L37.333,72z M79.334,72
	H112v-2H79.334V72z M0,72h32.667v-2H0V72z M79.334,58H112v-2H79.334V58z M0,58h32.667v-2H0V58z M79.334,42v2H112v-2H79.334z M0,44
	h32.667v-2H0V44z M0,30h32.667v-2H0V30z M0,16h32.667v-2H0V16z M0,2h32.667V0H0V2z"/>
</svg>
