<?xml version="1.0" encoding="utf-8"?>
<!-- Generator: Adobe Illustrator 16.0.4, SVG Export Plug-In . SVG Version: 6.00 Build 0)  -->
<!DOCTYPE svg PUBLIC "-//W3C//DTD SVG 1.1//EN" "http://www.w3.org/Graphics/SVG/1.1/DTD/svg11.dtd">
<svg version="1.1" id="Layer_1" xmlns="http://www.w3.org/2000/svg" xmlns:xlink="http://www.w3.org/1999/xlink" x="0px" y="0px"
	 width="112px" height="94.8px" viewBox="0 0 112 94.8" enable-background="new 0 0 112 94.8" xml:space="preserve">
<path d="M111.066,50.934c-1.627-2.849-5.65-9.151-12.566-15.36V30.4c0-2.036-0.533-14.594-13.047-22.774
	c0.033-0.367-0.129-0.738-0.463-0.944C80.037,3.633,70.988,0,56,0C41.013,0,31.961,3.633,27.008,6.682
	c-0.335,0.206-0.495,0.578-0.462,0.944C14.033,15.807,13.5,28.364,13.5,30.4v5.174C6.583,41.781,2.56,48.085,0.933,50.933
	C0.466,51.867,0,52.8,0,54.201v23.332C0,86.867,7.466,94.8,17.267,94.8h77.467c9.332,0,17.266-7.467,17.266-17.268V54.201
	C112,53.267,111.533,51.867,111.066,50.934z M14.5,30.4c0-1.963,0.518-14.051,12.659-21.959c0.284,0.118,0.614,0.118,0.897-0.056
	C32.791,5.472,41.48,2,56,2c14.522,0,23.209,3.472,27.942,6.385c0.164,0.101,0.346,0.148,0.523,0.148
	c0.135,0,0.264-0.034,0.387-0.085C96.982,16.356,97.5,28.437,97.5,30.4v4.303C88.531,26.98,75.029,19.667,56,19.667
	c-19.029,0-32.531,7.313-41.5,15.036V30.4z M94.732,85H17.265c-3.052,0-5.851-1.976-7.156-4.666h13.224c7.933,0,14-6.066,14-14
	s-6.067-14-14-14h-12.5C16.377,44.229,30.285,29,56,29c25.715,0,39.622,15.229,45.167,23.333h-12.5c-7.934,0-14,6.066-14,14
	s6.066,14,14,14h13.223C100.584,83.024,97.785,85,94.732,85z M74.666,50.934c-3.266,2.8-5.6,6.532-6.533,10.731H43.867
	c-0.934-4.199-3.268-7.933-6.533-10.731V43c0,0,4.667-4.666,18.667-4.666C70,38.333,74.666,43,74.666,43V50.934z"/>
</svg>
