<?xml version="1.0" encoding="utf-8"?>
<!-- Generator: Adobe Illustrator 16.0.4, SVG Export Plug-In . SVG Version: 6.00 Build 0)  -->
<!DOCTYPE svg PUBLIC "-//W3C//DTD SVG 1.1//EN" "http://www.w3.org/Graphics/SVG/1.1/DTD/svg11.dtd">
<svg version="1.1" id="Layer_1" xmlns="http://www.w3.org/2000/svg" xmlns:xlink="http://www.w3.org/1999/xlink" x="0px" y="0px"
	 width="112px" height="72.708px" viewBox="0 0 112 72.708" enable-background="new 0 0 112 72.708" xml:space="preserve">
<path d="M43,16.709h-2V7.376h2V16.709z M57,7.375h-2v9.333h2V7.375z M71,7.375h-2v9.333h2V7.375z M5.667,21.375v-4.667h-2v4.667H0
	v14h3.667v4.668h2v-4.668h6.935c0.467-6.066,3.732-10.732,8.866-14H5.667z M112,1.775v53.667c0,1.399-1.867,2.333-2.8,1.399
	c0,0-8.4-15.866-19.601-20.066c2.334,3.732,3.733,7.934,3.733,12.602c0,13.065-10.733,23.332-23.334,23.332h-4.666h-14H42
	c-13.066,0-23.333-10.732-23.333-23.332V41.91c0-11.201,9.333-20.535,20.534-20.535H84c14,0,25.2-21,25.2-21
	C110.133-0.558,112,0.375,112,1.775z M65.334,63.376c2.799,0,4.666-2.334,4.666-4.668c0-2.799-2.334-4.666-4.666-4.666h-14
	c-2.8,0-4.667,2.334-4.667,4.666c0,2.801,2.333,4.668,4.667,4.668H65.334z M84,49.376c0-6.283-3.812-11.381-9.334-13.236v6.701
	c0,0-3.732-2.799-9.332-2.799v-4.668H57v4.668h-2v-4.668h-8.333v4.668c-7,0-9.333,5.6-9.333,5.6v-9.454
	C31.811,38.15,28,43.464,28,49.376c0,6.447,4.316,11.664,9.943,13.39c-0.396-1.295-0.609-2.66-0.609-4.058c0-7.934,6.533-14,14-14
	h14c7.934,0,14,6.066,14,14c0,0.377-0.027,0.748-0.059,1.117C82.193,57.218,84,53.439,84,49.376z"/>
</svg>
