<?xml version="1.0" encoding="utf-8"?>
<!-- Generator: Adobe Illustrator 16.0.4, SVG Export Plug-In . SVG Version: 6.00 Build 0)  -->
<!DOCTYPE svg PUBLIC "-//W3C//DTD SVG 1.1//EN" "http://www.w3.org/Graphics/SVG/1.1/DTD/svg11.dtd">
<svg version="1.1" id="Layer_1" xmlns="http://www.w3.org/2000/svg" xmlns:xlink="http://www.w3.org/1999/xlink" x="0px" y="0px"
	 width="80.334px" height="106.546px" viewBox="0 0 80.334 106.546" enable-background="new 0 0 80.334 106.546"
	 xml:space="preserve">
<path d="M32.667,48.546c-4.902,0-9.521,1.227-13.572,3.383c1.52-2.078,3.111-4.056,4.705-5.65
	c8.4-8.866,30.333-10.733,33.602-10.733c2.8,0,6.065-1.867,2.332-4.2c0,0-47.133-28.467-50.399-30.8c-3.733-1.867-4.2,1.4-2.8,4.667
	c1.867,4.667,9.333,27.066,5.133,37.333C7,53.279,0,65.414,0,77.546c0,3.349,1.632,2.168,3.683-0.633
	c-0.004,0.211-0.016,0.422-0.016,0.633c0,15.99,13.009,29,29,29s29-13.01,29-29C61.666,61.556,48.657,48.546,32.667,48.546z
	 M5.979,73.431c2.529-4.139,5.043-9.065,5.687-10.352c1.188-1.781,2.714-4.236,4.431-6.828c4.578-3.57,10.328-5.706,16.569-5.706
	c14.888,0,27,12.113,27,27c0,4.939-1.34,9.569-3.666,13.559v-0.309c-7.61,0-8.552-8.307-8.584-8.584v-9.334
	c0-0.412-0.062-10.082-5.416-10.082c-4.285,0-5.417,3.543-5.417,5.416v18.666c0,0.16-0.044,3.918-3.917,3.918
	c-3.78,0-3.914-3.521-3.917-3.918V68.212c0-1.873-1.132-5.416-5.417-5.416s-5.417,3.543-5.417,5.416v14
	c0,8.457-8.234,8.584-8.584,8.584v0.309c-2.326-3.987-3.666-8.618-3.666-13.559C5.667,76.149,5.772,74.775,5.979,73.431z
	 M32.667,104.546c-9.467,0-17.807-4.901-22.627-12.297c2.291-0.232,9.377-1.638,9.377-10.037v-14c0-0.16,0.044-3.916,3.917-3.916
	c3.78,0,3.914,3.519,3.917,3.916v18.666c0,1.875,1.132,5.418,5.417,5.418s5.417-3.543,5.417-5.418V68.212
	c0-0.16,0.044-3.916,3.917-3.916c3.804,0,3.916,8.496,3.916,8.582l0.004,9.408c0.011,0.098,1.048,9.471,9.359,9.984
	C50.456,99.654,42.124,104.546,32.667,104.546z M80.334,86.878v18.668h-2v-4.668H61.601c0,0,2.334-2.799,5.133-9.332h11.602v-4.668
	H80.334z"/>
</svg>
