<?xml version="1.0" encoding="utf-8"?>
<!-- Generator: Adobe Illustrator 16.0.4, SVG Export Plug-In . SVG Version: 6.00 Build 0)  -->
<!DOCTYPE svg PUBLIC "-//W3C//DTD SVG 1.1//EN" "http://www.w3.org/Graphics/SVG/1.1/DTD/svg11.dtd">
<svg version="1.1" id="Layer_1" xmlns="http://www.w3.org/2000/svg" xmlns:xlink="http://www.w3.org/1999/xlink" x="0px" y="0px"
	 width="110.67px" height="110.504px" viewBox="0 0 110.67 110.504" enable-background="new 0 0 110.67 110.504"
	 xml:space="preserve">
<path d="M44.574,47.973l-0.707-0.707l6.533-6.534l0.707,0.707L44.574,47.973z M41.774,50.772l-0.707-0.707l-6.533,6.534l0.707,0.707
	L41.774,50.772z M32.441,60.105l-0.707-0.707l-6.533,6.533l0.707,0.707L32.441,60.105z M109.553,28.019
	c-5.6-0.934-18.666-1.867-24.267,3.732L63.694,53.344c3.267,0.013,6.554,1.292,9.026,3.517c2.33,2.098,3.66,5.021,3.744,8.229
	c0.09,3.392-1.265,6.74-3.715,9.191c-3.283,2.817-11.162,10.692-13.013,13.005c-2.203,2.449-5.239,3.781-8.577,3.781
	c-3.322,0-6.473-1.321-8.872-3.721c-2.302-2.07-3.631-4.992-3.716-8.203c-0.006-0.233,0.012-0.467,0.02-0.699l-15.84,15.84
	l-6.064-6.066c0,0,8.005-8.005,18.312-18.312l-2.8-2.801l0.707-0.707l2.8,2.801c2.758-2.76,5.668-5.668,8.627-8.626l-2.801-2.8
	l0.707-0.707l2.801,2.8c2.871-2.872,5.778-5.779,8.625-8.625l-2.8-2.8l0.707-0.707l2.8,2.8
	C66.07,38.835,76.605,28.301,79.221,25.686c5.601-5.601,4.666-18.2,3.732-24.268c0-1.399,0.934-1.866,1.867-0.933l25.667,25.666
	C110.954,26.619,110.487,28.019,109.553,28.019z M62.07,54.969l-21.791,21.79c-0.152,0.771-0.227,1.557-0.206,2.346
	c0.073,2.795,1.228,5.336,3.249,7.156c2.145,2.143,4.917,3.307,7.839,3.307c2.907,0,5.548-1.153,7.435-3.252
	c1.855-2.32,9.854-10.319,13.137-13.133c2.119-2.123,3.312-5.072,3.234-8.053c-0.074-2.795-1.228-5.336-3.248-7.154
	c-2.215-1.992-5.156-3.134-8.074-3.134C63.106,54.842,62.584,54.893,62.07,54.969z M4.566,100.173l5.939,5.938l7.588-7.59
	l-5.939-5.938L4.566,100.173z M0,98.838l11.668,11.666l0.707-0.707L0.707,98.131L0,98.838z"/>
</svg>
