<?xml version="1.0" encoding="utf-8"?>
<!-- Generator: Adobe Illustrator 16.0.4, SVG Export Plug-In . SVG Version: 6.00 Build 0)  -->
<!DOCTYPE svg PUBLIC "-//W3C//DTD SVG 1.1//EN" "http://www.w3.org/Graphics/SVG/1.1/DTD/svg11.dtd">
<svg version="1.1" id="Layer_1" xmlns="http://www.w3.org/2000/svg" xmlns:xlink="http://www.w3.org/1999/xlink" x="0px" y="0px"
	 width="112px" height="112px" viewBox="0 0 112 112" enable-background="new 0 0 112 112" xml:space="preserve">
<path d="M56,18.667c-20.533,0-37.333,16.8-37.333,37.333S35.467,93.334,56,93.334S93.334,76.533,93.334,56S76.533,18.667,56,18.667z
	 M56,70c-7.934,0-14-6.066-14-14c0-7.934,6.066-14,14-14s14,6.066,14,14C70,63.934,63.934,70,56,70z M0,0v112h112V0H0z M9.333,4.667
	c2.8,0,4.667,1.867,4.667,4.667s-1.867,4.667-4.667,4.667s-4.667-1.867-4.667-4.667C4.667,6.533,6.533,4.667,9.333,4.667z
	 M9.333,107.334c-2.8,0-4.667-1.867-4.667-4.668C4.666,99.867,6.533,98,9.333,98S14,99.867,14,102.666
	C14,105.467,12.133,107.334,9.333,107.334z M56,102.666c-25.667,0-46.667-21-46.667-46.666c0-25.667,21-46.667,46.667-46.667
	c25.666,0,46.666,21,46.666,46.667C102.666,81.666,81.666,102.666,56,102.666z M102.666,107.334c-2.799,0-4.666-1.867-4.666-4.668
	C98,99.867,99.867,98,102.666,98c2.801,0,4.668,1.867,4.668,4.666C107.334,105.467,105.467,107.334,102.666,107.334z M102.666,14
	C99.867,14,98,12.133,98,9.333s1.867-4.667,4.666-4.667c2.801,0,4.668,1.867,4.668,4.667S105.467,14,102.666,14z"/>
</svg>
