<?xml version="1.0" encoding="utf-8"?>
<!-- Generator: Adobe Illustrator 16.0.4, SVG Export Plug-In . SVG Version: 6.00 Build 0)  -->
<!DOCTYPE svg PUBLIC "-//W3C//DTD SVG 1.1//EN" "http://www.w3.org/Graphics/SVG/1.1/DTD/svg11.dtd">
<svg version="1.1" id="Layer_1" xmlns="http://www.w3.org/2000/svg" xmlns:xlink="http://www.w3.org/1999/xlink" x="0px" y="0px"
	 width="102.611px" height="112px" viewBox="0 0 102.611 112" enable-background="new 0 0 102.611 112" xml:space="preserve">
<path d="M37.333,14c0-7.732,6.268-14,14-14c7.731,0,14,6.268,14,14s-6.269,14-14,14C43.6,28,37.333,21.732,37.333,14z
	 M101.266,34.066c-1.528-1.528-3.984-1.783-5.854-0.81L82.031,16.05c-0.156-0.202-0.448-0.236-0.647-0.081
	c-0.201,0.156-0.237,0.446-0.081,0.647l13.337,17.149c-0.124,0.101-0.259,0.186-0.373,0.301L82.132,46.2L69.998,34.066
	c-1.866-1.4-13.066-1.4-14-1.4l-4.666,32.668l-4.667-32.667c-0.935,0-12.133,0-13.534,1.4L20.533,46.2L8.399,34.066
	c-1.866-1.866-5.134-1.866-7,0c-1.866,1.867-1.866,5.134,0,7c0,0,14.934,14.934,15.866,15.868c0.935,0.934,2.333,1.399,3.268,1.399
	c1.399,0,2.333-0.467,3.267-1.399c0.933-0.935,8.867-7.468,8.867-7.468v29.867h4.666V112h28V79.334h4.666V48.533
	c0,0,7.467,7.467,8.399,8.4c0.934,0.933,2.334,1.399,3.269,1.399c1.398,0,2.332-0.467,3.266-1.399l15.867-15.868
	C103.132,39.2,103.132,35.933,101.266,34.066z"/>
</svg>
