<?xml version="1.0" encoding="utf-8"?>
<!-- Generator: Adobe Illustrator 16.0.4, SVG Export Plug-In . SVG Version: 6.00 Build 0)  -->
<!DOCTYPE svg PUBLIC "-//W3C//DTD SVG 1.1//EN" "http://www.w3.org/Graphics/SVG/1.1/DTD/svg11.dtd">
<svg version="1.1" id="Layer_1" xmlns="http://www.w3.org/2000/svg" xmlns:xlink="http://www.w3.org/1999/xlink" x="0px" y="0px"
	 width="112px" height="112px" viewBox="0 0 112 112" enable-background="new 0 0 112 112" xml:space="preserve">
<path d="M93.334,86.334c0,3.732-3.268,7-7,7c-3.734,0-7-3.268-7-7c0-3.734,3.266-7,7-7C90.066,79.334,93.334,82.6,93.334,86.334z
	 M112,38.267V106.4c0,3.266-2.334,5.6-5.6,5.6H5.6c-3.267,0-5.6-2.334-5.6-5.6V38.267c0-3.078,2.083-5.301,5.055-5.551
	C6.003,29.973,8.602,28,11.666,28c1.96,0,3.73,0.808,5,2.106L98,6.99C98.006,3.128,101.137,0,105,0c3.866,0,7,3.134,7,7
	s-3.134,7-7,7c-2.773,0-5.163-1.617-6.296-3.956L26.236,32.666H106.4C109.666,32.667,112,35,112,38.267z M18.667,74.666H14V98h4.667
	V74.666L18.667,74.666z M28,74.666h-4.667V98H28V74.666z M37.333,74.666h-4.667V98h4.667V74.666L37.333,74.666z M46.667,74.666H42
	V98h4.667V74.666L46.667,74.666z M56,74.666h-4.667V98H56V74.666z M65.334,74.666h-4.668V98h4.668V74.666z M65.334,46.667H14v14
	h51.334V46.667z M98,86.334c0-6.534-5.133-11.668-11.666-11.668c-6.534,0-11.668,5.134-11.668,11.668
	C74.666,92.867,79.8,98,86.334,98C92.867,98,98,92.867,98,86.334z M98,46.667H74.666v14H98V46.667z"/>
</svg>
