<?xml version="1.0" encoding="utf-8"?>
<!-- Generator: Adobe Illustrator 16.0.4, SVG Export Plug-In . SVG Version: 6.00 Build 0)  -->
<!DOCTYPE svg PUBLIC "-//W3C//DTD SVG 1.1//EN" "http://www.w3.org/Graphics/SVG/1.1/DTD/svg11.dtd">
<svg version="1.1" id="Layer_1" xmlns="http://www.w3.org/2000/svg" xmlns:xlink="http://www.w3.org/1999/xlink" x="0px" y="0px"
	 width="79.541px" height="112px" viewBox="0 0 79.541 112" enable-background="new 0 0 79.541 112" xml:space="preserve">
<path d="M9.8,13.533C1.399,10.733,0,1.866,0,1.866c3.267-0.934,6.533-1.4,7-1.4c4.667,5.133,7,7,7,7S10.267,13.066,9.8,13.533z
	 M73.733,71.867c-3.268-1.4-5.602-0.934-10.733,4.199c-5.133,4.666-5.133,20.533-10.267,26.6c-7,7.934-13.067,9.334-20.067,9.334
	s-9.333-0.467-14.933-4.666C-2.333,93.8,11.2,65.8,11.2,65.8s19.133-46.2,21-51.8s-1.4-1.867-1.4-1.867S24.733,16.8,21.467,16.8
	c-3.733,0-5.6-0.933-5.6-0.933l2.333-7C28.467,9.333,27.067,0,37.333,0c8.4,0,12.133,9.8,10.266,17.733
	C45.267,25.667,42,36.4,42,36.4s5.133,3.733,3.267,9.333c-1.398,4.2-6.065,6.066-6.065,6.066s3.267,4.2,1.399,8.866
	c-1.867,4.668-6.533,5.601-6.533,5.601s3.733,5.602,1.867,9.801c-2.334,5.134-6.533,6.065-6.533,6.065c-2.334,3.269-1.4,7,0,8.4
	c3.732,2.801,7.934-0.468,8.867-7c1.866-12.134,4.666-18.666,6.532-22.867c3.733-7.933,11.2-10.733,10.267-19.133
	c-0.934-7.933,2.802-6.533,4.668-2.8c1.865,3.267,15.398,24.733,18.199,29.399C81.2,72.334,79.334,74.666,73.733,71.867z
	 M27.533,40.133c0,0,3.267,5.133,6.067,6.067c3.732,1.4,6.065,0.466,7-1.867c0.933-2.333,0.467-4.667-4.201-5.6
	C34.067,37.8,27.533,40.133,27.533,40.133z M22.867,55.066c0,0,3.267,5.134,6.065,6.066c3.733,1.4,6.067,0.468,7-1.866
	c0.935-2.332,0.467-4.667-4.199-5.6C29.399,52.733,22.867,55.066,22.867,55.066z M31.267,75.133c1.4-1.865,0.935-4.199-3.267-6.533
	c-2.8-0.934-9.333,0-9.333,0S21,74.666,23.8,76.066C27.533,77.934,29.867,77.467,31.267,75.133z M53.666,81.666
	C53.666,79.334,51.8,77,49,77c-2.334,0-4.666,1.867-4.666,4.666c0,2.801,1.866,4.668,4.666,4.668
	C51.334,86.334,53.666,84,53.666,81.666z M58.334,67.666c0-2.332-1.867-4.666-4.668-4.666C51.334,63,49,64.867,49,67.666
	c0,2.801,1.867,4.668,4.666,4.668C56,72.334,58.334,70,58.334,67.666z"/>
</svg>
