<?xml version="1.0" encoding="utf-8"?>
<!-- Generator: Adobe Illustrator 16.0.4, SVG Export Plug-In . SVG Version: 6.00 Build 0)  -->
<!DOCTYPE svg PUBLIC "-//W3C//DTD SVG 1.1//EN" "http://www.w3.org/Graphics/SVG/1.1/DTD/svg11.dtd">
<svg version="1.1" id="Layer_1" xmlns="http://www.w3.org/2000/svg" xmlns:xlink="http://www.w3.org/1999/xlink" x="0px" y="0px"
	 width="105.018px" height="109.949px" viewBox="0 0 105.018 109.949" enable-background="new 0 0 105.018 109.949"
	 xml:space="preserve">
<path d="M105.017,46.241c0,3.803-1.472,7.369-4.144,10.04l-40.601,40.6l-1.414-1.414l40.601-40.6
	c2.294-2.294,3.558-5.357,3.558-8.626s-1.264-6.333-3.558-8.626s-5.357-3.557-8.626-3.557c-3.27,0-6.332,1.263-8.626,3.557
	L29.94,89.881c-3.349,3.35-7.743,5.193-12.374,5.193S8.542,93.23,5.192,89.881C1.844,86.531,0,82.138,0,77.508
	s1.844-9.023,5.192-12.373l28.006-27.54l1.402,1.426l-28,27.533c-2.965,2.965-4.602,6.857-4.602,10.953s1.636,7.988,4.606,10.959
	c2.971,2.973,6.863,4.607,10.959,4.607s7.988-1.637,10.959-4.607l52.268-52.266c2.671-2.671,6.236-4.143,10.04-4.143
	c3.803,0,7.368,1.472,10.039,4.143C103.547,38.873,105.017,42.438,105.017,46.241z M64.94,58.135l-1.414,1.414l14.467,14.466
	l1.414-1.414L64.94,58.135z M12.193,64.215l19.134,19.133l1.414-1.414L13.608,62.801L12.193,64.215z M46.741,67.934L27.608,48.801
	l-1.414,1.414l19.133,19.132L46.741,67.934z M45.794,97.814l12.133,12.135l1.414-1.414L47.208,96.4L45.794,97.814z M43.234,35.508
	c10.268-9.8,27.534-3.267,27.534-3.267c0.466,0,0.933-1.4,0.466-1.867L41.835,0.508c-0.934-0.933-1.867-0.467-1.867,0.467
	c0,0,6.533,17.733-3.268,27.533l-2.8,2.8l6.533,7L43.234,35.508z"/>
</svg>
