<?xml version="1.0" encoding="utf-8"?>
<!-- Generator: Adobe Illustrator 16.0.4, SVG Export Plug-In . SVG Version: 6.00 Build 0)  -->
<!DOCTYPE svg PUBLIC "-//W3C//DTD SVG 1.1//EN" "http://www.w3.org/Graphics/SVG/1.1/DTD/svg11.dtd">
<svg version="1.1" id="Layer_1" xmlns="http://www.w3.org/2000/svg" xmlns:xlink="http://www.w3.org/1999/xlink" x="0px" y="0px"
	 width="88.575px" height="112px" viewBox="0 0 88.575 112" enable-background="new 0 0 88.575 112" xml:space="preserve">
<path d="M86.798,0H25.199c-1.4,0-2.332,1.4-1.4,2.8c0,0,11.201,9.8,17.268,18.2c3.268,5.133,6.066,15.867,6.066,23.333V56h-5.229
	C40.935,45.649,32.01,37.333,21,37.333c-11.666,0-21,9.333-21,21V79.8C0,97.533,14.467,112,32.201,112h0.465
	c17.734,0,32.201-14.467,32.201-32.2V44.333c0-7.467,2.334-17.267,6.066-23.333C77.466,10.267,88.199,2.8,88.199,2.8
	C89.132,1.4,88.199,0,86.798,0z M28.467,65.334h4.666v9.332c0,2.334-1.866,4.668-4.666,4.668c-2.334,0-4.668-1.867-4.668-4.668
	c0,0,0-1.398,0-4.666S26.133,65.334,28.467,65.334z M28.467,98H28C17.732,98,9.332,89.6,9.332,79.334V57.867
	c0-6.067,5.133-11.201,11.668-11.201h0.467c5.73,0,10.384,3.952,11.438,9.333h-4.438H28h-0.467C20.066,56,14,62.066,14,69.533v5.133
	c0,7.467,6.066,14,14,14c7.467,0,14-6.066,14-14v-9.332h5.132v14C47.132,89.6,38.732,98,28.467,98z M79.333,51.333H84V56v9.334V70
	h-4.666v-4.666H70V56h9.334V51.333L79.333,51.333z"/>
</svg>
