<?xml version="1.0" encoding="utf-8"?>
<!-- Generator: Adobe Illustrator 16.0.4, SVG Export Plug-In . SVG Version: 6.00 Build 0)  -->
<!DOCTYPE svg PUBLIC "-//W3C//DTD SVG 1.1//EN" "http://www.w3.org/Graphics/SVG/1.1/DTD/svg11.dtd">
<svg version="1.1" id="Layer_1" xmlns="http://www.w3.org/2000/svg" xmlns:xlink="http://www.w3.org/1999/xlink" x="0px" y="0px"
	 width="111.943px" height="111.533px" viewBox="0 0 111.943 111.533" enable-background="new 0 0 111.943 111.533"
	 xml:space="preserve">
<path d="M111.943,3.267L108.677,0c-5.133,5.134-8.866,1.867-10.733,3.734c-1.663,1.662-1.835,4.43-0.536,6.335l-4.601,4.153
	l-4.311-4.309L87.79,10.62l4.272,4.273l-6.125,5.528l-3.976-3.975l-0.707,0.707l3.938,3.939l-14.31,12.917
	c-3.067-2.879-8.363-6.475-14.474-6.475c-3.267,0-6.533,0.933-10.267,3.733c-1.867,1.4-5.133,3.267-8.867,6.066
	c4.667,5.134,1.4,10.267-3.732,15.4c-3.268,3.267-6.533,5.6-9.801,5.6c-1.866,0-3.732-0.933-5.6-2.8
	c-0.934-0.934-1.4-1.867-1.867-2.8c-3.267,2.8-6.066,5.134-8.867,7.933c-12.133,12.135-8.399,27.067,4.2,39.201
	c7,7.466,14.935,11.666,22.4,11.666c5.6,0,11.2-2.334,16.333-7.467c2.8-2.801,5.133-5.6,7.934-8.867
	c-0.934-0.466-1.867-0.934-2.801-1.866c-5.133-5.134-1.867-10.267,3.267-15.866c3.268-3.268,6.534-5.6,9.801-5.6
	c1.866,0,3.733,0.466,5.134,2.332c2.8-3.732,4.667-7,6.533-8.866c7.48-10.202,1.583-19.655-2.893-24.578l13.065-14.474l3.938,3.939
	l0.707-0.707l-3.976-3.975l5.527-6.125l4.273,4.273l0.707-0.707l-4.31-4.309l4.105-4.549c1.886,1.73,5.029,1.699,6.851-0.121
	C110.076,12.134,106.81,7.934,111.943,3.267z M74.609,60.667c-0.933,0.935-1.866,2.334-2.799,4.201c-0.934,0-2.334,0-2.801,0
	c-6.533,0-11.666,4.666-14.934,7.933c-10.267,10.268-8.399,18.2-5.133,22.866c-0.933,1.4-2.333,2.334-3.267,3.269
	c-3.733,3.731-7.467,5.6-11.667,5.6c-4.735,0-9.802-2.344-14.641-6.732l17.907-15.668l-8.399-8.399l-15.61,17.84
	c-3.823-4.532-5.856-9.229-5.856-13.64c0-4.2,1.867-7.935,5.601-11.668c0.933-0.934,1.866-1.865,3.267-3.267
	c2.333,1.867,5.133,2.333,7.466,2.333c6.534,0,11.2-4.199,14.935-7.933c7-7,8.399-13.067,7.467-17.734
	c1.867-0.933,3.267-2.333,4.2-2.8c1.867-1.4,4.2-2.333,6.066-2.333c3.425,0,6.843,2.076,9.297,4.151L52.212,50.868l8.398,8.399
	l12.209-13.525C75.743,49.253,78.732,54.959,74.609,60.667z"/>
</svg>
